%TF.GenerationSoftware,KiCad,Pcbnew,8.0.0*%
%TF.CreationDate,2024-03-24T21:45:21+02:00*%
%TF.ProjectId,pcb,7063622e-6b69-4636-9164-5f7063625858,rev?*%
%TF.SameCoordinates,Original*%
%TF.FileFunction,Copper,L1,Top*%
%TF.FilePolarity,Positive*%
%FSLAX46Y46*%
G04 Gerber Fmt 4.6, Leading zero omitted, Abs format (unit mm)*
G04 Created by KiCad (PCBNEW 8.0.0) date 2024-03-24 21:45:21*
%MOMM*%
%LPD*%
G01*
G04 APERTURE LIST*
G04 Aperture macros list*
%AMRoundRect*
0 Rectangle with rounded corners*
0 $1 Rounding radius*
0 $2 $3 $4 $5 $6 $7 $8 $9 X,Y pos of 4 corners*
0 Add a 4 corners polygon primitive as box body*
4,1,4,$2,$3,$4,$5,$6,$7,$8,$9,$2,$3,0*
0 Add four circle primitives for the rounded corners*
1,1,$1+$1,$2,$3*
1,1,$1+$1,$4,$5*
1,1,$1+$1,$6,$7*
1,1,$1+$1,$8,$9*
0 Add four rect primitives between the rounded corners*
20,1,$1+$1,$2,$3,$4,$5,0*
20,1,$1+$1,$4,$5,$6,$7,0*
20,1,$1+$1,$6,$7,$8,$9,0*
20,1,$1+$1,$8,$9,$2,$3,0*%
%AMFreePoly0*
4,1,19,0.500000,-0.750000,0.000000,-0.750000,0.000000,-0.744911,-0.071157,-0.744911,-0.207708,-0.704816,-0.327430,-0.627875,-0.420627,-0.520320,-0.479746,-0.390866,-0.500000,-0.250000,-0.500000,0.250000,-0.479746,0.390866,-0.420627,0.520320,-0.327430,0.627875,-0.207708,0.704816,-0.071157,0.744911,0.000000,0.744911,0.000000,0.750000,0.500000,0.750000,0.500000,-0.750000,0.500000,-0.750000,
$1*%
%AMFreePoly1*
4,1,19,0.000000,0.744911,0.071157,0.744911,0.207708,0.704816,0.327430,0.627875,0.420627,0.520320,0.479746,0.390866,0.500000,0.250000,0.500000,-0.250000,0.479746,-0.390866,0.420627,-0.520320,0.327430,-0.627875,0.207708,-0.704816,0.071157,-0.744911,0.000000,-0.744911,0.000000,-0.750000,-0.500000,-0.750000,-0.500000,0.750000,0.000000,0.750000,0.000000,0.744911,0.000000,0.744911,
$1*%
G04 Aperture macros list end*
%ADD10C,0.300000*%
%TA.AperFunction,NonConductor*%
%ADD11C,0.300000*%
%TD*%
%TA.AperFunction,NonConductor*%
%ADD12C,0.200000*%
%TD*%
%TA.AperFunction,SMDPad,CuDef*%
%ADD13FreePoly0,90.000000*%
%TD*%
%TA.AperFunction,SMDPad,CuDef*%
%ADD14FreePoly1,90.000000*%
%TD*%
%TA.AperFunction,SMDPad,CuDef*%
%ADD15FreePoly0,270.000000*%
%TD*%
%TA.AperFunction,SMDPad,CuDef*%
%ADD16FreePoly1,270.000000*%
%TD*%
%TA.AperFunction,SMDPad,CuDef*%
%ADD17R,0.700000X1.250000*%
%TD*%
%TA.AperFunction,SMDPad,CuDef*%
%ADD18RoundRect,0.250000X-0.450000X0.262500X-0.450000X-0.262500X0.450000X-0.262500X0.450000X0.262500X0*%
%TD*%
%TA.AperFunction,ComponentPad*%
%ADD19R,1.800000X1.800000*%
%TD*%
%TA.AperFunction,ComponentPad*%
%ADD20C,1.800000*%
%TD*%
%TA.AperFunction,SMDPad,CuDef*%
%ADD21RoundRect,0.250000X0.450000X-0.262500X0.450000X0.262500X-0.450000X0.262500X-0.450000X-0.262500X0*%
%TD*%
%TA.AperFunction,ComponentPad*%
%ADD22C,1.200000*%
%TD*%
%TA.AperFunction,SMDPad,CuDef*%
%ADD23O,0.570000X2.040000*%
%TD*%
%TA.AperFunction,ComponentPad*%
%ADD24R,1.700000X1.700000*%
%TD*%
%TA.AperFunction,ComponentPad*%
%ADD25O,1.700000X1.700000*%
%TD*%
%TA.AperFunction,ViaPad*%
%ADD26C,0.600000*%
%TD*%
%TA.AperFunction,Conductor*%
%ADD27C,0.600000*%
%TD*%
%TA.AperFunction,Conductor*%
%ADD28C,0.200000*%
%TD*%
G04 APERTURE END LIST*
D10*
D11*
X142750001Y-110878328D02*
X143750001Y-110878328D01*
X143750001Y-110878328D02*
X143107144Y-112378328D01*
X144964287Y-111378328D02*
X144964287Y-112378328D01*
X144607144Y-110806900D02*
X144250001Y-111878328D01*
X144250001Y-111878328D02*
X145178572Y-111878328D01*
X145750000Y-112235471D02*
X145821429Y-112306900D01*
X145821429Y-112306900D02*
X145750000Y-112378328D01*
X145750000Y-112378328D02*
X145678572Y-112306900D01*
X145678572Y-112306900D02*
X145750000Y-112235471D01*
X145750000Y-112235471D02*
X145750000Y-112378328D01*
X147178572Y-110878328D02*
X146464286Y-110878328D01*
X146464286Y-110878328D02*
X146392858Y-111592614D01*
X146392858Y-111592614D02*
X146464286Y-111521185D01*
X146464286Y-111521185D02*
X146607144Y-111449757D01*
X146607144Y-111449757D02*
X146964286Y-111449757D01*
X146964286Y-111449757D02*
X147107144Y-111521185D01*
X147107144Y-111521185D02*
X147178572Y-111592614D01*
X147178572Y-111592614D02*
X147250001Y-111735471D01*
X147250001Y-111735471D02*
X147250001Y-112092614D01*
X147250001Y-112092614D02*
X147178572Y-112235471D01*
X147178572Y-112235471D02*
X147107144Y-112306900D01*
X147107144Y-112306900D02*
X146964286Y-112378328D01*
X146964286Y-112378328D02*
X146607144Y-112378328D01*
X146607144Y-112378328D02*
X146464286Y-112306900D01*
X146464286Y-112306900D02*
X146392858Y-112235471D01*
X148178572Y-110878328D02*
X148321429Y-110878328D01*
X148321429Y-110878328D02*
X148464286Y-110949757D01*
X148464286Y-110949757D02*
X148535715Y-111021185D01*
X148535715Y-111021185D02*
X148607143Y-111164042D01*
X148607143Y-111164042D02*
X148678572Y-111449757D01*
X148678572Y-111449757D02*
X148678572Y-111806900D01*
X148678572Y-111806900D02*
X148607143Y-112092614D01*
X148607143Y-112092614D02*
X148535715Y-112235471D01*
X148535715Y-112235471D02*
X148464286Y-112306900D01*
X148464286Y-112306900D02*
X148321429Y-112378328D01*
X148321429Y-112378328D02*
X148178572Y-112378328D01*
X148178572Y-112378328D02*
X148035715Y-112306900D01*
X148035715Y-112306900D02*
X147964286Y-112235471D01*
X147964286Y-112235471D02*
X147892857Y-112092614D01*
X147892857Y-112092614D02*
X147821429Y-111806900D01*
X147821429Y-111806900D02*
X147821429Y-111449757D01*
X147821429Y-111449757D02*
X147892857Y-111164042D01*
X147892857Y-111164042D02*
X147964286Y-111021185D01*
X147964286Y-111021185D02*
X148035715Y-110949757D01*
X148035715Y-110949757D02*
X148178572Y-110878328D01*
X149607143Y-110878328D02*
X149750000Y-110878328D01*
X149750000Y-110878328D02*
X149892857Y-110949757D01*
X149892857Y-110949757D02*
X149964286Y-111021185D01*
X149964286Y-111021185D02*
X150035714Y-111164042D01*
X150035714Y-111164042D02*
X150107143Y-111449757D01*
X150107143Y-111449757D02*
X150107143Y-111806900D01*
X150107143Y-111806900D02*
X150035714Y-112092614D01*
X150035714Y-112092614D02*
X149964286Y-112235471D01*
X149964286Y-112235471D02*
X149892857Y-112306900D01*
X149892857Y-112306900D02*
X149750000Y-112378328D01*
X149750000Y-112378328D02*
X149607143Y-112378328D01*
X149607143Y-112378328D02*
X149464286Y-112306900D01*
X149464286Y-112306900D02*
X149392857Y-112235471D01*
X149392857Y-112235471D02*
X149321428Y-112092614D01*
X149321428Y-112092614D02*
X149250000Y-111806900D01*
X149250000Y-111806900D02*
X149250000Y-111449757D01*
X149250000Y-111449757D02*
X149321428Y-111164042D01*
X149321428Y-111164042D02*
X149392857Y-111021185D01*
X149392857Y-111021185D02*
X149464286Y-110949757D01*
X149464286Y-110949757D02*
X149607143Y-110878328D01*
X151035714Y-110878328D02*
X151178571Y-110878328D01*
X151178571Y-110878328D02*
X151321428Y-110949757D01*
X151321428Y-110949757D02*
X151392857Y-111021185D01*
X151392857Y-111021185D02*
X151464285Y-111164042D01*
X151464285Y-111164042D02*
X151535714Y-111449757D01*
X151535714Y-111449757D02*
X151535714Y-111806900D01*
X151535714Y-111806900D02*
X151464285Y-112092614D01*
X151464285Y-112092614D02*
X151392857Y-112235471D01*
X151392857Y-112235471D02*
X151321428Y-112306900D01*
X151321428Y-112306900D02*
X151178571Y-112378328D01*
X151178571Y-112378328D02*
X151035714Y-112378328D01*
X151035714Y-112378328D02*
X150892857Y-112306900D01*
X150892857Y-112306900D02*
X150821428Y-112235471D01*
X150821428Y-112235471D02*
X150749999Y-112092614D01*
X150749999Y-112092614D02*
X150678571Y-111806900D01*
X150678571Y-111806900D02*
X150678571Y-111449757D01*
X150678571Y-111449757D02*
X150749999Y-111164042D01*
X150749999Y-111164042D02*
X150821428Y-111021185D01*
X150821428Y-111021185D02*
X150892857Y-110949757D01*
X150892857Y-110949757D02*
X151035714Y-110878328D01*
X153321427Y-112378328D02*
X153321427Y-111378328D01*
X153321427Y-111521185D02*
X153392856Y-111449757D01*
X153392856Y-111449757D02*
X153535713Y-111378328D01*
X153535713Y-111378328D02*
X153749999Y-111378328D01*
X153749999Y-111378328D02*
X153892856Y-111449757D01*
X153892856Y-111449757D02*
X153964285Y-111592614D01*
X153964285Y-111592614D02*
X153964285Y-112378328D01*
X153964285Y-111592614D02*
X154035713Y-111449757D01*
X154035713Y-111449757D02*
X154178570Y-111378328D01*
X154178570Y-111378328D02*
X154392856Y-111378328D01*
X154392856Y-111378328D02*
X154535713Y-111449757D01*
X154535713Y-111449757D02*
X154607142Y-111592614D01*
X154607142Y-111592614D02*
X154607142Y-112378328D01*
X155321427Y-112378328D02*
X155321427Y-111378328D01*
X155321427Y-111521185D02*
X155392856Y-111449757D01*
X155392856Y-111449757D02*
X155535713Y-111378328D01*
X155535713Y-111378328D02*
X155749999Y-111378328D01*
X155749999Y-111378328D02*
X155892856Y-111449757D01*
X155892856Y-111449757D02*
X155964285Y-111592614D01*
X155964285Y-111592614D02*
X155964285Y-112378328D01*
X155964285Y-111592614D02*
X156035713Y-111449757D01*
X156035713Y-111449757D02*
X156178570Y-111378328D01*
X156178570Y-111378328D02*
X156392856Y-111378328D01*
X156392856Y-111378328D02*
X156535713Y-111449757D01*
X156535713Y-111449757D02*
X156607142Y-111592614D01*
X156607142Y-111592614D02*
X156607142Y-112378328D01*
D12*
X112500000Y-103500000D02*
X112500000Y-114086420D01*
X187000000Y-103500000D02*
X187000000Y-114086420D01*
X112500000Y-113500000D02*
X187000000Y-113500000D01*
X112500000Y-113500000D02*
X187000000Y-113500000D01*
X112500000Y-113500000D02*
X113626504Y-112913579D01*
X112500000Y-113500000D02*
X113626504Y-114086421D01*
X187000000Y-113500000D02*
X185873496Y-114086421D01*
X187000000Y-113500000D02*
X185873496Y-112913579D01*
D10*
D11*
X203878328Y-88964284D02*
X204878328Y-88964284D01*
X203306900Y-89321426D02*
X204378328Y-89678569D01*
X204378328Y-89678569D02*
X204378328Y-88749998D01*
X203378328Y-87892855D02*
X203378328Y-87749998D01*
X203378328Y-87749998D02*
X203449757Y-87607141D01*
X203449757Y-87607141D02*
X203521185Y-87535713D01*
X203521185Y-87535713D02*
X203664042Y-87464284D01*
X203664042Y-87464284D02*
X203949757Y-87392855D01*
X203949757Y-87392855D02*
X204306900Y-87392855D01*
X204306900Y-87392855D02*
X204592614Y-87464284D01*
X204592614Y-87464284D02*
X204735471Y-87535713D01*
X204735471Y-87535713D02*
X204806900Y-87607141D01*
X204806900Y-87607141D02*
X204878328Y-87749998D01*
X204878328Y-87749998D02*
X204878328Y-87892855D01*
X204878328Y-87892855D02*
X204806900Y-88035713D01*
X204806900Y-88035713D02*
X204735471Y-88107141D01*
X204735471Y-88107141D02*
X204592614Y-88178570D01*
X204592614Y-88178570D02*
X204306900Y-88249998D01*
X204306900Y-88249998D02*
X203949757Y-88249998D01*
X203949757Y-88249998D02*
X203664042Y-88178570D01*
X203664042Y-88178570D02*
X203521185Y-88107141D01*
X203521185Y-88107141D02*
X203449757Y-88035713D01*
X203449757Y-88035713D02*
X203378328Y-87892855D01*
X204735471Y-86749999D02*
X204806900Y-86678570D01*
X204806900Y-86678570D02*
X204878328Y-86749999D01*
X204878328Y-86749999D02*
X204806900Y-86821427D01*
X204806900Y-86821427D02*
X204735471Y-86749999D01*
X204735471Y-86749999D02*
X204878328Y-86749999D01*
X203378328Y-85321427D02*
X203378328Y-86035713D01*
X203378328Y-86035713D02*
X204092614Y-86107141D01*
X204092614Y-86107141D02*
X204021185Y-86035713D01*
X204021185Y-86035713D02*
X203949757Y-85892856D01*
X203949757Y-85892856D02*
X203949757Y-85535713D01*
X203949757Y-85535713D02*
X204021185Y-85392856D01*
X204021185Y-85392856D02*
X204092614Y-85321427D01*
X204092614Y-85321427D02*
X204235471Y-85249998D01*
X204235471Y-85249998D02*
X204592614Y-85249998D01*
X204592614Y-85249998D02*
X204735471Y-85321427D01*
X204735471Y-85321427D02*
X204806900Y-85392856D01*
X204806900Y-85392856D02*
X204878328Y-85535713D01*
X204878328Y-85535713D02*
X204878328Y-85892856D01*
X204878328Y-85892856D02*
X204806900Y-86035713D01*
X204806900Y-86035713D02*
X204735471Y-86107141D01*
X203378328Y-84321427D02*
X203378328Y-84178570D01*
X203378328Y-84178570D02*
X203449757Y-84035713D01*
X203449757Y-84035713D02*
X203521185Y-83964285D01*
X203521185Y-83964285D02*
X203664042Y-83892856D01*
X203664042Y-83892856D02*
X203949757Y-83821427D01*
X203949757Y-83821427D02*
X204306900Y-83821427D01*
X204306900Y-83821427D02*
X204592614Y-83892856D01*
X204592614Y-83892856D02*
X204735471Y-83964285D01*
X204735471Y-83964285D02*
X204806900Y-84035713D01*
X204806900Y-84035713D02*
X204878328Y-84178570D01*
X204878328Y-84178570D02*
X204878328Y-84321427D01*
X204878328Y-84321427D02*
X204806900Y-84464285D01*
X204806900Y-84464285D02*
X204735471Y-84535713D01*
X204735471Y-84535713D02*
X204592614Y-84607142D01*
X204592614Y-84607142D02*
X204306900Y-84678570D01*
X204306900Y-84678570D02*
X203949757Y-84678570D01*
X203949757Y-84678570D02*
X203664042Y-84607142D01*
X203664042Y-84607142D02*
X203521185Y-84535713D01*
X203521185Y-84535713D02*
X203449757Y-84464285D01*
X203449757Y-84464285D02*
X203378328Y-84321427D01*
X203378328Y-82892856D02*
X203378328Y-82749999D01*
X203378328Y-82749999D02*
X203449757Y-82607142D01*
X203449757Y-82607142D02*
X203521185Y-82535714D01*
X203521185Y-82535714D02*
X203664042Y-82464285D01*
X203664042Y-82464285D02*
X203949757Y-82392856D01*
X203949757Y-82392856D02*
X204306900Y-82392856D01*
X204306900Y-82392856D02*
X204592614Y-82464285D01*
X204592614Y-82464285D02*
X204735471Y-82535714D01*
X204735471Y-82535714D02*
X204806900Y-82607142D01*
X204806900Y-82607142D02*
X204878328Y-82749999D01*
X204878328Y-82749999D02*
X204878328Y-82892856D01*
X204878328Y-82892856D02*
X204806900Y-83035714D01*
X204806900Y-83035714D02*
X204735471Y-83107142D01*
X204735471Y-83107142D02*
X204592614Y-83178571D01*
X204592614Y-83178571D02*
X204306900Y-83249999D01*
X204306900Y-83249999D02*
X203949757Y-83249999D01*
X203949757Y-83249999D02*
X203664042Y-83178571D01*
X203664042Y-83178571D02*
X203521185Y-83107142D01*
X203521185Y-83107142D02*
X203449757Y-83035714D01*
X203449757Y-83035714D02*
X203378328Y-82892856D01*
X203378328Y-81464285D02*
X203378328Y-81321428D01*
X203378328Y-81321428D02*
X203449757Y-81178571D01*
X203449757Y-81178571D02*
X203521185Y-81107143D01*
X203521185Y-81107143D02*
X203664042Y-81035714D01*
X203664042Y-81035714D02*
X203949757Y-80964285D01*
X203949757Y-80964285D02*
X204306900Y-80964285D01*
X204306900Y-80964285D02*
X204592614Y-81035714D01*
X204592614Y-81035714D02*
X204735471Y-81107143D01*
X204735471Y-81107143D02*
X204806900Y-81178571D01*
X204806900Y-81178571D02*
X204878328Y-81321428D01*
X204878328Y-81321428D02*
X204878328Y-81464285D01*
X204878328Y-81464285D02*
X204806900Y-81607143D01*
X204806900Y-81607143D02*
X204735471Y-81678571D01*
X204735471Y-81678571D02*
X204592614Y-81750000D01*
X204592614Y-81750000D02*
X204306900Y-81821428D01*
X204306900Y-81821428D02*
X203949757Y-81821428D01*
X203949757Y-81821428D02*
X203664042Y-81750000D01*
X203664042Y-81750000D02*
X203521185Y-81678571D01*
X203521185Y-81678571D02*
X203449757Y-81607143D01*
X203449757Y-81607143D02*
X203378328Y-81464285D01*
X204878328Y-79178572D02*
X203878328Y-79178572D01*
X204021185Y-79178572D02*
X203949757Y-79107143D01*
X203949757Y-79107143D02*
X203878328Y-78964286D01*
X203878328Y-78964286D02*
X203878328Y-78750000D01*
X203878328Y-78750000D02*
X203949757Y-78607143D01*
X203949757Y-78607143D02*
X204092614Y-78535715D01*
X204092614Y-78535715D02*
X204878328Y-78535715D01*
X204092614Y-78535715D02*
X203949757Y-78464286D01*
X203949757Y-78464286D02*
X203878328Y-78321429D01*
X203878328Y-78321429D02*
X203878328Y-78107143D01*
X203878328Y-78107143D02*
X203949757Y-77964286D01*
X203949757Y-77964286D02*
X204092614Y-77892857D01*
X204092614Y-77892857D02*
X204878328Y-77892857D01*
X204878328Y-77178572D02*
X203878328Y-77178572D01*
X204021185Y-77178572D02*
X203949757Y-77107143D01*
X203949757Y-77107143D02*
X203878328Y-76964286D01*
X203878328Y-76964286D02*
X203878328Y-76750000D01*
X203878328Y-76750000D02*
X203949757Y-76607143D01*
X203949757Y-76607143D02*
X204092614Y-76535715D01*
X204092614Y-76535715D02*
X204878328Y-76535715D01*
X204092614Y-76535715D02*
X203949757Y-76464286D01*
X203949757Y-76464286D02*
X203878328Y-76321429D01*
X203878328Y-76321429D02*
X203878328Y-76107143D01*
X203878328Y-76107143D02*
X203949757Y-75964286D01*
X203949757Y-75964286D02*
X204092614Y-75892857D01*
X204092614Y-75892857D02*
X204878328Y-75892857D01*
D12*
X187500000Y-62500000D02*
X206586420Y-62500000D01*
X187500000Y-103000000D02*
X206586420Y-103000000D01*
X206000000Y-62500000D02*
X206000000Y-103000000D01*
X206000000Y-62500000D02*
X206000000Y-103000000D01*
X206000000Y-62500000D02*
X206586421Y-63626504D01*
X206000000Y-62500000D02*
X205413579Y-63626504D01*
X206000000Y-103000000D02*
X205413579Y-101873496D01*
X206000000Y-103000000D02*
X206586421Y-101873496D01*
D13*
%TO.P,JP6,1,A*%
%TO.N,Net-(JP6-A)*%
X124500000Y-76500000D03*
D14*
%TO.P,JP6,2,B*%
%TO.N,FRONT*%
X124500000Y-75200000D03*
%TD*%
D15*
%TO.P,JP5,1,A*%
%TO.N,FRONT*%
X118500000Y-75200000D03*
D16*
%TO.P,JP5,2,B*%
%TO.N,Net-(JP5-B)*%
X118500000Y-76500000D03*
%TD*%
D15*
%TO.P,JP4,1,A*%
%TO.N,LEFT*%
X177000000Y-78850000D03*
D16*
%TO.P,JP4,2,B*%
%TO.N,Net-(JP4-B)*%
X177000000Y-80150000D03*
%TD*%
D13*
%TO.P,JP3,1,A*%
%TO.N,Net-(JP3-A)*%
X183500000Y-80500000D03*
D14*
%TO.P,JP3,2,B*%
%TO.N,LEFT*%
X183500000Y-79200000D03*
%TD*%
D13*
%TO.P,JP2,1,A*%
%TO.N,Net-(JP2-A)*%
X119000000Y-94000000D03*
D14*
%TO.P,JP2,2,B*%
%TO.N,RIGHT*%
X119000000Y-92700000D03*
%TD*%
D15*
%TO.P,JP1,1,A*%
%TO.N,RIGHT*%
X124500000Y-92700000D03*
D16*
%TO.P,JP1,2,B*%
%TO.N,Net-(JP1-B)*%
X124500000Y-94000000D03*
%TD*%
D17*
%TO.P,Q4,1,B*%
%TO.N,Net-(Q4-B)*%
X129050000Y-89000000D03*
%TO.P,Q4,2,E*%
%TO.N,GND*%
X130950000Y-89000000D03*
%TO.P,Q4,3,C*%
%TO.N,Net-(Q4-C)*%
X130000000Y-87000000D03*
%TD*%
D18*
%TO.P,R1,1*%
%TO.N,Net-(JP3-A)*%
X183500000Y-83500000D03*
%TO.P,R1,2*%
%TO.N,GND*%
X183500000Y-85325000D03*
%TD*%
%TO.P,R7,1*%
%TO.N,Net-(JP1-B)*%
X124500000Y-97175000D03*
%TO.P,R7,2*%
%TO.N,GND*%
X124500000Y-99000000D03*
%TD*%
D19*
%TO.P,U1,1,A*%
%TO.N,Batt*%
X129025000Y-65725000D03*
D20*
%TO.P,U1,2,C*%
%TO.N,Net-(Q4-C)*%
X129025000Y-68265000D03*
%TD*%
D17*
%TO.P,Q1,1,B*%
%TO.N,Net-(Q1-B)*%
X142100000Y-71500000D03*
%TO.P,Q1,2,E*%
%TO.N,GND*%
X144000000Y-71500000D03*
%TO.P,Q1,3,C*%
%TO.N,Net-(Q1-C)*%
X143050000Y-69500000D03*
%TD*%
D18*
%TO.P,R9,1*%
%TO.N,Net-(JP4-B)*%
X177000000Y-83500000D03*
%TO.P,R9,2*%
%TO.N,GND*%
X177000000Y-85325000D03*
%TD*%
D21*
%TO.P,R6,1*%
%TO.N,PA5*%
X168000000Y-82000000D03*
%TO.P,R6,2*%
%TO.N,Net-(Q2-B)*%
X168000000Y-80175000D03*
%TD*%
D22*
%TO.P,U5,1,A*%
%TO.N,RIGHT*%
X154040000Y-68000000D03*
%TO.P,U5,2,C*%
%TO.N,3V3*%
X151500000Y-68000000D03*
%TD*%
D18*
%TO.P,R2,1*%
%TO.N,Net-(JP2-A)*%
X119000000Y-97000000D03*
%TO.P,R2,2*%
%TO.N,GND*%
X119000000Y-98825000D03*
%TD*%
D21*
%TO.P,R4,1*%
%TO.N,PA3*%
X129000000Y-94000000D03*
%TO.P,R4,2*%
%TO.N,Net-(Q4-B)*%
X129000000Y-92175000D03*
%TD*%
%TO.P,R5,1*%
%TO.N,PA4*%
X142050000Y-76500000D03*
%TO.P,R5,2*%
%TO.N,Net-(Q1-B)*%
X142050000Y-74675000D03*
%TD*%
D17*
%TO.P,Q2,1,B*%
%TO.N,Net-(Q2-B)*%
X168050000Y-76000000D03*
%TO.P,Q2,2,E*%
%TO.N,GND*%
X169950000Y-76000000D03*
%TO.P,Q2,3,C*%
%TO.N,Net-(Q2-C)*%
X169000000Y-74000000D03*
%TD*%
D22*
%TO.P,U6,1,A*%
%TO.N,LEFT*%
X183300000Y-68270000D03*
%TO.P,U6,2,C*%
%TO.N,3V3*%
X183300000Y-65730000D03*
%TD*%
D19*
%TO.P,U2,1,A*%
%TO.N,Batt*%
X154275000Y-79025000D03*
D20*
%TO.P,U2,2,C*%
%TO.N,Net-(Q1-C)*%
X151735000Y-79025000D03*
%TD*%
D18*
%TO.P,R3,1*%
%TO.N,Net-(JP6-A)*%
X124500000Y-80175000D03*
%TO.P,R3,2*%
%TO.N,GND*%
X124500000Y-82000000D03*
%TD*%
%TO.P,R8,1*%
%TO.N,Net-(JP5-B)*%
X118500000Y-80500000D03*
%TO.P,R8,2*%
%TO.N,GND*%
X118500000Y-82325000D03*
%TD*%
D19*
%TO.P,U3,1,A*%
%TO.N,Batt*%
X171475000Y-68275000D03*
D20*
%TO.P,U3,2,C*%
%TO.N,Net-(Q2-C)*%
X171475000Y-65735000D03*
%TD*%
D23*
%TO.P,U7,1,OUT1*%
%TO.N,PA6*%
X149690000Y-91270000D03*
%TO.P,U7,2,IN1-*%
X150960000Y-91270000D03*
%TO.P,U7,3,IN1+*%
%TO.N,LEFT*%
X152230000Y-91270000D03*
%TO.P,U7,4,VCC*%
%TO.N,unconnected-(U7-VCC-Pad4)*%
X153500000Y-91270000D03*
%TO.P,U7,5,IN2+*%
%TO.N,RIGHT*%
X154770000Y-91270000D03*
%TO.P,U7,6,IN2-*%
%TO.N,PA7*%
X156040000Y-91270000D03*
%TO.P,U7,7,OUT2*%
X157310000Y-91270000D03*
%TO.P,U7,8,OUT3*%
%TO.N,PC4*%
X157310000Y-85730000D03*
%TO.P,U7,9,IN3-*%
X156040000Y-85730000D03*
%TO.P,U7,10,IN3+*%
%TO.N,FRONT*%
X154770000Y-85730000D03*
%TO.P,U7,11,GND*%
%TO.N,unconnected-(U7-GND-Pad11)*%
X153500000Y-85730000D03*
%TO.P,U7,12,IN4+*%
%TO.N,unconnected-(U7-IN4+-Pad12)*%
X152230000Y-85730000D03*
%TO.P,U7,13,IN4-*%
%TO.N,unconnected-(U7-IN4--Pad13)*%
X150960000Y-85730000D03*
%TO.P,U7,14,OUT4*%
%TO.N,unconnected-(U7-OUT4-Pad14)*%
X149690000Y-85730000D03*
%TD*%
D22*
%TO.P,U4,1,A*%
%TO.N,FRONT*%
X117500000Y-65960000D03*
%TO.P,U4,2,C*%
%TO.N,3V3*%
X117500000Y-68500000D03*
%TD*%
D24*
%TO.P,J3,1,Pin_1*%
%TO.N,unconnected-(J3-Pin_1-Pad1)*%
X166820000Y-99540000D03*
D25*
%TO.P,J3,2,Pin_2*%
%TO.N,3V3*%
X166820000Y-97000000D03*
%TO.P,J3,3,Pin_3*%
%TO.N,GND*%
X164280000Y-99540000D03*
%TO.P,J3,4,Pin_4*%
%TO.N,Batt*%
X164280000Y-97000000D03*
%TO.P,J3,5,Pin_5*%
%TO.N,PA3*%
X161740000Y-99540000D03*
%TO.P,J3,6,Pin_6*%
%TO.N,unconnected-(J3-Pin_6-Pad6)*%
X161740000Y-97000000D03*
%TO.P,J3,7,Pin_7*%
%TO.N,PA4*%
X159200000Y-99540000D03*
%TO.P,J3,8,Pin_8*%
%TO.N,unconnected-(J3-Pin_8-Pad8)*%
X159200000Y-97000000D03*
%TO.P,J3,9,Pin_9*%
%TO.N,unconnected-(J3-Pin_9-Pad9)*%
X156660000Y-99540000D03*
%TO.P,J3,10,Pin_10*%
%TO.N,unconnected-(J3-Pin_10-Pad10)*%
X156660000Y-97000000D03*
%TO.P,J3,11,Pin_11*%
%TO.N,PA5*%
X154120000Y-99540000D03*
%TO.P,J3,12,Pin_12*%
%TO.N,unconnected-(J3-Pin_12-Pad12)*%
X154120000Y-97000000D03*
%TO.P,J3,13,Pin_13*%
%TO.N,PA6*%
X151580000Y-99540000D03*
%TO.P,J3,14,Pin_14*%
%TO.N,unconnected-(J3-Pin_14-Pad14)*%
X151580000Y-97000000D03*
%TO.P,J3,15,Pin_15*%
%TO.N,unconnected-(J3-Pin_15-Pad15)*%
X149040000Y-99540000D03*
%TO.P,J3,16,Pin_16*%
%TO.N,unconnected-(J3-Pin_16-Pad16)*%
X149040000Y-97000000D03*
%TO.P,J3,17,Pin_17*%
%TO.N,PA7*%
X146500000Y-99540000D03*
%TO.P,J3,18,Pin_18*%
%TO.N,unconnected-(J3-Pin_18-Pad18)*%
X146500000Y-97000000D03*
%TO.P,J3,19,Pin_19*%
%TO.N,PC4*%
X143960000Y-99540000D03*
%TO.P,J3,20,Pin_20*%
%TO.N,unconnected-(J3-Pin_20-Pad20)*%
X143960000Y-97000000D03*
%TO.P,J3,21,Pin_21*%
%TO.N,unconnected-(J3-Pin_21-Pad21)*%
X141420000Y-99540000D03*
%TO.P,J3,22,Pin_22*%
%TO.N,unconnected-(J3-Pin_22-Pad22)*%
X141420000Y-97000000D03*
%TO.P,J3,23,Pin_23*%
%TO.N,unconnected-(J3-Pin_23-Pad23)*%
X138880000Y-99540000D03*
%TO.P,J3,24,Pin_24*%
%TO.N,unconnected-(J3-Pin_24-Pad24)*%
X138880000Y-97000000D03*
%TO.P,J3,25,Pin_25*%
%TO.N,unconnected-(J3-Pin_25-Pad25)*%
X136340000Y-99540000D03*
%TO.P,J3,26,Pin_26*%
%TO.N,unconnected-(J3-Pin_26-Pad26)*%
X136340000Y-97000000D03*
%TO.P,J3,27,Pin_27*%
%TO.N,unconnected-(J3-Pin_27-Pad27)*%
X133800000Y-99540000D03*
%TO.P,J3,28,Pin_28*%
%TO.N,unconnected-(J3-Pin_28-Pad28)*%
X133800000Y-97000000D03*
%TD*%
D26*
%TO.N,GND*%
X146500000Y-76000000D03*
X149500000Y-82500000D03*
X169500000Y-78000000D03*
X131000000Y-83000000D03*
X146500000Y-80500000D03*
X166000000Y-78000000D03*
X170000000Y-79500000D03*
X155500000Y-81500000D03*
X127500000Y-83000000D03*
X173000000Y-78000000D03*
%TO.N,3V3*%
X169500000Y-96000000D03*
X159500000Y-89500000D03*
X159500000Y-63535000D03*
X159500000Y-93000000D03*
%TO.N,PA4*%
X153500000Y-94500000D03*
X158000000Y-98500000D03*
X144500000Y-88000000D03*
X144500000Y-76500000D03*
X148000000Y-88500000D03*
%TO.N,PA7*%
X157000000Y-91270000D03*
X147500000Y-98500000D03*
%TO.N,PC4*%
X145000000Y-98500000D03*
X156000000Y-83500000D03*
%TO.N,PA5*%
X165500000Y-85000000D03*
X165500000Y-89500000D03*
%TO.N,RIGHT*%
X138000000Y-93500000D03*
X124500000Y-90000000D03*
X154770000Y-91270000D03*
X157500000Y-67500000D03*
%TO.N,LEFT*%
X168000000Y-85500000D03*
X177000000Y-78850000D03*
%TO.N,FRONT*%
X132500000Y-75500000D03*
X127500000Y-75500000D03*
%TO.N,Net-(Q1-C)*%
X139500000Y-70500000D03*
X149000000Y-76500000D03*
%TD*%
D27*
%TO.N,PA3*%
X159700000Y-102000000D02*
X130500000Y-102000000D01*
X129000000Y-100500000D02*
X129000000Y-94000000D01*
X161700000Y-100000000D02*
X159700000Y-102000000D01*
X130500000Y-102000000D02*
X129000000Y-100500000D01*
%TO.N,Batt*%
X174500000Y-65000000D02*
X171475000Y-68025000D01*
X129025000Y-65725000D02*
X140975000Y-65725000D01*
X171475000Y-68275000D02*
X171475000Y-90225000D01*
X171475000Y-90225000D02*
X164240000Y-97460000D01*
X168965000Y-64335000D02*
X173835000Y-64335000D01*
X173835000Y-64335000D02*
X174500000Y-65000000D01*
X171475000Y-68025000D02*
X171475000Y-68275000D01*
X154275000Y-79025000D02*
X168965000Y-64335000D01*
X140975000Y-65725000D02*
X154275000Y-79025000D01*
%TO.N,GND*%
X115675000Y-98825000D02*
X119000000Y-98825000D01*
X169500000Y-76450000D02*
X169950000Y-76000000D01*
X146500000Y-80500000D02*
X147500000Y-80500000D01*
X124500000Y-99000000D02*
X119175000Y-99000000D01*
X164280000Y-99540000D02*
X165630000Y-100890000D01*
X165630000Y-100890000D02*
X167935000Y-100890000D01*
X137500000Y-89000000D02*
X130950000Y-89000000D01*
X169500000Y-78000000D02*
X169500000Y-79000000D01*
X115500000Y-84500000D02*
X115500000Y-99000000D01*
X124500000Y-82000000D02*
X124000000Y-82000000D01*
X116925000Y-83075000D02*
X115500000Y-84500000D01*
X146000000Y-80500000D02*
X137500000Y-89000000D01*
X169500000Y-79000000D02*
X170000000Y-79500000D01*
X144000000Y-73500000D02*
X146500000Y-76000000D01*
X177000000Y-92000000D02*
X177000000Y-85325000D01*
X115500000Y-99000000D02*
X115675000Y-98825000D01*
X162500000Y-81500000D02*
X166000000Y-78000000D01*
X146500000Y-80500000D02*
X146000000Y-80500000D01*
X169500000Y-78000000D02*
X169500000Y-76450000D01*
X144000000Y-71500000D02*
X144000000Y-73500000D01*
X117750000Y-83075000D02*
X116925000Y-83075000D01*
X168110000Y-100890000D02*
X177000000Y-92000000D01*
X164280000Y-99540000D02*
X165040000Y-99540000D01*
X130950000Y-89000000D02*
X130950000Y-83050000D01*
X165470000Y-100890000D02*
X168110000Y-100890000D01*
X167935000Y-100890000D02*
X183500000Y-85325000D01*
X147500000Y-80500000D02*
X149500000Y-82500000D01*
X173000000Y-81325000D02*
X177000000Y-85325000D01*
X165470000Y-99970000D02*
X165470000Y-100890000D01*
X119175000Y-99000000D02*
X119000000Y-98825000D01*
X165040000Y-99540000D02*
X165470000Y-99970000D01*
X155500000Y-81500000D02*
X162500000Y-81500000D01*
X118500000Y-82325000D02*
X117750000Y-83075000D01*
X123675000Y-82325000D02*
X118500000Y-82325000D01*
X124000000Y-82000000D02*
X123675000Y-82325000D01*
X130950000Y-83050000D02*
X131000000Y-83000000D01*
X173000000Y-78000000D02*
X173000000Y-81325000D01*
X125500000Y-83000000D02*
X124500000Y-82000000D01*
X127500000Y-83000000D02*
X125500000Y-83000000D01*
%TO.N,PA6*%
X131500000Y-97390811D02*
X131500000Y-100890000D01*
X149690000Y-91270000D02*
X150960000Y-91270000D01*
X131500000Y-100890000D02*
X150230000Y-100890000D01*
X150960000Y-91270000D02*
X137620811Y-91270000D01*
X150230000Y-100890000D02*
X151580000Y-99540000D01*
X137620811Y-91270000D02*
X131500000Y-97390811D01*
%TO.N,3V3*%
X159500000Y-63535000D02*
X181105000Y-63535000D01*
X116400000Y-67400000D02*
X116400000Y-65100000D01*
X159500000Y-93000000D02*
X159500000Y-89500000D01*
X181105000Y-63535000D02*
X183300000Y-65730000D01*
X155395000Y-63535000D02*
X159500000Y-63535000D01*
X166820000Y-97000000D02*
X168500000Y-97000000D01*
X151730000Y-67200000D02*
X155395000Y-63535000D01*
X117500000Y-68500000D02*
X116400000Y-67400000D01*
X117175000Y-64325000D02*
X148855000Y-64325000D01*
X148855000Y-64325000D02*
X151730000Y-67200000D01*
X116400000Y-65100000D02*
X117175000Y-64325000D01*
X168500000Y-97000000D02*
X169500000Y-96000000D01*
D28*
%TO.N,PA4*%
X159040000Y-99540000D02*
X158000000Y-98500000D01*
D27*
X144500000Y-88000000D02*
X147500000Y-88000000D01*
X142050000Y-76500000D02*
X144500000Y-76500000D01*
X147500000Y-88000000D02*
X148000000Y-88500000D01*
D28*
X159200000Y-99540000D02*
X159040000Y-99540000D01*
D27*
%TO.N,PA7*%
X157000000Y-91270000D02*
X156040000Y-91270000D01*
X146500000Y-99500000D02*
X147500000Y-98500000D01*
X146500000Y-99540000D02*
X146500000Y-99500000D01*
X157310000Y-91270000D02*
X157000000Y-91270000D01*
%TO.N,PC4*%
X157310000Y-85730000D02*
X156040000Y-85730000D01*
X156000000Y-85690000D02*
X156040000Y-85730000D01*
X143960000Y-99540000D02*
X145000000Y-98500000D01*
X156000000Y-83500000D02*
X156000000Y-85690000D01*
D28*
%TO.N,PA5*%
X155510000Y-96523654D02*
X157033654Y-95000000D01*
X155510000Y-98150000D02*
X155510000Y-96523654D01*
D27*
X165500000Y-89500000D02*
X160000000Y-95000000D01*
X160000000Y-95000000D02*
X158500000Y-95000000D01*
D28*
X154120000Y-99540000D02*
X155510000Y-98150000D01*
D27*
X168000000Y-82500000D02*
X165500000Y-85000000D01*
X168000000Y-82000000D02*
X168000000Y-82500000D01*
D28*
X157033654Y-95000000D02*
X158500000Y-95000000D01*
D27*
%TO.N,Net-(JP1-B)*%
X124500000Y-94000000D02*
X124500000Y-97175000D01*
%TO.N,RIGHT*%
X124500000Y-90000000D02*
X124500000Y-92700000D01*
X157200000Y-67200000D02*
X157500000Y-67500000D01*
X154770000Y-92005000D02*
X153275000Y-93500000D01*
X154770000Y-91270000D02*
X154770000Y-92005000D01*
X119000000Y-92700000D02*
X124500000Y-92700000D01*
X153275000Y-93500000D02*
X138000000Y-93500000D01*
X154270000Y-67200000D02*
X157200000Y-67200000D01*
%TO.N,Net-(JP2-A)*%
X119000000Y-97000000D02*
X119000000Y-94000000D01*
%TO.N,LEFT*%
X183500000Y-74500000D02*
X183500000Y-68470000D01*
X166250000Y-87250000D02*
X168000000Y-85500000D01*
X183500000Y-68470000D02*
X183300000Y-68270000D01*
X177000000Y-78850000D02*
X179150000Y-78850000D01*
X183500000Y-79200000D02*
X183500000Y-74500000D01*
X155674842Y-87250000D02*
X166250000Y-87250000D01*
X152230000Y-91270000D02*
X152230000Y-90694842D01*
X152230000Y-90694842D02*
X155674842Y-87250000D01*
X179150000Y-78850000D02*
X183500000Y-74500000D01*
%TO.N,Net-(JP3-A)*%
X183500000Y-80500000D02*
X183500000Y-83500000D01*
%TO.N,Net-(JP4-B)*%
X177000000Y-80150000D02*
X177000000Y-83500000D01*
%TO.N,Net-(JP5-B)*%
X118500000Y-76500000D02*
X118500000Y-80500000D01*
%TO.N,FRONT*%
X154770000Y-85730000D02*
X154770000Y-84995000D01*
X154770000Y-84995000D02*
X147775000Y-78000000D01*
X117500000Y-65960000D02*
X124500000Y-72960000D01*
X127500000Y-75500000D02*
X124800000Y-75500000D01*
X124800000Y-75500000D02*
X124500000Y-75200000D01*
X135000000Y-78000000D02*
X132500000Y-75500000D01*
X118500000Y-75200000D02*
X124500000Y-75200000D01*
X147775000Y-78000000D02*
X135000000Y-78000000D01*
X124500000Y-72960000D02*
X124500000Y-75200000D01*
%TO.N,Net-(JP6-A)*%
X124500000Y-76500000D02*
X124500000Y-80175000D01*
%TO.N,Net-(Q1-C)*%
X149210000Y-76500000D02*
X151735000Y-79025000D01*
X143050000Y-69500000D02*
X140500000Y-69500000D01*
X149000000Y-76500000D02*
X149210000Y-76500000D01*
X140500000Y-69500000D02*
X139500000Y-70500000D01*
%TO.N,Net-(Q1-B)*%
X142100000Y-74625000D02*
X142050000Y-74675000D01*
X142100000Y-71500000D02*
X142100000Y-74625000D01*
%TO.N,Net-(Q2-C)*%
X169000000Y-74000000D02*
X169000000Y-68210000D01*
X169000000Y-68210000D02*
X171475000Y-65735000D01*
%TO.N,Net-(Q2-B)*%
X168050000Y-76000000D02*
X168050000Y-80125000D01*
X168050000Y-80125000D02*
X168000000Y-80175000D01*
%TO.N,Net-(Q4-B)*%
X129050000Y-92125000D02*
X129000000Y-92175000D01*
X129050000Y-89000000D02*
X129050000Y-92125000D01*
%TO.N,Net-(Q4-C)*%
X129025000Y-68265000D02*
X129025000Y-86025000D01*
X129025000Y-86025000D02*
X130000000Y-87000000D01*
%TD*%
%TA.AperFunction,NonConductor*%
G36*
X143109426Y-72194527D02*
G01*
X143158832Y-72243932D01*
X143166182Y-72260026D01*
X143191682Y-72328395D01*
X143199500Y-72371728D01*
X143199500Y-73578846D01*
X143229107Y-73727686D01*
X143230263Y-73733497D01*
X143237704Y-73751461D01*
X143245172Y-73820930D01*
X143213896Y-73883409D01*
X143153807Y-73919061D01*
X143083982Y-73916566D01*
X143035461Y-73886593D01*
X142968655Y-73819787D01*
X142959402Y-73814080D01*
X142912678Y-73762132D01*
X142900500Y-73708542D01*
X142900500Y-72371728D01*
X142908318Y-72328395D01*
X142933818Y-72260026D01*
X142975689Y-72204092D01*
X143041153Y-72179675D01*
X143109426Y-72194527D01*
G37*
%TD.AperFunction*%
%TA.AperFunction,NonConductor*%
G36*
X127567539Y-65145185D02*
G01*
X127613294Y-65197989D01*
X127624500Y-65249500D01*
X127624500Y-66672870D01*
X127624501Y-66672876D01*
X127630908Y-66732483D01*
X127681202Y-66867328D01*
X127681206Y-66867335D01*
X127767452Y-66982544D01*
X127767455Y-66982547D01*
X127882664Y-67068793D01*
X127882673Y-67068798D01*
X127962904Y-67098722D01*
X128018838Y-67140593D01*
X128043256Y-67206057D01*
X128028405Y-67274330D01*
X128010802Y-67298886D01*
X127916019Y-67401849D01*
X127789075Y-67596151D01*
X127695842Y-67808699D01*
X127638866Y-68033691D01*
X127638864Y-68033702D01*
X127619700Y-68264993D01*
X127619700Y-68265006D01*
X127638864Y-68496297D01*
X127638866Y-68496308D01*
X127695842Y-68721300D01*
X127789075Y-68933848D01*
X127916016Y-69128147D01*
X127916019Y-69128151D01*
X127916021Y-69128153D01*
X128073216Y-69298913D01*
X128176662Y-69379428D01*
X128217475Y-69436137D01*
X128224500Y-69477281D01*
X128224500Y-74793060D01*
X128204815Y-74860099D01*
X128152011Y-74905854D01*
X128082853Y-74915798D01*
X128019297Y-74886773D01*
X128012819Y-74880741D01*
X128002260Y-74870182D01*
X128002257Y-74870180D01*
X127936900Y-74829114D01*
X127933982Y-74827223D01*
X127879179Y-74790605D01*
X127879173Y-74790603D01*
X127878365Y-74790268D01*
X127859865Y-74780709D01*
X127849524Y-74774212D01*
X127849523Y-74774211D01*
X127849522Y-74774211D01*
X127788867Y-74752986D01*
X127782377Y-74750509D01*
X127733496Y-74730262D01*
X127719860Y-74727550D01*
X127703104Y-74722976D01*
X127679260Y-74714633D01*
X127679256Y-74714632D01*
X127679255Y-74714632D01*
X127658575Y-74712301D01*
X127628303Y-74708890D01*
X127618003Y-74707288D01*
X127578844Y-74699500D01*
X127578842Y-74699500D01*
X127551915Y-74699500D01*
X127538031Y-74698720D01*
X127500002Y-74694435D01*
X127499998Y-74694435D01*
X127461969Y-74698720D01*
X127448085Y-74699500D01*
X125691298Y-74699500D01*
X125624259Y-74679815D01*
X125586982Y-74642539D01*
X125560624Y-74601525D01*
X125559801Y-74600080D01*
X125557011Y-74595901D01*
X125462794Y-74487172D01*
X125462791Y-74487168D01*
X125354130Y-74393014D01*
X125354120Y-74393007D01*
X125350580Y-74390357D01*
X125351838Y-74388676D01*
X125311692Y-74342320D01*
X125300500Y-74290839D01*
X125300500Y-72881155D01*
X125300499Y-72881153D01*
X125269738Y-72726510D01*
X125269737Y-72726503D01*
X125269735Y-72726498D01*
X125209397Y-72580827D01*
X125209390Y-72580814D01*
X125121790Y-72449712D01*
X125121789Y-72449711D01*
X125010289Y-72338211D01*
X118634130Y-65962052D01*
X118600645Y-65900729D01*
X118598340Y-65885812D01*
X118586397Y-65756917D01*
X118530582Y-65560750D01*
X118513735Y-65526917D01*
X118486272Y-65471764D01*
X118439673Y-65378179D01*
X118398929Y-65324225D01*
X118374238Y-65258866D01*
X118388803Y-65190531D01*
X118438000Y-65140919D01*
X118497884Y-65125500D01*
X127500500Y-65125500D01*
X127567539Y-65145185D01*
G37*
%TD.AperFunction*%
%TA.AperFunction,NonConductor*%
G36*
X169993834Y-68450757D02*
G01*
X170049767Y-68492629D01*
X170074184Y-68558093D01*
X170074500Y-68566939D01*
X170074500Y-69222870D01*
X170074501Y-69222876D01*
X170080908Y-69282483D01*
X170131202Y-69417328D01*
X170131206Y-69417335D01*
X170217452Y-69532544D01*
X170217455Y-69532547D01*
X170332664Y-69618793D01*
X170332671Y-69618797D01*
X170377618Y-69635561D01*
X170467517Y-69669091D01*
X170527127Y-69675500D01*
X170550497Y-69675499D01*
X170617536Y-69695181D01*
X170663292Y-69747983D01*
X170674500Y-69799499D01*
X170674500Y-74801906D01*
X170654815Y-74868945D01*
X170602011Y-74914700D01*
X170532853Y-74924644D01*
X170507167Y-74918088D01*
X170407482Y-74880908D01*
X170407483Y-74880908D01*
X170347883Y-74874501D01*
X170347881Y-74874500D01*
X170347873Y-74874500D01*
X170347865Y-74874500D01*
X169966868Y-74874500D01*
X169899829Y-74854815D01*
X169854074Y-74802011D01*
X169843579Y-74737244D01*
X169844091Y-74732483D01*
X169850500Y-74672873D01*
X169850499Y-73327128D01*
X169844091Y-73267517D01*
X169808318Y-73171604D01*
X169800500Y-73128271D01*
X169800500Y-68592939D01*
X169820185Y-68525900D01*
X169836815Y-68505262D01*
X169862820Y-68479257D01*
X169924142Y-68445773D01*
X169993834Y-68450757D01*
G37*
%TD.AperFunction*%
%TA.AperFunction,NonConductor*%
G36*
X143377776Y-74023115D02*
G01*
X143417854Y-74049933D01*
X144915253Y-75547331D01*
X144948738Y-75608654D01*
X144943754Y-75678346D01*
X144901882Y-75734279D01*
X144836418Y-75758696D01*
X144780122Y-75749574D01*
X144733498Y-75730263D01*
X144719860Y-75727550D01*
X144703104Y-75722976D01*
X144679260Y-75714633D01*
X144679256Y-75714632D01*
X144679255Y-75714632D01*
X144658575Y-75712301D01*
X144628303Y-75708890D01*
X144618003Y-75707288D01*
X144578844Y-75699500D01*
X144578842Y-75699500D01*
X144551915Y-75699500D01*
X144538031Y-75698720D01*
X144500002Y-75694435D01*
X144499998Y-75694435D01*
X144461969Y-75698720D01*
X144448085Y-75699500D01*
X143098730Y-75699500D01*
X143031691Y-75679815D01*
X142985936Y-75627011D01*
X142975992Y-75557853D01*
X143005017Y-75494297D01*
X143011049Y-75487819D01*
X143050783Y-75448085D01*
X143092712Y-75406156D01*
X143184814Y-75256834D01*
X143239999Y-75090297D01*
X143250500Y-74987509D01*
X143250499Y-74362492D01*
X143248438Y-74342320D01*
X143239999Y-74259703D01*
X143238607Y-74255501D01*
X143212466Y-74176616D01*
X143210065Y-74106790D01*
X143245796Y-74046748D01*
X143308317Y-74015555D01*
X143377776Y-74023115D01*
G37*
%TD.AperFunction*%
%TA.AperFunction,NonConductor*%
G36*
X159461969Y-64336280D02*
G01*
X159499998Y-64340565D01*
X159500000Y-64340565D01*
X159500002Y-64340565D01*
X159538031Y-64336280D01*
X159551915Y-64335500D01*
X167533060Y-64335500D01*
X167600099Y-64355185D01*
X167645854Y-64407989D01*
X167655798Y-64477147D01*
X167626773Y-64540703D01*
X167620741Y-64547180D01*
X161038106Y-71129815D01*
X154579740Y-77588181D01*
X154518417Y-77621666D01*
X154492059Y-77624500D01*
X154057940Y-77624500D01*
X153990901Y-77604815D01*
X153970259Y-77588181D01*
X141719259Y-65337181D01*
X141685774Y-65275858D01*
X141690758Y-65206166D01*
X141732630Y-65150233D01*
X141798094Y-65125816D01*
X141806940Y-65125500D01*
X148472060Y-65125500D01*
X148539099Y-65145185D01*
X148559741Y-65161819D01*
X150594075Y-67196153D01*
X150627560Y-67257476D01*
X150622576Y-67327168D01*
X150605349Y-67358559D01*
X150572657Y-67401852D01*
X150560328Y-67418178D01*
X150560323Y-67418185D01*
X150469422Y-67600739D01*
X150469417Y-67600752D01*
X150413602Y-67796917D01*
X150394785Y-67999999D01*
X150394785Y-68000000D01*
X150413602Y-68203082D01*
X150469417Y-68399247D01*
X150469422Y-68399260D01*
X150560327Y-68581821D01*
X150683237Y-68744581D01*
X150833958Y-68881980D01*
X150833960Y-68881982D01*
X150917727Y-68933848D01*
X151007363Y-68989348D01*
X151197544Y-69063024D01*
X151398024Y-69100500D01*
X151398026Y-69100500D01*
X151601974Y-69100500D01*
X151601976Y-69100500D01*
X151802456Y-69063024D01*
X151992637Y-68989348D01*
X152166041Y-68881981D01*
X152316764Y-68744579D01*
X152439673Y-68581821D01*
X152530582Y-68399250D01*
X152586397Y-68203083D01*
X152605215Y-68000000D01*
X152586397Y-67796917D01*
X152535183Y-67616920D01*
X152535769Y-67547057D01*
X152566766Y-67495310D01*
X153345619Y-66716457D01*
X153406940Y-66682974D01*
X153476632Y-66687958D01*
X153532565Y-66729830D01*
X153556982Y-66795294D01*
X153547860Y-66851592D01*
X153500261Y-66966508D01*
X153494146Y-66997251D01*
X153461760Y-67059162D01*
X153437808Y-67078484D01*
X153373959Y-67118018D01*
X153373958Y-67118019D01*
X153223237Y-67255418D01*
X153100327Y-67418178D01*
X153009422Y-67600739D01*
X153009417Y-67600752D01*
X152953602Y-67796917D01*
X152934785Y-67999999D01*
X152934785Y-68000000D01*
X152953602Y-68203082D01*
X153009417Y-68399247D01*
X153009422Y-68399260D01*
X153100327Y-68581821D01*
X153223237Y-68744581D01*
X153373958Y-68881980D01*
X153373960Y-68881982D01*
X153457727Y-68933848D01*
X153547363Y-68989348D01*
X153737544Y-69063024D01*
X153938024Y-69100500D01*
X153938026Y-69100500D01*
X154141974Y-69100500D01*
X154141976Y-69100500D01*
X154342456Y-69063024D01*
X154532637Y-68989348D01*
X154706041Y-68881981D01*
X154856764Y-68744579D01*
X154979673Y-68581821D01*
X155070582Y-68399250D01*
X155126397Y-68203083D01*
X155134739Y-68113059D01*
X155160525Y-68048121D01*
X155217326Y-68007434D01*
X155258210Y-68000500D01*
X156817060Y-68000500D01*
X156884099Y-68020185D01*
X156904741Y-68036819D01*
X156997738Y-68129816D01*
X157063096Y-68170883D01*
X157063131Y-68170905D01*
X157066040Y-68172790D01*
X157120821Y-68209394D01*
X157121606Y-68209719D01*
X157140134Y-68219289D01*
X157150478Y-68225789D01*
X157211175Y-68247028D01*
X157217607Y-68249484D01*
X157246021Y-68261253D01*
X157266497Y-68269735D01*
X157266498Y-68269735D01*
X157266503Y-68269737D01*
X157280139Y-68272449D01*
X157296898Y-68277023D01*
X157320745Y-68285368D01*
X157371714Y-68291110D01*
X157381992Y-68292709D01*
X157409140Y-68298109D01*
X157421157Y-68300500D01*
X157421158Y-68300500D01*
X157448085Y-68300500D01*
X157461969Y-68301280D01*
X157499998Y-68305565D01*
X157500000Y-68305565D01*
X157500002Y-68305565D01*
X157538031Y-68301280D01*
X157551915Y-68300500D01*
X157578841Y-68300500D01*
X157578842Y-68300500D01*
X157618017Y-68292707D01*
X157628283Y-68291110D01*
X157679255Y-68285368D01*
X157703100Y-68277023D01*
X157719862Y-68272448D01*
X157733497Y-68269737D01*
X157782389Y-68249484D01*
X157788837Y-68247023D01*
X157849522Y-68225789D01*
X157859868Y-68219287D01*
X157878390Y-68209720D01*
X157879179Y-68209394D01*
X157933987Y-68172771D01*
X157936825Y-68170931D01*
X158002262Y-68129816D01*
X158129816Y-68002262D01*
X158170931Y-67936825D01*
X158172777Y-67933979D01*
X158209394Y-67879179D01*
X158209720Y-67878390D01*
X158219287Y-67859868D01*
X158225789Y-67849522D01*
X158247023Y-67788837D01*
X158249484Y-67782389D01*
X158269737Y-67733497D01*
X158272448Y-67719862D01*
X158277023Y-67703100D01*
X158285368Y-67679255D01*
X158291110Y-67628283D01*
X158292707Y-67618017D01*
X158300500Y-67578842D01*
X158300500Y-67551914D01*
X158301280Y-67538029D01*
X158305565Y-67500001D01*
X158305565Y-67499998D01*
X158301280Y-67461969D01*
X158300500Y-67448085D01*
X158300500Y-67421157D01*
X158293908Y-67388019D01*
X158292709Y-67381992D01*
X158291110Y-67371714D01*
X158285368Y-67320745D01*
X158277023Y-67296898D01*
X158272449Y-67280139D01*
X158269737Y-67266503D01*
X158249484Y-67217607D01*
X158247028Y-67211175D01*
X158225789Y-67150478D01*
X158219289Y-67140134D01*
X158209719Y-67121606D01*
X158209394Y-67120821D01*
X158172790Y-67066040D01*
X158170905Y-67063131D01*
X158129815Y-66997737D01*
X158002262Y-66870184D01*
X157710292Y-66578213D01*
X157710288Y-66578210D01*
X157579185Y-66490609D01*
X157579172Y-66490602D01*
X157433501Y-66430264D01*
X157433489Y-66430261D01*
X157278845Y-66399500D01*
X157278842Y-66399500D01*
X154191158Y-66399500D01*
X154191155Y-66399500D01*
X154036510Y-66430261D01*
X154036507Y-66430262D01*
X154036506Y-66430262D01*
X154036503Y-66430263D01*
X153979071Y-66454052D01*
X153921592Y-66477860D01*
X153852122Y-66485328D01*
X153789643Y-66454052D01*
X153753991Y-66393963D01*
X153756486Y-66324138D01*
X153786456Y-66275620D01*
X155690259Y-64371819D01*
X155751582Y-64338334D01*
X155777940Y-64335500D01*
X159421158Y-64335500D01*
X159448085Y-64335500D01*
X159461969Y-64336280D01*
G37*
%TD.AperFunction*%
%TA.AperFunction,NonConductor*%
G36*
X170638181Y-77110412D02*
G01*
X170671666Y-77171735D01*
X170674500Y-77198093D01*
X170674500Y-78743060D01*
X170654815Y-78810099D01*
X170602011Y-78855854D01*
X170532853Y-78865798D01*
X170469297Y-78836773D01*
X170462819Y-78830741D01*
X170336819Y-78704741D01*
X170303334Y-78643418D01*
X170300500Y-78617060D01*
X170300500Y-78051914D01*
X170301280Y-78038029D01*
X170302206Y-78029816D01*
X170305565Y-78000000D01*
X170301279Y-77961968D01*
X170300500Y-77948085D01*
X170300500Y-77241976D01*
X170320185Y-77174937D01*
X170372989Y-77129182D01*
X170400135Y-77121736D01*
X170399932Y-77120876D01*
X170407476Y-77119093D01*
X170407480Y-77119091D01*
X170407483Y-77119091D01*
X170507168Y-77081910D01*
X170576858Y-77076927D01*
X170638181Y-77110412D01*
G37*
%TD.AperFunction*%
%TA.AperFunction,NonConductor*%
G36*
X145055702Y-70938226D02*
G01*
X145062180Y-70944258D01*
X149693538Y-75575616D01*
X149727023Y-75636939D01*
X149722039Y-75706631D01*
X149680167Y-75762564D01*
X149614703Y-75786981D01*
X149558405Y-75777858D01*
X149443501Y-75730264D01*
X149443489Y-75730261D01*
X149288845Y-75699500D01*
X149288842Y-75699500D01*
X149051915Y-75699500D01*
X149038031Y-75698720D01*
X149000002Y-75694435D01*
X148999998Y-75694435D01*
X148961969Y-75698720D01*
X148948085Y-75699500D01*
X148921152Y-75699500D01*
X148881994Y-75707288D01*
X148871696Y-75708890D01*
X148820742Y-75714632D01*
X148820735Y-75714634D01*
X148796898Y-75722975D01*
X148780140Y-75727550D01*
X148766502Y-75730263D01*
X148766496Y-75730264D01*
X148717631Y-75750504D01*
X148711140Y-75752982D01*
X148650477Y-75774210D01*
X148650474Y-75774212D01*
X148640127Y-75780713D01*
X148621639Y-75790266D01*
X148620832Y-75790600D01*
X148620824Y-75790604D01*
X148566047Y-75827204D01*
X148563132Y-75829092D01*
X148497742Y-75870180D01*
X148497735Y-75870186D01*
X148370186Y-75997735D01*
X148370180Y-75997742D01*
X148329092Y-76063132D01*
X148327209Y-76066038D01*
X148310693Y-76090758D01*
X148290604Y-76120824D01*
X148290600Y-76120832D01*
X148290266Y-76121639D01*
X148280713Y-76140127D01*
X148274212Y-76150474D01*
X148274210Y-76150477D01*
X148252982Y-76211140D01*
X148250504Y-76217631D01*
X148230264Y-76266496D01*
X148230263Y-76266502D01*
X148227550Y-76280140D01*
X148222975Y-76296898D01*
X148214634Y-76320735D01*
X148214632Y-76320742D01*
X148208890Y-76371696D01*
X148207288Y-76381994D01*
X148199500Y-76421152D01*
X148199500Y-76448085D01*
X148198720Y-76461969D01*
X148194435Y-76499998D01*
X148194435Y-76500001D01*
X148198720Y-76538029D01*
X148199500Y-76551914D01*
X148199500Y-76578844D01*
X148207288Y-76618003D01*
X148208890Y-76628303D01*
X148209061Y-76629816D01*
X148213904Y-76672797D01*
X148214632Y-76679252D01*
X148214633Y-76679260D01*
X148222976Y-76703104D01*
X148227550Y-76719860D01*
X148230262Y-76733496D01*
X148250509Y-76782377D01*
X148252986Y-76788867D01*
X148261256Y-76812501D01*
X148274212Y-76849524D01*
X148280709Y-76859865D01*
X148290268Y-76878365D01*
X148290603Y-76879173D01*
X148290605Y-76879179D01*
X148327223Y-76933982D01*
X148329114Y-76936900D01*
X148370180Y-77002257D01*
X148370182Y-77002260D01*
X148370184Y-77002262D01*
X148497738Y-77129816D01*
X148550838Y-77163181D01*
X148563131Y-77170905D01*
X148566040Y-77172790D01*
X148620821Y-77209394D01*
X148621606Y-77209719D01*
X148640134Y-77219289D01*
X148650478Y-77225789D01*
X148711175Y-77247028D01*
X148717607Y-77249484D01*
X148746021Y-77261253D01*
X148766497Y-77269735D01*
X148766498Y-77269735D01*
X148766503Y-77269737D01*
X148780139Y-77272449D01*
X148796898Y-77277023D01*
X148820745Y-77285368D01*
X148825566Y-77285911D01*
X148889982Y-77312973D01*
X148899373Y-77321451D01*
X150309965Y-78732043D01*
X150343450Y-78793366D01*
X150345860Y-78829961D01*
X150343716Y-78855854D01*
X150329700Y-79025004D01*
X150329700Y-79025006D01*
X150337690Y-79121433D01*
X150323609Y-79189869D01*
X150274764Y-79239828D01*
X150206663Y-79255449D01*
X150140927Y-79231771D01*
X150126433Y-79219354D01*
X148285292Y-77378213D01*
X148285288Y-77378210D01*
X148154185Y-77290609D01*
X148154172Y-77290602D01*
X148008501Y-77230264D01*
X148008489Y-77230261D01*
X147853845Y-77199500D01*
X147853842Y-77199500D01*
X145230012Y-77199500D01*
X145162973Y-77179815D01*
X145117218Y-77127011D01*
X145107274Y-77057853D01*
X145128194Y-77009469D01*
X145126110Y-77008160D01*
X145129819Y-77002257D01*
X145170931Y-76936825D01*
X145172777Y-76933979D01*
X145209389Y-76879186D01*
X145209394Y-76879179D01*
X145209720Y-76878390D01*
X145219287Y-76859868D01*
X145225789Y-76849522D01*
X145247023Y-76788837D01*
X145249490Y-76782377D01*
X145269737Y-76733497D01*
X145272449Y-76719860D01*
X145277023Y-76703100D01*
X145285368Y-76679255D01*
X145291110Y-76628283D01*
X145292707Y-76618017D01*
X145300500Y-76578842D01*
X145300500Y-76551914D01*
X145301280Y-76538029D01*
X145305565Y-76500001D01*
X145305565Y-76499998D01*
X145301280Y-76461969D01*
X145300500Y-76448085D01*
X145300500Y-76421157D01*
X145292711Y-76382003D01*
X145291110Y-76371714D01*
X145285368Y-76320745D01*
X145277023Y-76296898D01*
X145272449Y-76280139D01*
X145269737Y-76266503D01*
X145250423Y-76219875D01*
X145242955Y-76150409D01*
X145274230Y-76087930D01*
X145334318Y-76052277D01*
X145404144Y-76054770D01*
X145452666Y-76084744D01*
X145870184Y-76502262D01*
X145997738Y-76629816D01*
X146020724Y-76644259D01*
X146063131Y-76670905D01*
X146066040Y-76672790D01*
X146120821Y-76709394D01*
X146121606Y-76709719D01*
X146140134Y-76719289D01*
X146150478Y-76725789D01*
X146211175Y-76747028D01*
X146217607Y-76749484D01*
X146246021Y-76761253D01*
X146266497Y-76769735D01*
X146266498Y-76769735D01*
X146266503Y-76769737D01*
X146280139Y-76772449D01*
X146296898Y-76777023D01*
X146320745Y-76785368D01*
X146371714Y-76791110D01*
X146381992Y-76792709D01*
X146409140Y-76798109D01*
X146421157Y-76800500D01*
X146421158Y-76800500D01*
X146448085Y-76800500D01*
X146461969Y-76801280D01*
X146499998Y-76805565D01*
X146500000Y-76805565D01*
X146500002Y-76805565D01*
X146538031Y-76801280D01*
X146551915Y-76800500D01*
X146578841Y-76800500D01*
X146578842Y-76800500D01*
X146618017Y-76792707D01*
X146628283Y-76791110D01*
X146679255Y-76785368D01*
X146703100Y-76777023D01*
X146719862Y-76772448D01*
X146733497Y-76769737D01*
X146782389Y-76749484D01*
X146788837Y-76747023D01*
X146849522Y-76725789D01*
X146859868Y-76719287D01*
X146878390Y-76709720D01*
X146879179Y-76709394D01*
X146933987Y-76672771D01*
X146936825Y-76670931D01*
X147002262Y-76629816D01*
X147129816Y-76502262D01*
X147170931Y-76436825D01*
X147172777Y-76433979D01*
X147209389Y-76379186D01*
X147209394Y-76379179D01*
X147209720Y-76378390D01*
X147219287Y-76359868D01*
X147225789Y-76349522D01*
X147247023Y-76288837D01*
X147249484Y-76282389D01*
X147269737Y-76233497D01*
X147272448Y-76219862D01*
X147277023Y-76203100D01*
X147285368Y-76179255D01*
X147291110Y-76128283D01*
X147292707Y-76118017D01*
X147300500Y-76078842D01*
X147300500Y-76051914D01*
X147301280Y-76038029D01*
X147305565Y-76000001D01*
X147305565Y-75999998D01*
X147301280Y-75961969D01*
X147300500Y-75948085D01*
X147300500Y-75921157D01*
X147292711Y-75882003D01*
X147291110Y-75871714D01*
X147285368Y-75820745D01*
X147277023Y-75796898D01*
X147272449Y-75780139D01*
X147269737Y-75766503D01*
X147268105Y-75762564D01*
X147261253Y-75746021D01*
X147249484Y-75717607D01*
X147247028Y-75711175D01*
X147225789Y-75650478D01*
X147219289Y-75640134D01*
X147209719Y-75621606D01*
X147209394Y-75620821D01*
X147172790Y-75566040D01*
X147170905Y-75563131D01*
X147159483Y-75544953D01*
X147129816Y-75497738D01*
X147002262Y-75370184D01*
X144836819Y-73204741D01*
X144803334Y-73143418D01*
X144800500Y-73117060D01*
X144800500Y-72371728D01*
X144808318Y-72328394D01*
X144833818Y-72260026D01*
X144844091Y-72232483D01*
X144850500Y-72172873D01*
X144850499Y-71031938D01*
X144870184Y-70964900D01*
X144922987Y-70919145D01*
X144992146Y-70909201D01*
X145055702Y-70938226D01*
G37*
%TD.AperFunction*%
%TA.AperFunction,NonConductor*%
G36*
X123187539Y-76020185D02*
G01*
X123233294Y-76072989D01*
X123244500Y-76124500D01*
X123244500Y-76571889D01*
X123264974Y-76714296D01*
X123264977Y-76714308D01*
X123270612Y-76733498D01*
X123305483Y-76852259D01*
X123317774Y-76879173D01*
X123365252Y-76983136D01*
X123365253Y-76983138D01*
X123439376Y-77098476D01*
X123440196Y-77099917D01*
X123442988Y-77104098D01*
X123537207Y-77212830D01*
X123537210Y-77212833D01*
X123626969Y-77290609D01*
X123645870Y-77306986D01*
X123645874Y-77306989D01*
X123649414Y-77309639D01*
X123648146Y-77311331D01*
X123688275Y-77357607D01*
X123699500Y-77409161D01*
X123699500Y-79177701D01*
X123679815Y-79244740D01*
X123640598Y-79283239D01*
X123581344Y-79319787D01*
X123457289Y-79443842D01*
X123365187Y-79593163D01*
X123365186Y-79593166D01*
X123310001Y-79759703D01*
X123310001Y-79759704D01*
X123310000Y-79759704D01*
X123299500Y-79862483D01*
X123299500Y-80487501D01*
X123299501Y-80487519D01*
X123310000Y-80590296D01*
X123310001Y-80590299D01*
X123365185Y-80756831D01*
X123365187Y-80756836D01*
X123383344Y-80786273D01*
X123435100Y-80870184D01*
X123457289Y-80906157D01*
X123550951Y-80999819D01*
X123584436Y-81061142D01*
X123579452Y-81130834D01*
X123550951Y-81175181D01*
X123457289Y-81268842D01*
X123365184Y-81418168D01*
X123358114Y-81439506D01*
X123318341Y-81496950D01*
X123253825Y-81523772D01*
X123240409Y-81524500D01*
X119548730Y-81524500D01*
X119481691Y-81504815D01*
X119435936Y-81452011D01*
X119425992Y-81382853D01*
X119455017Y-81319297D01*
X119461049Y-81312819D01*
X119493728Y-81280140D01*
X119542712Y-81231156D01*
X119634814Y-81081834D01*
X119689999Y-80915297D01*
X119700500Y-80812509D01*
X119700499Y-80187492D01*
X119698802Y-80170883D01*
X119689999Y-80084703D01*
X119689998Y-80084700D01*
X119680312Y-80055469D01*
X119634814Y-79918166D01*
X119542712Y-79768844D01*
X119418656Y-79644788D01*
X119418655Y-79644787D01*
X119359402Y-79608239D01*
X119312678Y-79556291D01*
X119300500Y-79502701D01*
X119300500Y-77409161D01*
X119320185Y-77342122D01*
X119351481Y-77310835D01*
X119350586Y-77309639D01*
X119354125Y-77306989D01*
X119354130Y-77306986D01*
X119462791Y-77212832D01*
X119462794Y-77212829D01*
X119557015Y-77104091D01*
X119634747Y-76983137D01*
X119694517Y-76852259D01*
X119735024Y-76714304D01*
X119755500Y-76571889D01*
X119755500Y-76124500D01*
X119775185Y-76057461D01*
X119827989Y-76011706D01*
X119879500Y-76000500D01*
X123120500Y-76000500D01*
X123187539Y-76020185D01*
G37*
%TD.AperFunction*%
%TA.AperFunction,NonConductor*%
G36*
X128143834Y-76090758D02*
G01*
X128199767Y-76132630D01*
X128224184Y-76198094D01*
X128224500Y-76206940D01*
X128224500Y-82293060D01*
X128204815Y-82360099D01*
X128152011Y-82405854D01*
X128082853Y-82415798D01*
X128019297Y-82386773D01*
X128012819Y-82380741D01*
X128002260Y-82370182D01*
X128002257Y-82370180D01*
X127936900Y-82329114D01*
X127933982Y-82327223D01*
X127879179Y-82290605D01*
X127879173Y-82290603D01*
X127878365Y-82290268D01*
X127859865Y-82280709D01*
X127849524Y-82274212D01*
X127849523Y-82274211D01*
X127849522Y-82274211D01*
X127788867Y-82252986D01*
X127782377Y-82250509D01*
X127776708Y-82248161D01*
X127772330Y-82246347D01*
X127733496Y-82230262D01*
X127719860Y-82227550D01*
X127703104Y-82222976D01*
X127679260Y-82214633D01*
X127679256Y-82214632D01*
X127679255Y-82214632D01*
X127658575Y-82212301D01*
X127628303Y-82208890D01*
X127618003Y-82207288D01*
X127578844Y-82199500D01*
X127578842Y-82199500D01*
X127551915Y-82199500D01*
X127538031Y-82198720D01*
X127500002Y-82194435D01*
X127499998Y-82194435D01*
X127461969Y-82198720D01*
X127448085Y-82199500D01*
X125882940Y-82199500D01*
X125815901Y-82179815D01*
X125795259Y-82163181D01*
X125736818Y-82104740D01*
X125703333Y-82043417D01*
X125700499Y-82017059D01*
X125700499Y-81687498D01*
X125700498Y-81687481D01*
X125689999Y-81584703D01*
X125689998Y-81584700D01*
X125634814Y-81418166D01*
X125542712Y-81268844D01*
X125449049Y-81175181D01*
X125415564Y-81113858D01*
X125420548Y-81044166D01*
X125449049Y-80999819D01*
X125491887Y-80956981D01*
X125542712Y-80906156D01*
X125634814Y-80756834D01*
X125689999Y-80590297D01*
X125700500Y-80487509D01*
X125700499Y-79862492D01*
X125700432Y-79861841D01*
X125689999Y-79759703D01*
X125689998Y-79759700D01*
X125680244Y-79730264D01*
X125634814Y-79593166D01*
X125542712Y-79443844D01*
X125418656Y-79319788D01*
X125418655Y-79319787D01*
X125359402Y-79283239D01*
X125312678Y-79231291D01*
X125300500Y-79177701D01*
X125300500Y-77409161D01*
X125320185Y-77342122D01*
X125351481Y-77310835D01*
X125350586Y-77309639D01*
X125354125Y-77306989D01*
X125354130Y-77306986D01*
X125462791Y-77212832D01*
X125462794Y-77212829D01*
X125557015Y-77104091D01*
X125634747Y-76983137D01*
X125694517Y-76852259D01*
X125735024Y-76714304D01*
X125755500Y-76571889D01*
X125755500Y-76424500D01*
X125775185Y-76357461D01*
X125827989Y-76311706D01*
X125879500Y-76300500D01*
X127448085Y-76300500D01*
X127461969Y-76301280D01*
X127499998Y-76305565D01*
X127500000Y-76305565D01*
X127500002Y-76305565D01*
X127538031Y-76301280D01*
X127551915Y-76300500D01*
X127578841Y-76300500D01*
X127578842Y-76300500D01*
X127618017Y-76292707D01*
X127628283Y-76291110D01*
X127679255Y-76285368D01*
X127703100Y-76277023D01*
X127719862Y-76272448D01*
X127733497Y-76269737D01*
X127782389Y-76249484D01*
X127788837Y-76247023D01*
X127849522Y-76225789D01*
X127859868Y-76219287D01*
X127878390Y-76209720D01*
X127879179Y-76209394D01*
X127933987Y-76172771D01*
X127936825Y-76170931D01*
X128002262Y-76129816D01*
X128012819Y-76119259D01*
X128074142Y-76085774D01*
X128143834Y-76090758D01*
G37*
%TD.AperFunction*%
%TA.AperFunction,NonConductor*%
G36*
X182618834Y-76615758D02*
G01*
X182674767Y-76657630D01*
X182699184Y-76723094D01*
X182699500Y-76731940D01*
X182699500Y-78290839D01*
X182679815Y-78357878D01*
X182648531Y-78389170D01*
X182649420Y-78390357D01*
X182645872Y-78393012D01*
X182645870Y-78393014D01*
X182598615Y-78433960D01*
X182537210Y-78487167D01*
X182537207Y-78487169D01*
X182537206Y-78487171D01*
X182442985Y-78595909D01*
X182442983Y-78595911D01*
X182442983Y-78595912D01*
X182442981Y-78595915D01*
X182365255Y-78716857D01*
X182365252Y-78716863D01*
X182305483Y-78847741D01*
X182264977Y-78985691D01*
X182264974Y-78985703D01*
X182244500Y-79128110D01*
X182244500Y-79700002D01*
X182249644Y-79771939D01*
X182260603Y-79809262D01*
X182264363Y-79861841D01*
X182244500Y-79999998D01*
X182244500Y-80571889D01*
X182264974Y-80714296D01*
X182264977Y-80714308D01*
X182277463Y-80756831D01*
X182305483Y-80852259D01*
X182313669Y-80870184D01*
X182365252Y-80983136D01*
X182365253Y-80983138D01*
X182439376Y-81098476D01*
X182440196Y-81099917D01*
X182442988Y-81104098D01*
X182537207Y-81212830D01*
X182537210Y-81212833D01*
X182638384Y-81300500D01*
X182645870Y-81306986D01*
X182645874Y-81306989D01*
X182649414Y-81309639D01*
X182648146Y-81311331D01*
X182688275Y-81357607D01*
X182699500Y-81409161D01*
X182699500Y-82502701D01*
X182679815Y-82569740D01*
X182640598Y-82608239D01*
X182581344Y-82644787D01*
X182457289Y-82768842D01*
X182365187Y-82918163D01*
X182365185Y-82918168D01*
X182338819Y-82997735D01*
X182310001Y-83084703D01*
X182310001Y-83084704D01*
X182310000Y-83084704D01*
X182299500Y-83187483D01*
X182299500Y-83812501D01*
X182299501Y-83812519D01*
X182310000Y-83915296D01*
X182310001Y-83915299D01*
X182365185Y-84081831D01*
X182365187Y-84081836D01*
X182457289Y-84231157D01*
X182550951Y-84324819D01*
X182584436Y-84386142D01*
X182579452Y-84455834D01*
X182550951Y-84500181D01*
X182457289Y-84593842D01*
X182365187Y-84743163D01*
X182365185Y-84743168D01*
X182349466Y-84790605D01*
X182310001Y-84909703D01*
X182310001Y-84909704D01*
X182310000Y-84909704D01*
X182299500Y-85012483D01*
X182299500Y-85342059D01*
X182279815Y-85409098D01*
X182263181Y-85429740D01*
X178012181Y-89680740D01*
X177950858Y-89714225D01*
X177881166Y-89709241D01*
X177825233Y-89667369D01*
X177800816Y-89601905D01*
X177800500Y-89593059D01*
X177800500Y-86322297D01*
X177820185Y-86255258D01*
X177859403Y-86216758D01*
X177918656Y-86180212D01*
X178042712Y-86056156D01*
X178134814Y-85906834D01*
X178189999Y-85740297D01*
X178200500Y-85637509D01*
X178200499Y-85012492D01*
X178189999Y-84909703D01*
X178134814Y-84743166D01*
X178042712Y-84593844D01*
X177949049Y-84500181D01*
X177915564Y-84438858D01*
X177920548Y-84369166D01*
X177949049Y-84324819D01*
X177989064Y-84284804D01*
X178042712Y-84231156D01*
X178134814Y-84081834D01*
X178189999Y-83915297D01*
X178200500Y-83812509D01*
X178200499Y-83187492D01*
X178199755Y-83180212D01*
X178189999Y-83084703D01*
X178189998Y-83084700D01*
X178134814Y-82918166D01*
X178042712Y-82768844D01*
X177918656Y-82644788D01*
X177918655Y-82644787D01*
X177859402Y-82608239D01*
X177812678Y-82556291D01*
X177800500Y-82502701D01*
X177800500Y-81059161D01*
X177820185Y-80992122D01*
X177851481Y-80960835D01*
X177850586Y-80959639D01*
X177854125Y-80956989D01*
X177854130Y-80956986D01*
X177962791Y-80862832D01*
X177962794Y-80862829D01*
X178057015Y-80754091D01*
X178134747Y-80633137D01*
X178194517Y-80502259D01*
X178235024Y-80364304D01*
X178255500Y-80221889D01*
X178255500Y-79774500D01*
X178275185Y-79707461D01*
X178327989Y-79661706D01*
X178379500Y-79650500D01*
X179228844Y-79650500D01*
X179228845Y-79650499D01*
X179383497Y-79619737D01*
X179529179Y-79559394D01*
X179660289Y-79471789D01*
X182487819Y-76644259D01*
X182549142Y-76610774D01*
X182618834Y-76615758D01*
G37*
%TD.AperFunction*%
%TA.AperFunction,NonConductor*%
G36*
X148867414Y-92090185D02*
G01*
X148913169Y-92142989D01*
X148921992Y-92170308D01*
X148934684Y-92234116D01*
X148934686Y-92234122D01*
X148993897Y-92377071D01*
X148993902Y-92377080D01*
X149080451Y-92506609D01*
X149101329Y-92573287D01*
X149082844Y-92640667D01*
X149030866Y-92687357D01*
X148977349Y-92699500D01*
X138051915Y-92699500D01*
X138038031Y-92698720D01*
X138000002Y-92694435D01*
X137999998Y-92694435D01*
X137961969Y-92698720D01*
X137948085Y-92699500D01*
X137921152Y-92699500D01*
X137881994Y-92707288D01*
X137871696Y-92708890D01*
X137820742Y-92714632D01*
X137820735Y-92714634D01*
X137796898Y-92722975D01*
X137780140Y-92727550D01*
X137766502Y-92730263D01*
X137766496Y-92730264D01*
X137717631Y-92750504D01*
X137711140Y-92752982D01*
X137650477Y-92774210D01*
X137650474Y-92774212D01*
X137640127Y-92780713D01*
X137621639Y-92790266D01*
X137620832Y-92790600D01*
X137620824Y-92790604D01*
X137620821Y-92790605D01*
X137620821Y-92790606D01*
X137578227Y-92819066D01*
X137566047Y-92827204D01*
X137563132Y-92829093D01*
X137501222Y-92867995D01*
X137433985Y-92886996D01*
X137367150Y-92866629D01*
X137321935Y-92813362D01*
X137312696Y-92744106D01*
X137342367Y-92680849D01*
X137347553Y-92675335D01*
X137916070Y-92106819D01*
X137977393Y-92073334D01*
X138003751Y-92070500D01*
X148800375Y-92070500D01*
X148867414Y-92090185D01*
G37*
%TD.AperFunction*%
%TA.AperFunction,NonConductor*%
G36*
X157987273Y-95620185D02*
G01*
X157989125Y-95621398D01*
X158120814Y-95709390D01*
X158120827Y-95709397D01*
X158272130Y-95772068D01*
X158271321Y-95774019D01*
X158321746Y-95807064D01*
X158350202Y-95870876D01*
X158339642Y-95939943D01*
X158314994Y-95975109D01*
X158161503Y-96128600D01*
X158031575Y-96314158D01*
X157976998Y-96357783D01*
X157907500Y-96364977D01*
X157845145Y-96333454D01*
X157828425Y-96314158D01*
X157698494Y-96128597D01*
X157531402Y-95961506D01*
X157531396Y-95961501D01*
X157337987Y-95826075D01*
X157294362Y-95771498D01*
X157287168Y-95702000D01*
X157318691Y-95639645D01*
X157378921Y-95604231D01*
X157409110Y-95600500D01*
X157920234Y-95600500D01*
X157987273Y-95620185D01*
G37*
%TD.AperFunction*%
%TA.AperFunction,NonConductor*%
G36*
X170089830Y-65155185D02*
G01*
X170135585Y-65207989D01*
X170145529Y-65277147D01*
X170142996Y-65289941D01*
X170088868Y-65503682D01*
X170088864Y-65503702D01*
X170069700Y-65734993D01*
X170069700Y-65734994D01*
X170069700Y-65735000D01*
X170085861Y-65930034D01*
X170071779Y-65998470D01*
X170049965Y-66027955D01*
X168871865Y-67206057D01*
X168489711Y-67588211D01*
X168460998Y-67616924D01*
X168378209Y-67699712D01*
X168290609Y-67830814D01*
X168290602Y-67830827D01*
X168230264Y-67976498D01*
X168230261Y-67976510D01*
X168199500Y-68131153D01*
X168199500Y-73128271D01*
X168191682Y-73171604D01*
X168155908Y-73267517D01*
X168149501Y-73327116D01*
X168149501Y-73327123D01*
X168149500Y-73327135D01*
X168149500Y-74672870D01*
X168149501Y-74672876D01*
X168156421Y-74737247D01*
X168144014Y-74806006D01*
X168096403Y-74857143D01*
X168033131Y-74874500D01*
X167652130Y-74874500D01*
X167652123Y-74874501D01*
X167592516Y-74880908D01*
X167457671Y-74931202D01*
X167457664Y-74931206D01*
X167342455Y-75017452D01*
X167342452Y-75017455D01*
X167256206Y-75132664D01*
X167256202Y-75132671D01*
X167205908Y-75267517D01*
X167199501Y-75327116D01*
X167199500Y-75327135D01*
X167199500Y-76672870D01*
X167199501Y-76672876D01*
X167205908Y-76732483D01*
X167241682Y-76828395D01*
X167249500Y-76871728D01*
X167249500Y-79146862D01*
X167229815Y-79213901D01*
X167190598Y-79252399D01*
X167140600Y-79283239D01*
X167081342Y-79319789D01*
X166957289Y-79443842D01*
X166865187Y-79593163D01*
X166865186Y-79593166D01*
X166810001Y-79759703D01*
X166810001Y-79759704D01*
X166810000Y-79759704D01*
X166799500Y-79862483D01*
X166799500Y-80487501D01*
X166799501Y-80487519D01*
X166810000Y-80590296D01*
X166810001Y-80590299D01*
X166865185Y-80756831D01*
X166865187Y-80756836D01*
X166883344Y-80786273D01*
X166935100Y-80870184D01*
X166957289Y-80906157D01*
X167050951Y-80999819D01*
X167084436Y-81061142D01*
X167079452Y-81130834D01*
X167050951Y-81175181D01*
X166957289Y-81268842D01*
X166865187Y-81418163D01*
X166865185Y-81418168D01*
X166838070Y-81499998D01*
X166810001Y-81584703D01*
X166810001Y-81584704D01*
X166810000Y-81584704D01*
X166799500Y-81687483D01*
X166799500Y-82312501D01*
X166799501Y-82312519D01*
X166810001Y-82415299D01*
X166821440Y-82449821D01*
X166823841Y-82519650D01*
X166791415Y-82576505D01*
X164997738Y-84370184D01*
X164870186Y-84497735D01*
X164870180Y-84497742D01*
X164829092Y-84563132D01*
X164827204Y-84566047D01*
X164790604Y-84620824D01*
X164790600Y-84620832D01*
X164790266Y-84621639D01*
X164780713Y-84640127D01*
X164774212Y-84650474D01*
X164774210Y-84650477D01*
X164752982Y-84711140D01*
X164750504Y-84717631D01*
X164730264Y-84766496D01*
X164730263Y-84766502D01*
X164727550Y-84780140D01*
X164722975Y-84796898D01*
X164714634Y-84820735D01*
X164714632Y-84820742D01*
X164708890Y-84871696D01*
X164707288Y-84881994D01*
X164699500Y-84921152D01*
X164699500Y-84948085D01*
X164698720Y-84961969D01*
X164694435Y-84999998D01*
X164694435Y-85000001D01*
X164698720Y-85038029D01*
X164699500Y-85051914D01*
X164699500Y-85078844D01*
X164707288Y-85118003D01*
X164708890Y-85128303D01*
X164714632Y-85179252D01*
X164714633Y-85179260D01*
X164722976Y-85203104D01*
X164727550Y-85219860D01*
X164730262Y-85233496D01*
X164750509Y-85282377D01*
X164752986Y-85288867D01*
X164771599Y-85342059D01*
X164774212Y-85349524D01*
X164780709Y-85359865D01*
X164790268Y-85378365D01*
X164790603Y-85379173D01*
X164790605Y-85379179D01*
X164827223Y-85433982D01*
X164829114Y-85436900D01*
X164870180Y-85502257D01*
X164870182Y-85502260D01*
X164870184Y-85502262D01*
X164997738Y-85629816D01*
X165031699Y-85651155D01*
X165063131Y-85670905D01*
X165066040Y-85672790D01*
X165120821Y-85709394D01*
X165121606Y-85709719D01*
X165140134Y-85719289D01*
X165150478Y-85725789D01*
X165211175Y-85747028D01*
X165217607Y-85749484D01*
X165246021Y-85761253D01*
X165266497Y-85769735D01*
X165266498Y-85769735D01*
X165266503Y-85769737D01*
X165280139Y-85772449D01*
X165296898Y-85777023D01*
X165320745Y-85785368D01*
X165371714Y-85791110D01*
X165381992Y-85792709D01*
X165409140Y-85798109D01*
X165421157Y-85800500D01*
X165421158Y-85800500D01*
X165448085Y-85800500D01*
X165461969Y-85801280D01*
X165499998Y-85805565D01*
X165500000Y-85805565D01*
X165500002Y-85805565D01*
X165538031Y-85801280D01*
X165551915Y-85800500D01*
X165578841Y-85800500D01*
X165578842Y-85800500D01*
X165618017Y-85792707D01*
X165628283Y-85791110D01*
X165679255Y-85785368D01*
X165703100Y-85777023D01*
X165719862Y-85772448D01*
X165733497Y-85769737D01*
X165782389Y-85749484D01*
X165788837Y-85747023D01*
X165849522Y-85725789D01*
X165859868Y-85719287D01*
X165878390Y-85709720D01*
X165879179Y-85709394D01*
X165933987Y-85672771D01*
X165936825Y-85670931D01*
X166002262Y-85629816D01*
X166129816Y-85502262D01*
X168621789Y-83010289D01*
X168621791Y-83010285D01*
X168622072Y-83010005D01*
X168670746Y-82979982D01*
X168769334Y-82947314D01*
X168918656Y-82855212D01*
X169042712Y-82731156D01*
X169134814Y-82581834D01*
X169189999Y-82415297D01*
X169200500Y-82312509D01*
X169200499Y-81687492D01*
X169189999Y-81584703D01*
X169134814Y-81418166D01*
X169042712Y-81268844D01*
X168949049Y-81175181D01*
X168915564Y-81113858D01*
X168920548Y-81044166D01*
X168949049Y-80999819D01*
X168991887Y-80956981D01*
X169042712Y-80906156D01*
X169134814Y-80756834D01*
X169189999Y-80590297D01*
X169200500Y-80487509D01*
X169200499Y-80131937D01*
X169220183Y-80064900D01*
X169272987Y-80019145D01*
X169342146Y-80009201D01*
X169405701Y-80038226D01*
X169412180Y-80044258D01*
X169497738Y-80129816D01*
X169557438Y-80167328D01*
X169563131Y-80170905D01*
X169566040Y-80172790D01*
X169620821Y-80209394D01*
X169621606Y-80209719D01*
X169640134Y-80219289D01*
X169650478Y-80225789D01*
X169711114Y-80247006D01*
X169717611Y-80249486D01*
X169766503Y-80269738D01*
X169766510Y-80269739D01*
X169766512Y-80269740D01*
X169780142Y-80272451D01*
X169796907Y-80277026D01*
X169820745Y-80285368D01*
X169871711Y-80291109D01*
X169881998Y-80292710D01*
X169899562Y-80296204D01*
X169921155Y-80300500D01*
X169921158Y-80300500D01*
X169948085Y-80300500D01*
X169961969Y-80301280D01*
X169999998Y-80305565D01*
X170000000Y-80305565D01*
X170000002Y-80305565D01*
X170038031Y-80301280D01*
X170051915Y-80300500D01*
X170078845Y-80300500D01*
X170091003Y-80298080D01*
X170118009Y-80292708D01*
X170128285Y-80291110D01*
X170179255Y-80285368D01*
X170203095Y-80277025D01*
X170219845Y-80272452D01*
X170233497Y-80269738D01*
X170282407Y-80249477D01*
X170288837Y-80247022D01*
X170349522Y-80225789D01*
X170359868Y-80219287D01*
X170378390Y-80209720D01*
X170379179Y-80209394D01*
X170433987Y-80172771D01*
X170436825Y-80170931D01*
X170484531Y-80140956D01*
X170551767Y-80121958D01*
X170618602Y-80142327D01*
X170663815Y-80195596D01*
X170674500Y-80245952D01*
X170674500Y-89842059D01*
X170654815Y-89909098D01*
X170638181Y-89929740D01*
X164871489Y-95696431D01*
X164810166Y-95729916D01*
X164749345Y-95725810D01*
X164748893Y-95727498D01*
X164515413Y-95664938D01*
X164515403Y-95664936D01*
X164280001Y-95644341D01*
X164279999Y-95644341D01*
X164044596Y-95664936D01*
X164044586Y-95664938D01*
X163816344Y-95726094D01*
X163816335Y-95726098D01*
X163602171Y-95825964D01*
X163602169Y-95825965D01*
X163408597Y-95961505D01*
X163241505Y-96128597D01*
X163111575Y-96314158D01*
X163056998Y-96357783D01*
X162987500Y-96364977D01*
X162925145Y-96333454D01*
X162908425Y-96314158D01*
X162778494Y-96128597D01*
X162611402Y-95961506D01*
X162611395Y-95961501D01*
X162602176Y-95955046D01*
X162553778Y-95921157D01*
X162417834Y-95825967D01*
X162417830Y-95825965D01*
X162355532Y-95796915D01*
X162203663Y-95726097D01*
X162203659Y-95726096D01*
X162203655Y-95726094D01*
X161975413Y-95664938D01*
X161975403Y-95664936D01*
X161740001Y-95644341D01*
X161739999Y-95644341D01*
X161504596Y-95664936D01*
X161504586Y-95664938D01*
X161276344Y-95726094D01*
X161276335Y-95726098D01*
X161062171Y-95825964D01*
X161062169Y-95825965D01*
X160868597Y-95961505D01*
X160701505Y-96128597D01*
X160571575Y-96314158D01*
X160516998Y-96357783D01*
X160447500Y-96364977D01*
X160385145Y-96333454D01*
X160368425Y-96314158D01*
X160238494Y-96128597D01*
X160102383Y-95992486D01*
X160068898Y-95931163D01*
X160073882Y-95861471D01*
X160115754Y-95805538D01*
X160165869Y-95783189D01*
X160233497Y-95769737D01*
X160367096Y-95714399D01*
X160379172Y-95709397D01*
X160379172Y-95709396D01*
X160379179Y-95709394D01*
X160510289Y-95621789D01*
X166121789Y-90010289D01*
X166129816Y-90002262D01*
X166170931Y-89936825D01*
X166172777Y-89933979D01*
X166209394Y-89879179D01*
X166209720Y-89878390D01*
X166219287Y-89859868D01*
X166225789Y-89849522D01*
X166247022Y-89788837D01*
X166249477Y-89782407D01*
X166269738Y-89733497D01*
X166272449Y-89719860D01*
X166277025Y-89703096D01*
X166285368Y-89679255D01*
X166291109Y-89628287D01*
X166292709Y-89618004D01*
X166300500Y-89578842D01*
X166300500Y-89551914D01*
X166301280Y-89538029D01*
X166305565Y-89500001D01*
X166305565Y-89499998D01*
X166301280Y-89461969D01*
X166300500Y-89448085D01*
X166300500Y-89421157D01*
X166292710Y-89381998D01*
X166292709Y-89381994D01*
X166292708Y-89381987D01*
X166291108Y-89371696D01*
X166285368Y-89320745D01*
X166277026Y-89296905D01*
X166272453Y-89280150D01*
X166269739Y-89266508D01*
X166269738Y-89266502D01*
X166249479Y-89217593D01*
X166247011Y-89211128D01*
X166225789Y-89150478D01*
X166225787Y-89150475D01*
X166225787Y-89150474D01*
X166222749Y-89145640D01*
X166219293Y-89140140D01*
X166209721Y-89121610D01*
X166209394Y-89120821D01*
X166172776Y-89066019D01*
X166170890Y-89063108D01*
X166129816Y-88997738D01*
X166126129Y-88994051D01*
X166126109Y-88994029D01*
X166007194Y-88875114D01*
X166007163Y-88875085D01*
X166002262Y-88870184D01*
X165936874Y-88829098D01*
X165933955Y-88827206D01*
X165879184Y-88790609D01*
X165879181Y-88790607D01*
X165879179Y-88790606D01*
X165879176Y-88790604D01*
X165879169Y-88790601D01*
X165878381Y-88790275D01*
X165859862Y-88780708D01*
X165849523Y-88774211D01*
X165788876Y-88752989D01*
X165782382Y-88750510D01*
X165773932Y-88747010D01*
X165733498Y-88730262D01*
X165733496Y-88730261D01*
X165733493Y-88730260D01*
X165719841Y-88727544D01*
X165703093Y-88722972D01*
X165679258Y-88714632D01*
X165679248Y-88714630D01*
X165628315Y-88708892D01*
X165618009Y-88707290D01*
X165578843Y-88699500D01*
X165551915Y-88699500D01*
X165538031Y-88698720D01*
X165500002Y-88694435D01*
X165499998Y-88694435D01*
X165461969Y-88698720D01*
X165448085Y-88699500D01*
X165421158Y-88699500D01*
X165381991Y-88707290D01*
X165371685Y-88708892D01*
X165320751Y-88714630D01*
X165320741Y-88714632D01*
X165296904Y-88722973D01*
X165280150Y-88727547D01*
X165266503Y-88730261D01*
X165217619Y-88750509D01*
X165211126Y-88752988D01*
X165150481Y-88774209D01*
X165150469Y-88774215D01*
X165140127Y-88780713D01*
X165121639Y-88790266D01*
X165120832Y-88790600D01*
X165120824Y-88790604D01*
X165066047Y-88827204D01*
X165063132Y-88829092D01*
X164997742Y-88870180D01*
X164997735Y-88870186D01*
X164989711Y-88878211D01*
X160452666Y-93415255D01*
X160391343Y-93448740D01*
X160321651Y-93443756D01*
X160265718Y-93401884D01*
X160241301Y-93336420D01*
X160250424Y-93280121D01*
X160269737Y-93233497D01*
X160272449Y-93219860D01*
X160277023Y-93203100D01*
X160285368Y-93179255D01*
X160291110Y-93128283D01*
X160292707Y-93118017D01*
X160300500Y-93078842D01*
X160300500Y-93051914D01*
X160301280Y-93038029D01*
X160305565Y-93000001D01*
X160305565Y-92999998D01*
X160301280Y-92961969D01*
X160300500Y-92948085D01*
X160300500Y-89551914D01*
X160301280Y-89538029D01*
X160305565Y-89500001D01*
X160305565Y-89499998D01*
X160301280Y-89461969D01*
X160300500Y-89448085D01*
X160300500Y-89421157D01*
X160292711Y-89382003D01*
X160291110Y-89371714D01*
X160285368Y-89320745D01*
X160277023Y-89296898D01*
X160272449Y-89280139D01*
X160269737Y-89266503D01*
X160269734Y-89266496D01*
X160261253Y-89246021D01*
X160249484Y-89217606D01*
X160247028Y-89211175D01*
X160225789Y-89150478D01*
X160219289Y-89140134D01*
X160209719Y-89121606D01*
X160209394Y-89120821D01*
X160172790Y-89066040D01*
X160170905Y-89063131D01*
X160170891Y-89063108D01*
X160129816Y-88997738D01*
X160002262Y-88870184D01*
X160002260Y-88870182D01*
X160002257Y-88870180D01*
X159936900Y-88829114D01*
X159933982Y-88827223D01*
X159879179Y-88790605D01*
X159879173Y-88790603D01*
X159878365Y-88790268D01*
X159859865Y-88780709D01*
X159849524Y-88774212D01*
X159849523Y-88774211D01*
X159849522Y-88774211D01*
X159788867Y-88752986D01*
X159782377Y-88750509D01*
X159776708Y-88748161D01*
X159772330Y-88746347D01*
X159733496Y-88730262D01*
X159719860Y-88727550D01*
X159703104Y-88722976D01*
X159679260Y-88714633D01*
X159679256Y-88714632D01*
X159679255Y-88714632D01*
X159658575Y-88712301D01*
X159628303Y-88708890D01*
X159618003Y-88707288D01*
X159578844Y-88699500D01*
X159578842Y-88699500D01*
X159551915Y-88699500D01*
X159538031Y-88698720D01*
X159500002Y-88694435D01*
X159499998Y-88694435D01*
X159461969Y-88698720D01*
X159448085Y-88699500D01*
X159421152Y-88699500D01*
X159381994Y-88707288D01*
X159371696Y-88708890D01*
X159320742Y-88714632D01*
X159320735Y-88714634D01*
X159296898Y-88722975D01*
X159280140Y-88727550D01*
X159266502Y-88730263D01*
X159266496Y-88730264D01*
X159217631Y-88750504D01*
X159211140Y-88752982D01*
X159150477Y-88774210D01*
X159150474Y-88774212D01*
X159140127Y-88780713D01*
X159121639Y-88790266D01*
X159120832Y-88790600D01*
X159120824Y-88790604D01*
X159066047Y-88827204D01*
X159063132Y-88829092D01*
X158997742Y-88870180D01*
X158997735Y-88870186D01*
X158870186Y-88997735D01*
X158870180Y-88997742D01*
X158829092Y-89063132D01*
X158827204Y-89066047D01*
X158790604Y-89120824D01*
X158790600Y-89120832D01*
X158790266Y-89121639D01*
X158780713Y-89140127D01*
X158774212Y-89150474D01*
X158774210Y-89150477D01*
X158752982Y-89211140D01*
X158750504Y-89217631D01*
X158730264Y-89266496D01*
X158730263Y-89266502D01*
X158727550Y-89280140D01*
X158722975Y-89296898D01*
X158714634Y-89320735D01*
X158714632Y-89320742D01*
X158708890Y-89371696D01*
X158707288Y-89381994D01*
X158699500Y-89421152D01*
X158699500Y-89448085D01*
X158698720Y-89461969D01*
X158694435Y-89499998D01*
X158694435Y-89500001D01*
X158698720Y-89538029D01*
X158699500Y-89551914D01*
X158699500Y-92948085D01*
X158698720Y-92961969D01*
X158694435Y-92999998D01*
X158694435Y-93000001D01*
X158698720Y-93038029D01*
X158699500Y-93051914D01*
X158699500Y-93078844D01*
X158707288Y-93118003D01*
X158708890Y-93128303D01*
X158714632Y-93179252D01*
X158714633Y-93179260D01*
X158722976Y-93203104D01*
X158727550Y-93219860D01*
X158730262Y-93233496D01*
X158750509Y-93282377D01*
X158752986Y-93288867D01*
X158771724Y-93342416D01*
X158774212Y-93349524D01*
X158780709Y-93359865D01*
X158790268Y-93378365D01*
X158790603Y-93379173D01*
X158790605Y-93379179D01*
X158827223Y-93433982D01*
X158829114Y-93436900D01*
X158870180Y-93502257D01*
X158870182Y-93502260D01*
X158870184Y-93502262D01*
X158997738Y-93629816D01*
X159063131Y-93670905D01*
X159066040Y-93672790D01*
X159120821Y-93709394D01*
X159121606Y-93709719D01*
X159140134Y-93719289D01*
X159150478Y-93725789D01*
X159211175Y-93747028D01*
X159217607Y-93749484D01*
X159246021Y-93761253D01*
X159266497Y-93769735D01*
X159266498Y-93769735D01*
X159266503Y-93769737D01*
X159280139Y-93772449D01*
X159296898Y-93777023D01*
X159320745Y-93785368D01*
X159371714Y-93791110D01*
X159381992Y-93792709D01*
X159409140Y-93798109D01*
X159421157Y-93800500D01*
X159421158Y-93800500D01*
X159448085Y-93800500D01*
X159461969Y-93801280D01*
X159499998Y-93805565D01*
X159500000Y-93805565D01*
X159500002Y-93805565D01*
X159538031Y-93801280D01*
X159551915Y-93800500D01*
X159578841Y-93800500D01*
X159578842Y-93800500D01*
X159618017Y-93792707D01*
X159628283Y-93791110D01*
X159679255Y-93785368D01*
X159703100Y-93777023D01*
X159719862Y-93772448D01*
X159733497Y-93769737D01*
X159780120Y-93750424D01*
X159849588Y-93742955D01*
X159912068Y-93774229D01*
X159947722Y-93834317D01*
X159945229Y-93904142D01*
X159915255Y-93952666D01*
X159704741Y-94163181D01*
X159643418Y-94196666D01*
X159617060Y-94199500D01*
X158421155Y-94199500D01*
X158266510Y-94230261D01*
X158266498Y-94230264D01*
X158120827Y-94290602D01*
X158120814Y-94290609D01*
X157989125Y-94378602D01*
X157922447Y-94399480D01*
X157920234Y-94399500D01*
X157112711Y-94399500D01*
X156954597Y-94399500D01*
X156801869Y-94440423D01*
X156801868Y-94440423D01*
X156801866Y-94440424D01*
X156801863Y-94440425D01*
X156751750Y-94469359D01*
X156751749Y-94469360D01*
X156727885Y-94483138D01*
X156664939Y-94519479D01*
X156664936Y-94519481D01*
X155194838Y-95989580D01*
X155133515Y-96023065D01*
X155063823Y-96018081D01*
X155019476Y-95989580D01*
X154991402Y-95961506D01*
X154991395Y-95961501D01*
X154982176Y-95955046D01*
X154933778Y-95921157D01*
X154797834Y-95825967D01*
X154797830Y-95825965D01*
X154735532Y-95796915D01*
X154583663Y-95726097D01*
X154583659Y-95726096D01*
X154583655Y-95726094D01*
X154355413Y-95664938D01*
X154355403Y-95664936D01*
X154120001Y-95644341D01*
X154119999Y-95644341D01*
X153884596Y-95664936D01*
X153884586Y-95664938D01*
X153656344Y-95726094D01*
X153656335Y-95726098D01*
X153442171Y-95825964D01*
X153442169Y-95825965D01*
X153248597Y-95961505D01*
X153081505Y-96128597D01*
X152951575Y-96314158D01*
X152896998Y-96357783D01*
X152827500Y-96364977D01*
X152765145Y-96333454D01*
X152748425Y-96314158D01*
X152618494Y-96128597D01*
X152451402Y-95961506D01*
X152451395Y-95961501D01*
X152442176Y-95955046D01*
X152393778Y-95921157D01*
X152257834Y-95825967D01*
X152257830Y-95825965D01*
X152195532Y-95796915D01*
X152043663Y-95726097D01*
X152043659Y-95726096D01*
X152043655Y-95726094D01*
X151815413Y-95664938D01*
X151815403Y-95664936D01*
X151580001Y-95644341D01*
X151579999Y-95644341D01*
X151344596Y-95664936D01*
X151344586Y-95664938D01*
X151116344Y-95726094D01*
X151116335Y-95726098D01*
X150902171Y-95825964D01*
X150902169Y-95825965D01*
X150708597Y-95961505D01*
X150541505Y-96128597D01*
X150411575Y-96314158D01*
X150356998Y-96357783D01*
X150287500Y-96364977D01*
X150225145Y-96333454D01*
X150208425Y-96314158D01*
X150078494Y-96128597D01*
X149911402Y-95961506D01*
X149911395Y-95961501D01*
X149902176Y-95955046D01*
X149853778Y-95921157D01*
X149717834Y-95825967D01*
X149717830Y-95825965D01*
X149655532Y-95796915D01*
X149503663Y-95726097D01*
X149503659Y-95726096D01*
X149503655Y-95726094D01*
X149275413Y-95664938D01*
X149275403Y-95664936D01*
X149040001Y-95644341D01*
X149039999Y-95644341D01*
X148804596Y-95664936D01*
X148804586Y-95664938D01*
X148576344Y-95726094D01*
X148576335Y-95726098D01*
X148362171Y-95825964D01*
X148362169Y-95825965D01*
X148168597Y-95961505D01*
X148001505Y-96128597D01*
X147871575Y-96314158D01*
X147816998Y-96357783D01*
X147747500Y-96364977D01*
X147685145Y-96333454D01*
X147668425Y-96314158D01*
X147538494Y-96128597D01*
X147371402Y-95961506D01*
X147371395Y-95961501D01*
X147362176Y-95955046D01*
X147313778Y-95921157D01*
X147177834Y-95825967D01*
X147177830Y-95825965D01*
X147115532Y-95796915D01*
X146963663Y-95726097D01*
X146963659Y-95726096D01*
X146963655Y-95726094D01*
X146735413Y-95664938D01*
X146735403Y-95664936D01*
X146500001Y-95644341D01*
X146499999Y-95644341D01*
X146264596Y-95664936D01*
X146264586Y-95664938D01*
X146036344Y-95726094D01*
X146036335Y-95726098D01*
X145822171Y-95825964D01*
X145822169Y-95825965D01*
X145628597Y-95961505D01*
X145461505Y-96128597D01*
X145331575Y-96314158D01*
X145276998Y-96357783D01*
X145207500Y-96364977D01*
X145145145Y-96333454D01*
X145128425Y-96314158D01*
X144998494Y-96128597D01*
X144831402Y-95961506D01*
X144831395Y-95961501D01*
X144822176Y-95955046D01*
X144773778Y-95921157D01*
X144637834Y-95825967D01*
X144637830Y-95825965D01*
X144575532Y-95796915D01*
X144423663Y-95726097D01*
X144423659Y-95726096D01*
X144423655Y-95726094D01*
X144195413Y-95664938D01*
X144195403Y-95664936D01*
X143960001Y-95644341D01*
X143959999Y-95644341D01*
X143724596Y-95664936D01*
X143724586Y-95664938D01*
X143496344Y-95726094D01*
X143496335Y-95726098D01*
X143282171Y-95825964D01*
X143282169Y-95825965D01*
X143088597Y-95961505D01*
X142921505Y-96128597D01*
X142791575Y-96314158D01*
X142736998Y-96357783D01*
X142667500Y-96364977D01*
X142605145Y-96333454D01*
X142588425Y-96314158D01*
X142458494Y-96128597D01*
X142291402Y-95961506D01*
X142291395Y-95961501D01*
X142282176Y-95955046D01*
X142233778Y-95921157D01*
X142097834Y-95825967D01*
X142097830Y-95825965D01*
X142035532Y-95796915D01*
X141883663Y-95726097D01*
X141883659Y-95726096D01*
X141883655Y-95726094D01*
X141655413Y-95664938D01*
X141655403Y-95664936D01*
X141420001Y-95644341D01*
X141419999Y-95644341D01*
X141184596Y-95664936D01*
X141184586Y-95664938D01*
X140956344Y-95726094D01*
X140956335Y-95726098D01*
X140742171Y-95825964D01*
X140742169Y-95825965D01*
X140548597Y-95961505D01*
X140381505Y-96128597D01*
X140251575Y-96314158D01*
X140196998Y-96357783D01*
X140127500Y-96364977D01*
X140065145Y-96333454D01*
X140048425Y-96314158D01*
X139918494Y-96128597D01*
X139751402Y-95961506D01*
X139751395Y-95961501D01*
X139742176Y-95955046D01*
X139693778Y-95921157D01*
X139557834Y-95825967D01*
X139557830Y-95825965D01*
X139495532Y-95796915D01*
X139343663Y-95726097D01*
X139343659Y-95726096D01*
X139343655Y-95726094D01*
X139115413Y-95664938D01*
X139115403Y-95664936D01*
X138880001Y-95644341D01*
X138879999Y-95644341D01*
X138644596Y-95664936D01*
X138644586Y-95664938D01*
X138416344Y-95726094D01*
X138416335Y-95726098D01*
X138202171Y-95825964D01*
X138202169Y-95825965D01*
X138008597Y-95961505D01*
X137841505Y-96128597D01*
X137711575Y-96314158D01*
X137656998Y-96357783D01*
X137587500Y-96364977D01*
X137525145Y-96333454D01*
X137508425Y-96314158D01*
X137378494Y-96128597D01*
X137211402Y-95961506D01*
X137211395Y-95961501D01*
X137202176Y-95955046D01*
X137153778Y-95921157D01*
X137017834Y-95825967D01*
X137017830Y-95825965D01*
X136955532Y-95796915D01*
X136803663Y-95726097D01*
X136803659Y-95726096D01*
X136803655Y-95726094D01*
X136575413Y-95664938D01*
X136575403Y-95664936D01*
X136340001Y-95644341D01*
X136339999Y-95644341D01*
X136104596Y-95664936D01*
X136104586Y-95664938D01*
X135876344Y-95726094D01*
X135876335Y-95726098D01*
X135662171Y-95825964D01*
X135662169Y-95825965D01*
X135468597Y-95961505D01*
X135301505Y-96128597D01*
X135171575Y-96314158D01*
X135116998Y-96357783D01*
X135047500Y-96364977D01*
X134985145Y-96333454D01*
X134968425Y-96314158D01*
X134838494Y-96128597D01*
X134671402Y-95961506D01*
X134671395Y-95961501D01*
X134662176Y-95955046D01*
X134606650Y-95916166D01*
X134477832Y-95825966D01*
X134446752Y-95811473D01*
X134394313Y-95765300D01*
X134375162Y-95698106D01*
X134395378Y-95631225D01*
X134411472Y-95611415D01*
X137175322Y-92847566D01*
X137236644Y-92814082D01*
X137306336Y-92819066D01*
X137362269Y-92860938D01*
X137386686Y-92926402D01*
X137371834Y-92994675D01*
X137367995Y-93001222D01*
X137329093Y-93063132D01*
X137327209Y-93066038D01*
X137312870Y-93087500D01*
X137290604Y-93120824D01*
X137290600Y-93120832D01*
X137290266Y-93121639D01*
X137280713Y-93140127D01*
X137274212Y-93150474D01*
X137274210Y-93150477D01*
X137252982Y-93211140D01*
X137250504Y-93217631D01*
X137230264Y-93266496D01*
X137230263Y-93266502D01*
X137227550Y-93280140D01*
X137222975Y-93296898D01*
X137214634Y-93320735D01*
X137214632Y-93320742D01*
X137208890Y-93371696D01*
X137207288Y-93381994D01*
X137199500Y-93421152D01*
X137199500Y-93448085D01*
X137198720Y-93461969D01*
X137194435Y-93499998D01*
X137194435Y-93500001D01*
X137198720Y-93538029D01*
X137199500Y-93551914D01*
X137199500Y-93578844D01*
X137207288Y-93618003D01*
X137208890Y-93628303D01*
X137209061Y-93629816D01*
X137213904Y-93672797D01*
X137214632Y-93679252D01*
X137214633Y-93679260D01*
X137222976Y-93703104D01*
X137227550Y-93719860D01*
X137230262Y-93733496D01*
X137250509Y-93782377D01*
X137252986Y-93788867D01*
X137272336Y-93844165D01*
X137274212Y-93849524D01*
X137280709Y-93859865D01*
X137290268Y-93878365D01*
X137290603Y-93879173D01*
X137290605Y-93879179D01*
X137327223Y-93933982D01*
X137329114Y-93936900D01*
X137370180Y-94002257D01*
X137370182Y-94002260D01*
X137370184Y-94002262D01*
X137497738Y-94129816D01*
X137550838Y-94163181D01*
X137563131Y-94170905D01*
X137566040Y-94172790D01*
X137620821Y-94209394D01*
X137621606Y-94209719D01*
X137640134Y-94219289D01*
X137650478Y-94225789D01*
X137711175Y-94247028D01*
X137717607Y-94249484D01*
X137746021Y-94261253D01*
X137766497Y-94269735D01*
X137766498Y-94269735D01*
X137766503Y-94269737D01*
X137780139Y-94272449D01*
X137796898Y-94277023D01*
X137820745Y-94285368D01*
X137871714Y-94291110D01*
X137881992Y-94292709D01*
X137909140Y-94298109D01*
X137921157Y-94300500D01*
X137921158Y-94300500D01*
X137948085Y-94300500D01*
X137961969Y-94301280D01*
X137999998Y-94305565D01*
X138000000Y-94305565D01*
X138000002Y-94305565D01*
X138038031Y-94301280D01*
X138051915Y-94300500D01*
X152578157Y-94300500D01*
X152645196Y-94320185D01*
X152690951Y-94372989D01*
X152701377Y-94438383D01*
X152694435Y-94499996D01*
X152694435Y-94500003D01*
X152714630Y-94679249D01*
X152714631Y-94679254D01*
X152774211Y-94849523D01*
X152867064Y-94997297D01*
X152870184Y-95002262D01*
X152997738Y-95129816D01*
X153088080Y-95186582D01*
X153145994Y-95222972D01*
X153150478Y-95225789D01*
X153307442Y-95280713D01*
X153320745Y-95285368D01*
X153320750Y-95285369D01*
X153499996Y-95305565D01*
X153500000Y-95305565D01*
X153500004Y-95305565D01*
X153679249Y-95285369D01*
X153679252Y-95285368D01*
X153679255Y-95285368D01*
X153849522Y-95225789D01*
X154002262Y-95129816D01*
X154129816Y-95002262D01*
X154225789Y-94849522D01*
X154285368Y-94679255D01*
X154293836Y-94604098D01*
X154305565Y-94500003D01*
X154305565Y-94499996D01*
X154285369Y-94320750D01*
X154285368Y-94320745D01*
X154274822Y-94290606D01*
X154225789Y-94150478D01*
X154129816Y-93997738D01*
X154107258Y-93975180D01*
X154073773Y-93913857D01*
X154078757Y-93844165D01*
X154107258Y-93799818D01*
X154687216Y-93219860D01*
X155270079Y-92636997D01*
X155270084Y-92636993D01*
X155280287Y-92626789D01*
X155280289Y-92626789D01*
X155327926Y-92579151D01*
X155389247Y-92545667D01*
X155458939Y-92550651D01*
X155503288Y-92579153D01*
X155539269Y-92615135D01*
X155539273Y-92615138D01*
X155667919Y-92701097D01*
X155667928Y-92701102D01*
X155685320Y-92708306D01*
X155810878Y-92760314D01*
X155941384Y-92786273D01*
X155962630Y-92790499D01*
X155962634Y-92790500D01*
X155962635Y-92790500D01*
X156117366Y-92790500D01*
X156117367Y-92790499D01*
X156269122Y-92760314D01*
X156412074Y-92701101D01*
X156540727Y-92615138D01*
X156540730Y-92615135D01*
X156587319Y-92568547D01*
X156648642Y-92535062D01*
X156718334Y-92540046D01*
X156762681Y-92568547D01*
X156809269Y-92615135D01*
X156809273Y-92615138D01*
X156937919Y-92701097D01*
X156937928Y-92701102D01*
X156955320Y-92708306D01*
X157080878Y-92760314D01*
X157211384Y-92786273D01*
X157232630Y-92790499D01*
X157232634Y-92790500D01*
X157232635Y-92790500D01*
X157387366Y-92790500D01*
X157387367Y-92790499D01*
X157539122Y-92760314D01*
X157682074Y-92701101D01*
X157810727Y-92615138D01*
X157920138Y-92505727D01*
X158006101Y-92377074D01*
X158065314Y-92234122D01*
X158095500Y-92082365D01*
X158095500Y-91436463D01*
X158097883Y-91412271D01*
X158110500Y-91348844D01*
X158110500Y-91191155D01*
X158097883Y-91127728D01*
X158095500Y-91103536D01*
X158095500Y-90457634D01*
X158095499Y-90457630D01*
X158078007Y-90369692D01*
X158065314Y-90305878D01*
X158006101Y-90162926D01*
X158006100Y-90162925D01*
X158006097Y-90162919D01*
X157920138Y-90034273D01*
X157920135Y-90034269D01*
X157810730Y-89924864D01*
X157810726Y-89924861D01*
X157682080Y-89838902D01*
X157682071Y-89838897D01*
X157539122Y-89779686D01*
X157539114Y-89779684D01*
X157387369Y-89749500D01*
X157387365Y-89749500D01*
X157232635Y-89749500D01*
X157232630Y-89749500D01*
X157080885Y-89779684D01*
X157080877Y-89779686D01*
X156937928Y-89838897D01*
X156937919Y-89838902D01*
X156809273Y-89924861D01*
X156809269Y-89924864D01*
X156762681Y-89971453D01*
X156701358Y-90004938D01*
X156631666Y-89999954D01*
X156587319Y-89971453D01*
X156540730Y-89924864D01*
X156540726Y-89924861D01*
X156412080Y-89838902D01*
X156412071Y-89838897D01*
X156269122Y-89779686D01*
X156269114Y-89779684D01*
X156117369Y-89749500D01*
X156117365Y-89749500D01*
X155962635Y-89749500D01*
X155962630Y-89749500D01*
X155810885Y-89779684D01*
X155810877Y-89779686D01*
X155667928Y-89838897D01*
X155667919Y-89838902D01*
X155539273Y-89924861D01*
X155539269Y-89924864D01*
X155492681Y-89971453D01*
X155431358Y-90004938D01*
X155361666Y-89999954D01*
X155317319Y-89971453D01*
X155270730Y-89924864D01*
X155270726Y-89924861D01*
X155142080Y-89838902D01*
X155142071Y-89838897D01*
X154999122Y-89779686D01*
X154999114Y-89779684D01*
X154847369Y-89749500D01*
X154847365Y-89749500D01*
X154692635Y-89749500D01*
X154674197Y-89753167D01*
X154612686Y-89765402D01*
X154543094Y-89759173D01*
X154487917Y-89716309D01*
X154464674Y-89650419D01*
X154480743Y-89582423D01*
X154500811Y-89556107D01*
X155970100Y-88086819D01*
X156031423Y-88053334D01*
X156057781Y-88050500D01*
X166328844Y-88050500D01*
X166328845Y-88050499D01*
X166483497Y-88019737D01*
X166596166Y-87973067D01*
X166629172Y-87959397D01*
X166629172Y-87959396D01*
X166629179Y-87959394D01*
X166760289Y-87871789D01*
X168621789Y-86010289D01*
X168629816Y-86002262D01*
X168670931Y-85936825D01*
X168672777Y-85933979D01*
X168709389Y-85879186D01*
X168709394Y-85879179D01*
X168709720Y-85878390D01*
X168719287Y-85859868D01*
X168725789Y-85849522D01*
X168747022Y-85788837D01*
X168749477Y-85782407D01*
X168769738Y-85733497D01*
X168772449Y-85719860D01*
X168777025Y-85703096D01*
X168785368Y-85679255D01*
X168791109Y-85628287D01*
X168792709Y-85618004D01*
X168800500Y-85578842D01*
X168800500Y-85551914D01*
X168801280Y-85538029D01*
X168805565Y-85500001D01*
X168805565Y-85499998D01*
X168801280Y-85461969D01*
X168800500Y-85448085D01*
X168800500Y-85421157D01*
X168798101Y-85409098D01*
X168792708Y-85381987D01*
X168791109Y-85371703D01*
X168785368Y-85320745D01*
X168777027Y-85296909D01*
X168772449Y-85280137D01*
X168769738Y-85266503D01*
X168749481Y-85217600D01*
X168747006Y-85211115D01*
X168725789Y-85150479D01*
X168725789Y-85150478D01*
X168719289Y-85140134D01*
X168709719Y-85121606D01*
X168709394Y-85120821D01*
X168672790Y-85066040D01*
X168670905Y-85063131D01*
X168659483Y-85044953D01*
X168629816Y-84997738D01*
X168502262Y-84870184D01*
X168502260Y-84870182D01*
X168502257Y-84870180D01*
X168436900Y-84829114D01*
X168433982Y-84827223D01*
X168379179Y-84790605D01*
X168379173Y-84790603D01*
X168378365Y-84790268D01*
X168359865Y-84780709D01*
X168349526Y-84774213D01*
X168349513Y-84774206D01*
X168288885Y-84752992D01*
X168282390Y-84750513D01*
X168233497Y-84730262D01*
X168233491Y-84730260D01*
X168219850Y-84727547D01*
X168203090Y-84722972D01*
X168179250Y-84714630D01*
X168179251Y-84714630D01*
X168128315Y-84708892D01*
X168118009Y-84707290D01*
X168078843Y-84699500D01*
X168051915Y-84699500D01*
X168038031Y-84698720D01*
X168000002Y-84694435D01*
X167999998Y-84694435D01*
X167961969Y-84698720D01*
X167948085Y-84699500D01*
X167921158Y-84699500D01*
X167881991Y-84707290D01*
X167871685Y-84708892D01*
X167820751Y-84714630D01*
X167820741Y-84714632D01*
X167796904Y-84722973D01*
X167780150Y-84727547D01*
X167766503Y-84730261D01*
X167717619Y-84750509D01*
X167711126Y-84752988D01*
X167650481Y-84774209D01*
X167650469Y-84774215D01*
X167640127Y-84780713D01*
X167621639Y-84790266D01*
X167620832Y-84790600D01*
X167620824Y-84790604D01*
X167566047Y-84827204D01*
X167563132Y-84829092D01*
X167497742Y-84870180D01*
X167497735Y-84870186D01*
X165954741Y-86413181D01*
X165893418Y-86446666D01*
X165867060Y-86449500D01*
X158219500Y-86449500D01*
X158152461Y-86429815D01*
X158106706Y-86377011D01*
X158095500Y-86325500D01*
X158095500Y-85896463D01*
X158097883Y-85872271D01*
X158110500Y-85808844D01*
X158110500Y-85651155D01*
X158097883Y-85587728D01*
X158095500Y-85563536D01*
X158095500Y-84917634D01*
X158095499Y-84917630D01*
X158086062Y-84870186D01*
X158065314Y-84765878D01*
X158019515Y-84655311D01*
X158006102Y-84622928D01*
X158006097Y-84622919D01*
X157920138Y-84494273D01*
X157920135Y-84494269D01*
X157810730Y-84384864D01*
X157810726Y-84384861D01*
X157682080Y-84298902D01*
X157682071Y-84298897D01*
X157539122Y-84239686D01*
X157539114Y-84239684D01*
X157387369Y-84209500D01*
X157387365Y-84209500D01*
X157232635Y-84209500D01*
X157232630Y-84209500D01*
X157080885Y-84239684D01*
X157080873Y-84239687D01*
X156971952Y-84284804D01*
X156902483Y-84292273D01*
X156840004Y-84260998D01*
X156804352Y-84200909D01*
X156800500Y-84170243D01*
X156800500Y-83551914D01*
X156801280Y-83538029D01*
X156805565Y-83500001D01*
X156805565Y-83499998D01*
X156801280Y-83461969D01*
X156800500Y-83448085D01*
X156800500Y-83421157D01*
X156792711Y-83382003D01*
X156791110Y-83371714D01*
X156785368Y-83320745D01*
X156777023Y-83296898D01*
X156772449Y-83280139D01*
X156769737Y-83266503D01*
X156769734Y-83266496D01*
X156756067Y-83233501D01*
X156749484Y-83217607D01*
X156747028Y-83211175D01*
X156725789Y-83150478D01*
X156719289Y-83140134D01*
X156709719Y-83121606D01*
X156709394Y-83120821D01*
X156672790Y-83066040D01*
X156670905Y-83063131D01*
X156659483Y-83044953D01*
X156629816Y-82997738D01*
X156502262Y-82870184D01*
X156502260Y-82870182D01*
X156502257Y-82870180D01*
X156436900Y-82829114D01*
X156433982Y-82827223D01*
X156379179Y-82790605D01*
X156379173Y-82790603D01*
X156378365Y-82790268D01*
X156359865Y-82780709D01*
X156349524Y-82774212D01*
X156349523Y-82774211D01*
X156349522Y-82774211D01*
X156288867Y-82752986D01*
X156282377Y-82750509D01*
X156233496Y-82730262D01*
X156219860Y-82727550D01*
X156203104Y-82722976D01*
X156179260Y-82714633D01*
X156179256Y-82714632D01*
X156179255Y-82714632D01*
X156158575Y-82712301D01*
X156128303Y-82708890D01*
X156118003Y-82707288D01*
X156078844Y-82699500D01*
X156078842Y-82699500D01*
X156051915Y-82699500D01*
X156038031Y-82698720D01*
X156000002Y-82694435D01*
X155999998Y-82694435D01*
X155961969Y-82698720D01*
X155948085Y-82699500D01*
X155921152Y-82699500D01*
X155881994Y-82707288D01*
X155871696Y-82708890D01*
X155820742Y-82714632D01*
X155820735Y-82714634D01*
X155796898Y-82722975D01*
X155780140Y-82727550D01*
X155766502Y-82730263D01*
X155766496Y-82730264D01*
X155717631Y-82750504D01*
X155711140Y-82752982D01*
X155650477Y-82774210D01*
X155650474Y-82774212D01*
X155640127Y-82780713D01*
X155621639Y-82790266D01*
X155620832Y-82790600D01*
X155620824Y-82790604D01*
X155620821Y-82790605D01*
X155620821Y-82790606D01*
X155582063Y-82816503D01*
X155566047Y-82827204D01*
X155563132Y-82829092D01*
X155497742Y-82870180D01*
X155497735Y-82870186D01*
X155370186Y-82997735D01*
X155370180Y-82997742D01*
X155329092Y-83063132D01*
X155327209Y-83066038D01*
X155314741Y-83084700D01*
X155290604Y-83120824D01*
X155290600Y-83120832D01*
X155290266Y-83121639D01*
X155280713Y-83140127D01*
X155274212Y-83150474D01*
X155274210Y-83150477D01*
X155252982Y-83211140D01*
X155250504Y-83217631D01*
X155230264Y-83266496D01*
X155230263Y-83266502D01*
X155227550Y-83280140D01*
X155222975Y-83296898D01*
X155214634Y-83320735D01*
X155214632Y-83320742D01*
X155208890Y-83371696D01*
X155207288Y-83381994D01*
X155199500Y-83421152D01*
X155199500Y-83448085D01*
X155198720Y-83461969D01*
X155194435Y-83499998D01*
X155194435Y-83500001D01*
X155198720Y-83538029D01*
X155199500Y-83551914D01*
X155199500Y-83993060D01*
X155179815Y-84060099D01*
X155127011Y-84105854D01*
X155057853Y-84115798D01*
X154994297Y-84086773D01*
X154987819Y-84080741D01*
X152407079Y-81500001D01*
X154694435Y-81500001D01*
X154696276Y-81516344D01*
X154697195Y-81524500D01*
X154698720Y-81538029D01*
X154699500Y-81551914D01*
X154699500Y-81578844D01*
X154707288Y-81618003D01*
X154708890Y-81628303D01*
X154714632Y-81679252D01*
X154714633Y-81679260D01*
X154722976Y-81703104D01*
X154727550Y-81719860D01*
X154730262Y-81733496D01*
X154750509Y-81782377D01*
X154752986Y-81788867D01*
X154769230Y-81835289D01*
X154774212Y-81849524D01*
X154780709Y-81859865D01*
X154790268Y-81878365D01*
X154790603Y-81879173D01*
X154790605Y-81879179D01*
X154827223Y-81933982D01*
X154829114Y-81936900D01*
X154870180Y-82002257D01*
X154870182Y-82002260D01*
X154870184Y-82002262D01*
X154997738Y-82129816D01*
X155050838Y-82163181D01*
X155063131Y-82170905D01*
X155066040Y-82172790D01*
X155120821Y-82209394D01*
X155121606Y-82209719D01*
X155140134Y-82219289D01*
X155150478Y-82225789D01*
X155211175Y-82247028D01*
X155217607Y-82249484D01*
X155246021Y-82261253D01*
X155266497Y-82269735D01*
X155266498Y-82269735D01*
X155266503Y-82269737D01*
X155280139Y-82272449D01*
X155296898Y-82277023D01*
X155320745Y-82285368D01*
X155371714Y-82291110D01*
X155381992Y-82292709D01*
X155409140Y-82298109D01*
X155421157Y-82300500D01*
X155421158Y-82300500D01*
X155448085Y-82300500D01*
X155461969Y-82301280D01*
X155499998Y-82305565D01*
X155500000Y-82305565D01*
X155500002Y-82305565D01*
X155538031Y-82301280D01*
X155551915Y-82300500D01*
X162578844Y-82300500D01*
X162578845Y-82300499D01*
X162733497Y-82269737D01*
X162866538Y-82214630D01*
X162879172Y-82209397D01*
X162879172Y-82209396D01*
X162879179Y-82209394D01*
X163010289Y-82121789D01*
X166621788Y-78510290D01*
X166621789Y-78510289D01*
X166629816Y-78502262D01*
X166670943Y-78436806D01*
X166672761Y-78434001D01*
X166709393Y-78379179D01*
X166709719Y-78378389D01*
X166719293Y-78359859D01*
X166720538Y-78357878D01*
X166725789Y-78349522D01*
X166747020Y-78288843D01*
X166749494Y-78282365D01*
X166764593Y-78245915D01*
X166769737Y-78233498D01*
X166772450Y-78219855D01*
X166777021Y-78203107D01*
X166785368Y-78179255D01*
X166791111Y-78128282D01*
X166792707Y-78118015D01*
X166800500Y-78078843D01*
X166800500Y-78051914D01*
X166801280Y-78038029D01*
X166802206Y-78029816D01*
X166805565Y-78000000D01*
X166801279Y-77961968D01*
X166800500Y-77948085D01*
X166800500Y-77921157D01*
X166792711Y-77882003D01*
X166791110Y-77871714D01*
X166785368Y-77820745D01*
X166777023Y-77796898D01*
X166772449Y-77780139D01*
X166769737Y-77766503D01*
X166769735Y-77766497D01*
X166769734Y-77766494D01*
X166749492Y-77717627D01*
X166747022Y-77711160D01*
X166725789Y-77650478D01*
X166719287Y-77640132D01*
X166709717Y-77621603D01*
X166709394Y-77620823D01*
X166709392Y-77620820D01*
X166672791Y-77566043D01*
X166670926Y-77563166D01*
X166629816Y-77497738D01*
X166502262Y-77370184D01*
X166457601Y-77342122D01*
X166436842Y-77329078D01*
X166433923Y-77327186D01*
X166379179Y-77290607D01*
X166379162Y-77290600D01*
X166378381Y-77290276D01*
X166359869Y-77280712D01*
X166349524Y-77274212D01*
X166349521Y-77274210D01*
X166288856Y-77252982D01*
X166282363Y-77250503D01*
X166233497Y-77230263D01*
X166233493Y-77230262D01*
X166219860Y-77227550D01*
X166203104Y-77222976D01*
X166179260Y-77214633D01*
X166179256Y-77214632D01*
X166179255Y-77214632D01*
X166158575Y-77212301D01*
X166128303Y-77208890D01*
X166118003Y-77207288D01*
X166078844Y-77199500D01*
X166078842Y-77199500D01*
X166051915Y-77199500D01*
X166038031Y-77198720D01*
X166000002Y-77194435D01*
X165999998Y-77194435D01*
X165961969Y-77198720D01*
X165948085Y-77199500D01*
X165921154Y-77199500D01*
X165881996Y-77207288D01*
X165871696Y-77208890D01*
X165820741Y-77214632D01*
X165796895Y-77222976D01*
X165780142Y-77227549D01*
X165766503Y-77230262D01*
X165766500Y-77230263D01*
X165717628Y-77250507D01*
X165711131Y-77252987D01*
X165650476Y-77274211D01*
X165640127Y-77280714D01*
X165621627Y-77290272D01*
X165620825Y-77290604D01*
X165620820Y-77290606D01*
X165566065Y-77327192D01*
X165563150Y-77329082D01*
X165497736Y-77370185D01*
X165497735Y-77370186D01*
X162204741Y-80663181D01*
X162143418Y-80696666D01*
X162117060Y-80699500D01*
X155551915Y-80699500D01*
X155538031Y-80698720D01*
X155500002Y-80694435D01*
X155499998Y-80694435D01*
X155461969Y-80698720D01*
X155448085Y-80699500D01*
X155421152Y-80699500D01*
X155381994Y-80707288D01*
X155371696Y-80708890D01*
X155320742Y-80714632D01*
X155320735Y-80714634D01*
X155296898Y-80722975D01*
X155280140Y-80727550D01*
X155266502Y-80730263D01*
X155266496Y-80730264D01*
X155217631Y-80750504D01*
X155211140Y-80752982D01*
X155150477Y-80774210D01*
X155150474Y-80774212D01*
X155140127Y-80780713D01*
X155121639Y-80790266D01*
X155120832Y-80790600D01*
X155120824Y-80790604D01*
X155120821Y-80790605D01*
X155120821Y-80790606D01*
X155088030Y-80812516D01*
X155066047Y-80827204D01*
X155063132Y-80829092D01*
X154997742Y-80870180D01*
X154997735Y-80870186D01*
X154870186Y-80997735D01*
X154870180Y-80997742D01*
X154829092Y-81063132D01*
X154827204Y-81066047D01*
X154790604Y-81120824D01*
X154790600Y-81120832D01*
X154790266Y-81121639D01*
X154780713Y-81140127D01*
X154774212Y-81150474D01*
X154774210Y-81150477D01*
X154752982Y-81211140D01*
X154750504Y-81217631D01*
X154730264Y-81266496D01*
X154730263Y-81266502D01*
X154727550Y-81280140D01*
X154722975Y-81296898D01*
X154714634Y-81320735D01*
X154714632Y-81320742D01*
X154708890Y-81371696D01*
X154707288Y-81381994D01*
X154699500Y-81421152D01*
X154699500Y-81448085D01*
X154698720Y-81461969D01*
X154694435Y-81499998D01*
X154694435Y-81500001D01*
X152407079Y-81500001D01*
X151544259Y-80637181D01*
X151510774Y-80575858D01*
X151515758Y-80506166D01*
X151557630Y-80450233D01*
X151623094Y-80425816D01*
X151631940Y-80425500D01*
X151851048Y-80425500D01*
X151851049Y-80425500D01*
X152079981Y-80387298D01*
X152299503Y-80311936D01*
X152503626Y-80201470D01*
X152521578Y-80187498D01*
X152646212Y-80090491D01*
X152686784Y-80058913D01*
X152695130Y-80049846D01*
X152755010Y-80013854D01*
X152824849Y-80015949D01*
X152882468Y-80055469D01*
X152902544Y-80090491D01*
X152931203Y-80167330D01*
X152931206Y-80167335D01*
X153017452Y-80282544D01*
X153017455Y-80282547D01*
X153132664Y-80368793D01*
X153132671Y-80368797D01*
X153267517Y-80419091D01*
X153267516Y-80419091D01*
X153274444Y-80419835D01*
X153327127Y-80425500D01*
X155222872Y-80425499D01*
X155282483Y-80419091D01*
X155417331Y-80368796D01*
X155532546Y-80282546D01*
X155618796Y-80167331D01*
X155669091Y-80032483D01*
X155675500Y-79972873D01*
X155675499Y-78807938D01*
X155695184Y-78740900D01*
X155711813Y-78720263D01*
X169260259Y-65171819D01*
X169321582Y-65138334D01*
X169347940Y-65135500D01*
X170022791Y-65135500D01*
X170089830Y-65155185D01*
G37*
%TD.AperFunction*%
%TA.AperFunction,NonConductor*%
G36*
X123187539Y-93520185D02*
G01*
X123233294Y-93572989D01*
X123244500Y-93624500D01*
X123244500Y-94071889D01*
X123264974Y-94214296D01*
X123264976Y-94214304D01*
X123305483Y-94352259D01*
X123327048Y-94399480D01*
X123365252Y-94483136D01*
X123365253Y-94483138D01*
X123439376Y-94598476D01*
X123440196Y-94599917D01*
X123442988Y-94604098D01*
X123537206Y-94712829D01*
X123537209Y-94712832D01*
X123645870Y-94806986D01*
X123645874Y-94806989D01*
X123649414Y-94809639D01*
X123648146Y-94811331D01*
X123688275Y-94857607D01*
X123699500Y-94909161D01*
X123699500Y-96177701D01*
X123679815Y-96244740D01*
X123640598Y-96283239D01*
X123581344Y-96319787D01*
X123457289Y-96443842D01*
X123365187Y-96593163D01*
X123365186Y-96593166D01*
X123310001Y-96759703D01*
X123310001Y-96759704D01*
X123310000Y-96759704D01*
X123299500Y-96862483D01*
X123299500Y-97487501D01*
X123299501Y-97487519D01*
X123310000Y-97590296D01*
X123310001Y-97590299D01*
X123365185Y-97756831D01*
X123365187Y-97756836D01*
X123373145Y-97769738D01*
X123453799Y-97900500D01*
X123457289Y-97906157D01*
X123538951Y-97987819D01*
X123572436Y-98049142D01*
X123567452Y-98118834D01*
X123525580Y-98174767D01*
X123460116Y-98199184D01*
X123451270Y-98199500D01*
X120177088Y-98199500D01*
X120110049Y-98179815D01*
X120071549Y-98140597D01*
X120065800Y-98131276D01*
X120042712Y-98093844D01*
X119949049Y-98000181D01*
X119915564Y-97938858D01*
X119920548Y-97869166D01*
X119949049Y-97824819D01*
X119987595Y-97786273D01*
X120042712Y-97731156D01*
X120134814Y-97581834D01*
X120189999Y-97415297D01*
X120200500Y-97312509D01*
X120200499Y-96687492D01*
X120189999Y-96584703D01*
X120134814Y-96418166D01*
X120042712Y-96268844D01*
X119918656Y-96144788D01*
X119918655Y-96144787D01*
X119859402Y-96108239D01*
X119812678Y-96056291D01*
X119800500Y-96002701D01*
X119800500Y-94909161D01*
X119820185Y-94842122D01*
X119851481Y-94810835D01*
X119850586Y-94809639D01*
X119854125Y-94806989D01*
X119854130Y-94806986D01*
X119962791Y-94712832D01*
X119962794Y-94712829D01*
X120057015Y-94604091D01*
X120134747Y-94483137D01*
X120194517Y-94352259D01*
X120235024Y-94214304D01*
X120255500Y-94071889D01*
X120255500Y-93624500D01*
X120275185Y-93557461D01*
X120327989Y-93511706D01*
X120379500Y-93500500D01*
X123120500Y-93500500D01*
X123187539Y-93520185D01*
G37*
%TD.AperFunction*%
%TA.AperFunction,NonConductor*%
G36*
X165634855Y-97666546D02*
G01*
X165651575Y-97685842D01*
X165781501Y-97871396D01*
X165781506Y-97871402D01*
X165903430Y-97993326D01*
X165936915Y-98054649D01*
X165931931Y-98124341D01*
X165890059Y-98180274D01*
X165859083Y-98197189D01*
X165727669Y-98246203D01*
X165727664Y-98246206D01*
X165612455Y-98332452D01*
X165612452Y-98332455D01*
X165526206Y-98447664D01*
X165526203Y-98447669D01*
X165477189Y-98579083D01*
X165435317Y-98635016D01*
X165369853Y-98659433D01*
X165301580Y-98644581D01*
X165273326Y-98623430D01*
X165151402Y-98501506D01*
X165151396Y-98501501D01*
X164965842Y-98371575D01*
X164922217Y-98316998D01*
X164915023Y-98247500D01*
X164946546Y-98185145D01*
X164965842Y-98168425D01*
X165036665Y-98118834D01*
X165151401Y-98038495D01*
X165318495Y-97871401D01*
X165433969Y-97706487D01*
X165448425Y-97685842D01*
X165503002Y-97642217D01*
X165572500Y-97635023D01*
X165634855Y-97666546D01*
G37*
%TD.AperFunction*%
%TA.AperFunction,NonConductor*%
G36*
X163094855Y-97666546D02*
G01*
X163111575Y-97685842D01*
X163241501Y-97871396D01*
X163241506Y-97871402D01*
X163408597Y-98038493D01*
X163408603Y-98038498D01*
X163594158Y-98168425D01*
X163637783Y-98223002D01*
X163644977Y-98292500D01*
X163613454Y-98354855D01*
X163594158Y-98371575D01*
X163408597Y-98501505D01*
X163241505Y-98668597D01*
X163111575Y-98854158D01*
X163056998Y-98897783D01*
X162987500Y-98904977D01*
X162925145Y-98873454D01*
X162908425Y-98854158D01*
X162778494Y-98668597D01*
X162611402Y-98501506D01*
X162611396Y-98501501D01*
X162425842Y-98371575D01*
X162382217Y-98316998D01*
X162375023Y-98247500D01*
X162406546Y-98185145D01*
X162425842Y-98168425D01*
X162496665Y-98118834D01*
X162611401Y-98038495D01*
X162778495Y-97871401D01*
X162893969Y-97706487D01*
X162908425Y-97685842D01*
X162963002Y-97642217D01*
X163032500Y-97635023D01*
X163094855Y-97666546D01*
G37*
%TD.AperFunction*%
%TA.AperFunction,NonConductor*%
G36*
X160554855Y-97666546D02*
G01*
X160571575Y-97685842D01*
X160701501Y-97871396D01*
X160701506Y-97871402D01*
X160868597Y-98038493D01*
X160868603Y-98038498D01*
X161054158Y-98168425D01*
X161097783Y-98223002D01*
X161104977Y-98292500D01*
X161073454Y-98354855D01*
X161054158Y-98371575D01*
X160868597Y-98501505D01*
X160701505Y-98668597D01*
X160571575Y-98854158D01*
X160516998Y-98897783D01*
X160447500Y-98904977D01*
X160385145Y-98873454D01*
X160368425Y-98854158D01*
X160238494Y-98668597D01*
X160071402Y-98501506D01*
X160071396Y-98501501D01*
X159885842Y-98371575D01*
X159842217Y-98316998D01*
X159835023Y-98247500D01*
X159866546Y-98185145D01*
X159885842Y-98168425D01*
X159956665Y-98118834D01*
X160071401Y-98038495D01*
X160238495Y-97871401D01*
X160353969Y-97706487D01*
X160368425Y-97685842D01*
X160423002Y-97642217D01*
X160492500Y-97635023D01*
X160554855Y-97666546D01*
G37*
%TD.AperFunction*%
%TA.AperFunction,NonConductor*%
G36*
X152934855Y-97666546D02*
G01*
X152951575Y-97685842D01*
X153081501Y-97871396D01*
X153081506Y-97871402D01*
X153248597Y-98038493D01*
X153248603Y-98038498D01*
X153434158Y-98168425D01*
X153477783Y-98223002D01*
X153484977Y-98292500D01*
X153453454Y-98354855D01*
X153434158Y-98371575D01*
X153248597Y-98501505D01*
X153081505Y-98668597D01*
X152951575Y-98854158D01*
X152896998Y-98897783D01*
X152827500Y-98904977D01*
X152765145Y-98873454D01*
X152748425Y-98854158D01*
X152618494Y-98668597D01*
X152451402Y-98501506D01*
X152451396Y-98501501D01*
X152265842Y-98371575D01*
X152222217Y-98316998D01*
X152215023Y-98247500D01*
X152246546Y-98185145D01*
X152265842Y-98168425D01*
X152336665Y-98118834D01*
X152451401Y-98038495D01*
X152618495Y-97871401D01*
X152733969Y-97706487D01*
X152748425Y-97685842D01*
X152803002Y-97642217D01*
X152872500Y-97635023D01*
X152934855Y-97666546D01*
G37*
%TD.AperFunction*%
%TA.AperFunction,NonConductor*%
G36*
X150394855Y-97666546D02*
G01*
X150411575Y-97685842D01*
X150541501Y-97871396D01*
X150541506Y-97871402D01*
X150708597Y-98038493D01*
X150708603Y-98038498D01*
X150894158Y-98168425D01*
X150937783Y-98223002D01*
X150944977Y-98292500D01*
X150913454Y-98354855D01*
X150894158Y-98371575D01*
X150708597Y-98501505D01*
X150541505Y-98668597D01*
X150411575Y-98854158D01*
X150356998Y-98897783D01*
X150287500Y-98904977D01*
X150225145Y-98873454D01*
X150208425Y-98854158D01*
X150078494Y-98668597D01*
X149911402Y-98501506D01*
X149911396Y-98501501D01*
X149725842Y-98371575D01*
X149682217Y-98316998D01*
X149675023Y-98247500D01*
X149706546Y-98185145D01*
X149725842Y-98168425D01*
X149796665Y-98118834D01*
X149911401Y-98038495D01*
X150078495Y-97871401D01*
X150193969Y-97706487D01*
X150208425Y-97685842D01*
X150263002Y-97642217D01*
X150332500Y-97635023D01*
X150394855Y-97666546D01*
G37*
%TD.AperFunction*%
%TA.AperFunction,NonConductor*%
G36*
X142774855Y-97666546D02*
G01*
X142791575Y-97685842D01*
X142921501Y-97871396D01*
X142921506Y-97871402D01*
X143088597Y-98038493D01*
X143088603Y-98038498D01*
X143274158Y-98168425D01*
X143317783Y-98223002D01*
X143324977Y-98292500D01*
X143293454Y-98354855D01*
X143274158Y-98371575D01*
X143088597Y-98501505D01*
X142921505Y-98668597D01*
X142791575Y-98854158D01*
X142736998Y-98897783D01*
X142667500Y-98904977D01*
X142605145Y-98873454D01*
X142588425Y-98854158D01*
X142458494Y-98668597D01*
X142291402Y-98501506D01*
X142291396Y-98501501D01*
X142105842Y-98371575D01*
X142062217Y-98316998D01*
X142055023Y-98247500D01*
X142086546Y-98185145D01*
X142105842Y-98168425D01*
X142176665Y-98118834D01*
X142291401Y-98038495D01*
X142458495Y-97871401D01*
X142573969Y-97706487D01*
X142588425Y-97685842D01*
X142643002Y-97642217D01*
X142712500Y-97635023D01*
X142774855Y-97666546D01*
G37*
%TD.AperFunction*%
%TA.AperFunction,NonConductor*%
G36*
X140234855Y-97666546D02*
G01*
X140251575Y-97685842D01*
X140381501Y-97871396D01*
X140381506Y-97871402D01*
X140548597Y-98038493D01*
X140548603Y-98038498D01*
X140734158Y-98168425D01*
X140777783Y-98223002D01*
X140784977Y-98292500D01*
X140753454Y-98354855D01*
X140734158Y-98371575D01*
X140548597Y-98501505D01*
X140381505Y-98668597D01*
X140251575Y-98854158D01*
X140196998Y-98897783D01*
X140127500Y-98904977D01*
X140065145Y-98873454D01*
X140048425Y-98854158D01*
X139918494Y-98668597D01*
X139751402Y-98501506D01*
X139751396Y-98501501D01*
X139565842Y-98371575D01*
X139522217Y-98316998D01*
X139515023Y-98247500D01*
X139546546Y-98185145D01*
X139565842Y-98168425D01*
X139636665Y-98118834D01*
X139751401Y-98038495D01*
X139918495Y-97871401D01*
X140033969Y-97706487D01*
X140048425Y-97685842D01*
X140103002Y-97642217D01*
X140172500Y-97635023D01*
X140234855Y-97666546D01*
G37*
%TD.AperFunction*%
%TA.AperFunction,NonConductor*%
G36*
X137694855Y-97666546D02*
G01*
X137711575Y-97685842D01*
X137841501Y-97871396D01*
X137841506Y-97871402D01*
X138008597Y-98038493D01*
X138008603Y-98038498D01*
X138194158Y-98168425D01*
X138237783Y-98223002D01*
X138244977Y-98292500D01*
X138213454Y-98354855D01*
X138194158Y-98371575D01*
X138008597Y-98501505D01*
X137841505Y-98668597D01*
X137711575Y-98854158D01*
X137656998Y-98897783D01*
X137587500Y-98904977D01*
X137525145Y-98873454D01*
X137508425Y-98854158D01*
X137378494Y-98668597D01*
X137211402Y-98501506D01*
X137211396Y-98501501D01*
X137025842Y-98371575D01*
X136982217Y-98316998D01*
X136975023Y-98247500D01*
X137006546Y-98185145D01*
X137025842Y-98168425D01*
X137096665Y-98118834D01*
X137211401Y-98038495D01*
X137378495Y-97871401D01*
X137493969Y-97706487D01*
X137508425Y-97685842D01*
X137563002Y-97642217D01*
X137632500Y-97635023D01*
X137694855Y-97666546D01*
G37*
%TD.AperFunction*%
%TA.AperFunction,NonConductor*%
G36*
X135154855Y-97666546D02*
G01*
X135171575Y-97685842D01*
X135301501Y-97871396D01*
X135301506Y-97871402D01*
X135468597Y-98038493D01*
X135468603Y-98038498D01*
X135654158Y-98168425D01*
X135697783Y-98223002D01*
X135704977Y-98292500D01*
X135673454Y-98354855D01*
X135654158Y-98371575D01*
X135468597Y-98501505D01*
X135301505Y-98668597D01*
X135171575Y-98854158D01*
X135116998Y-98897783D01*
X135047500Y-98904977D01*
X134985145Y-98873454D01*
X134968425Y-98854158D01*
X134838494Y-98668597D01*
X134671402Y-98501506D01*
X134671396Y-98501501D01*
X134485842Y-98371575D01*
X134442217Y-98316998D01*
X134435023Y-98247500D01*
X134466546Y-98185145D01*
X134485842Y-98168425D01*
X134556665Y-98118834D01*
X134671401Y-98038495D01*
X134838495Y-97871401D01*
X134953969Y-97706487D01*
X134968425Y-97685842D01*
X135023002Y-97642217D01*
X135092500Y-97635023D01*
X135154855Y-97666546D01*
G37*
%TD.AperFunction*%
%TA.AperFunction,NonConductor*%
G36*
X132542424Y-97582976D02*
G01*
X132598358Y-97624847D01*
X132611473Y-97646752D01*
X132625966Y-97677832D01*
X132690318Y-97769735D01*
X132761501Y-97871396D01*
X132761506Y-97871402D01*
X132928597Y-98038493D01*
X132928603Y-98038498D01*
X133114158Y-98168425D01*
X133157783Y-98223002D01*
X133164977Y-98292500D01*
X133133454Y-98354855D01*
X133114158Y-98371575D01*
X132928597Y-98501505D01*
X132761505Y-98668597D01*
X132625965Y-98862169D01*
X132625964Y-98862171D01*
X132536882Y-99053208D01*
X132490709Y-99105647D01*
X132423516Y-99124799D01*
X132356635Y-99104583D01*
X132311300Y-99051418D01*
X132300500Y-99000803D01*
X132300500Y-97773750D01*
X132320185Y-97706711D01*
X132336810Y-97686078D01*
X132411414Y-97611473D01*
X132472732Y-97577992D01*
X132542424Y-97582976D01*
G37*
%TD.AperFunction*%
%TA.AperFunction,NonConductor*%
G36*
X172480703Y-81938227D02*
G01*
X172487181Y-81944259D01*
X175763181Y-85220259D01*
X175796666Y-85281582D01*
X175799500Y-85307940D01*
X175799500Y-85637500D01*
X175799501Y-85637519D01*
X175810000Y-85740296D01*
X175810001Y-85740299D01*
X175855766Y-85878407D01*
X175865186Y-85906834D01*
X175957288Y-86056156D01*
X176081344Y-86180212D01*
X176140596Y-86216758D01*
X176187321Y-86268704D01*
X176199500Y-86322297D01*
X176199500Y-91442059D01*
X176179815Y-91509098D01*
X176163181Y-91529740D01*
X168382180Y-99310741D01*
X168320857Y-99344226D01*
X168251165Y-99339242D01*
X168195232Y-99297370D01*
X168170815Y-99231906D01*
X168170499Y-99223060D01*
X168170499Y-98642129D01*
X168170498Y-98642123D01*
X168164091Y-98582516D01*
X168113797Y-98447671D01*
X168113793Y-98447664D01*
X168027547Y-98332455D01*
X168027544Y-98332452D01*
X167912335Y-98246206D01*
X167912328Y-98246202D01*
X167780917Y-98197189D01*
X167724983Y-98155318D01*
X167700566Y-98089853D01*
X167715418Y-98021580D01*
X167736563Y-97993332D01*
X167858495Y-97871401D01*
X167871116Y-97853375D01*
X167925693Y-97809752D01*
X167972691Y-97800500D01*
X168578844Y-97800500D01*
X168578845Y-97800499D01*
X168733497Y-97769737D01*
X168879179Y-97709394D01*
X169010289Y-97621789D01*
X170121789Y-96510289D01*
X170129816Y-96502262D01*
X170170931Y-96436825D01*
X170172777Y-96433979D01*
X170209389Y-96379186D01*
X170209394Y-96379179D01*
X170209720Y-96378390D01*
X170219287Y-96359868D01*
X170225789Y-96349522D01*
X170247022Y-96288837D01*
X170249477Y-96282407D01*
X170269738Y-96233497D01*
X170272449Y-96219860D01*
X170277025Y-96203096D01*
X170285368Y-96179255D01*
X170291109Y-96128287D01*
X170292709Y-96118004D01*
X170300500Y-96078842D01*
X170300500Y-96051914D01*
X170301280Y-96038029D01*
X170305565Y-96000001D01*
X170305565Y-95999998D01*
X170301280Y-95961969D01*
X170300500Y-95948085D01*
X170300500Y-95921157D01*
X170292710Y-95881998D01*
X170291109Y-95871703D01*
X170285368Y-95820745D01*
X170277027Y-95796909D01*
X170272453Y-95780150D01*
X170269739Y-95766508D01*
X170269738Y-95766502D01*
X170249479Y-95717593D01*
X170247015Y-95711140D01*
X170225789Y-95650478D01*
X170225787Y-95650475D01*
X170225787Y-95650474D01*
X170222749Y-95645640D01*
X170219293Y-95640140D01*
X170209721Y-95621610D01*
X170209394Y-95620821D01*
X170172776Y-95566019D01*
X170170890Y-95563108D01*
X170129817Y-95497740D01*
X170129815Y-95497737D01*
X170126129Y-95494051D01*
X170126109Y-95494029D01*
X170007194Y-95375114D01*
X170007163Y-95375085D01*
X170002262Y-95370184D01*
X169936874Y-95329098D01*
X169933955Y-95327206D01*
X169879184Y-95290609D01*
X169879181Y-95290607D01*
X169879179Y-95290606D01*
X169879176Y-95290604D01*
X169879169Y-95290601D01*
X169878381Y-95290275D01*
X169859862Y-95280708D01*
X169849523Y-95274211D01*
X169788876Y-95252989D01*
X169782382Y-95250510D01*
X169774247Y-95247140D01*
X169733498Y-95230262D01*
X169733496Y-95230261D01*
X169733493Y-95230260D01*
X169719841Y-95227544D01*
X169703093Y-95222972D01*
X169679258Y-95214632D01*
X169679248Y-95214630D01*
X169628315Y-95208892D01*
X169618009Y-95207290D01*
X169578843Y-95199500D01*
X169551915Y-95199500D01*
X169538031Y-95198720D01*
X169500002Y-95194435D01*
X169499998Y-95194435D01*
X169461969Y-95198720D01*
X169448085Y-95199500D01*
X169421158Y-95199500D01*
X169381991Y-95207290D01*
X169371685Y-95208892D01*
X169320751Y-95214630D01*
X169320741Y-95214632D01*
X169296904Y-95222973D01*
X169280150Y-95227547D01*
X169266503Y-95230261D01*
X169217619Y-95250509D01*
X169211126Y-95252988D01*
X169150481Y-95274209D01*
X169150469Y-95274215D01*
X169140127Y-95280713D01*
X169121639Y-95290266D01*
X169120832Y-95290600D01*
X169120824Y-95290604D01*
X169066047Y-95327204D01*
X169063132Y-95329092D01*
X168997742Y-95370180D01*
X168997735Y-95370186D01*
X168204741Y-96163181D01*
X168143418Y-96196666D01*
X168117060Y-96199500D01*
X167972691Y-96199500D01*
X167905652Y-96179815D01*
X167871116Y-96146624D01*
X167858495Y-96128599D01*
X167858493Y-96128597D01*
X167858491Y-96128594D01*
X167691402Y-95961506D01*
X167691395Y-95961501D01*
X167682176Y-95955046D01*
X167633778Y-95921157D01*
X167497834Y-95825967D01*
X167497830Y-95825965D01*
X167322983Y-95744432D01*
X167270544Y-95698259D01*
X167251392Y-95631066D01*
X167271608Y-95564185D01*
X167287702Y-95544374D01*
X172096789Y-90735289D01*
X172103137Y-90725789D01*
X172184394Y-90604179D01*
X172244737Y-90458497D01*
X172275500Y-90303842D01*
X172275500Y-82031940D01*
X172295185Y-81964901D01*
X172347989Y-81919146D01*
X172417147Y-81909202D01*
X172480703Y-81938227D01*
G37*
%TD.AperFunction*%
%TA.AperFunction,NonConductor*%
G36*
X140659099Y-66545185D02*
G01*
X140679741Y-66561819D01*
X142408783Y-68290861D01*
X142442268Y-68352184D01*
X142437284Y-68421876D01*
X142395414Y-68477808D01*
X142342452Y-68517455D01*
X142256207Y-68632663D01*
X142254973Y-68634924D01*
X142253150Y-68636746D01*
X142250888Y-68639769D01*
X142250453Y-68639443D01*
X142205569Y-68684331D01*
X142146139Y-68699500D01*
X140421153Y-68699500D01*
X140266510Y-68730260D01*
X140266502Y-68730262D01*
X140120824Y-68790604D01*
X140120814Y-68790609D01*
X139989711Y-68878210D01*
X139989707Y-68878213D01*
X138997738Y-69870184D01*
X138870186Y-69997735D01*
X138870180Y-69997742D01*
X138829092Y-70063132D01*
X138827204Y-70066047D01*
X138790604Y-70120824D01*
X138790600Y-70120832D01*
X138790266Y-70121639D01*
X138780713Y-70140127D01*
X138774212Y-70150474D01*
X138774210Y-70150477D01*
X138752982Y-70211140D01*
X138750504Y-70217631D01*
X138730264Y-70266496D01*
X138730263Y-70266502D01*
X138727550Y-70280140D01*
X138722975Y-70296898D01*
X138714634Y-70320735D01*
X138714632Y-70320742D01*
X138708890Y-70371696D01*
X138707288Y-70381994D01*
X138699500Y-70421152D01*
X138699500Y-70448085D01*
X138698720Y-70461969D01*
X138694435Y-70499998D01*
X138694435Y-70500001D01*
X138698720Y-70538029D01*
X138699500Y-70551914D01*
X138699500Y-70578844D01*
X138707288Y-70618003D01*
X138708890Y-70628303D01*
X138714632Y-70679252D01*
X138714633Y-70679260D01*
X138722976Y-70703104D01*
X138727550Y-70719860D01*
X138730262Y-70733496D01*
X138750509Y-70782377D01*
X138752986Y-70788867D01*
X138766374Y-70827127D01*
X138774212Y-70849524D01*
X138780709Y-70859865D01*
X138790268Y-70878365D01*
X138790603Y-70879173D01*
X138790605Y-70879179D01*
X138827223Y-70933982D01*
X138829114Y-70936900D01*
X138870180Y-71002257D01*
X138870182Y-71002260D01*
X138870184Y-71002262D01*
X138997738Y-71129816D01*
X139063096Y-71170883D01*
X139063131Y-71170905D01*
X139066040Y-71172790D01*
X139120821Y-71209394D01*
X139121606Y-71209719D01*
X139140134Y-71219289D01*
X139150478Y-71225789D01*
X139211175Y-71247028D01*
X139217607Y-71249484D01*
X139246021Y-71261253D01*
X139266497Y-71269735D01*
X139266498Y-71269735D01*
X139266503Y-71269737D01*
X139280139Y-71272449D01*
X139296898Y-71277023D01*
X139320745Y-71285368D01*
X139371714Y-71291110D01*
X139381992Y-71292709D01*
X139409140Y-71298109D01*
X139421157Y-71300500D01*
X139421158Y-71300500D01*
X139448085Y-71300500D01*
X139461969Y-71301280D01*
X139499998Y-71305565D01*
X139500000Y-71305565D01*
X139500002Y-71305565D01*
X139538031Y-71301280D01*
X139551915Y-71300500D01*
X139578841Y-71300500D01*
X139578842Y-71300500D01*
X139618017Y-71292707D01*
X139628283Y-71291110D01*
X139679255Y-71285368D01*
X139703100Y-71277023D01*
X139719862Y-71272448D01*
X139733497Y-71269737D01*
X139782389Y-71249484D01*
X139788837Y-71247023D01*
X139849522Y-71225789D01*
X139859868Y-71219287D01*
X139878390Y-71209720D01*
X139879179Y-71209394D01*
X139933987Y-71172771D01*
X139936825Y-71170931D01*
X140002262Y-71129816D01*
X140129816Y-71002262D01*
X140795259Y-70336819D01*
X140856582Y-70303334D01*
X140882940Y-70300500D01*
X141310046Y-70300500D01*
X141377085Y-70320185D01*
X141422840Y-70372989D01*
X141432784Y-70442147D01*
X141403759Y-70505703D01*
X141397727Y-70512181D01*
X141392452Y-70517455D01*
X141306206Y-70632664D01*
X141306202Y-70632671D01*
X141255908Y-70767517D01*
X141249501Y-70827116D01*
X141249500Y-70827135D01*
X141249500Y-72172870D01*
X141249501Y-72172876D01*
X141255908Y-72232483D01*
X141291682Y-72328395D01*
X141299500Y-72371728D01*
X141299500Y-73646862D01*
X141279815Y-73713901D01*
X141240598Y-73752399D01*
X141172288Y-73794533D01*
X141131342Y-73819789D01*
X141007289Y-73943842D01*
X140915187Y-74093163D01*
X140915186Y-74093166D01*
X140860001Y-74259703D01*
X140860001Y-74259704D01*
X140860000Y-74259704D01*
X140849500Y-74362483D01*
X140849500Y-74987501D01*
X140849501Y-74987519D01*
X140860000Y-75090296D01*
X140860001Y-75090299D01*
X140915185Y-75256831D01*
X140915187Y-75256836D01*
X140950069Y-75313388D01*
X140989232Y-75376883D01*
X141007289Y-75406157D01*
X141100951Y-75499819D01*
X141134436Y-75561142D01*
X141129452Y-75630834D01*
X141100951Y-75675181D01*
X141007289Y-75768842D01*
X140915187Y-75918163D01*
X140915185Y-75918168D01*
X140909945Y-75933982D01*
X140860001Y-76084703D01*
X140860001Y-76084704D01*
X140860000Y-76084704D01*
X140849500Y-76187483D01*
X140849500Y-76812501D01*
X140849501Y-76812519D01*
X140860000Y-76915296D01*
X140874780Y-76959898D01*
X140900163Y-77036497D01*
X140902565Y-77106324D01*
X140866834Y-77166366D01*
X140804313Y-77197559D01*
X140782457Y-77199500D01*
X135382940Y-77199500D01*
X135315901Y-77179815D01*
X135295259Y-77163181D01*
X133002260Y-74870182D01*
X133002257Y-74870180D01*
X132936900Y-74829114D01*
X132933982Y-74827223D01*
X132879179Y-74790605D01*
X132879173Y-74790603D01*
X132878365Y-74790268D01*
X132859865Y-74780709D01*
X132849524Y-74774212D01*
X132849523Y-74774211D01*
X132849522Y-74774211D01*
X132788867Y-74752986D01*
X132782377Y-74750509D01*
X132733496Y-74730262D01*
X132719860Y-74727550D01*
X132703104Y-74722976D01*
X132679260Y-74714633D01*
X132679256Y-74714632D01*
X132679255Y-74714632D01*
X132658575Y-74712301D01*
X132628303Y-74708890D01*
X132618003Y-74707288D01*
X132578844Y-74699500D01*
X132578842Y-74699500D01*
X132551915Y-74699500D01*
X132538031Y-74698720D01*
X132500002Y-74694435D01*
X132499998Y-74694435D01*
X132461969Y-74698720D01*
X132448085Y-74699500D01*
X132421152Y-74699500D01*
X132381994Y-74707288D01*
X132371696Y-74708890D01*
X132320742Y-74714632D01*
X132320735Y-74714634D01*
X132296898Y-74722975D01*
X132280140Y-74727550D01*
X132266502Y-74730263D01*
X132266496Y-74730264D01*
X132217631Y-74750504D01*
X132211140Y-74752982D01*
X132150477Y-74774210D01*
X132150474Y-74774212D01*
X132140127Y-74780713D01*
X132121639Y-74790266D01*
X132120832Y-74790600D01*
X132120824Y-74790604D01*
X132066047Y-74827204D01*
X132063132Y-74829092D01*
X131997742Y-74870180D01*
X131997735Y-74870186D01*
X131870186Y-74997735D01*
X131870180Y-74997742D01*
X131829092Y-75063132D01*
X131827204Y-75066047D01*
X131790604Y-75120824D01*
X131790600Y-75120832D01*
X131790266Y-75121639D01*
X131780713Y-75140127D01*
X131774212Y-75150474D01*
X131774210Y-75150477D01*
X131752982Y-75211140D01*
X131750504Y-75217631D01*
X131730264Y-75266496D01*
X131730263Y-75266502D01*
X131727550Y-75280140D01*
X131722975Y-75296898D01*
X131714634Y-75320735D01*
X131714632Y-75320742D01*
X131708890Y-75371696D01*
X131707288Y-75381994D01*
X131699500Y-75421152D01*
X131699500Y-75448085D01*
X131698720Y-75461969D01*
X131694435Y-75499998D01*
X131694435Y-75500001D01*
X131698720Y-75538029D01*
X131699500Y-75551914D01*
X131699500Y-75578844D01*
X131707288Y-75618003D01*
X131708890Y-75628303D01*
X131714632Y-75679252D01*
X131714633Y-75679260D01*
X131722976Y-75703104D01*
X131727550Y-75719860D01*
X131730262Y-75733496D01*
X131750509Y-75782377D01*
X131752986Y-75788867D01*
X131766401Y-75827204D01*
X131774212Y-75849524D01*
X131780709Y-75859865D01*
X131790268Y-75878365D01*
X131790603Y-75879173D01*
X131790605Y-75879179D01*
X131827223Y-75933982D01*
X131829114Y-75936900D01*
X131870180Y-76002257D01*
X131870182Y-76002260D01*
X131870184Y-76002262D01*
X131878211Y-76010289D01*
X134378211Y-78510289D01*
X134463823Y-78595901D01*
X134489712Y-78621790D01*
X134620814Y-78709390D01*
X134620827Y-78709397D01*
X134734734Y-78756578D01*
X134766503Y-78769737D01*
X134921153Y-78800499D01*
X134921156Y-78800500D01*
X134921158Y-78800500D01*
X147392060Y-78800500D01*
X147459099Y-78820185D01*
X147479741Y-78836819D01*
X152741255Y-84098333D01*
X152774740Y-84159656D01*
X152769756Y-84229348D01*
X152727884Y-84285281D01*
X152662420Y-84309698D01*
X152606121Y-84300575D01*
X152459122Y-84239686D01*
X152459114Y-84239684D01*
X152307369Y-84209500D01*
X152307365Y-84209500D01*
X152152635Y-84209500D01*
X152152630Y-84209500D01*
X152000885Y-84239684D01*
X152000877Y-84239686D01*
X151857928Y-84298897D01*
X151857919Y-84298902D01*
X151729273Y-84384861D01*
X151729269Y-84384864D01*
X151682681Y-84431453D01*
X151621358Y-84464938D01*
X151551666Y-84459954D01*
X151507319Y-84431453D01*
X151460730Y-84384864D01*
X151460726Y-84384861D01*
X151332080Y-84298902D01*
X151332071Y-84298897D01*
X151189122Y-84239686D01*
X151189114Y-84239684D01*
X151037369Y-84209500D01*
X151037365Y-84209500D01*
X150882635Y-84209500D01*
X150882630Y-84209500D01*
X150730885Y-84239684D01*
X150730877Y-84239686D01*
X150587928Y-84298897D01*
X150587919Y-84298902D01*
X150459273Y-84384861D01*
X150459269Y-84384864D01*
X150412681Y-84431453D01*
X150351358Y-84464938D01*
X150281666Y-84459954D01*
X150237319Y-84431453D01*
X150190730Y-84384864D01*
X150190726Y-84384861D01*
X150062080Y-84298902D01*
X150062071Y-84298897D01*
X149919122Y-84239686D01*
X149919114Y-84239684D01*
X149767369Y-84209500D01*
X149767365Y-84209500D01*
X149612635Y-84209500D01*
X149612630Y-84209500D01*
X149460885Y-84239684D01*
X149460877Y-84239686D01*
X149317928Y-84298897D01*
X149317919Y-84298902D01*
X149189273Y-84384861D01*
X149189269Y-84384864D01*
X149079864Y-84494269D01*
X149079861Y-84494273D01*
X148993902Y-84622919D01*
X148993897Y-84622928D01*
X148934686Y-84765877D01*
X148934684Y-84765885D01*
X148904500Y-84917630D01*
X148904500Y-86542369D01*
X148934684Y-86694114D01*
X148934686Y-86694122D01*
X148993897Y-86837071D01*
X148993902Y-86837080D01*
X149079861Y-86965726D01*
X149079864Y-86965730D01*
X149189269Y-87075135D01*
X149189273Y-87075138D01*
X149317919Y-87161097D01*
X149317923Y-87161099D01*
X149317926Y-87161101D01*
X149460878Y-87220314D01*
X149612630Y-87250499D01*
X149612634Y-87250500D01*
X149612635Y-87250500D01*
X149767366Y-87250500D01*
X149767367Y-87250499D01*
X149919122Y-87220314D01*
X150062074Y-87161101D01*
X150190727Y-87075138D01*
X150190730Y-87075135D01*
X150237319Y-87028547D01*
X150298642Y-86995062D01*
X150368334Y-87000046D01*
X150412681Y-87028547D01*
X150459269Y-87075135D01*
X150459273Y-87075138D01*
X150587919Y-87161097D01*
X150587923Y-87161099D01*
X150587926Y-87161101D01*
X150730878Y-87220314D01*
X150882630Y-87250499D01*
X150882634Y-87250500D01*
X150882635Y-87250500D01*
X151037366Y-87250500D01*
X151037367Y-87250499D01*
X151189122Y-87220314D01*
X151332074Y-87161101D01*
X151460727Y-87075138D01*
X151460730Y-87075135D01*
X151507319Y-87028547D01*
X151568642Y-86995062D01*
X151638334Y-87000046D01*
X151682681Y-87028547D01*
X151729269Y-87075135D01*
X151729273Y-87075138D01*
X151857919Y-87161097D01*
X151857923Y-87161099D01*
X151857926Y-87161101D01*
X152000878Y-87220314D01*
X152152630Y-87250499D01*
X152152634Y-87250500D01*
X152152635Y-87250500D01*
X152307366Y-87250500D01*
X152307367Y-87250499D01*
X152459122Y-87220314D01*
X152602074Y-87161101D01*
X152730727Y-87075138D01*
X152730730Y-87075135D01*
X152777319Y-87028547D01*
X152838642Y-86995062D01*
X152908334Y-87000046D01*
X152952681Y-87028547D01*
X152999269Y-87075135D01*
X152999273Y-87075138D01*
X153127919Y-87161097D01*
X153127923Y-87161099D01*
X153127926Y-87161101D01*
X153270878Y-87220314D01*
X153422630Y-87250499D01*
X153422634Y-87250500D01*
X153422635Y-87250500D01*
X153577366Y-87250500D01*
X153577367Y-87250499D01*
X153729122Y-87220314D01*
X153872074Y-87161101D01*
X154000727Y-87075138D01*
X154000730Y-87075135D01*
X154047319Y-87028547D01*
X154108642Y-86995062D01*
X154178334Y-87000046D01*
X154222681Y-87028547D01*
X154269269Y-87075135D01*
X154269273Y-87075138D01*
X154397926Y-87161101D01*
X154397929Y-87161102D01*
X154402790Y-87163701D01*
X154452636Y-87212662D01*
X154468098Y-87280799D01*
X154444269Y-87346480D01*
X154432021Y-87360742D01*
X152039144Y-89753618D01*
X151998916Y-89780498D01*
X151857929Y-89838897D01*
X151857919Y-89838902D01*
X151729273Y-89924861D01*
X151729269Y-89924864D01*
X151682681Y-89971453D01*
X151621358Y-90004938D01*
X151551666Y-89999954D01*
X151507319Y-89971453D01*
X151460730Y-89924864D01*
X151460726Y-89924861D01*
X151332080Y-89838902D01*
X151332071Y-89838897D01*
X151189122Y-89779686D01*
X151189114Y-89779684D01*
X151037369Y-89749500D01*
X151037365Y-89749500D01*
X150882635Y-89749500D01*
X150882630Y-89749500D01*
X150730885Y-89779684D01*
X150730877Y-89779686D01*
X150587928Y-89838897D01*
X150587919Y-89838902D01*
X150459273Y-89924861D01*
X150459269Y-89924864D01*
X150412681Y-89971453D01*
X150351358Y-90004938D01*
X150281666Y-89999954D01*
X150237319Y-89971453D01*
X150190730Y-89924864D01*
X150190726Y-89924861D01*
X150062080Y-89838902D01*
X150062071Y-89838897D01*
X149919122Y-89779686D01*
X149919114Y-89779684D01*
X149767369Y-89749500D01*
X149767365Y-89749500D01*
X149612635Y-89749500D01*
X149612630Y-89749500D01*
X149460885Y-89779684D01*
X149460877Y-89779686D01*
X149317928Y-89838897D01*
X149317919Y-89838902D01*
X149189273Y-89924861D01*
X149189269Y-89924864D01*
X149079864Y-90034269D01*
X149079861Y-90034273D01*
X148993902Y-90162919D01*
X148993897Y-90162928D01*
X148934686Y-90305877D01*
X148934684Y-90305883D01*
X148921992Y-90369692D01*
X148889607Y-90431603D01*
X148828891Y-90466177D01*
X148800375Y-90469500D01*
X137541966Y-90469500D01*
X137387321Y-90500261D01*
X137387309Y-90500264D01*
X137241638Y-90560602D01*
X137241625Y-90560609D01*
X137110522Y-90648210D01*
X137110518Y-90648213D01*
X132508224Y-95250509D01*
X130989711Y-96769022D01*
X130933960Y-96824773D01*
X130878209Y-96880523D01*
X130790609Y-97011625D01*
X130790602Y-97011638D01*
X130730264Y-97157309D01*
X130730261Y-97157321D01*
X130699500Y-97311964D01*
X130699500Y-100768060D01*
X130679815Y-100835099D01*
X130627011Y-100880854D01*
X130557853Y-100890798D01*
X130494297Y-100861773D01*
X130487819Y-100855741D01*
X129836819Y-100204741D01*
X129803334Y-100143418D01*
X129800500Y-100117060D01*
X129800500Y-94997297D01*
X129820185Y-94930258D01*
X129859403Y-94891758D01*
X129918656Y-94855212D01*
X130042712Y-94731156D01*
X130134814Y-94581834D01*
X130189999Y-94415297D01*
X130200500Y-94312509D01*
X130200499Y-93687492D01*
X130189999Y-93584703D01*
X130134814Y-93418166D01*
X130042712Y-93268844D01*
X129949049Y-93175181D01*
X129915564Y-93113858D01*
X129920548Y-93044166D01*
X129949049Y-92999819D01*
X129993822Y-92955046D01*
X130042712Y-92906156D01*
X130134814Y-92756834D01*
X130189999Y-92590297D01*
X130200500Y-92487509D01*
X130200499Y-91862492D01*
X130198438Y-91842320D01*
X130189999Y-91759703D01*
X130189998Y-91759700D01*
X130188607Y-91755501D01*
X130134814Y-91593166D01*
X130042712Y-91443844D01*
X129918656Y-91319788D01*
X129918655Y-91319787D01*
X129909402Y-91314080D01*
X129862678Y-91262132D01*
X129850500Y-91208542D01*
X129850500Y-89871728D01*
X129858318Y-89828394D01*
X129868723Y-89800499D01*
X129883818Y-89760025D01*
X129925690Y-89704093D01*
X129991154Y-89679676D01*
X130059427Y-89694528D01*
X130108832Y-89743933D01*
X130116182Y-89760027D01*
X130156202Y-89867328D01*
X130156206Y-89867335D01*
X130242452Y-89982544D01*
X130242455Y-89982547D01*
X130357664Y-90068793D01*
X130357671Y-90068797D01*
X130492517Y-90119091D01*
X130492516Y-90119091D01*
X130499444Y-90119835D01*
X130552127Y-90125500D01*
X131347872Y-90125499D01*
X131407483Y-90119091D01*
X131542331Y-90068796D01*
X131657546Y-89982546D01*
X131743796Y-89867331D01*
X131743798Y-89867323D01*
X131745027Y-89865076D01*
X131746849Y-89863253D01*
X131749112Y-89860231D01*
X131749546Y-89860556D01*
X131794431Y-89815669D01*
X131853861Y-89800500D01*
X137578844Y-89800500D01*
X137578845Y-89800499D01*
X137733497Y-89769737D01*
X137879179Y-89709394D01*
X138010289Y-89621789D01*
X139632077Y-88000001D01*
X143694435Y-88000001D01*
X143698720Y-88038029D01*
X143699500Y-88051914D01*
X143699500Y-88078844D01*
X143707288Y-88118003D01*
X143708890Y-88128303D01*
X143714632Y-88179252D01*
X143714633Y-88179260D01*
X143722976Y-88203104D01*
X143727550Y-88219860D01*
X143730262Y-88233496D01*
X143750509Y-88282377D01*
X143752986Y-88288867D01*
X143766374Y-88327127D01*
X143774212Y-88349524D01*
X143780709Y-88359865D01*
X143790268Y-88378365D01*
X143790603Y-88379173D01*
X143790605Y-88379179D01*
X143827223Y-88433982D01*
X143829114Y-88436900D01*
X143870180Y-88502257D01*
X143870182Y-88502260D01*
X143870184Y-88502262D01*
X143997738Y-88629816D01*
X144063131Y-88670905D01*
X144066040Y-88672790D01*
X144120821Y-88709394D01*
X144121606Y-88709719D01*
X144140134Y-88719289D01*
X144150478Y-88725789D01*
X144211175Y-88747028D01*
X144217607Y-88749484D01*
X144246021Y-88761253D01*
X144266497Y-88769735D01*
X144266498Y-88769735D01*
X144266503Y-88769737D01*
X144280139Y-88772449D01*
X144296898Y-88777023D01*
X144320745Y-88785368D01*
X144371714Y-88791110D01*
X144381992Y-88792709D01*
X144409140Y-88798109D01*
X144421157Y-88800500D01*
X144421158Y-88800500D01*
X144448085Y-88800500D01*
X144461969Y-88801280D01*
X144499998Y-88805565D01*
X144500000Y-88805565D01*
X144500002Y-88805565D01*
X144538031Y-88801280D01*
X144551915Y-88800500D01*
X147117060Y-88800500D01*
X147184099Y-88820185D01*
X147204741Y-88836819D01*
X147370184Y-89002262D01*
X147497738Y-89129816D01*
X147563096Y-89170883D01*
X147563131Y-89170905D01*
X147566040Y-89172790D01*
X147620821Y-89209394D01*
X147621606Y-89209719D01*
X147640134Y-89219289D01*
X147650478Y-89225789D01*
X147711114Y-89247006D01*
X147717611Y-89249486D01*
X147766503Y-89269738D01*
X147766510Y-89269739D01*
X147766512Y-89269740D01*
X147780142Y-89272451D01*
X147796907Y-89277026D01*
X147820745Y-89285368D01*
X147871711Y-89291109D01*
X147881998Y-89292710D01*
X147899562Y-89296204D01*
X147921155Y-89300500D01*
X147921158Y-89300500D01*
X147948085Y-89300500D01*
X147961969Y-89301280D01*
X147999998Y-89305565D01*
X148000000Y-89305565D01*
X148000002Y-89305565D01*
X148038031Y-89301280D01*
X148051915Y-89300500D01*
X148078845Y-89300500D01*
X148091003Y-89298080D01*
X148118009Y-89292708D01*
X148128285Y-89291110D01*
X148179255Y-89285368D01*
X148203095Y-89277025D01*
X148219845Y-89272452D01*
X148233497Y-89269738D01*
X148282407Y-89249477D01*
X148288837Y-89247022D01*
X148349522Y-89225789D01*
X148359868Y-89219287D01*
X148378390Y-89209720D01*
X148379179Y-89209394D01*
X148433987Y-89172771D01*
X148436825Y-89170931D01*
X148502262Y-89129816D01*
X148629816Y-89002262D01*
X148670931Y-88936825D01*
X148672777Y-88933979D01*
X148709389Y-88879186D01*
X148709394Y-88879179D01*
X148709720Y-88878390D01*
X148719287Y-88859868D01*
X148725789Y-88849522D01*
X148747022Y-88788837D01*
X148749477Y-88782407D01*
X148769738Y-88733497D01*
X148772452Y-88719845D01*
X148777025Y-88703095D01*
X148785368Y-88679255D01*
X148791110Y-88628285D01*
X148792708Y-88618009D01*
X148800500Y-88578843D01*
X148800500Y-88551914D01*
X148801280Y-88538029D01*
X148805565Y-88500001D01*
X148805565Y-88499998D01*
X148801280Y-88461969D01*
X148800500Y-88448085D01*
X148800500Y-88421154D01*
X148792712Y-88382010D01*
X148791109Y-88371711D01*
X148785368Y-88320745D01*
X148777026Y-88296907D01*
X148772451Y-88280142D01*
X148769740Y-88266512D01*
X148769739Y-88266510D01*
X148769738Y-88266503D01*
X148749486Y-88217611D01*
X148747006Y-88211114D01*
X148742942Y-88199500D01*
X148725789Y-88150478D01*
X148719289Y-88140134D01*
X148709719Y-88121606D01*
X148709394Y-88120821D01*
X148672790Y-88066040D01*
X148670905Y-88063131D01*
X148663857Y-88051914D01*
X148629816Y-87997738D01*
X148502262Y-87870184D01*
X148263358Y-87631280D01*
X148010292Y-87378213D01*
X148010288Y-87378210D01*
X147879185Y-87290609D01*
X147879172Y-87290602D01*
X147733501Y-87230264D01*
X147733489Y-87230261D01*
X147578845Y-87199500D01*
X147578842Y-87199500D01*
X144551915Y-87199500D01*
X144538031Y-87198720D01*
X144500002Y-87194435D01*
X144499998Y-87194435D01*
X144461969Y-87198720D01*
X144448085Y-87199500D01*
X144421152Y-87199500D01*
X144381994Y-87207288D01*
X144371696Y-87208890D01*
X144320742Y-87214632D01*
X144320735Y-87214634D01*
X144296898Y-87222975D01*
X144280140Y-87227550D01*
X144266502Y-87230263D01*
X144266496Y-87230264D01*
X144217631Y-87250504D01*
X144211140Y-87252982D01*
X144150477Y-87274210D01*
X144150474Y-87274212D01*
X144140127Y-87280713D01*
X144121639Y-87290266D01*
X144120832Y-87290600D01*
X144120824Y-87290604D01*
X144066047Y-87327204D01*
X144063132Y-87329092D01*
X143997742Y-87370180D01*
X143997735Y-87370186D01*
X143870186Y-87497735D01*
X143870180Y-87497742D01*
X143829092Y-87563132D01*
X143827204Y-87566047D01*
X143790604Y-87620824D01*
X143790600Y-87620832D01*
X143790266Y-87621639D01*
X143780713Y-87640127D01*
X143774212Y-87650474D01*
X143774210Y-87650477D01*
X143752982Y-87711140D01*
X143750504Y-87717631D01*
X143730264Y-87766496D01*
X143730263Y-87766502D01*
X143727550Y-87780140D01*
X143722975Y-87796898D01*
X143714634Y-87820735D01*
X143714632Y-87820742D01*
X143708890Y-87871696D01*
X143707288Y-87881994D01*
X143699500Y-87921152D01*
X143699500Y-87948085D01*
X143698720Y-87961969D01*
X143694435Y-87999998D01*
X143694435Y-88000001D01*
X139632077Y-88000001D01*
X146295258Y-81336818D01*
X146356581Y-81303334D01*
X146382939Y-81300500D01*
X146421158Y-81300500D01*
X146448085Y-81300500D01*
X146461969Y-81301280D01*
X146499998Y-81305565D01*
X146500000Y-81305565D01*
X146500002Y-81305565D01*
X146538031Y-81301280D01*
X146551915Y-81300500D01*
X147117060Y-81300500D01*
X147184099Y-81320185D01*
X147204741Y-81336819D01*
X148997738Y-83129816D01*
X149063137Y-83170909D01*
X149066046Y-83172794D01*
X149120821Y-83209393D01*
X149121611Y-83209720D01*
X149140132Y-83219288D01*
X149150478Y-83225789D01*
X149211160Y-83247022D01*
X149217627Y-83249492D01*
X149266494Y-83269734D01*
X149266498Y-83269735D01*
X149266503Y-83269737D01*
X149280139Y-83272449D01*
X149296898Y-83277023D01*
X149320745Y-83285368D01*
X149371714Y-83291110D01*
X149381992Y-83292709D01*
X149409140Y-83298109D01*
X149421157Y-83300500D01*
X149421158Y-83300500D01*
X149448085Y-83300500D01*
X149461969Y-83301280D01*
X149499998Y-83305565D01*
X149500000Y-83305565D01*
X149500002Y-83305565D01*
X149538031Y-83301280D01*
X149551915Y-83300500D01*
X149578841Y-83300500D01*
X149578842Y-83300500D01*
X149618017Y-83292707D01*
X149628283Y-83291110D01*
X149679255Y-83285368D01*
X149703107Y-83277020D01*
X149719852Y-83272450D01*
X149733497Y-83269737D01*
X149782382Y-83249487D01*
X149788852Y-83247017D01*
X149849522Y-83225789D01*
X149859860Y-83219292D01*
X149878389Y-83209719D01*
X149879179Y-83209393D01*
X149933976Y-83172778D01*
X149936854Y-83170914D01*
X149936862Y-83170909D01*
X150002262Y-83129816D01*
X150129816Y-83002262D01*
X150170921Y-82936842D01*
X150172778Y-82933976D01*
X150209393Y-82879179D01*
X150209719Y-82878389D01*
X150219293Y-82859859D01*
X150222213Y-82855212D01*
X150225789Y-82849522D01*
X150247017Y-82788852D01*
X150249493Y-82782368D01*
X150250179Y-82780713D01*
X150269737Y-82733497D01*
X150272450Y-82719852D01*
X150277020Y-82703107D01*
X150285368Y-82679255D01*
X150291110Y-82628283D01*
X150292707Y-82618017D01*
X150300500Y-82578842D01*
X150300500Y-82551914D01*
X150301280Y-82538029D01*
X150305565Y-82500001D01*
X150305565Y-82499998D01*
X150301280Y-82461969D01*
X150300500Y-82448085D01*
X150300500Y-82421157D01*
X150292711Y-82382003D01*
X150291110Y-82371714D01*
X150285368Y-82320745D01*
X150277023Y-82296898D01*
X150272449Y-82280139D01*
X150269737Y-82266503D01*
X150269735Y-82266498D01*
X150269734Y-82266494D01*
X150249492Y-82217627D01*
X150247022Y-82211160D01*
X150225789Y-82150478D01*
X150219288Y-82140132D01*
X150209720Y-82121611D01*
X150209393Y-82120821D01*
X150172794Y-82066046D01*
X150170909Y-82063137D01*
X150129816Y-81997738D01*
X150002262Y-81870184D01*
X148010292Y-79878213D01*
X148010288Y-79878210D01*
X147879185Y-79790609D01*
X147879172Y-79790602D01*
X147733501Y-79730264D01*
X147733489Y-79730261D01*
X147578845Y-79699500D01*
X147578842Y-79699500D01*
X146578842Y-79699500D01*
X146551915Y-79699500D01*
X146538031Y-79698720D01*
X146500002Y-79694435D01*
X146499998Y-79694435D01*
X146461969Y-79698720D01*
X146448085Y-79699500D01*
X145921155Y-79699500D01*
X145784385Y-79726706D01*
X145773615Y-79728848D01*
X145766501Y-79730263D01*
X145766498Y-79730264D01*
X145620827Y-79790602D01*
X145620814Y-79790609D01*
X145489712Y-79878209D01*
X145449759Y-79918163D01*
X145378211Y-79989711D01*
X137204741Y-88163181D01*
X137143418Y-88196666D01*
X137117060Y-88199500D01*
X131874500Y-88199500D01*
X131807461Y-88179815D01*
X131761706Y-88127011D01*
X131750500Y-88075500D01*
X131750500Y-83304606D01*
X131759940Y-83257151D01*
X131763112Y-83249493D01*
X131769738Y-83233497D01*
X131772449Y-83219860D01*
X131777025Y-83203096D01*
X131785368Y-83179255D01*
X131791109Y-83128287D01*
X131792709Y-83118004D01*
X131800500Y-83078842D01*
X131800500Y-83051914D01*
X131801280Y-83038029D01*
X131801762Y-83033756D01*
X131805310Y-83002262D01*
X131805565Y-83000001D01*
X131805565Y-82999998D01*
X131801280Y-82961969D01*
X131800500Y-82948085D01*
X131800500Y-82921157D01*
X131799866Y-82917969D01*
X131792708Y-82881987D01*
X131791109Y-82871703D01*
X131785368Y-82820745D01*
X131777027Y-82796909D01*
X131772449Y-82780137D01*
X131771271Y-82774212D01*
X131769738Y-82766503D01*
X131749481Y-82717600D01*
X131747006Y-82711115D01*
X131746227Y-82708890D01*
X131725789Y-82650478D01*
X131719289Y-82640134D01*
X131709719Y-82621606D01*
X131709394Y-82620821D01*
X131672790Y-82566040D01*
X131670905Y-82563131D01*
X131656189Y-82539711D01*
X131629816Y-82497738D01*
X131502262Y-82370184D01*
X131502260Y-82370182D01*
X131502257Y-82370180D01*
X131436900Y-82329114D01*
X131433982Y-82327223D01*
X131379179Y-82290605D01*
X131379173Y-82290603D01*
X131378365Y-82290268D01*
X131359865Y-82280709D01*
X131349526Y-82274213D01*
X131349513Y-82274206D01*
X131288885Y-82252992D01*
X131282390Y-82250513D01*
X131233497Y-82230262D01*
X131233491Y-82230260D01*
X131219850Y-82227547D01*
X131203090Y-82222972D01*
X131179250Y-82214630D01*
X131179251Y-82214630D01*
X131128315Y-82208892D01*
X131118009Y-82207290D01*
X131078843Y-82199500D01*
X131051915Y-82199500D01*
X131038031Y-82198720D01*
X131000002Y-82194435D01*
X130999998Y-82194435D01*
X130961969Y-82198720D01*
X130948085Y-82199500D01*
X130921158Y-82199500D01*
X130881991Y-82207290D01*
X130871685Y-82208892D01*
X130820751Y-82214630D01*
X130820741Y-82214632D01*
X130796904Y-82222973D01*
X130780150Y-82227547D01*
X130766503Y-82230261D01*
X130717619Y-82250509D01*
X130711126Y-82252988D01*
X130650481Y-82274209D01*
X130650469Y-82274215D01*
X130640127Y-82280713D01*
X130621639Y-82290266D01*
X130620832Y-82290600D01*
X130620824Y-82290604D01*
X130620821Y-82290605D01*
X130620821Y-82290606D01*
X130588030Y-82312516D01*
X130566047Y-82327204D01*
X130563132Y-82329092D01*
X130497742Y-82370180D01*
X130497735Y-82370186D01*
X130462068Y-82405854D01*
X130439711Y-82428211D01*
X130405953Y-82461969D01*
X130328209Y-82539712D01*
X130240609Y-82670814D01*
X130240602Y-82670827D01*
X130180264Y-82816498D01*
X130180261Y-82816510D01*
X130149500Y-82971153D01*
X130149500Y-85718060D01*
X130129815Y-85785099D01*
X130077011Y-85830854D01*
X130007853Y-85840798D01*
X129944297Y-85811773D01*
X129937819Y-85805741D01*
X129861819Y-85729741D01*
X129828334Y-85668418D01*
X129825500Y-85642060D01*
X129825500Y-69477281D01*
X129845185Y-69410242D01*
X129873336Y-69379428D01*
X129976784Y-69298913D01*
X130133979Y-69128153D01*
X130260924Y-68933849D01*
X130354157Y-68721300D01*
X130411134Y-68496305D01*
X130412667Y-68477808D01*
X130430300Y-68265006D01*
X130430300Y-68264993D01*
X130411135Y-68033702D01*
X130411133Y-68033691D01*
X130354157Y-67808699D01*
X130260924Y-67596151D01*
X130133983Y-67401852D01*
X130133980Y-67401849D01*
X130133979Y-67401847D01*
X130039195Y-67298884D01*
X130008275Y-67236232D01*
X130016135Y-67166806D01*
X130060283Y-67112651D01*
X130087095Y-67098722D01*
X130167326Y-67068798D01*
X130167326Y-67068797D01*
X130167331Y-67068796D01*
X130282546Y-66982546D01*
X130368796Y-66867331D01*
X130419091Y-66732483D01*
X130425500Y-66672873D01*
X130425500Y-66649500D01*
X130445185Y-66582461D01*
X130497989Y-66536706D01*
X130549500Y-66525500D01*
X140592060Y-66525500D01*
X140659099Y-66545185D01*
G37*
%TD.AperFunction*%
%TA.AperFunction,NonConductor*%
G36*
X158014855Y-100206546D02*
G01*
X158031575Y-100225842D01*
X158161505Y-100411401D01*
X158328599Y-100578495D01*
X158425384Y-100646265D01*
X158522165Y-100714032D01*
X158522167Y-100714033D01*
X158522170Y-100714035D01*
X158736337Y-100813903D01*
X158964592Y-100875063D01*
X159144440Y-100890798D01*
X159199999Y-100895659D01*
X159200000Y-100895659D01*
X159200001Y-100895659D01*
X159228870Y-100893133D01*
X159378152Y-100880072D01*
X159446651Y-100893838D01*
X159496834Y-100942453D01*
X159512768Y-101010482D01*
X159489393Y-101076326D01*
X159476642Y-101091279D01*
X159404739Y-101163182D01*
X159343419Y-101196666D01*
X159317060Y-101199500D01*
X151351939Y-101199500D01*
X151284900Y-101179815D01*
X151239145Y-101127011D01*
X151229201Y-101057853D01*
X151258226Y-100994297D01*
X151264238Y-100987838D01*
X151333522Y-100918554D01*
X151394841Y-100885072D01*
X151432002Y-100882710D01*
X151580000Y-100895659D01*
X151580001Y-100895659D01*
X151635560Y-100890798D01*
X151815408Y-100875063D01*
X152043663Y-100813903D01*
X152257830Y-100714035D01*
X152451401Y-100578495D01*
X152618495Y-100411401D01*
X152748425Y-100225842D01*
X152803002Y-100182217D01*
X152872500Y-100175023D01*
X152934855Y-100206546D01*
X152951575Y-100225842D01*
X153081505Y-100411401D01*
X153248599Y-100578495D01*
X153345384Y-100646265D01*
X153442165Y-100714032D01*
X153442167Y-100714033D01*
X153442170Y-100714035D01*
X153656337Y-100813903D01*
X153884592Y-100875063D01*
X154064440Y-100890798D01*
X154119999Y-100895659D01*
X154120000Y-100895659D01*
X154120001Y-100895659D01*
X154175560Y-100890798D01*
X154355408Y-100875063D01*
X154583663Y-100813903D01*
X154797830Y-100714035D01*
X154991401Y-100578495D01*
X155158495Y-100411401D01*
X155288425Y-100225842D01*
X155343002Y-100182217D01*
X155412500Y-100175023D01*
X155474855Y-100206546D01*
X155491575Y-100225842D01*
X155621505Y-100411401D01*
X155788599Y-100578495D01*
X155885384Y-100646265D01*
X155982165Y-100714032D01*
X155982167Y-100714033D01*
X155982170Y-100714035D01*
X156196337Y-100813903D01*
X156424592Y-100875063D01*
X156604440Y-100890798D01*
X156659999Y-100895659D01*
X156660000Y-100895659D01*
X156660001Y-100895659D01*
X156715560Y-100890798D01*
X156895408Y-100875063D01*
X157123663Y-100813903D01*
X157337830Y-100714035D01*
X157531401Y-100578495D01*
X157698495Y-100411401D01*
X157828425Y-100225842D01*
X157883002Y-100182217D01*
X157952500Y-100175023D01*
X158014855Y-100206546D01*
G37*
%TD.AperFunction*%
%TA.AperFunction,NonConductor*%
G36*
X186442539Y-63020185D02*
G01*
X186488294Y-63072989D01*
X186499500Y-63124500D01*
X186499500Y-102375500D01*
X186479815Y-102442539D01*
X186427011Y-102488294D01*
X186375500Y-102499500D01*
X160631940Y-102499500D01*
X160564901Y-102479815D01*
X160519146Y-102427011D01*
X160509202Y-102357853D01*
X160538227Y-102294297D01*
X160544259Y-102287819D01*
X160751426Y-102080652D01*
X161926789Y-100905287D01*
X161982372Y-100873196D01*
X162147946Y-100828832D01*
X162203653Y-100813906D01*
X162203654Y-100813905D01*
X162203663Y-100813903D01*
X162417830Y-100714035D01*
X162611401Y-100578495D01*
X162778495Y-100411401D01*
X162908425Y-100225842D01*
X162963002Y-100182217D01*
X163032500Y-100175023D01*
X163094855Y-100206546D01*
X163111575Y-100225842D01*
X163241505Y-100411401D01*
X163408599Y-100578495D01*
X163505384Y-100646265D01*
X163602165Y-100714032D01*
X163602167Y-100714033D01*
X163602170Y-100714035D01*
X163816337Y-100813903D01*
X164044592Y-100875063D01*
X164224440Y-100890798D01*
X164279999Y-100895659D01*
X164279999Y-100895658D01*
X164280000Y-100895659D01*
X164427993Y-100882710D01*
X164496491Y-100896476D01*
X164526480Y-100918557D01*
X164665928Y-101058005D01*
X164699413Y-101119328D01*
X164699864Y-101121494D01*
X164700261Y-101123491D01*
X164700263Y-101123499D01*
X164760602Y-101269172D01*
X164760609Y-101269185D01*
X164848210Y-101400288D01*
X164848213Y-101400292D01*
X164959707Y-101511786D01*
X164959711Y-101511789D01*
X165090814Y-101599390D01*
X165090827Y-101599397D01*
X165236498Y-101659735D01*
X165236503Y-101659737D01*
X165391153Y-101690499D01*
X165391156Y-101690500D01*
X165391158Y-101690500D01*
X168188844Y-101690500D01*
X168188845Y-101690499D01*
X168343497Y-101659737D01*
X168489179Y-101599394D01*
X168620289Y-101511789D01*
X177621789Y-92510289D01*
X177709394Y-92379179D01*
X177769738Y-92233497D01*
X177773859Y-92212773D01*
X177806241Y-92150862D01*
X177807738Y-92149338D01*
X183582759Y-86374318D01*
X183644082Y-86340833D01*
X183670440Y-86337999D01*
X184000002Y-86337999D01*
X184000008Y-86337999D01*
X184102797Y-86327499D01*
X184269334Y-86272314D01*
X184418656Y-86180212D01*
X184542712Y-86056156D01*
X184634814Y-85906834D01*
X184689999Y-85740297D01*
X184700500Y-85637509D01*
X184700499Y-85012492D01*
X184689999Y-84909703D01*
X184634814Y-84743166D01*
X184542712Y-84593844D01*
X184449049Y-84500181D01*
X184415564Y-84438858D01*
X184420548Y-84369166D01*
X184449049Y-84324819D01*
X184489064Y-84284804D01*
X184542712Y-84231156D01*
X184634814Y-84081834D01*
X184689999Y-83915297D01*
X184700500Y-83812509D01*
X184700499Y-83187492D01*
X184699755Y-83180212D01*
X184689999Y-83084703D01*
X184689998Y-83084700D01*
X184634814Y-82918166D01*
X184542712Y-82768844D01*
X184418656Y-82644788D01*
X184418655Y-82644787D01*
X184359402Y-82608239D01*
X184312678Y-82556291D01*
X184300500Y-82502701D01*
X184300500Y-81409161D01*
X184320185Y-81342122D01*
X184351481Y-81310835D01*
X184350586Y-81309639D01*
X184354125Y-81306989D01*
X184354130Y-81306986D01*
X184361616Y-81300500D01*
X184398151Y-81268842D01*
X184462791Y-81212832D01*
X184462794Y-81212829D01*
X184557015Y-81104091D01*
X184634747Y-80983137D01*
X184694517Y-80852259D01*
X184735024Y-80714304D01*
X184755500Y-80571889D01*
X184755500Y-80000000D01*
X184750355Y-79928060D01*
X184747450Y-79918168D01*
X184739397Y-79890741D01*
X184735636Y-79838158D01*
X184736928Y-79829173D01*
X184755500Y-79700000D01*
X184755500Y-79128111D01*
X184735024Y-78985696D01*
X184694517Y-78847741D01*
X184634747Y-78716863D01*
X184629944Y-78709390D01*
X184560623Y-78601523D01*
X184559802Y-78600081D01*
X184557011Y-78595901D01*
X184485520Y-78513399D01*
X184462791Y-78487168D01*
X184354130Y-78393014D01*
X184354120Y-78393007D01*
X184350580Y-78390357D01*
X184351838Y-78388676D01*
X184311692Y-78342320D01*
X184300500Y-78290839D01*
X184300500Y-68758827D01*
X184313501Y-68703554D01*
X184330575Y-68669264D01*
X184330577Y-68669260D01*
X184330582Y-68669250D01*
X184386397Y-68473083D01*
X184405215Y-68270000D01*
X184405190Y-68269735D01*
X184386397Y-68066917D01*
X184368001Y-68002262D01*
X184330582Y-67870750D01*
X184325154Y-67859850D01*
X184262239Y-67733498D01*
X184239673Y-67688179D01*
X184116764Y-67525421D01*
X184116762Y-67525418D01*
X183966041Y-67388019D01*
X183966039Y-67388017D01*
X183792642Y-67280655D01*
X183792635Y-67280651D01*
X183621653Y-67214413D01*
X183602456Y-67206976D01*
X183401976Y-67169500D01*
X183198024Y-67169500D01*
X182997544Y-67206976D01*
X182997541Y-67206976D01*
X182997541Y-67206977D01*
X182807364Y-67280651D01*
X182807357Y-67280655D01*
X182633960Y-67388017D01*
X182633958Y-67388019D01*
X182483237Y-67525418D01*
X182360327Y-67688178D01*
X182269422Y-67870739D01*
X182269417Y-67870752D01*
X182213602Y-68066917D01*
X182194785Y-68269999D01*
X182194785Y-68270000D01*
X182213602Y-68473082D01*
X182269417Y-68669247D01*
X182269422Y-68669260D01*
X182360327Y-68851821D01*
X182483237Y-69014581D01*
X182633956Y-69151979D01*
X182633958Y-69151980D01*
X182633959Y-69151981D01*
X182640772Y-69156199D01*
X182687410Y-69208223D01*
X182699500Y-69261629D01*
X182699500Y-74117060D01*
X182679815Y-74184099D01*
X182663181Y-74204741D01*
X178854741Y-78013181D01*
X178793418Y-78046666D01*
X178767060Y-78049500D01*
X177900631Y-78049500D01*
X177833594Y-78029816D01*
X177733094Y-77965230D01*
X177733081Y-77965223D01*
X177608356Y-77908263D01*
X177604057Y-77906014D01*
X177464261Y-77864966D01*
X177464251Y-77864963D01*
X177336300Y-77846567D01*
X177321941Y-77844503D01*
X177321940Y-77844503D01*
X177265601Y-77844503D01*
X177265591Y-77844500D01*
X177214236Y-77844500D01*
X176785764Y-77844500D01*
X176734427Y-77844500D01*
X176734399Y-77844503D01*
X176678059Y-77844503D01*
X176544521Y-77863703D01*
X176544519Y-77863703D01*
X176535744Y-77864964D01*
X176397686Y-77905503D01*
X176266918Y-77965223D01*
X176266908Y-77965228D01*
X176266906Y-77965230D01*
X176233253Y-77986857D01*
X176145867Y-78043015D01*
X176145863Y-78043018D01*
X176037226Y-78137152D01*
X176037207Y-78137169D01*
X176037206Y-78137171D01*
X175942985Y-78245909D01*
X175942983Y-78245911D01*
X175942983Y-78245912D01*
X175942981Y-78245915D01*
X175865255Y-78366857D01*
X175865252Y-78366863D01*
X175805483Y-78497741D01*
X175764977Y-78635691D01*
X175764974Y-78635703D01*
X175744500Y-78778110D01*
X175744500Y-79350002D01*
X175749644Y-79421939D01*
X175760603Y-79459262D01*
X175764363Y-79511841D01*
X175744500Y-79649998D01*
X175744500Y-80221889D01*
X175764974Y-80364296D01*
X175764976Y-80364304D01*
X175805483Y-80502259D01*
X175832778Y-80562028D01*
X175865252Y-80633136D01*
X175865253Y-80633138D01*
X175939376Y-80748476D01*
X175940196Y-80749917D01*
X175942988Y-80754098D01*
X176037207Y-80862830D01*
X176037210Y-80862833D01*
X176097757Y-80915297D01*
X176145870Y-80956986D01*
X176145874Y-80956989D01*
X176149414Y-80959639D01*
X176148146Y-80961331D01*
X176188275Y-81007607D01*
X176199500Y-81059161D01*
X176199500Y-82502701D01*
X176179815Y-82569740D01*
X176140598Y-82608239D01*
X176081344Y-82644787D01*
X175957289Y-82768842D01*
X175894127Y-82871245D01*
X175842179Y-82917969D01*
X175773216Y-82929192D01*
X175709134Y-82901348D01*
X175700907Y-82893829D01*
X173836819Y-81029741D01*
X173803334Y-80968418D01*
X173800500Y-80942060D01*
X173800500Y-78051914D01*
X173801280Y-78038029D01*
X173802206Y-78029816D01*
X173805565Y-78000000D01*
X173801279Y-77961968D01*
X173800500Y-77948085D01*
X173800500Y-77921157D01*
X173792711Y-77882003D01*
X173791110Y-77871714D01*
X173785368Y-77820745D01*
X173777023Y-77796898D01*
X173772449Y-77780139D01*
X173769737Y-77766503D01*
X173769733Y-77766494D01*
X173761253Y-77746021D01*
X173749484Y-77717607D01*
X173747028Y-77711175D01*
X173725789Y-77650478D01*
X173719289Y-77640134D01*
X173709718Y-77621603D01*
X173709394Y-77620821D01*
X173672790Y-77566040D01*
X173670905Y-77563131D01*
X173629816Y-77497738D01*
X173502262Y-77370184D01*
X173502260Y-77370182D01*
X173502257Y-77370180D01*
X173436900Y-77329114D01*
X173433982Y-77327223D01*
X173379179Y-77290605D01*
X173379173Y-77290603D01*
X173378365Y-77290268D01*
X173359865Y-77280709D01*
X173349524Y-77274212D01*
X173349523Y-77274211D01*
X173349522Y-77274211D01*
X173288867Y-77252986D01*
X173282377Y-77250509D01*
X173282372Y-77250507D01*
X173261776Y-77241976D01*
X173233496Y-77230262D01*
X173219860Y-77227550D01*
X173203104Y-77222976D01*
X173179260Y-77214633D01*
X173179256Y-77214632D01*
X173179255Y-77214632D01*
X173158575Y-77212301D01*
X173128303Y-77208890D01*
X173118003Y-77207288D01*
X173078844Y-77199500D01*
X173078842Y-77199500D01*
X173051915Y-77199500D01*
X173038031Y-77198720D01*
X173000002Y-77194435D01*
X172999998Y-77194435D01*
X172961969Y-77198720D01*
X172948085Y-77199500D01*
X172921152Y-77199500D01*
X172881994Y-77207288D01*
X172871696Y-77208890D01*
X172820742Y-77214632D01*
X172820735Y-77214634D01*
X172796898Y-77222975D01*
X172780140Y-77227550D01*
X172766502Y-77230263D01*
X172766496Y-77230264D01*
X172717631Y-77250504D01*
X172711140Y-77252982D01*
X172650477Y-77274210D01*
X172650474Y-77274212D01*
X172640127Y-77280713D01*
X172621639Y-77290266D01*
X172620832Y-77290600D01*
X172620824Y-77290604D01*
X172620821Y-77290605D01*
X172620821Y-77290606D01*
X172596314Y-77306981D01*
X172566047Y-77327204D01*
X172563132Y-77329092D01*
X172497742Y-77370180D01*
X172497735Y-77370186D01*
X172487181Y-77380741D01*
X172425858Y-77414226D01*
X172356166Y-77409242D01*
X172300233Y-77367370D01*
X172275816Y-77301906D01*
X172275500Y-77293060D01*
X172275500Y-69799499D01*
X172295185Y-69732460D01*
X172347989Y-69686705D01*
X172399500Y-69675499D01*
X172422871Y-69675499D01*
X172422872Y-69675499D01*
X172482483Y-69669091D01*
X172617331Y-69618796D01*
X172732546Y-69532546D01*
X172818796Y-69417331D01*
X172869091Y-69282483D01*
X172875500Y-69222873D01*
X172875499Y-67807938D01*
X172895184Y-67740900D01*
X172911813Y-67720263D01*
X175121789Y-65510289D01*
X175209394Y-65379179D01*
X175269737Y-65233497D01*
X175300500Y-65078842D01*
X175300500Y-64921158D01*
X175300500Y-64921155D01*
X175300499Y-64921153D01*
X175289627Y-64866498D01*
X175269737Y-64766503D01*
X175269735Y-64766498D01*
X175209397Y-64620827D01*
X175209390Y-64620814D01*
X175147635Y-64528391D01*
X175126757Y-64461713D01*
X175145242Y-64394333D01*
X175197221Y-64347643D01*
X175250737Y-64335500D01*
X180722060Y-64335500D01*
X180789099Y-64355185D01*
X180809741Y-64371819D01*
X182165869Y-65727947D01*
X182199354Y-65789270D01*
X182201659Y-65804187D01*
X182213602Y-65933081D01*
X182269417Y-66129247D01*
X182269422Y-66129260D01*
X182360327Y-66311821D01*
X182483237Y-66474581D01*
X182633958Y-66611980D01*
X182633960Y-66611982D01*
X182694554Y-66649500D01*
X182807363Y-66719348D01*
X182997544Y-66793024D01*
X183198024Y-66830500D01*
X183198026Y-66830500D01*
X183401974Y-66830500D01*
X183401976Y-66830500D01*
X183602456Y-66793024D01*
X183792637Y-66719348D01*
X183966041Y-66611981D01*
X184116764Y-66474579D01*
X184239673Y-66311821D01*
X184330582Y-66129250D01*
X184386397Y-65933083D01*
X184405215Y-65730000D01*
X184386397Y-65526917D01*
X184330582Y-65330750D01*
X184304664Y-65278700D01*
X184273155Y-65215421D01*
X184239673Y-65148179D01*
X184116764Y-64985421D01*
X184116762Y-64985418D01*
X183966041Y-64848019D01*
X183966039Y-64848017D01*
X183792642Y-64740655D01*
X183792635Y-64740651D01*
X183697546Y-64703814D01*
X183602456Y-64666976D01*
X183401976Y-64629500D01*
X183401974Y-64629500D01*
X183382940Y-64629500D01*
X183315901Y-64609815D01*
X183295259Y-64593181D01*
X181914259Y-63212181D01*
X181880774Y-63150858D01*
X181885758Y-63081166D01*
X181927630Y-63025233D01*
X181993094Y-63000816D01*
X182001940Y-63000500D01*
X186375500Y-63000500D01*
X186442539Y-63020185D01*
G37*
%TD.AperFunction*%
%TA.AperFunction,NonConductor*%
G36*
X154565099Y-63020185D02*
G01*
X154610854Y-63072989D01*
X154620798Y-63142147D01*
X154591773Y-63205703D01*
X154585741Y-63212181D01*
X151817681Y-65980240D01*
X151756358Y-66013725D01*
X151686666Y-66008741D01*
X151642319Y-65980240D01*
X149365292Y-63703213D01*
X149365288Y-63703210D01*
X149234185Y-63615609D01*
X149234172Y-63615602D01*
X149088501Y-63555264D01*
X149088489Y-63555261D01*
X148933845Y-63524500D01*
X148933842Y-63524500D01*
X117253843Y-63524500D01*
X117096158Y-63524500D01*
X117096153Y-63524500D01*
X116941510Y-63555260D01*
X116941502Y-63555262D01*
X116795824Y-63615604D01*
X116795814Y-63615609D01*
X116664711Y-63703210D01*
X116664707Y-63703213D01*
X116032422Y-64335500D01*
X115889711Y-64478211D01*
X115839531Y-64528391D01*
X115778209Y-64589712D01*
X115690609Y-64720814D01*
X115690602Y-64720827D01*
X115630264Y-64866498D01*
X115630261Y-64866510D01*
X115599500Y-65021153D01*
X115599500Y-67478846D01*
X115630261Y-67633489D01*
X115630264Y-67633501D01*
X115690602Y-67779172D01*
X115690609Y-67779185D01*
X115778210Y-67910288D01*
X115778213Y-67910292D01*
X116365869Y-68497947D01*
X116399354Y-68559270D01*
X116401659Y-68574187D01*
X116413602Y-68703081D01*
X116469417Y-68899247D01*
X116469422Y-68899260D01*
X116560327Y-69081821D01*
X116683237Y-69244581D01*
X116833958Y-69381980D01*
X116833960Y-69381982D01*
X116879602Y-69410242D01*
X117007363Y-69489348D01*
X117197544Y-69563024D01*
X117398024Y-69600500D01*
X117398026Y-69600500D01*
X117601974Y-69600500D01*
X117601976Y-69600500D01*
X117802456Y-69563024D01*
X117992637Y-69489348D01*
X118166041Y-69381981D01*
X118316764Y-69244579D01*
X118439673Y-69081821D01*
X118530582Y-68899250D01*
X118586397Y-68703083D01*
X118605215Y-68500000D01*
X118605215Y-68496655D01*
X118605667Y-68495112D01*
X118605744Y-68494292D01*
X118605904Y-68494306D01*
X118624900Y-68429616D01*
X118677704Y-68383861D01*
X118746862Y-68373917D01*
X118810418Y-68402942D01*
X118816896Y-68408974D01*
X123663181Y-73255259D01*
X123696666Y-73316582D01*
X123699500Y-73342940D01*
X123699500Y-74275500D01*
X123679815Y-74342539D01*
X123627011Y-74388294D01*
X123575500Y-74399500D01*
X119400631Y-74399500D01*
X119333594Y-74379816D01*
X119233094Y-74315230D01*
X119233081Y-74315223D01*
X119108356Y-74258263D01*
X119104057Y-74256014D01*
X118964261Y-74214966D01*
X118964251Y-74214963D01*
X118836300Y-74196567D01*
X118821941Y-74194503D01*
X118821940Y-74194503D01*
X118765601Y-74194503D01*
X118765591Y-74194500D01*
X118714236Y-74194500D01*
X118285764Y-74194500D01*
X118234427Y-74194500D01*
X118234399Y-74194503D01*
X118178059Y-74194503D01*
X118044521Y-74213703D01*
X118044519Y-74213703D01*
X118035744Y-74214964D01*
X117897686Y-74255503D01*
X117766918Y-74315223D01*
X117766908Y-74315228D01*
X117766906Y-74315230D01*
X117733253Y-74336857D01*
X117645867Y-74393015D01*
X117645863Y-74393018D01*
X117537226Y-74487152D01*
X117537207Y-74487169D01*
X117537206Y-74487171D01*
X117442985Y-74595909D01*
X117442983Y-74595911D01*
X117442983Y-74595912D01*
X117442981Y-74595915D01*
X117365255Y-74716857D01*
X117365252Y-74716863D01*
X117305483Y-74847741D01*
X117264977Y-74985691D01*
X117264974Y-74985703D01*
X117244500Y-75128110D01*
X117244500Y-75700002D01*
X117249644Y-75771939D01*
X117260603Y-75809262D01*
X117264363Y-75861841D01*
X117244500Y-75999998D01*
X117244500Y-76571889D01*
X117264974Y-76714296D01*
X117264977Y-76714308D01*
X117270612Y-76733498D01*
X117305483Y-76852259D01*
X117317774Y-76879173D01*
X117365252Y-76983136D01*
X117365253Y-76983138D01*
X117439376Y-77098476D01*
X117440196Y-77099917D01*
X117442988Y-77104098D01*
X117537207Y-77212830D01*
X117537210Y-77212833D01*
X117626969Y-77290609D01*
X117645870Y-77306986D01*
X117645874Y-77306989D01*
X117649414Y-77309639D01*
X117648146Y-77311331D01*
X117688275Y-77357607D01*
X117699500Y-77409161D01*
X117699500Y-79502701D01*
X117679815Y-79569740D01*
X117640598Y-79608239D01*
X117581344Y-79644787D01*
X117457289Y-79768842D01*
X117365187Y-79918163D01*
X117365185Y-79918168D01*
X117341478Y-79989711D01*
X117310001Y-80084703D01*
X117310001Y-80084704D01*
X117310000Y-80084704D01*
X117299500Y-80187483D01*
X117299500Y-80812501D01*
X117299501Y-80812519D01*
X117310000Y-80915296D01*
X117310001Y-80915299D01*
X117365185Y-81081831D01*
X117365187Y-81081836D01*
X117378918Y-81104098D01*
X117445986Y-81212833D01*
X117457289Y-81231157D01*
X117550951Y-81324819D01*
X117584436Y-81386142D01*
X117579452Y-81455834D01*
X117550951Y-81500181D01*
X117457289Y-81593842D01*
X117365187Y-81743163D01*
X117365185Y-81743168D01*
X117337349Y-81827170D01*
X117310001Y-81909703D01*
X117310001Y-81909704D01*
X117310000Y-81909704D01*
X117299500Y-82012483D01*
X117299500Y-82150500D01*
X117279815Y-82217539D01*
X117227011Y-82263294D01*
X117175500Y-82274500D01*
X116846156Y-82274500D01*
X116833463Y-82277025D01*
X116791521Y-82285368D01*
X116791520Y-82285368D01*
X116691510Y-82305261D01*
X116691498Y-82305264D01*
X116545827Y-82365602D01*
X116545814Y-82365609D01*
X116414712Y-82453209D01*
X116370185Y-82497737D01*
X116303211Y-82564711D01*
X116303209Y-82564713D01*
X115642133Y-83225789D01*
X114972270Y-83895651D01*
X114878213Y-83989707D01*
X114878210Y-83989711D01*
X114790609Y-84120814D01*
X114790602Y-84120827D01*
X114730264Y-84266498D01*
X114730261Y-84266510D01*
X114699500Y-84421153D01*
X114699500Y-99078846D01*
X114730261Y-99233489D01*
X114730264Y-99233501D01*
X114790602Y-99379172D01*
X114790609Y-99379185D01*
X114878210Y-99510288D01*
X114878213Y-99510292D01*
X114989707Y-99621786D01*
X114989711Y-99621789D01*
X115120814Y-99709390D01*
X115120827Y-99709397D01*
X115266498Y-99769735D01*
X115266503Y-99769737D01*
X115421153Y-99800499D01*
X115421156Y-99800500D01*
X115421158Y-99800500D01*
X115578844Y-99800500D01*
X115578845Y-99800499D01*
X115733497Y-99769737D01*
X115879179Y-99709394D01*
X115973459Y-99646398D01*
X116040136Y-99625520D01*
X116042350Y-99625500D01*
X117975270Y-99625500D01*
X118042309Y-99645185D01*
X118062951Y-99661819D01*
X118081344Y-99680212D01*
X118230666Y-99772314D01*
X118397203Y-99827499D01*
X118499991Y-99838000D01*
X119500008Y-99837999D01*
X119500016Y-99837998D01*
X119500019Y-99837998D01*
X119556302Y-99832248D01*
X119602797Y-99827499D01*
X119665281Y-99806793D01*
X119704284Y-99800500D01*
X123475270Y-99800500D01*
X123542309Y-99820185D01*
X123562951Y-99836819D01*
X123581344Y-99855212D01*
X123730666Y-99947314D01*
X123897203Y-100002499D01*
X123999991Y-100013000D01*
X125000008Y-100012999D01*
X125000016Y-100012998D01*
X125000019Y-100012998D01*
X125056302Y-100007248D01*
X125102797Y-100002499D01*
X125269334Y-99947314D01*
X125418656Y-99855212D01*
X125542712Y-99731156D01*
X125634814Y-99581834D01*
X125689999Y-99415297D01*
X125700500Y-99312509D01*
X125700499Y-98687492D01*
X125689999Y-98584703D01*
X125634814Y-98418166D01*
X125542712Y-98268844D01*
X125449049Y-98175181D01*
X125415564Y-98113858D01*
X125420548Y-98044166D01*
X125449049Y-97999819D01*
X125479080Y-97969788D01*
X125542712Y-97906156D01*
X125634814Y-97756834D01*
X125689999Y-97590297D01*
X125700500Y-97487509D01*
X125700499Y-96862492D01*
X125689999Y-96759703D01*
X125634814Y-96593166D01*
X125542712Y-96443844D01*
X125418656Y-96319788D01*
X125418655Y-96319787D01*
X125359402Y-96283239D01*
X125312678Y-96231291D01*
X125300500Y-96177701D01*
X125300500Y-94909161D01*
X125320185Y-94842122D01*
X125351481Y-94810835D01*
X125350586Y-94809639D01*
X125354125Y-94806989D01*
X125354130Y-94806986D01*
X125462791Y-94712832D01*
X125462794Y-94712829D01*
X125557015Y-94604091D01*
X125634747Y-94483137D01*
X125694517Y-94352259D01*
X125735024Y-94214304D01*
X125755500Y-94071889D01*
X125755500Y-93500000D01*
X125750355Y-93428060D01*
X125748328Y-93421158D01*
X125739397Y-93390741D01*
X125735636Y-93338158D01*
X125735886Y-93336420D01*
X125755500Y-93200000D01*
X125755500Y-92628111D01*
X125735024Y-92485696D01*
X125694517Y-92347741D01*
X125634747Y-92216863D01*
X125608408Y-92175879D01*
X125560623Y-92101523D01*
X125559802Y-92100081D01*
X125557011Y-92095901D01*
X125462794Y-91987172D01*
X125462791Y-91987168D01*
X125354130Y-91893014D01*
X125354120Y-91893007D01*
X125350580Y-91890357D01*
X125351838Y-91888676D01*
X125311692Y-91842320D01*
X125300500Y-91790839D01*
X125300500Y-90051914D01*
X125301280Y-90038029D01*
X125305565Y-90000001D01*
X125305565Y-89999998D01*
X125301280Y-89961969D01*
X125300500Y-89948085D01*
X125300500Y-89921157D01*
X125292711Y-89882003D01*
X125291110Y-89871714D01*
X125285368Y-89820745D01*
X125277023Y-89796898D01*
X125272449Y-89780139D01*
X125269737Y-89766503D01*
X125269734Y-89766496D01*
X125256067Y-89733500D01*
X125249484Y-89717607D01*
X125247028Y-89711175D01*
X125225789Y-89650478D01*
X125219289Y-89640134D01*
X125209719Y-89621606D01*
X125209394Y-89620821D01*
X125172790Y-89566040D01*
X125170905Y-89563131D01*
X125159483Y-89544953D01*
X125129816Y-89497738D01*
X125002262Y-89370184D01*
X125002260Y-89370182D01*
X125002257Y-89370180D01*
X124936900Y-89329114D01*
X124933982Y-89327223D01*
X124879179Y-89290605D01*
X124879173Y-89290603D01*
X124878365Y-89290268D01*
X124859865Y-89280709D01*
X124849524Y-89274212D01*
X124849523Y-89274211D01*
X124849522Y-89274211D01*
X124788867Y-89252986D01*
X124782377Y-89250509D01*
X124733496Y-89230262D01*
X124719860Y-89227550D01*
X124703104Y-89222976D01*
X124679260Y-89214633D01*
X124679256Y-89214632D01*
X124679255Y-89214632D01*
X124658575Y-89212301D01*
X124628303Y-89208890D01*
X124618003Y-89207288D01*
X124578844Y-89199500D01*
X124578842Y-89199500D01*
X124551915Y-89199500D01*
X124538031Y-89198720D01*
X124500002Y-89194435D01*
X124499998Y-89194435D01*
X124461969Y-89198720D01*
X124448085Y-89199500D01*
X124421152Y-89199500D01*
X124381994Y-89207288D01*
X124371696Y-89208890D01*
X124320742Y-89214632D01*
X124320735Y-89214634D01*
X124296898Y-89222975D01*
X124280140Y-89227550D01*
X124266502Y-89230263D01*
X124266496Y-89230264D01*
X124217631Y-89250504D01*
X124211140Y-89252982D01*
X124150477Y-89274210D01*
X124150474Y-89274212D01*
X124140127Y-89280713D01*
X124121639Y-89290266D01*
X124120832Y-89290600D01*
X124120824Y-89290604D01*
X124066047Y-89327204D01*
X124063132Y-89329092D01*
X123997742Y-89370180D01*
X123997735Y-89370186D01*
X123870186Y-89497735D01*
X123870180Y-89497742D01*
X123829092Y-89563132D01*
X123827209Y-89566038D01*
X123803245Y-89601905D01*
X123790604Y-89620824D01*
X123790600Y-89620832D01*
X123790266Y-89621639D01*
X123780713Y-89640127D01*
X123774212Y-89650474D01*
X123774210Y-89650477D01*
X123752982Y-89711140D01*
X123750504Y-89717631D01*
X123730264Y-89766496D01*
X123730263Y-89766502D01*
X123727550Y-89780140D01*
X123722975Y-89796898D01*
X123714634Y-89820735D01*
X123714632Y-89820742D01*
X123708890Y-89871696D01*
X123707288Y-89881994D01*
X123699500Y-89921152D01*
X123699500Y-89948085D01*
X123698720Y-89961969D01*
X123694435Y-89999998D01*
X123694435Y-90000001D01*
X123698720Y-90038029D01*
X123699500Y-90051914D01*
X123699500Y-91775500D01*
X123679815Y-91842539D01*
X123627011Y-91888294D01*
X123575500Y-91899500D01*
X119900631Y-91899500D01*
X119833594Y-91879816D01*
X119733094Y-91815230D01*
X119733081Y-91815223D01*
X119608356Y-91758263D01*
X119604057Y-91756014D01*
X119464261Y-91714966D01*
X119464251Y-91714963D01*
X119336300Y-91696567D01*
X119321941Y-91694503D01*
X119321940Y-91694503D01*
X119265601Y-91694503D01*
X119265591Y-91694500D01*
X119214236Y-91694500D01*
X118785764Y-91694500D01*
X118734427Y-91694500D01*
X118734399Y-91694503D01*
X118678059Y-91694503D01*
X118544521Y-91713703D01*
X118544519Y-91713703D01*
X118535744Y-91714964D01*
X118397686Y-91755503D01*
X118266918Y-91815223D01*
X118266908Y-91815228D01*
X118266906Y-91815230D01*
X118233253Y-91836857D01*
X118145867Y-91893015D01*
X118145863Y-91893018D01*
X118037226Y-91987152D01*
X118037207Y-91987169D01*
X118037206Y-91987171D01*
X117942985Y-92095909D01*
X117942983Y-92095911D01*
X117942983Y-92095912D01*
X117942981Y-92095915D01*
X117865255Y-92216857D01*
X117865252Y-92216863D01*
X117805483Y-92347741D01*
X117764977Y-92485691D01*
X117764974Y-92485703D01*
X117744500Y-92628110D01*
X117744500Y-93200002D01*
X117749644Y-93271939D01*
X117760603Y-93309262D01*
X117764363Y-93361841D01*
X117744500Y-93499998D01*
X117744500Y-94071889D01*
X117764974Y-94214296D01*
X117764976Y-94214304D01*
X117805483Y-94352259D01*
X117827048Y-94399480D01*
X117865252Y-94483136D01*
X117865253Y-94483138D01*
X117939376Y-94598476D01*
X117940196Y-94599917D01*
X117942988Y-94604098D01*
X118037206Y-94712829D01*
X118037209Y-94712832D01*
X118145870Y-94806986D01*
X118145874Y-94806989D01*
X118149414Y-94809639D01*
X118148146Y-94811331D01*
X118188275Y-94857607D01*
X118199500Y-94909161D01*
X118199500Y-96002701D01*
X118179815Y-96069740D01*
X118140598Y-96108239D01*
X118081344Y-96144787D01*
X117957289Y-96268842D01*
X117865187Y-96418163D01*
X117865186Y-96418166D01*
X117810001Y-96584703D01*
X117810001Y-96584704D01*
X117810000Y-96584704D01*
X117799500Y-96687483D01*
X117799500Y-97312501D01*
X117799501Y-97312519D01*
X117810000Y-97415296D01*
X117810001Y-97415299D01*
X117833932Y-97487516D01*
X117865186Y-97581834D01*
X117956737Y-97730263D01*
X117957289Y-97731157D01*
X118038951Y-97812819D01*
X118072436Y-97874142D01*
X118067452Y-97943834D01*
X118025580Y-97999767D01*
X117960116Y-98024184D01*
X117951270Y-98024500D01*
X116424500Y-98024500D01*
X116357461Y-98004815D01*
X116311706Y-97952011D01*
X116300500Y-97900500D01*
X116300500Y-84882939D01*
X116320185Y-84815900D01*
X116336819Y-84795258D01*
X117220258Y-83911819D01*
X117281581Y-83878334D01*
X117307939Y-83875500D01*
X117828844Y-83875500D01*
X117828845Y-83875499D01*
X117983497Y-83844737D01*
X118129179Y-83784394D01*
X118260289Y-83696789D01*
X118582760Y-83374316D01*
X118644082Y-83340833D01*
X118670440Y-83337999D01*
X119000002Y-83337999D01*
X119000008Y-83337999D01*
X119102797Y-83327499D01*
X119269334Y-83272314D01*
X119418656Y-83180212D01*
X119437049Y-83161819D01*
X119498372Y-83128334D01*
X119524730Y-83125500D01*
X123753844Y-83125500D01*
X123753845Y-83125499D01*
X123908497Y-83094737D01*
X124054179Y-83034394D01*
X124054185Y-83034390D01*
X124054925Y-83033896D01*
X124055371Y-83033756D01*
X124059549Y-83031523D01*
X124059972Y-83032315D01*
X124121602Y-83013019D01*
X124123814Y-83012999D01*
X124329559Y-83012999D01*
X124396598Y-83032684D01*
X124417240Y-83049318D01*
X124989707Y-83621786D01*
X124989711Y-83621789D01*
X125120814Y-83709390D01*
X125120818Y-83709392D01*
X125120821Y-83709394D01*
X125266503Y-83769738D01*
X125421153Y-83800499D01*
X125421157Y-83800500D01*
X125421158Y-83800500D01*
X127448085Y-83800500D01*
X127461969Y-83801280D01*
X127499998Y-83805565D01*
X127500000Y-83805565D01*
X127500002Y-83805565D01*
X127538031Y-83801280D01*
X127551915Y-83800500D01*
X127578841Y-83800500D01*
X127578842Y-83800500D01*
X127618017Y-83792707D01*
X127628283Y-83791110D01*
X127679255Y-83785368D01*
X127703100Y-83777023D01*
X127719862Y-83772448D01*
X127733497Y-83769737D01*
X127782389Y-83749484D01*
X127788837Y-83747023D01*
X127849522Y-83725789D01*
X127859868Y-83719287D01*
X127878390Y-83709720D01*
X127879179Y-83709394D01*
X127933987Y-83672771D01*
X127936825Y-83670931D01*
X128002262Y-83629816D01*
X128012819Y-83619259D01*
X128074142Y-83585774D01*
X128143834Y-83590758D01*
X128199767Y-83632630D01*
X128224184Y-83698094D01*
X128224500Y-83706940D01*
X128224500Y-86103846D01*
X128255261Y-86258489D01*
X128255264Y-86258501D01*
X128315602Y-86404172D01*
X128315609Y-86404185D01*
X128403210Y-86535288D01*
X128403213Y-86535292D01*
X129113181Y-87245259D01*
X129146666Y-87306582D01*
X129149500Y-87332940D01*
X129149500Y-87672869D01*
X129149501Y-87672876D01*
X129156421Y-87737247D01*
X129144014Y-87806006D01*
X129096403Y-87857143D01*
X129033131Y-87874500D01*
X128652130Y-87874500D01*
X128652123Y-87874501D01*
X128592516Y-87880908D01*
X128457671Y-87931202D01*
X128457664Y-87931206D01*
X128342455Y-88017452D01*
X128342452Y-88017455D01*
X128256206Y-88132664D01*
X128256202Y-88132671D01*
X128205908Y-88267517D01*
X128199501Y-88327116D01*
X128199500Y-88327135D01*
X128199500Y-89672870D01*
X128199501Y-89672876D01*
X128205908Y-89732483D01*
X128241682Y-89828395D01*
X128249500Y-89871728D01*
X128249500Y-91146862D01*
X128229815Y-91213901D01*
X128190598Y-91252399D01*
X128122288Y-91294533D01*
X128081342Y-91319789D01*
X127957289Y-91443842D01*
X127865187Y-91593163D01*
X127865186Y-91593166D01*
X127810001Y-91759703D01*
X127810001Y-91759704D01*
X127810000Y-91759704D01*
X127799500Y-91862483D01*
X127799500Y-92487501D01*
X127799501Y-92487519D01*
X127810000Y-92590296D01*
X127810001Y-92590299D01*
X127865185Y-92756831D01*
X127865187Y-92756836D01*
X127883344Y-92786273D01*
X127935100Y-92870184D01*
X127957289Y-92906157D01*
X128050951Y-92999819D01*
X128084436Y-93061142D01*
X128079452Y-93130834D01*
X128050951Y-93175181D01*
X127957289Y-93268842D01*
X127865187Y-93418163D01*
X127865185Y-93418168D01*
X127861907Y-93428060D01*
X127810001Y-93584703D01*
X127810001Y-93584704D01*
X127810000Y-93584704D01*
X127799500Y-93687483D01*
X127799500Y-94312501D01*
X127799501Y-94312519D01*
X127810000Y-94415296D01*
X127810001Y-94415299D01*
X127865185Y-94581831D01*
X127865187Y-94581836D01*
X127878918Y-94604098D01*
X127957288Y-94731156D01*
X128081344Y-94855212D01*
X128140596Y-94891758D01*
X128187321Y-94943704D01*
X128199500Y-94997297D01*
X128199500Y-100578846D01*
X128230261Y-100733489D01*
X128230264Y-100733501D01*
X128290602Y-100879172D01*
X128290609Y-100879185D01*
X128378210Y-101010288D01*
X128378213Y-101010292D01*
X129655741Y-102287819D01*
X129689226Y-102349142D01*
X129684242Y-102418834D01*
X129642370Y-102474767D01*
X129576906Y-102499184D01*
X129568060Y-102499500D01*
X113124500Y-102499500D01*
X113057461Y-102479815D01*
X113011706Y-102427011D01*
X113000500Y-102375500D01*
X113000500Y-63124500D01*
X113020185Y-63057461D01*
X113072989Y-63011706D01*
X113124500Y-63000500D01*
X154498060Y-63000500D01*
X154565099Y-63020185D01*
G37*
%TD.AperFunction*%
M02*
