%TF.GenerationSoftware,KiCad,Pcbnew,8.0.0*%
%TF.CreationDate,2024-03-24T21:45:21+02:00*%
%TF.ProjectId,pcb,7063622e-6b69-4636-9164-5f7063625858,rev?*%
%TF.SameCoordinates,Original*%
%TF.FileFunction,Legend,Bot*%
%TF.FilePolarity,Positive*%
%FSLAX46Y46*%
G04 Gerber Fmt 4.6, Leading zero omitted, Abs format (unit mm)*
G04 Created by KiCad (PCBNEW 8.0.0) date 2024-03-24 21:45:21*
%MOMM*%
%LPD*%
G01*
G04 APERTURE LIST*
%ADD10C,0.150000*%
%ADD11C,0.120000*%
%ADD12R,1.800000X1.800000*%
%ADD13C,1.800000*%
%ADD14C,1.200000*%
%ADD15R,1.700000X1.700000*%
%ADD16O,1.700000X1.700000*%
G04 APERTURE END LIST*
D10*
X168604819Y-97936666D02*
X169319104Y-97936666D01*
X169319104Y-97936666D02*
X169461961Y-97889047D01*
X169461961Y-97889047D02*
X169557200Y-97793809D01*
X169557200Y-97793809D02*
X169604819Y-97650952D01*
X169604819Y-97650952D02*
X169604819Y-97555714D01*
X168604819Y-98317619D02*
X168604819Y-98936666D01*
X168604819Y-98936666D02*
X168985771Y-98603333D01*
X168985771Y-98603333D02*
X168985771Y-98746190D01*
X168985771Y-98746190D02*
X169033390Y-98841428D01*
X169033390Y-98841428D02*
X169081009Y-98889047D01*
X169081009Y-98889047D02*
X169176247Y-98936666D01*
X169176247Y-98936666D02*
X169414342Y-98936666D01*
X169414342Y-98936666D02*
X169509580Y-98889047D01*
X169509580Y-98889047D02*
X169557200Y-98841428D01*
X169557200Y-98841428D02*
X169604819Y-98746190D01*
X169604819Y-98746190D02*
X169604819Y-98460476D01*
X169604819Y-98460476D02*
X169557200Y-98365238D01*
X169557200Y-98365238D02*
X169509580Y-98317619D01*
D11*
%TO.C,J3*%
X132470000Y-95670000D02*
X132470000Y-100870000D01*
X132470000Y-95670000D02*
X168150000Y-95670000D01*
X132470000Y-100870000D02*
X165550000Y-100870000D01*
X165550000Y-98270000D02*
X165550000Y-100870000D01*
X168150000Y-95670000D02*
X168150000Y-98270000D01*
X168150000Y-98270000D02*
X165550000Y-98270000D01*
X168150000Y-99540000D02*
X168150000Y-100870000D01*
X168150000Y-100870000D02*
X166820000Y-100870000D01*
%TD*%
%LPC*%
D12*
%TO.C,U1*%
X129025000Y-65725000D03*
D13*
X129025000Y-68265000D03*
%TD*%
D14*
%TO.C,U5*%
X154040000Y-68000000D03*
X151500000Y-68000000D03*
%TD*%
%TO.C,U6*%
X183300000Y-68270000D03*
X183300000Y-65730000D03*
%TD*%
D12*
%TO.C,U2*%
X154275000Y-79025000D03*
D13*
X151735000Y-79025000D03*
%TD*%
D12*
%TO.C,U3*%
X171475000Y-68275000D03*
D13*
X171475000Y-65735000D03*
%TD*%
D14*
%TO.C,U4*%
X117500000Y-65960000D03*
X117500000Y-68500000D03*
%TD*%
D15*
%TO.C,J3*%
X166820000Y-99540000D03*
D16*
X166820000Y-97000000D03*
X164280000Y-99540000D03*
X164280000Y-97000000D03*
X161740000Y-99540000D03*
X161740000Y-97000000D03*
X159200000Y-99540000D03*
X159200000Y-97000000D03*
X156660000Y-99540000D03*
X156660000Y-97000000D03*
X154120000Y-99540000D03*
X154120000Y-97000000D03*
X151580000Y-99540000D03*
X151580000Y-97000000D03*
X149040000Y-99540000D03*
X149040000Y-97000000D03*
X146500000Y-99540000D03*
X146500000Y-97000000D03*
X143960000Y-99540000D03*
X143960000Y-97000000D03*
X141420000Y-99540000D03*
X141420000Y-97000000D03*
X138880000Y-99540000D03*
X138880000Y-97000000D03*
X136340000Y-99540000D03*
X136340000Y-97000000D03*
X133800000Y-99540000D03*
X133800000Y-97000000D03*
%TD*%
%LPD*%
M02*
