M48
; DRILL file {KiCad 8.0.0} date 2024-03-24T21:45:21+0200
; FORMAT={-:-/ absolute / inch / decimal}
; #@! TF.CreationDate,2024-03-24T21:45:21+02:00
; #@! TF.GenerationSoftware,Kicad,Pcbnew,8.0.0
; #@! TF.FileFunction,Plated,1,2,PTH
FMAT,2
INCH
; #@! TA.AperFunction,Plated,PTH,ViaDrill
T1C0.0118
; #@! TA.AperFunction,Plated,PTH,ComponentDrill
T2C0.0276
; #@! TA.AperFunction,Plated,PTH,ComponentDrill
T3C0.0354
; #@! TA.AperFunction,Plated,PTH,ComponentDrill
T4C0.0394
%
G90
G05
T1
X4.9016Y-3.5433
X5.0197Y-2.9724
X5.0197Y-3.2677
X5.1575Y-3.2677
X5.2165Y-2.9724
X5.4331Y-3.6811
X5.4921Y-2.7756
X5.689Y-3.0118
X5.689Y-3.4646
X5.7087Y-3.878
X5.7677Y-2.9921
X5.7677Y-3.1693
X5.8071Y-3.878
X5.8268Y-3.4843
X5.8661Y-3.0118
X5.8858Y-3.248
X6.0433Y-3.7205
X6.0933Y-3.5933
X6.122Y-3.2087
X6.1417Y-3.2874
X6.1811Y-3.5933
X6.2008Y-2.6575
X6.2205Y-3.878
X6.2795Y-2.5014
X6.2795Y-3.5236
X6.2795Y-3.6614
X6.5157Y-3.3465
X6.5157Y-3.5236
X6.5354Y-3.0709
X6.6142Y-3.3661
X6.6732Y-3.0709
X6.6732Y-3.7795
X6.6929Y-3.1299
X6.811Y-3.0709
X6.9685Y-3.1043
T2
X4.626Y-2.5969
X4.626Y-2.6969
X5.9646Y-2.6772
X6.0646Y-2.6772
X7.2165Y-2.5878
X7.2165Y-2.6878
T3
X5.0797Y-2.5876
X5.0797Y-2.6876
X5.9738Y-3.1112
X6.0738Y-3.1112
X6.751Y-2.588
X6.751Y-2.688
T4
X5.2677Y-3.8189
X5.2677Y-3.9189
X5.3677Y-3.8189
X5.3677Y-3.9189
X5.4677Y-3.8189
X5.4677Y-3.9189
X5.5677Y-3.8189
X5.5677Y-3.9189
X5.6677Y-3.8189
X5.6677Y-3.9189
X5.7677Y-3.8189
X5.7677Y-3.9189
X5.8677Y-3.8189
X5.8677Y-3.9189
X5.9677Y-3.8189
X5.9677Y-3.9189
X6.0677Y-3.8189
X6.0677Y-3.9189
X6.1677Y-3.8189
X6.1677Y-3.9189
X6.2677Y-3.8189
X6.2677Y-3.9189
X6.3677Y-3.8189
X6.3677Y-3.9189
X6.4677Y-3.8189
X6.4677Y-3.9189
X6.5677Y-3.8189
X6.5677Y-3.9189
M30
