%TF.GenerationSoftware,KiCad,Pcbnew,8.0.0*%
%TF.CreationDate,2024-03-24T21:45:21+02:00*%
%TF.ProjectId,pcb,7063622e-6b69-4636-9164-5f7063625858,rev?*%
%TF.SameCoordinates,Original*%
%TF.FileFunction,Paste,Top*%
%TF.FilePolarity,Positive*%
%FSLAX46Y46*%
G04 Gerber Fmt 4.6, Leading zero omitted, Abs format (unit mm)*
G04 Created by KiCad (PCBNEW 8.0.0) date 2024-03-24 21:45:21*
%MOMM*%
%LPD*%
G01*
G04 APERTURE LIST*
G04 Aperture macros list*
%AMRoundRect*
0 Rectangle with rounded corners*
0 $1 Rounding radius*
0 $2 $3 $4 $5 $6 $7 $8 $9 X,Y pos of 4 corners*
0 Add a 4 corners polygon primitive as box body*
4,1,4,$2,$3,$4,$5,$6,$7,$8,$9,$2,$3,0*
0 Add four circle primitives for the rounded corners*
1,1,$1+$1,$2,$3*
1,1,$1+$1,$4,$5*
1,1,$1+$1,$6,$7*
1,1,$1+$1,$8,$9*
0 Add four rect primitives between the rounded corners*
20,1,$1+$1,$2,$3,$4,$5,0*
20,1,$1+$1,$4,$5,$6,$7,0*
20,1,$1+$1,$6,$7,$8,$9,0*
20,1,$1+$1,$8,$9,$2,$3,0*%
G04 Aperture macros list end*
%ADD10R,0.700000X1.250000*%
%ADD11RoundRect,0.250000X-0.450000X0.262500X-0.450000X-0.262500X0.450000X-0.262500X0.450000X0.262500X0*%
%ADD12RoundRect,0.250000X0.450000X-0.262500X0.450000X0.262500X-0.450000X0.262500X-0.450000X-0.262500X0*%
%ADD13O,0.570000X2.040000*%
G04 APERTURE END LIST*
D10*
%TO.C,Q4*%
X129050000Y-89000000D03*
X130950000Y-89000000D03*
X130000000Y-87000000D03*
%TD*%
D11*
%TO.C,R1*%
X183500000Y-83500000D03*
X183500000Y-85325000D03*
%TD*%
%TO.C,R7*%
X124500000Y-97175000D03*
X124500000Y-99000000D03*
%TD*%
D10*
%TO.C,Q1*%
X142100000Y-71500000D03*
X144000000Y-71500000D03*
X143050000Y-69500000D03*
%TD*%
D11*
%TO.C,R9*%
X177000000Y-83500000D03*
X177000000Y-85325000D03*
%TD*%
D12*
%TO.C,R6*%
X168000000Y-82000000D03*
X168000000Y-80175000D03*
%TD*%
D11*
%TO.C,R2*%
X119000000Y-97000000D03*
X119000000Y-98825000D03*
%TD*%
D12*
%TO.C,R4*%
X129000000Y-94000000D03*
X129000000Y-92175000D03*
%TD*%
%TO.C,R5*%
X142050000Y-76500000D03*
X142050000Y-74675000D03*
%TD*%
D10*
%TO.C,Q2*%
X168050000Y-76000000D03*
X169950000Y-76000000D03*
X169000000Y-74000000D03*
%TD*%
D11*
%TO.C,R3*%
X124500000Y-80175000D03*
X124500000Y-82000000D03*
%TD*%
%TO.C,R8*%
X118500000Y-80500000D03*
X118500000Y-82325000D03*
%TD*%
D13*
%TO.C,U7*%
X149690000Y-91270000D03*
X150960000Y-91270000D03*
X152230000Y-91270000D03*
X153500000Y-91270000D03*
X154770000Y-91270000D03*
X156040000Y-91270000D03*
X157310000Y-91270000D03*
X157310000Y-85730000D03*
X156040000Y-85730000D03*
X154770000Y-85730000D03*
X153500000Y-85730000D03*
X152230000Y-85730000D03*
X150960000Y-85730000D03*
X149690000Y-85730000D03*
%TD*%
M02*
