%TF.GenerationSoftware,KiCad,Pcbnew,8.0.0*%
%TF.CreationDate,2024-03-24T21:45:21+02:00*%
%TF.ProjectId,pcb,7063622e-6b69-4636-9164-5f7063625858,rev?*%
%TF.SameCoordinates,Original*%
%TF.FileFunction,Soldermask,Bot*%
%TF.FilePolarity,Negative*%
%FSLAX46Y46*%
G04 Gerber Fmt 4.6, Leading zero omitted, Abs format (unit mm)*
G04 Created by KiCad (PCBNEW 8.0.0) date 2024-03-24 21:45:21*
%MOMM*%
%LPD*%
G01*
G04 APERTURE LIST*
%ADD10R,1.800000X1.800000*%
%ADD11C,1.800000*%
%ADD12C,1.200000*%
%ADD13R,1.700000X1.700000*%
%ADD14O,1.700000X1.700000*%
G04 APERTURE END LIST*
D10*
%TO.C,U1*%
X129025000Y-65725000D03*
D11*
X129025000Y-68265000D03*
%TD*%
D12*
%TO.C,U5*%
X154040000Y-68000000D03*
X151500000Y-68000000D03*
%TD*%
%TO.C,U6*%
X183300000Y-68270000D03*
X183300000Y-65730000D03*
%TD*%
D10*
%TO.C,U2*%
X154275000Y-79025000D03*
D11*
X151735000Y-79025000D03*
%TD*%
D10*
%TO.C,U3*%
X171475000Y-68275000D03*
D11*
X171475000Y-65735000D03*
%TD*%
D12*
%TO.C,U4*%
X117500000Y-65960000D03*
X117500000Y-68500000D03*
%TD*%
D13*
%TO.C,J3*%
X166820000Y-99540000D03*
D14*
X166820000Y-97000000D03*
X164280000Y-99540000D03*
X164280000Y-97000000D03*
X161740000Y-99540000D03*
X161740000Y-97000000D03*
X159200000Y-99540000D03*
X159200000Y-97000000D03*
X156660000Y-99540000D03*
X156660000Y-97000000D03*
X154120000Y-99540000D03*
X154120000Y-97000000D03*
X151580000Y-99540000D03*
X151580000Y-97000000D03*
X149040000Y-99540000D03*
X149040000Y-97000000D03*
X146500000Y-99540000D03*
X146500000Y-97000000D03*
X143960000Y-99540000D03*
X143960000Y-97000000D03*
X141420000Y-99540000D03*
X141420000Y-97000000D03*
X138880000Y-99540000D03*
X138880000Y-97000000D03*
X136340000Y-99540000D03*
X136340000Y-97000000D03*
X133800000Y-99540000D03*
X133800000Y-97000000D03*
%TD*%
M02*
