%TF.GenerationSoftware,KiCad,Pcbnew,8.0.0*%
%TF.CreationDate,2024-03-24T21:45:21+02:00*%
%TF.ProjectId,pcb,7063622e-6b69-4636-9164-5f7063625858,rev?*%
%TF.SameCoordinates,Original*%
%TF.FileFunction,Legend,Top*%
%TF.FilePolarity,Positive*%
%FSLAX46Y46*%
G04 Gerber Fmt 4.6, Leading zero omitted, Abs format (unit mm)*
G04 Created by KiCad (PCBNEW 8.0.0) date 2024-03-24 21:45:21*
%MOMM*%
%LPD*%
G01*
G04 APERTURE LIST*
G04 Aperture macros list*
%AMRoundRect*
0 Rectangle with rounded corners*
0 $1 Rounding radius*
0 $2 $3 $4 $5 $6 $7 $8 $9 X,Y pos of 4 corners*
0 Add a 4 corners polygon primitive as box body*
4,1,4,$2,$3,$4,$5,$6,$7,$8,$9,$2,$3,0*
0 Add four circle primitives for the rounded corners*
1,1,$1+$1,$2,$3*
1,1,$1+$1,$4,$5*
1,1,$1+$1,$6,$7*
1,1,$1+$1,$8,$9*
0 Add four rect primitives between the rounded corners*
20,1,$1+$1,$2,$3,$4,$5,0*
20,1,$1+$1,$4,$5,$6,$7,0*
20,1,$1+$1,$6,$7,$8,$9,0*
20,1,$1+$1,$8,$9,$2,$3,0*%
%AMFreePoly0*
4,1,19,0.500000,-0.750000,0.000000,-0.750000,0.000000,-0.744911,-0.071157,-0.744911,-0.207708,-0.704816,-0.327430,-0.627875,-0.420627,-0.520320,-0.479746,-0.390866,-0.500000,-0.250000,-0.500000,0.250000,-0.479746,0.390866,-0.420627,0.520320,-0.327430,0.627875,-0.207708,0.704816,-0.071157,0.744911,0.000000,0.744911,0.000000,0.750000,0.500000,0.750000,0.500000,-0.750000,0.500000,-0.750000,
$1*%
%AMFreePoly1*
4,1,19,0.000000,0.744911,0.071157,0.744911,0.207708,0.704816,0.327430,0.627875,0.420627,0.520320,0.479746,0.390866,0.500000,0.250000,0.500000,-0.250000,0.479746,-0.390866,0.420627,-0.520320,0.327430,-0.627875,0.207708,-0.704816,0.071157,-0.744911,0.000000,-0.744911,0.000000,-0.750000,-0.500000,-0.750000,-0.500000,0.750000,0.000000,0.750000,0.000000,0.744911,0.000000,0.744911,
$1*%
G04 Aperture macros list end*
%ADD10C,0.150000*%
%ADD11C,0.120000*%
%ADD12C,0.250000*%
%ADD13C,0.300000*%
%ADD14FreePoly0,90.000000*%
%ADD15FreePoly1,90.000000*%
%ADD16FreePoly0,270.000000*%
%ADD17FreePoly1,270.000000*%
%ADD18R,0.700000X1.250000*%
%ADD19RoundRect,0.250000X-0.450000X0.262500X-0.450000X-0.262500X0.450000X-0.262500X0.450000X0.262500X0*%
%ADD20R,1.800000X1.800000*%
%ADD21C,1.800000*%
%ADD22RoundRect,0.250000X0.450000X-0.262500X0.450000X0.262500X-0.450000X0.262500X-0.450000X-0.262500X0*%
%ADD23C,1.200000*%
%ADD24O,0.570000X2.040000*%
%ADD25R,1.700000X1.700000*%
%ADD26O,1.700000X1.700000*%
G04 APERTURE END LIST*
D10*
X122154819Y-76683333D02*
X122869104Y-76683333D01*
X122869104Y-76683333D02*
X123011961Y-76730952D01*
X123011961Y-76730952D02*
X123107200Y-76826190D01*
X123107200Y-76826190D02*
X123154819Y-76969047D01*
X123154819Y-76969047D02*
X123154819Y-77064285D01*
X123154819Y-76207142D02*
X122154819Y-76207142D01*
X122154819Y-76207142D02*
X122154819Y-75826190D01*
X122154819Y-75826190D02*
X122202438Y-75730952D01*
X122202438Y-75730952D02*
X122250057Y-75683333D01*
X122250057Y-75683333D02*
X122345295Y-75635714D01*
X122345295Y-75635714D02*
X122488152Y-75635714D01*
X122488152Y-75635714D02*
X122583390Y-75683333D01*
X122583390Y-75683333D02*
X122631009Y-75730952D01*
X122631009Y-75730952D02*
X122678628Y-75826190D01*
X122678628Y-75826190D02*
X122678628Y-76207142D01*
X122154819Y-74778571D02*
X122154819Y-74969047D01*
X122154819Y-74969047D02*
X122202438Y-75064285D01*
X122202438Y-75064285D02*
X122250057Y-75111904D01*
X122250057Y-75111904D02*
X122392914Y-75207142D01*
X122392914Y-75207142D02*
X122583390Y-75254761D01*
X122583390Y-75254761D02*
X122964342Y-75254761D01*
X122964342Y-75254761D02*
X123059580Y-75207142D01*
X123059580Y-75207142D02*
X123107200Y-75159523D01*
X123107200Y-75159523D02*
X123154819Y-75064285D01*
X123154819Y-75064285D02*
X123154819Y-74873809D01*
X123154819Y-74873809D02*
X123107200Y-74778571D01*
X123107200Y-74778571D02*
X123059580Y-74730952D01*
X123059580Y-74730952D02*
X122964342Y-74683333D01*
X122964342Y-74683333D02*
X122726247Y-74683333D01*
X122726247Y-74683333D02*
X122631009Y-74730952D01*
X122631009Y-74730952D02*
X122583390Y-74778571D01*
X122583390Y-74778571D02*
X122535771Y-74873809D01*
X122535771Y-74873809D02*
X122535771Y-75064285D01*
X122535771Y-75064285D02*
X122583390Y-75159523D01*
X122583390Y-75159523D02*
X122631009Y-75207142D01*
X122631009Y-75207142D02*
X122726247Y-75254761D01*
X119754819Y-76683333D02*
X120469104Y-76683333D01*
X120469104Y-76683333D02*
X120611961Y-76730952D01*
X120611961Y-76730952D02*
X120707200Y-76826190D01*
X120707200Y-76826190D02*
X120754819Y-76969047D01*
X120754819Y-76969047D02*
X120754819Y-77064285D01*
X120754819Y-76207142D02*
X119754819Y-76207142D01*
X119754819Y-76207142D02*
X119754819Y-75826190D01*
X119754819Y-75826190D02*
X119802438Y-75730952D01*
X119802438Y-75730952D02*
X119850057Y-75683333D01*
X119850057Y-75683333D02*
X119945295Y-75635714D01*
X119945295Y-75635714D02*
X120088152Y-75635714D01*
X120088152Y-75635714D02*
X120183390Y-75683333D01*
X120183390Y-75683333D02*
X120231009Y-75730952D01*
X120231009Y-75730952D02*
X120278628Y-75826190D01*
X120278628Y-75826190D02*
X120278628Y-76207142D01*
X119754819Y-74730952D02*
X119754819Y-75207142D01*
X119754819Y-75207142D02*
X120231009Y-75254761D01*
X120231009Y-75254761D02*
X120183390Y-75207142D01*
X120183390Y-75207142D02*
X120135771Y-75111904D01*
X120135771Y-75111904D02*
X120135771Y-74873809D01*
X120135771Y-74873809D02*
X120183390Y-74778571D01*
X120183390Y-74778571D02*
X120231009Y-74730952D01*
X120231009Y-74730952D02*
X120326247Y-74683333D01*
X120326247Y-74683333D02*
X120564342Y-74683333D01*
X120564342Y-74683333D02*
X120659580Y-74730952D01*
X120659580Y-74730952D02*
X120707200Y-74778571D01*
X120707200Y-74778571D02*
X120754819Y-74873809D01*
X120754819Y-74873809D02*
X120754819Y-75111904D01*
X120754819Y-75111904D02*
X120707200Y-75207142D01*
X120707200Y-75207142D02*
X120659580Y-75254761D01*
X178254819Y-80333333D02*
X178969104Y-80333333D01*
X178969104Y-80333333D02*
X179111961Y-80380952D01*
X179111961Y-80380952D02*
X179207200Y-80476190D01*
X179207200Y-80476190D02*
X179254819Y-80619047D01*
X179254819Y-80619047D02*
X179254819Y-80714285D01*
X179254819Y-79857142D02*
X178254819Y-79857142D01*
X178254819Y-79857142D02*
X178254819Y-79476190D01*
X178254819Y-79476190D02*
X178302438Y-79380952D01*
X178302438Y-79380952D02*
X178350057Y-79333333D01*
X178350057Y-79333333D02*
X178445295Y-79285714D01*
X178445295Y-79285714D02*
X178588152Y-79285714D01*
X178588152Y-79285714D02*
X178683390Y-79333333D01*
X178683390Y-79333333D02*
X178731009Y-79380952D01*
X178731009Y-79380952D02*
X178778628Y-79476190D01*
X178778628Y-79476190D02*
X178778628Y-79857142D01*
X178588152Y-78428571D02*
X179254819Y-78428571D01*
X178207200Y-78666666D02*
X178921485Y-78904761D01*
X178921485Y-78904761D02*
X178921485Y-78285714D01*
X181154819Y-80683333D02*
X181869104Y-80683333D01*
X181869104Y-80683333D02*
X182011961Y-80730952D01*
X182011961Y-80730952D02*
X182107200Y-80826190D01*
X182107200Y-80826190D02*
X182154819Y-80969047D01*
X182154819Y-80969047D02*
X182154819Y-81064285D01*
X182154819Y-80207142D02*
X181154819Y-80207142D01*
X181154819Y-80207142D02*
X181154819Y-79826190D01*
X181154819Y-79826190D02*
X181202438Y-79730952D01*
X181202438Y-79730952D02*
X181250057Y-79683333D01*
X181250057Y-79683333D02*
X181345295Y-79635714D01*
X181345295Y-79635714D02*
X181488152Y-79635714D01*
X181488152Y-79635714D02*
X181583390Y-79683333D01*
X181583390Y-79683333D02*
X181631009Y-79730952D01*
X181631009Y-79730952D02*
X181678628Y-79826190D01*
X181678628Y-79826190D02*
X181678628Y-80207142D01*
X181154819Y-79302380D02*
X181154819Y-78683333D01*
X181154819Y-78683333D02*
X181535771Y-79016666D01*
X181535771Y-79016666D02*
X181535771Y-78873809D01*
X181535771Y-78873809D02*
X181583390Y-78778571D01*
X181583390Y-78778571D02*
X181631009Y-78730952D01*
X181631009Y-78730952D02*
X181726247Y-78683333D01*
X181726247Y-78683333D02*
X181964342Y-78683333D01*
X181964342Y-78683333D02*
X182059580Y-78730952D01*
X182059580Y-78730952D02*
X182107200Y-78778571D01*
X182107200Y-78778571D02*
X182154819Y-78873809D01*
X182154819Y-78873809D02*
X182154819Y-79159523D01*
X182154819Y-79159523D02*
X182107200Y-79254761D01*
X182107200Y-79254761D02*
X182059580Y-79302380D01*
X116654819Y-94183333D02*
X117369104Y-94183333D01*
X117369104Y-94183333D02*
X117511961Y-94230952D01*
X117511961Y-94230952D02*
X117607200Y-94326190D01*
X117607200Y-94326190D02*
X117654819Y-94469047D01*
X117654819Y-94469047D02*
X117654819Y-94564285D01*
X117654819Y-93707142D02*
X116654819Y-93707142D01*
X116654819Y-93707142D02*
X116654819Y-93326190D01*
X116654819Y-93326190D02*
X116702438Y-93230952D01*
X116702438Y-93230952D02*
X116750057Y-93183333D01*
X116750057Y-93183333D02*
X116845295Y-93135714D01*
X116845295Y-93135714D02*
X116988152Y-93135714D01*
X116988152Y-93135714D02*
X117083390Y-93183333D01*
X117083390Y-93183333D02*
X117131009Y-93230952D01*
X117131009Y-93230952D02*
X117178628Y-93326190D01*
X117178628Y-93326190D02*
X117178628Y-93707142D01*
X116750057Y-92754761D02*
X116702438Y-92707142D01*
X116702438Y-92707142D02*
X116654819Y-92611904D01*
X116654819Y-92611904D02*
X116654819Y-92373809D01*
X116654819Y-92373809D02*
X116702438Y-92278571D01*
X116702438Y-92278571D02*
X116750057Y-92230952D01*
X116750057Y-92230952D02*
X116845295Y-92183333D01*
X116845295Y-92183333D02*
X116940533Y-92183333D01*
X116940533Y-92183333D02*
X117083390Y-92230952D01*
X117083390Y-92230952D02*
X117654819Y-92802380D01*
X117654819Y-92802380D02*
X117654819Y-92183333D01*
X125754819Y-94183333D02*
X126469104Y-94183333D01*
X126469104Y-94183333D02*
X126611961Y-94230952D01*
X126611961Y-94230952D02*
X126707200Y-94326190D01*
X126707200Y-94326190D02*
X126754819Y-94469047D01*
X126754819Y-94469047D02*
X126754819Y-94564285D01*
X126754819Y-93707142D02*
X125754819Y-93707142D01*
X125754819Y-93707142D02*
X125754819Y-93326190D01*
X125754819Y-93326190D02*
X125802438Y-93230952D01*
X125802438Y-93230952D02*
X125850057Y-93183333D01*
X125850057Y-93183333D02*
X125945295Y-93135714D01*
X125945295Y-93135714D02*
X126088152Y-93135714D01*
X126088152Y-93135714D02*
X126183390Y-93183333D01*
X126183390Y-93183333D02*
X126231009Y-93230952D01*
X126231009Y-93230952D02*
X126278628Y-93326190D01*
X126278628Y-93326190D02*
X126278628Y-93707142D01*
X126754819Y-92183333D02*
X126754819Y-92754761D01*
X126754819Y-92469047D02*
X125754819Y-92469047D01*
X125754819Y-92469047D02*
X125897676Y-92564285D01*
X125897676Y-92564285D02*
X125992914Y-92659523D01*
X125992914Y-92659523D02*
X126040533Y-92754761D01*
X133404761Y-89050057D02*
X133309523Y-89002438D01*
X133309523Y-89002438D02*
X133214285Y-88907200D01*
X133214285Y-88907200D02*
X133071428Y-88764342D01*
X133071428Y-88764342D02*
X132976190Y-88716723D01*
X132976190Y-88716723D02*
X132880952Y-88716723D01*
X132928571Y-88954819D02*
X132833333Y-88907200D01*
X132833333Y-88907200D02*
X132738095Y-88811961D01*
X132738095Y-88811961D02*
X132690476Y-88621485D01*
X132690476Y-88621485D02*
X132690476Y-88288152D01*
X132690476Y-88288152D02*
X132738095Y-88097676D01*
X132738095Y-88097676D02*
X132833333Y-88002438D01*
X132833333Y-88002438D02*
X132928571Y-87954819D01*
X132928571Y-87954819D02*
X133119047Y-87954819D01*
X133119047Y-87954819D02*
X133214285Y-88002438D01*
X133214285Y-88002438D02*
X133309523Y-88097676D01*
X133309523Y-88097676D02*
X133357142Y-88288152D01*
X133357142Y-88288152D02*
X133357142Y-88621485D01*
X133357142Y-88621485D02*
X133309523Y-88811961D01*
X133309523Y-88811961D02*
X133214285Y-88907200D01*
X133214285Y-88907200D02*
X133119047Y-88954819D01*
X133119047Y-88954819D02*
X132928571Y-88954819D01*
X134214285Y-88288152D02*
X134214285Y-88954819D01*
X133976190Y-87907200D02*
X133738095Y-88621485D01*
X133738095Y-88621485D02*
X134357142Y-88621485D01*
X185604819Y-84579166D02*
X185128628Y-84912499D01*
X185604819Y-85150594D02*
X184604819Y-85150594D01*
X184604819Y-85150594D02*
X184604819Y-84769642D01*
X184604819Y-84769642D02*
X184652438Y-84674404D01*
X184652438Y-84674404D02*
X184700057Y-84626785D01*
X184700057Y-84626785D02*
X184795295Y-84579166D01*
X184795295Y-84579166D02*
X184938152Y-84579166D01*
X184938152Y-84579166D02*
X185033390Y-84626785D01*
X185033390Y-84626785D02*
X185081009Y-84674404D01*
X185081009Y-84674404D02*
X185128628Y-84769642D01*
X185128628Y-84769642D02*
X185128628Y-85150594D01*
X185604819Y-83626785D02*
X185604819Y-84198213D01*
X185604819Y-83912499D02*
X184604819Y-83912499D01*
X184604819Y-83912499D02*
X184747676Y-84007737D01*
X184747676Y-84007737D02*
X184842914Y-84102975D01*
X184842914Y-84102975D02*
X184890533Y-84198213D01*
X126604819Y-98254166D02*
X126128628Y-98587499D01*
X126604819Y-98825594D02*
X125604819Y-98825594D01*
X125604819Y-98825594D02*
X125604819Y-98444642D01*
X125604819Y-98444642D02*
X125652438Y-98349404D01*
X125652438Y-98349404D02*
X125700057Y-98301785D01*
X125700057Y-98301785D02*
X125795295Y-98254166D01*
X125795295Y-98254166D02*
X125938152Y-98254166D01*
X125938152Y-98254166D02*
X126033390Y-98301785D01*
X126033390Y-98301785D02*
X126081009Y-98349404D01*
X126081009Y-98349404D02*
X126128628Y-98444642D01*
X126128628Y-98444642D02*
X126128628Y-98825594D01*
X125604819Y-97920832D02*
X125604819Y-97254166D01*
X125604819Y-97254166D02*
X126604819Y-97682737D01*
X131238095Y-63954819D02*
X131238095Y-64764342D01*
X131238095Y-64764342D02*
X131285714Y-64859580D01*
X131285714Y-64859580D02*
X131333333Y-64907200D01*
X131333333Y-64907200D02*
X131428571Y-64954819D01*
X131428571Y-64954819D02*
X131619047Y-64954819D01*
X131619047Y-64954819D02*
X131714285Y-64907200D01*
X131714285Y-64907200D02*
X131761904Y-64859580D01*
X131761904Y-64859580D02*
X131809523Y-64764342D01*
X131809523Y-64764342D02*
X131809523Y-63954819D01*
X132809523Y-64954819D02*
X132238095Y-64954819D01*
X132523809Y-64954819D02*
X132523809Y-63954819D01*
X132523809Y-63954819D02*
X132428571Y-64097676D01*
X132428571Y-64097676D02*
X132333333Y-64192914D01*
X132333333Y-64192914D02*
X132238095Y-64240533D01*
X148550057Y-70595238D02*
X148502438Y-70690476D01*
X148502438Y-70690476D02*
X148407200Y-70785714D01*
X148407200Y-70785714D02*
X148264342Y-70928571D01*
X148264342Y-70928571D02*
X148216723Y-71023809D01*
X148216723Y-71023809D02*
X148216723Y-71119047D01*
X148454819Y-71071428D02*
X148407200Y-71166666D01*
X148407200Y-71166666D02*
X148311961Y-71261904D01*
X148311961Y-71261904D02*
X148121485Y-71309523D01*
X148121485Y-71309523D02*
X147788152Y-71309523D01*
X147788152Y-71309523D02*
X147597676Y-71261904D01*
X147597676Y-71261904D02*
X147502438Y-71166666D01*
X147502438Y-71166666D02*
X147454819Y-71071428D01*
X147454819Y-71071428D02*
X147454819Y-70880952D01*
X147454819Y-70880952D02*
X147502438Y-70785714D01*
X147502438Y-70785714D02*
X147597676Y-70690476D01*
X147597676Y-70690476D02*
X147788152Y-70642857D01*
X147788152Y-70642857D02*
X148121485Y-70642857D01*
X148121485Y-70642857D02*
X148311961Y-70690476D01*
X148311961Y-70690476D02*
X148407200Y-70785714D01*
X148407200Y-70785714D02*
X148454819Y-70880952D01*
X148454819Y-70880952D02*
X148454819Y-71071428D01*
X148454819Y-69690476D02*
X148454819Y-70261904D01*
X148454819Y-69976190D02*
X147454819Y-69976190D01*
X147454819Y-69976190D02*
X147597676Y-70071428D01*
X147597676Y-70071428D02*
X147692914Y-70166666D01*
X147692914Y-70166666D02*
X147740533Y-70261904D01*
X179104819Y-84579166D02*
X178628628Y-84912499D01*
X179104819Y-85150594D02*
X178104819Y-85150594D01*
X178104819Y-85150594D02*
X178104819Y-84769642D01*
X178104819Y-84769642D02*
X178152438Y-84674404D01*
X178152438Y-84674404D02*
X178200057Y-84626785D01*
X178200057Y-84626785D02*
X178295295Y-84579166D01*
X178295295Y-84579166D02*
X178438152Y-84579166D01*
X178438152Y-84579166D02*
X178533390Y-84626785D01*
X178533390Y-84626785D02*
X178581009Y-84674404D01*
X178581009Y-84674404D02*
X178628628Y-84769642D01*
X178628628Y-84769642D02*
X178628628Y-85150594D01*
X179104819Y-84102975D02*
X179104819Y-83912499D01*
X179104819Y-83912499D02*
X179057200Y-83817261D01*
X179057200Y-83817261D02*
X179009580Y-83769642D01*
X179009580Y-83769642D02*
X178866723Y-83674404D01*
X178866723Y-83674404D02*
X178676247Y-83626785D01*
X178676247Y-83626785D02*
X178295295Y-83626785D01*
X178295295Y-83626785D02*
X178200057Y-83674404D01*
X178200057Y-83674404D02*
X178152438Y-83722023D01*
X178152438Y-83722023D02*
X178104819Y-83817261D01*
X178104819Y-83817261D02*
X178104819Y-84007737D01*
X178104819Y-84007737D02*
X178152438Y-84102975D01*
X178152438Y-84102975D02*
X178200057Y-84150594D01*
X178200057Y-84150594D02*
X178295295Y-84198213D01*
X178295295Y-84198213D02*
X178533390Y-84198213D01*
X178533390Y-84198213D02*
X178628628Y-84150594D01*
X178628628Y-84150594D02*
X178676247Y-84102975D01*
X178676247Y-84102975D02*
X178723866Y-84007737D01*
X178723866Y-84007737D02*
X178723866Y-83817261D01*
X178723866Y-83817261D02*
X178676247Y-83722023D01*
X178676247Y-83722023D02*
X178628628Y-83674404D01*
X178628628Y-83674404D02*
X178533390Y-83626785D01*
X167833333Y-78954819D02*
X167500000Y-78478628D01*
X167261905Y-78954819D02*
X167261905Y-77954819D01*
X167261905Y-77954819D02*
X167642857Y-77954819D01*
X167642857Y-77954819D02*
X167738095Y-78002438D01*
X167738095Y-78002438D02*
X167785714Y-78050057D01*
X167785714Y-78050057D02*
X167833333Y-78145295D01*
X167833333Y-78145295D02*
X167833333Y-78288152D01*
X167833333Y-78288152D02*
X167785714Y-78383390D01*
X167785714Y-78383390D02*
X167738095Y-78431009D01*
X167738095Y-78431009D02*
X167642857Y-78478628D01*
X167642857Y-78478628D02*
X167261905Y-78478628D01*
X168690476Y-77954819D02*
X168500000Y-77954819D01*
X168500000Y-77954819D02*
X168404762Y-78002438D01*
X168404762Y-78002438D02*
X168357143Y-78050057D01*
X168357143Y-78050057D02*
X168261905Y-78192914D01*
X168261905Y-78192914D02*
X168214286Y-78383390D01*
X168214286Y-78383390D02*
X168214286Y-78764342D01*
X168214286Y-78764342D02*
X168261905Y-78859580D01*
X168261905Y-78859580D02*
X168309524Y-78907200D01*
X168309524Y-78907200D02*
X168404762Y-78954819D01*
X168404762Y-78954819D02*
X168595238Y-78954819D01*
X168595238Y-78954819D02*
X168690476Y-78907200D01*
X168690476Y-78907200D02*
X168738095Y-78859580D01*
X168738095Y-78859580D02*
X168785714Y-78764342D01*
X168785714Y-78764342D02*
X168785714Y-78526247D01*
X168785714Y-78526247D02*
X168738095Y-78431009D01*
X168738095Y-78431009D02*
X168690476Y-78383390D01*
X168690476Y-78383390D02*
X168595238Y-78335771D01*
X168595238Y-78335771D02*
X168404762Y-78335771D01*
X168404762Y-78335771D02*
X168309524Y-78383390D01*
X168309524Y-78383390D02*
X168261905Y-78431009D01*
X168261905Y-78431009D02*
X168214286Y-78526247D01*
X152008095Y-71454819D02*
X152008095Y-72264342D01*
X152008095Y-72264342D02*
X152055714Y-72359580D01*
X152055714Y-72359580D02*
X152103333Y-72407200D01*
X152103333Y-72407200D02*
X152198571Y-72454819D01*
X152198571Y-72454819D02*
X152389047Y-72454819D01*
X152389047Y-72454819D02*
X152484285Y-72407200D01*
X152484285Y-72407200D02*
X152531904Y-72359580D01*
X152531904Y-72359580D02*
X152579523Y-72264342D01*
X152579523Y-72264342D02*
X152579523Y-71454819D01*
X153531904Y-71454819D02*
X153055714Y-71454819D01*
X153055714Y-71454819D02*
X153008095Y-71931009D01*
X153008095Y-71931009D02*
X153055714Y-71883390D01*
X153055714Y-71883390D02*
X153150952Y-71835771D01*
X153150952Y-71835771D02*
X153389047Y-71835771D01*
X153389047Y-71835771D02*
X153484285Y-71883390D01*
X153484285Y-71883390D02*
X153531904Y-71931009D01*
X153531904Y-71931009D02*
X153579523Y-72026247D01*
X153579523Y-72026247D02*
X153579523Y-72264342D01*
X153579523Y-72264342D02*
X153531904Y-72359580D01*
X153531904Y-72359580D02*
X153484285Y-72407200D01*
X153484285Y-72407200D02*
X153389047Y-72454819D01*
X153389047Y-72454819D02*
X153150952Y-72454819D01*
X153150952Y-72454819D02*
X153055714Y-72407200D01*
X153055714Y-72407200D02*
X153008095Y-72359580D01*
X121104819Y-98079166D02*
X120628628Y-98412499D01*
X121104819Y-98650594D02*
X120104819Y-98650594D01*
X120104819Y-98650594D02*
X120104819Y-98269642D01*
X120104819Y-98269642D02*
X120152438Y-98174404D01*
X120152438Y-98174404D02*
X120200057Y-98126785D01*
X120200057Y-98126785D02*
X120295295Y-98079166D01*
X120295295Y-98079166D02*
X120438152Y-98079166D01*
X120438152Y-98079166D02*
X120533390Y-98126785D01*
X120533390Y-98126785D02*
X120581009Y-98174404D01*
X120581009Y-98174404D02*
X120628628Y-98269642D01*
X120628628Y-98269642D02*
X120628628Y-98650594D01*
X120200057Y-97698213D02*
X120152438Y-97650594D01*
X120152438Y-97650594D02*
X120104819Y-97555356D01*
X120104819Y-97555356D02*
X120104819Y-97317261D01*
X120104819Y-97317261D02*
X120152438Y-97222023D01*
X120152438Y-97222023D02*
X120200057Y-97174404D01*
X120200057Y-97174404D02*
X120295295Y-97126785D01*
X120295295Y-97126785D02*
X120390533Y-97126785D01*
X120390533Y-97126785D02*
X120533390Y-97174404D01*
X120533390Y-97174404D02*
X121104819Y-97745832D01*
X121104819Y-97745832D02*
X121104819Y-97126785D01*
X127804819Y-93254166D02*
X127328628Y-93587499D01*
X127804819Y-93825594D02*
X126804819Y-93825594D01*
X126804819Y-93825594D02*
X126804819Y-93444642D01*
X126804819Y-93444642D02*
X126852438Y-93349404D01*
X126852438Y-93349404D02*
X126900057Y-93301785D01*
X126900057Y-93301785D02*
X126995295Y-93254166D01*
X126995295Y-93254166D02*
X127138152Y-93254166D01*
X127138152Y-93254166D02*
X127233390Y-93301785D01*
X127233390Y-93301785D02*
X127281009Y-93349404D01*
X127281009Y-93349404D02*
X127328628Y-93444642D01*
X127328628Y-93444642D02*
X127328628Y-93825594D01*
X127138152Y-92397023D02*
X127804819Y-92397023D01*
X126757200Y-92635118D02*
X127471485Y-92873213D01*
X127471485Y-92873213D02*
X127471485Y-92254166D01*
X140854819Y-75754166D02*
X140378628Y-76087499D01*
X140854819Y-76325594D02*
X139854819Y-76325594D01*
X139854819Y-76325594D02*
X139854819Y-75944642D01*
X139854819Y-75944642D02*
X139902438Y-75849404D01*
X139902438Y-75849404D02*
X139950057Y-75801785D01*
X139950057Y-75801785D02*
X140045295Y-75754166D01*
X140045295Y-75754166D02*
X140188152Y-75754166D01*
X140188152Y-75754166D02*
X140283390Y-75801785D01*
X140283390Y-75801785D02*
X140331009Y-75849404D01*
X140331009Y-75849404D02*
X140378628Y-75944642D01*
X140378628Y-75944642D02*
X140378628Y-76325594D01*
X139854819Y-74849404D02*
X139854819Y-75325594D01*
X139854819Y-75325594D02*
X140331009Y-75373213D01*
X140331009Y-75373213D02*
X140283390Y-75325594D01*
X140283390Y-75325594D02*
X140235771Y-75230356D01*
X140235771Y-75230356D02*
X140235771Y-74992261D01*
X140235771Y-74992261D02*
X140283390Y-74897023D01*
X140283390Y-74897023D02*
X140331009Y-74849404D01*
X140331009Y-74849404D02*
X140426247Y-74801785D01*
X140426247Y-74801785D02*
X140664342Y-74801785D01*
X140664342Y-74801785D02*
X140759580Y-74849404D01*
X140759580Y-74849404D02*
X140807200Y-74897023D01*
X140807200Y-74897023D02*
X140854819Y-74992261D01*
X140854819Y-74992261D02*
X140854819Y-75230356D01*
X140854819Y-75230356D02*
X140807200Y-75325594D01*
X140807200Y-75325594D02*
X140759580Y-75373213D01*
X166904761Y-74050057D02*
X166809523Y-74002438D01*
X166809523Y-74002438D02*
X166714285Y-73907200D01*
X166714285Y-73907200D02*
X166571428Y-73764342D01*
X166571428Y-73764342D02*
X166476190Y-73716723D01*
X166476190Y-73716723D02*
X166380952Y-73716723D01*
X166428571Y-73954819D02*
X166333333Y-73907200D01*
X166333333Y-73907200D02*
X166238095Y-73811961D01*
X166238095Y-73811961D02*
X166190476Y-73621485D01*
X166190476Y-73621485D02*
X166190476Y-73288152D01*
X166190476Y-73288152D02*
X166238095Y-73097676D01*
X166238095Y-73097676D02*
X166333333Y-73002438D01*
X166333333Y-73002438D02*
X166428571Y-72954819D01*
X166428571Y-72954819D02*
X166619047Y-72954819D01*
X166619047Y-72954819D02*
X166714285Y-73002438D01*
X166714285Y-73002438D02*
X166809523Y-73097676D01*
X166809523Y-73097676D02*
X166857142Y-73288152D01*
X166857142Y-73288152D02*
X166857142Y-73621485D01*
X166857142Y-73621485D02*
X166809523Y-73811961D01*
X166809523Y-73811961D02*
X166714285Y-73907200D01*
X166714285Y-73907200D02*
X166619047Y-73954819D01*
X166619047Y-73954819D02*
X166428571Y-73954819D01*
X167238095Y-73050057D02*
X167285714Y-73002438D01*
X167285714Y-73002438D02*
X167380952Y-72954819D01*
X167380952Y-72954819D02*
X167619047Y-72954819D01*
X167619047Y-72954819D02*
X167714285Y-73002438D01*
X167714285Y-73002438D02*
X167761904Y-73050057D01*
X167761904Y-73050057D02*
X167809523Y-73145295D01*
X167809523Y-73145295D02*
X167809523Y-73240533D01*
X167809523Y-73240533D02*
X167761904Y-73383390D01*
X167761904Y-73383390D02*
X167190476Y-73954819D01*
X167190476Y-73954819D02*
X167809523Y-73954819D01*
X178754819Y-67761904D02*
X179564342Y-67761904D01*
X179564342Y-67761904D02*
X179659580Y-67714285D01*
X179659580Y-67714285D02*
X179707200Y-67666666D01*
X179707200Y-67666666D02*
X179754819Y-67571428D01*
X179754819Y-67571428D02*
X179754819Y-67380952D01*
X179754819Y-67380952D02*
X179707200Y-67285714D01*
X179707200Y-67285714D02*
X179659580Y-67238095D01*
X179659580Y-67238095D02*
X179564342Y-67190476D01*
X179564342Y-67190476D02*
X178754819Y-67190476D01*
X178754819Y-66285714D02*
X178754819Y-66476190D01*
X178754819Y-66476190D02*
X178802438Y-66571428D01*
X178802438Y-66571428D02*
X178850057Y-66619047D01*
X178850057Y-66619047D02*
X178992914Y-66714285D01*
X178992914Y-66714285D02*
X179183390Y-66761904D01*
X179183390Y-66761904D02*
X179564342Y-66761904D01*
X179564342Y-66761904D02*
X179659580Y-66714285D01*
X179659580Y-66714285D02*
X179707200Y-66666666D01*
X179707200Y-66666666D02*
X179754819Y-66571428D01*
X179754819Y-66571428D02*
X179754819Y-66380952D01*
X179754819Y-66380952D02*
X179707200Y-66285714D01*
X179707200Y-66285714D02*
X179659580Y-66238095D01*
X179659580Y-66238095D02*
X179564342Y-66190476D01*
X179564342Y-66190476D02*
X179326247Y-66190476D01*
X179326247Y-66190476D02*
X179231009Y-66238095D01*
X179231009Y-66238095D02*
X179183390Y-66285714D01*
X179183390Y-66285714D02*
X179135771Y-66380952D01*
X179135771Y-66380952D02*
X179135771Y-66571428D01*
X179135771Y-66571428D02*
X179183390Y-66666666D01*
X179183390Y-66666666D02*
X179231009Y-66714285D01*
X179231009Y-66714285D02*
X179326247Y-66761904D01*
X152243095Y-80439819D02*
X152243095Y-81249342D01*
X152243095Y-81249342D02*
X152290714Y-81344580D01*
X152290714Y-81344580D02*
X152338333Y-81392200D01*
X152338333Y-81392200D02*
X152433571Y-81439819D01*
X152433571Y-81439819D02*
X152624047Y-81439819D01*
X152624047Y-81439819D02*
X152719285Y-81392200D01*
X152719285Y-81392200D02*
X152766904Y-81344580D01*
X152766904Y-81344580D02*
X152814523Y-81249342D01*
X152814523Y-81249342D02*
X152814523Y-80439819D01*
X153243095Y-80535057D02*
X153290714Y-80487438D01*
X153290714Y-80487438D02*
X153385952Y-80439819D01*
X153385952Y-80439819D02*
X153624047Y-80439819D01*
X153624047Y-80439819D02*
X153719285Y-80487438D01*
X153719285Y-80487438D02*
X153766904Y-80535057D01*
X153766904Y-80535057D02*
X153814523Y-80630295D01*
X153814523Y-80630295D02*
X153814523Y-80725533D01*
X153814523Y-80725533D02*
X153766904Y-80868390D01*
X153766904Y-80868390D02*
X153195476Y-81439819D01*
X153195476Y-81439819D02*
X153814523Y-81439819D01*
X126604819Y-81254166D02*
X126128628Y-81587499D01*
X126604819Y-81825594D02*
X125604819Y-81825594D01*
X125604819Y-81825594D02*
X125604819Y-81444642D01*
X125604819Y-81444642D02*
X125652438Y-81349404D01*
X125652438Y-81349404D02*
X125700057Y-81301785D01*
X125700057Y-81301785D02*
X125795295Y-81254166D01*
X125795295Y-81254166D02*
X125938152Y-81254166D01*
X125938152Y-81254166D02*
X126033390Y-81301785D01*
X126033390Y-81301785D02*
X126081009Y-81349404D01*
X126081009Y-81349404D02*
X126128628Y-81444642D01*
X126128628Y-81444642D02*
X126128628Y-81825594D01*
X125604819Y-80920832D02*
X125604819Y-80301785D01*
X125604819Y-80301785D02*
X125985771Y-80635118D01*
X125985771Y-80635118D02*
X125985771Y-80492261D01*
X125985771Y-80492261D02*
X126033390Y-80397023D01*
X126033390Y-80397023D02*
X126081009Y-80349404D01*
X126081009Y-80349404D02*
X126176247Y-80301785D01*
X126176247Y-80301785D02*
X126414342Y-80301785D01*
X126414342Y-80301785D02*
X126509580Y-80349404D01*
X126509580Y-80349404D02*
X126557200Y-80397023D01*
X126557200Y-80397023D02*
X126604819Y-80492261D01*
X126604819Y-80492261D02*
X126604819Y-80777975D01*
X126604819Y-80777975D02*
X126557200Y-80873213D01*
X126557200Y-80873213D02*
X126509580Y-80920832D01*
X120604819Y-81579166D02*
X120128628Y-81912499D01*
X120604819Y-82150594D02*
X119604819Y-82150594D01*
X119604819Y-82150594D02*
X119604819Y-81769642D01*
X119604819Y-81769642D02*
X119652438Y-81674404D01*
X119652438Y-81674404D02*
X119700057Y-81626785D01*
X119700057Y-81626785D02*
X119795295Y-81579166D01*
X119795295Y-81579166D02*
X119938152Y-81579166D01*
X119938152Y-81579166D02*
X120033390Y-81626785D01*
X120033390Y-81626785D02*
X120081009Y-81674404D01*
X120081009Y-81674404D02*
X120128628Y-81769642D01*
X120128628Y-81769642D02*
X120128628Y-82150594D01*
X120033390Y-81007737D02*
X119985771Y-81102975D01*
X119985771Y-81102975D02*
X119938152Y-81150594D01*
X119938152Y-81150594D02*
X119842914Y-81198213D01*
X119842914Y-81198213D02*
X119795295Y-81198213D01*
X119795295Y-81198213D02*
X119700057Y-81150594D01*
X119700057Y-81150594D02*
X119652438Y-81102975D01*
X119652438Y-81102975D02*
X119604819Y-81007737D01*
X119604819Y-81007737D02*
X119604819Y-80817261D01*
X119604819Y-80817261D02*
X119652438Y-80722023D01*
X119652438Y-80722023D02*
X119700057Y-80674404D01*
X119700057Y-80674404D02*
X119795295Y-80626785D01*
X119795295Y-80626785D02*
X119842914Y-80626785D01*
X119842914Y-80626785D02*
X119938152Y-80674404D01*
X119938152Y-80674404D02*
X119985771Y-80722023D01*
X119985771Y-80722023D02*
X120033390Y-80817261D01*
X120033390Y-80817261D02*
X120033390Y-81007737D01*
X120033390Y-81007737D02*
X120081009Y-81102975D01*
X120081009Y-81102975D02*
X120128628Y-81150594D01*
X120128628Y-81150594D02*
X120223866Y-81198213D01*
X120223866Y-81198213D02*
X120414342Y-81198213D01*
X120414342Y-81198213D02*
X120509580Y-81150594D01*
X120509580Y-81150594D02*
X120557200Y-81102975D01*
X120557200Y-81102975D02*
X120604819Y-81007737D01*
X120604819Y-81007737D02*
X120604819Y-80817261D01*
X120604819Y-80817261D02*
X120557200Y-80722023D01*
X120557200Y-80722023D02*
X120509580Y-80674404D01*
X120509580Y-80674404D02*
X120414342Y-80626785D01*
X120414342Y-80626785D02*
X120223866Y-80626785D01*
X120223866Y-80626785D02*
X120128628Y-80674404D01*
X120128628Y-80674404D02*
X120081009Y-80722023D01*
X120081009Y-80722023D02*
X120033390Y-80817261D01*
X167738095Y-64454819D02*
X167738095Y-65264342D01*
X167738095Y-65264342D02*
X167785714Y-65359580D01*
X167785714Y-65359580D02*
X167833333Y-65407200D01*
X167833333Y-65407200D02*
X167928571Y-65454819D01*
X167928571Y-65454819D02*
X168119047Y-65454819D01*
X168119047Y-65454819D02*
X168214285Y-65407200D01*
X168214285Y-65407200D02*
X168261904Y-65359580D01*
X168261904Y-65359580D02*
X168309523Y-65264342D01*
X168309523Y-65264342D02*
X168309523Y-64454819D01*
X168690476Y-64454819D02*
X169309523Y-64454819D01*
X169309523Y-64454819D02*
X168976190Y-64835771D01*
X168976190Y-64835771D02*
X169119047Y-64835771D01*
X169119047Y-64835771D02*
X169214285Y-64883390D01*
X169214285Y-64883390D02*
X169261904Y-64931009D01*
X169261904Y-64931009D02*
X169309523Y-65026247D01*
X169309523Y-65026247D02*
X169309523Y-65264342D01*
X169309523Y-65264342D02*
X169261904Y-65359580D01*
X169261904Y-65359580D02*
X169214285Y-65407200D01*
X169214285Y-65407200D02*
X169119047Y-65454819D01*
X169119047Y-65454819D02*
X168833333Y-65454819D01*
X168833333Y-65454819D02*
X168738095Y-65407200D01*
X168738095Y-65407200D02*
X168690476Y-65359580D01*
X148238095Y-92954819D02*
X148238095Y-93764342D01*
X148238095Y-93764342D02*
X148285714Y-93859580D01*
X148285714Y-93859580D02*
X148333333Y-93907200D01*
X148333333Y-93907200D02*
X148428571Y-93954819D01*
X148428571Y-93954819D02*
X148619047Y-93954819D01*
X148619047Y-93954819D02*
X148714285Y-93907200D01*
X148714285Y-93907200D02*
X148761904Y-93859580D01*
X148761904Y-93859580D02*
X148809523Y-93764342D01*
X148809523Y-93764342D02*
X148809523Y-92954819D01*
X149190476Y-92954819D02*
X149857142Y-92954819D01*
X149857142Y-92954819D02*
X149428571Y-93954819D01*
X120954819Y-67991904D02*
X121764342Y-67991904D01*
X121764342Y-67991904D02*
X121859580Y-67944285D01*
X121859580Y-67944285D02*
X121907200Y-67896666D01*
X121907200Y-67896666D02*
X121954819Y-67801428D01*
X121954819Y-67801428D02*
X121954819Y-67610952D01*
X121954819Y-67610952D02*
X121907200Y-67515714D01*
X121907200Y-67515714D02*
X121859580Y-67468095D01*
X121859580Y-67468095D02*
X121764342Y-67420476D01*
X121764342Y-67420476D02*
X120954819Y-67420476D01*
X121288152Y-66515714D02*
X121954819Y-66515714D01*
X120907200Y-66753809D02*
X121621485Y-66991904D01*
X121621485Y-66991904D02*
X121621485Y-66372857D01*
D11*
%TO.C,JP6*%
X124800000Y-77250000D02*
X124200000Y-77250000D01*
X123500000Y-76550000D02*
X123500000Y-75150000D01*
X125500000Y-75150000D02*
X125500000Y-76550000D01*
X124200000Y-74450000D02*
X124800000Y-74450000D01*
X124200000Y-77250000D02*
G75*
G02*
X123500000Y-76550000I-1J699999D01*
G01*
X125500000Y-76550000D02*
G75*
G02*
X124800000Y-77250000I-699999J-1D01*
G01*
X123500000Y-75150000D02*
G75*
G02*
X124200000Y-74450000I700000J0D01*
G01*
X124800000Y-74450000D02*
G75*
G02*
X125500000Y-75150000I0J-700000D01*
G01*
%TO.C,JP5*%
X118200000Y-74450000D02*
X118800000Y-74450000D01*
X119500000Y-75150000D02*
X119500000Y-76550000D01*
X117500000Y-76550000D02*
X117500000Y-75150000D01*
X118800000Y-77250000D02*
X118200000Y-77250000D01*
X118800000Y-74450000D02*
G75*
G02*
X119500000Y-75150000I1J-699999D01*
G01*
X117500000Y-75150000D02*
G75*
G02*
X118200000Y-74450000I699999J1D01*
G01*
X119500000Y-76550000D02*
G75*
G02*
X118800000Y-77250000I-700000J0D01*
G01*
X118200000Y-77250000D02*
G75*
G02*
X117500000Y-76550000I0J700000D01*
G01*
%TO.C,JP4*%
X176700000Y-78100000D02*
X177300000Y-78100000D01*
X178000000Y-78800000D02*
X178000000Y-80200000D01*
X176000000Y-80200000D02*
X176000000Y-78800000D01*
X177300000Y-80900000D02*
X176700000Y-80900000D01*
X177300000Y-78100000D02*
G75*
G02*
X178000000Y-78800000I1J-699999D01*
G01*
X176000000Y-78800000D02*
G75*
G02*
X176700000Y-78100000I699999J1D01*
G01*
X178000000Y-80200000D02*
G75*
G02*
X177300000Y-80900000I-700000J0D01*
G01*
X176700000Y-80900000D02*
G75*
G02*
X176000000Y-80200000I0J700000D01*
G01*
%TO.C,JP3*%
X183800000Y-81250000D02*
X183200000Y-81250000D01*
X182500000Y-80550000D02*
X182500000Y-79150000D01*
X184500000Y-79150000D02*
X184500000Y-80550000D01*
X183200000Y-78450000D02*
X183800000Y-78450000D01*
X183200000Y-81250000D02*
G75*
G02*
X182500000Y-80550000I-1J699999D01*
G01*
X184500000Y-80550000D02*
G75*
G02*
X183800000Y-81250000I-699999J-1D01*
G01*
X182500000Y-79150000D02*
G75*
G02*
X183200000Y-78450000I700000J0D01*
G01*
X183800000Y-78450000D02*
G75*
G02*
X184500000Y-79150000I0J-700000D01*
G01*
%TO.C,JP2*%
X119300000Y-94750000D02*
X118700000Y-94750000D01*
X118000000Y-94050000D02*
X118000000Y-92650000D01*
X120000000Y-92650000D02*
X120000000Y-94050000D01*
X118700000Y-91950000D02*
X119300000Y-91950000D01*
X118700000Y-94750000D02*
G75*
G02*
X118000000Y-94050000I-1J699999D01*
G01*
X120000000Y-94050000D02*
G75*
G02*
X119300000Y-94750000I-699999J-1D01*
G01*
X118000000Y-92650000D02*
G75*
G02*
X118700000Y-91950000I700000J0D01*
G01*
X119300000Y-91950000D02*
G75*
G02*
X120000000Y-92650000I0J-700000D01*
G01*
%TO.C,JP1*%
X124200000Y-91950000D02*
X124800000Y-91950000D01*
X125500000Y-92650000D02*
X125500000Y-94050000D01*
X123500000Y-94050000D02*
X123500000Y-92650000D01*
X124800000Y-94750000D02*
X124200000Y-94750000D01*
X124800000Y-91950000D02*
G75*
G02*
X125500000Y-92650000I1J-699999D01*
G01*
X123500000Y-92650000D02*
G75*
G02*
X124200000Y-91950000I699999J1D01*
G01*
X125500000Y-94050000D02*
G75*
G02*
X124800000Y-94750000I-700000J0D01*
G01*
X124200000Y-94750000D02*
G75*
G02*
X123500000Y-94050000I0J700000D01*
G01*
D10*
%TO.C,Q4*%
X128470000Y-87270000D02*
X129510000Y-87270000D01*
X128470000Y-88730000D02*
X128470000Y-87270000D01*
X130460000Y-88730000D02*
X129540000Y-88730000D01*
X131530000Y-87270000D02*
X130490000Y-87270000D01*
X131530000Y-88730000D02*
X131530000Y-87270000D01*
D11*
%TO.C,R1*%
X182765000Y-84185436D02*
X182765000Y-84639564D01*
X184235000Y-84185436D02*
X184235000Y-84639564D01*
%TO.C,R7*%
X123765000Y-97860436D02*
X123765000Y-98314564D01*
X125235000Y-97860436D02*
X125235000Y-98314564D01*
%TO.C,U1*%
X121615000Y-69555000D02*
X122735000Y-69555000D01*
X121615000Y-69955000D02*
X121615000Y-69555000D01*
X122735000Y-64435000D02*
X116575000Y-64435000D01*
X122735000Y-64435000D02*
X122735000Y-69555000D01*
X122735000Y-65725000D02*
X122735000Y-65725000D01*
X122735000Y-65725000D02*
X127945000Y-65725000D01*
X122735000Y-68265000D02*
X122735000Y-68265000D01*
X122735000Y-68265000D02*
X127945000Y-68265000D01*
X122735000Y-69555000D02*
X116575000Y-69555000D01*
X122735000Y-69555000D02*
X122735000Y-69955000D01*
X122735000Y-69955000D02*
X121615000Y-69955000D01*
X127945000Y-65725000D02*
X122735000Y-65725000D01*
X127945000Y-65725000D02*
X127945000Y-65725000D01*
X127945000Y-68265000D02*
X122735000Y-68265000D01*
X127945000Y-68265000D02*
X127945000Y-68265000D01*
X116575000Y-69555000D02*
G75*
G02*
X116575000Y-64435000I0J2560000D01*
G01*
D10*
%TO.C,Q1*%
X141520000Y-69770000D02*
X142560000Y-69770000D01*
X141520000Y-71230000D02*
X141520000Y-69770000D01*
X143510000Y-71230000D02*
X142590000Y-71230000D01*
X144580000Y-69770000D02*
X143540000Y-69770000D01*
X144580000Y-71230000D02*
X144580000Y-69770000D01*
D11*
%TO.C,R9*%
X176265000Y-84185436D02*
X176265000Y-84639564D01*
X177735000Y-84185436D02*
X177735000Y-84639564D01*
%TO.C,R6*%
X167265000Y-81314564D02*
X167265000Y-80860436D01*
X168735000Y-81314564D02*
X168735000Y-80860436D01*
D12*
%TO.C,U5*%
X150230000Y-66980000D02*
X150990000Y-66300000D01*
X150230000Y-70300000D02*
X150230000Y-67000000D01*
X150990000Y-66300000D02*
X154550000Y-66300000D01*
X155310000Y-66980000D02*
X154550000Y-66300000D01*
X155310000Y-67000000D02*
X155310000Y-70300000D01*
X155310000Y-70300000D02*
X150230000Y-70300000D01*
D11*
%TO.C,R2*%
X118265000Y-97685436D02*
X118265000Y-98139564D01*
X119735000Y-97685436D02*
X119735000Y-98139564D01*
%TO.C,R4*%
X128265000Y-93314564D02*
X128265000Y-92860436D01*
X129735000Y-93314564D02*
X129735000Y-92860436D01*
%TO.C,R5*%
X141315000Y-75814564D02*
X141315000Y-75360436D01*
X142785000Y-75814564D02*
X142785000Y-75360436D01*
D10*
%TO.C,Q2*%
X167470000Y-74270000D02*
X168510000Y-74270000D01*
X167470000Y-75730000D02*
X167470000Y-74270000D01*
X169460000Y-75730000D02*
X168540000Y-75730000D01*
X170530000Y-74270000D02*
X169490000Y-74270000D01*
X170530000Y-75730000D02*
X170530000Y-74270000D01*
D12*
%TO.C,U6*%
X181000000Y-64460000D02*
X184300000Y-64460000D01*
X181000000Y-69540000D02*
X181000000Y-64460000D01*
X184300000Y-69540000D02*
X181000000Y-69540000D01*
X184320000Y-64460000D02*
X185000000Y-65220000D01*
X184320000Y-69540000D02*
X185000000Y-68780000D01*
X185000000Y-65220000D02*
X185000000Y-68780000D01*
D11*
%TO.C,U2*%
X150045000Y-71615000D02*
X150445000Y-71615000D01*
X150045000Y-72735000D02*
X150045000Y-71615000D01*
X150445000Y-71615000D02*
X150445000Y-72735000D01*
X150445000Y-72735000D02*
X150045000Y-72735000D01*
X150445000Y-72735000D02*
X150445000Y-66575000D01*
X151735000Y-72735000D02*
X151735000Y-72735000D01*
X151735000Y-72735000D02*
X151735000Y-77945000D01*
X151735000Y-77945000D02*
X151735000Y-72735000D01*
X151735000Y-77945000D02*
X151735000Y-77945000D01*
X154275000Y-72735000D02*
X154275000Y-72735000D01*
X154275000Y-72735000D02*
X154275000Y-77945000D01*
X154275000Y-77945000D02*
X154275000Y-72735000D01*
X154275000Y-77945000D02*
X154275000Y-77945000D01*
X155565000Y-72735000D02*
X150445000Y-72735000D01*
X155565000Y-72735000D02*
X155565000Y-66575000D01*
X150445000Y-66575000D02*
G75*
G02*
X155565000Y-66575000I2560000J0D01*
G01*
%TO.C,R3*%
X123765000Y-80860436D02*
X123765000Y-81314564D01*
X125235000Y-80860436D02*
X125235000Y-81314564D01*
%TO.C,R8*%
X117765000Y-81185436D02*
X117765000Y-81639564D01*
X119235000Y-81185436D02*
X119235000Y-81639564D01*
%TO.C,U3*%
X172555000Y-65735000D02*
X172555000Y-65735000D01*
X172555000Y-65735000D02*
X177765000Y-65735000D01*
X172555000Y-68275000D02*
X172555000Y-68275000D01*
X172555000Y-68275000D02*
X177765000Y-68275000D01*
X177765000Y-64045000D02*
X178885000Y-64045000D01*
X177765000Y-64445000D02*
X177765000Y-64045000D01*
X177765000Y-64445000D02*
X183925000Y-64445000D01*
X177765000Y-65735000D02*
X172555000Y-65735000D01*
X177765000Y-65735000D02*
X177765000Y-65735000D01*
X177765000Y-68275000D02*
X172555000Y-68275000D01*
X177765000Y-68275000D02*
X177765000Y-68275000D01*
X177765000Y-69565000D02*
X177765000Y-64445000D01*
X177765000Y-69565000D02*
X183925000Y-69565000D01*
X178885000Y-64045000D02*
X178885000Y-64445000D01*
X178885000Y-64445000D02*
X177765000Y-64445000D01*
X183925000Y-64445000D02*
G75*
G02*
X183925000Y-69565000I0J-2560000D01*
G01*
D10*
%TO.C,U7*%
X149100000Y-86980000D02*
X157900000Y-86980000D01*
X149100000Y-90020000D02*
X149100000Y-86980000D01*
X157900000Y-86980000D02*
X157900000Y-90020000D01*
X157900000Y-90020000D02*
X149100000Y-90020000D01*
D13*
X149100000Y-91270000D02*
G75*
G02*
X148800000Y-91270000I-150000J0D01*
G01*
X148800000Y-91270000D02*
G75*
G02*
X149100000Y-91270000I150000J0D01*
G01*
X149840000Y-89270000D02*
G75*
G02*
X149540000Y-89270000I-150000J0D01*
G01*
X149540000Y-89270000D02*
G75*
G02*
X149840000Y-89270000I150000J0D01*
G01*
D12*
%TO.C,U4*%
X115800000Y-69010000D02*
X115800000Y-65450000D01*
X116480000Y-64690000D02*
X115800000Y-65450000D01*
X116480000Y-69770000D02*
X115800000Y-69010000D01*
X116500000Y-64690000D02*
X119800000Y-64690000D01*
X119800000Y-64690000D02*
X119800000Y-69770000D01*
X119800000Y-69770000D02*
X116500000Y-69770000D01*
%TD*%
%LPC*%
D14*
%TO.C,JP6*%
X124500000Y-76500000D03*
D15*
X124500000Y-75200000D03*
%TD*%
D16*
%TO.C,JP5*%
X118500000Y-75200000D03*
D17*
X118500000Y-76500000D03*
%TD*%
D16*
%TO.C,JP4*%
X177000000Y-78850000D03*
D17*
X177000000Y-80150000D03*
%TD*%
D14*
%TO.C,JP3*%
X183500000Y-80500000D03*
D15*
X183500000Y-79200000D03*
%TD*%
D14*
%TO.C,JP2*%
X119000000Y-94000000D03*
D15*
X119000000Y-92700000D03*
%TD*%
D16*
%TO.C,JP1*%
X124500000Y-92700000D03*
D17*
X124500000Y-94000000D03*
%TD*%
D18*
%TO.C,Q4*%
X129050000Y-89000000D03*
X130950000Y-89000000D03*
X130000000Y-87000000D03*
%TD*%
D19*
%TO.C,R1*%
X183500000Y-83500000D03*
X183500000Y-85325000D03*
%TD*%
%TO.C,R7*%
X124500000Y-97175000D03*
X124500000Y-99000000D03*
%TD*%
D20*
%TO.C,U1*%
X129025000Y-65725000D03*
D21*
X129025000Y-68265000D03*
%TD*%
D18*
%TO.C,Q1*%
X142100000Y-71500000D03*
X144000000Y-71500000D03*
X143050000Y-69500000D03*
%TD*%
D19*
%TO.C,R9*%
X177000000Y-83500000D03*
X177000000Y-85325000D03*
%TD*%
D22*
%TO.C,R6*%
X168000000Y-82000000D03*
X168000000Y-80175000D03*
%TD*%
D23*
%TO.C,U5*%
X154040000Y-68000000D03*
X151500000Y-68000000D03*
%TD*%
D19*
%TO.C,R2*%
X119000000Y-97000000D03*
X119000000Y-98825000D03*
%TD*%
D22*
%TO.C,R4*%
X129000000Y-94000000D03*
X129000000Y-92175000D03*
%TD*%
%TO.C,R5*%
X142050000Y-76500000D03*
X142050000Y-74675000D03*
%TD*%
D18*
%TO.C,Q2*%
X168050000Y-76000000D03*
X169950000Y-76000000D03*
X169000000Y-74000000D03*
%TD*%
D23*
%TO.C,U6*%
X183300000Y-68270000D03*
X183300000Y-65730000D03*
%TD*%
D20*
%TO.C,U2*%
X154275000Y-79025000D03*
D21*
X151735000Y-79025000D03*
%TD*%
D19*
%TO.C,R3*%
X124500000Y-80175000D03*
X124500000Y-82000000D03*
%TD*%
%TO.C,R8*%
X118500000Y-80500000D03*
X118500000Y-82325000D03*
%TD*%
D20*
%TO.C,U3*%
X171475000Y-68275000D03*
D21*
X171475000Y-65735000D03*
%TD*%
D24*
%TO.C,U7*%
X149690000Y-91270000D03*
X150960000Y-91270000D03*
X152230000Y-91270000D03*
X153500000Y-91270000D03*
X154770000Y-91270000D03*
X156040000Y-91270000D03*
X157310000Y-91270000D03*
X157310000Y-85730000D03*
X156040000Y-85730000D03*
X154770000Y-85730000D03*
X153500000Y-85730000D03*
X152230000Y-85730000D03*
X150960000Y-85730000D03*
X149690000Y-85730000D03*
%TD*%
D23*
%TO.C,U4*%
X117500000Y-65960000D03*
X117500000Y-68500000D03*
%TD*%
D25*
%TO.C,J3*%
X166820000Y-99540000D03*
D26*
X166820000Y-97000000D03*
X164280000Y-99540000D03*
X164280000Y-97000000D03*
X161740000Y-99540000D03*
X161740000Y-97000000D03*
X159200000Y-99540000D03*
X159200000Y-97000000D03*
X156660000Y-99540000D03*
X156660000Y-97000000D03*
X154120000Y-99540000D03*
X154120000Y-97000000D03*
X151580000Y-99540000D03*
X151580000Y-97000000D03*
X149040000Y-99540000D03*
X149040000Y-97000000D03*
X146500000Y-99540000D03*
X146500000Y-97000000D03*
X143960000Y-99540000D03*
X143960000Y-97000000D03*
X141420000Y-99540000D03*
X141420000Y-97000000D03*
X138880000Y-99540000D03*
X138880000Y-97000000D03*
X136340000Y-99540000D03*
X136340000Y-97000000D03*
X133800000Y-99540000D03*
X133800000Y-97000000D03*
%TD*%
%LPD*%
M02*
