%TF.GenerationSoftware,KiCad,Pcbnew,8.0.1*%
%TF.CreationDate,2024-03-24T23:42:45+02:00*%
%TF.ProjectId,ProjectFiles,50726f6a-6563-4744-9669-6c65732e6b69,rev?*%
%TF.SameCoordinates,Original*%
%TF.FileFunction,Copper,L2,Bot*%
%TF.FilePolarity,Positive*%
%FSLAX46Y46*%
G04 Gerber Fmt 4.6, Leading zero omitted, Abs format (unit mm)*
G04 Created by KiCad (PCBNEW 8.0.1) date 2024-03-24 23:42:45*
%MOMM*%
%LPD*%
G01*
G04 APERTURE LIST*
G04 Aperture macros list*
%AMRoundRect*
0 Rectangle with rounded corners*
0 $1 Rounding radius*
0 $2 $3 $4 $5 $6 $7 $8 $9 X,Y pos of 4 corners*
0 Add a 4 corners polygon primitive as box body*
4,1,4,$2,$3,$4,$5,$6,$7,$8,$9,$2,$3,0*
0 Add four circle primitives for the rounded corners*
1,1,$1+$1,$2,$3*
1,1,$1+$1,$4,$5*
1,1,$1+$1,$6,$7*
1,1,$1+$1,$8,$9*
0 Add four rect primitives between the rounded corners*
20,1,$1+$1,$2,$3,$4,$5,0*
20,1,$1+$1,$4,$5,$6,$7,0*
20,1,$1+$1,$6,$7,$8,$9,0*
20,1,$1+$1,$8,$9,$2,$3,0*%
G04 Aperture macros list end*
%TA.AperFunction,ComponentPad*%
%ADD10C,1.200000*%
%TD*%
%TA.AperFunction,ComponentPad*%
%ADD11R,1.700000X1.700000*%
%TD*%
%TA.AperFunction,ComponentPad*%
%ADD12O,1.700000X1.700000*%
%TD*%
%TA.AperFunction,ComponentPad*%
%ADD13RoundRect,0.250000X0.625000X-0.350000X0.625000X0.350000X-0.625000X0.350000X-0.625000X-0.350000X0*%
%TD*%
%TA.AperFunction,ComponentPad*%
%ADD14O,1.750000X1.200000*%
%TD*%
%TA.AperFunction,ViaPad*%
%ADD15C,0.600000*%
%TD*%
%TA.AperFunction,Conductor*%
%ADD16C,0.600000*%
%TD*%
%TA.AperFunction,Conductor*%
%ADD17C,1.000000*%
%TD*%
G04 APERTURE END LIST*
D10*
%TO.P,S1,MH1*%
%TO.N,N/C*%
X164005000Y-96810000D03*
%TO.P,S1,MH2*%
X164005000Y-101310000D03*
%TD*%
D11*
%TO.P,J1,1,Pin_1*%
%TO.N,/Motor2_A*%
X140970000Y-119380000D03*
D12*
%TO.P,J1,2,Pin_2*%
%TO.N,/PWM1*%
X140970000Y-121920000D03*
%TO.P,J1,3,Pin_3*%
%TO.N,/Motor2_B*%
X143510000Y-119380000D03*
%TO.P,J1,4,Pin_4*%
%TO.N,/PWM2*%
X143510000Y-121920000D03*
%TO.P,J1,5,Pin_5*%
%TO.N,GND*%
X146050000Y-119380000D03*
%TO.P,J1,6,Pin_6*%
X146050000Y-121920000D03*
%TO.P,J1,7,Pin_7*%
%TO.N,/BATT*%
X148590000Y-119380000D03*
%TO.P,J1,8,Pin_8*%
X148590000Y-121920000D03*
%TO.P,J1,9,Pin_9*%
%TO.N,unconnected-(J1-Pin_9-Pad9)*%
X151130000Y-119380000D03*
%TO.P,J1,10,Pin_10*%
%TO.N,/BATT_ADC*%
X151130000Y-121920000D03*
%TO.P,J1,11,Pin_11*%
%TO.N,5V*%
X153670000Y-119380000D03*
%TO.P,J1,12,Pin_12*%
X153670000Y-121920000D03*
%TO.P,J1,13,Pin_13*%
%TO.N,/Motor1_A*%
X156210000Y-119380000D03*
%TO.P,J1,14,Pin_14*%
%TO.N,/PWM3*%
X156210000Y-121920000D03*
%TO.P,J1,15,Pin_15*%
%TO.N,/Motor1_B*%
X158750000Y-119380000D03*
%TO.P,J1,16,Pin_16*%
%TO.N,/PWM4*%
X158750000Y-121920000D03*
%TD*%
D13*
%TO.P,J3,1,Pin_1*%
%TO.N,Net-(J2-BAT)*%
X154940000Y-97790000D03*
D14*
%TO.P,J3,2,Pin_2*%
%TO.N,GND*%
X154940000Y-95790000D03*
%TD*%
D15*
%TO.N,/PWM3*%
X180340000Y-109220000D03*
%TO.N,/BATT_ADC*%
X130810000Y-97790000D03*
X130810000Y-102235000D03*
X131445000Y-106045000D03*
%TO.N,GND*%
X158750000Y-95885000D03*
X184150000Y-102870000D03*
X120015000Y-101600000D03*
X184150000Y-100965000D03*
X156845000Y-106045000D03*
%TO.N,/BATT*%
X148590000Y-116205000D03*
X134620000Y-99695000D03*
X149225000Y-107950000D03*
%TO.N,/PWM2*%
X122555000Y-104775000D03*
%TO.N,/PWM4*%
X180340000Y-107950000D03*
%TO.N,/PWM1*%
X122555000Y-103505000D03*
%TO.N,Net-(J2-~{CHRG})*%
X149837000Y-102235000D03*
X141605000Y-98425000D03*
%TO.N,Net-(Q1-Pad1)*%
X180340000Y-97790000D03*
X175895000Y-99695000D03*
%TD*%
D16*
%TO.N,/PWM3*%
X162560000Y-109220000D02*
X180340000Y-109220000D01*
X156210000Y-121920000D02*
X156210000Y-125730000D01*
X162560000Y-125730000D02*
X162560000Y-109220000D01*
X156210000Y-125730000D02*
X162560000Y-125730000D01*
%TO.N,/BATT_ADC*%
X151130000Y-125730000D02*
X137933629Y-125730000D01*
X132080000Y-106045000D02*
X131445000Y-106045000D01*
X130810000Y-102235000D02*
X130810000Y-97790000D01*
X136525000Y-124321371D02*
X136525000Y-110490000D01*
X151130000Y-121920000D02*
X151130000Y-125730000D01*
X136525000Y-110490000D02*
X132080000Y-106045000D01*
X137933629Y-125730000D02*
X136525000Y-124321371D01*
%TO.N,GND*%
X184150000Y-100965000D02*
X184150000Y-102870000D01*
D17*
%TO.N,/BATT*%
X142875000Y-107950000D02*
X134620000Y-99695000D01*
X149225000Y-107950000D02*
X142875000Y-107950000D01*
X148590000Y-108585000D02*
X149225000Y-107950000D01*
X148590000Y-116205000D02*
X148590000Y-108585000D01*
D16*
%TO.N,/PWM2*%
X132080000Y-104775000D02*
X137795000Y-110490000D01*
X137795000Y-124460000D02*
X143510000Y-124460000D01*
X143510000Y-124460000D02*
X143510000Y-121920000D01*
X137795000Y-110490000D02*
X137795000Y-124460000D01*
X122555000Y-104775000D02*
X132080000Y-104775000D01*
%TO.N,/PWM4*%
X158750000Y-121920000D02*
X161290000Y-121920000D01*
X161290000Y-108585000D02*
X161925000Y-107950000D01*
X161290000Y-121920000D02*
X161290000Y-108585000D01*
X161925000Y-107950000D02*
X180340000Y-107950000D01*
%TO.N,/PWM1*%
X139065000Y-121920000D02*
X140970000Y-121920000D01*
X122555000Y-103505000D02*
X132715000Y-103505000D01*
X139065000Y-109855000D02*
X139065000Y-121920000D01*
X132715000Y-103505000D02*
X139065000Y-109855000D01*
D17*
%TO.N,Net-(J2-~{CHRG})*%
X141605000Y-98425000D02*
X145415000Y-102235000D01*
X145415000Y-102235000D02*
X149837000Y-102235000D01*
D16*
%TO.N,Net-(Q1-Pad1)*%
X180340000Y-97790000D02*
X177800000Y-97790000D01*
X177800000Y-97790000D02*
X175895000Y-99695000D01*
%TD*%
%TA.AperFunction,Conductor*%
%TO.N,GND*%
G36*
X146300000Y-123250633D02*
G01*
X146513483Y-123193433D01*
X146513492Y-123193429D01*
X146727578Y-123093600D01*
X146921082Y-122958105D01*
X147088105Y-122791082D01*
X147218119Y-122605405D01*
X147272696Y-122561781D01*
X147342195Y-122554588D01*
X147404549Y-122586110D01*
X147421269Y-122605405D01*
X147551505Y-122791401D01*
X147718599Y-122958495D01*
X147814562Y-123025689D01*
X147912165Y-123094032D01*
X147912167Y-123094033D01*
X147912170Y-123094035D01*
X148126337Y-123193903D01*
X148354592Y-123255063D01*
X148542918Y-123271539D01*
X148589999Y-123275659D01*
X148590000Y-123275659D01*
X148590001Y-123275659D01*
X148629234Y-123272226D01*
X148825408Y-123255063D01*
X149053663Y-123193903D01*
X149267830Y-123094035D01*
X149461401Y-122958495D01*
X149628495Y-122791401D01*
X149758425Y-122605842D01*
X149813002Y-122562217D01*
X149882500Y-122555023D01*
X149944855Y-122586546D01*
X149961575Y-122605842D01*
X150091501Y-122791396D01*
X150091506Y-122791402D01*
X150258594Y-122958491D01*
X150258597Y-122958493D01*
X150258599Y-122958495D01*
X150276622Y-122971115D01*
X150320247Y-123025689D01*
X150329500Y-123072690D01*
X150329500Y-124805500D01*
X150309815Y-124872539D01*
X150257011Y-124918294D01*
X150205500Y-124929500D01*
X144367561Y-124929500D01*
X144300522Y-124909815D01*
X144254767Y-124857011D01*
X144244823Y-124787853D01*
X144253000Y-124758048D01*
X144276813Y-124700556D01*
X144279737Y-124693497D01*
X144310500Y-124538842D01*
X144310500Y-123072690D01*
X144330185Y-123005651D01*
X144363375Y-122971116D01*
X144381401Y-122958495D01*
X144548495Y-122791401D01*
X144678730Y-122605405D01*
X144733307Y-122561781D01*
X144802805Y-122554587D01*
X144865160Y-122586110D01*
X144881879Y-122605405D01*
X145011890Y-122791078D01*
X145178917Y-122958105D01*
X145372421Y-123093600D01*
X145586507Y-123193429D01*
X145586516Y-123193433D01*
X145800000Y-123250634D01*
X145800000Y-122353012D01*
X145857007Y-122385925D01*
X145984174Y-122420000D01*
X146115826Y-122420000D01*
X146242993Y-122385925D01*
X146300000Y-122353012D01*
X146300000Y-123250633D01*
G37*
%TD.AperFunction*%
%TA.AperFunction,Conductor*%
G36*
X146300000Y-121486988D02*
G01*
X146242993Y-121454075D01*
X146115826Y-121420000D01*
X145984174Y-121420000D01*
X145857007Y-121454075D01*
X145800000Y-121486988D01*
X145800000Y-119813012D01*
X145857007Y-119845925D01*
X145984174Y-119880000D01*
X146115826Y-119880000D01*
X146242993Y-119845925D01*
X146300000Y-119813012D01*
X146300000Y-121486988D01*
G37*
%TD.AperFunction*%
%TA.AperFunction,Conductor*%
G36*
X186032539Y-90790185D02*
G01*
X186078294Y-90842989D01*
X186089500Y-90894500D01*
X186089500Y-109765500D01*
X186069815Y-109832539D01*
X186017011Y-109878294D01*
X185965500Y-109889500D01*
X181089094Y-109889500D01*
X181022055Y-109869815D01*
X180976300Y-109817011D01*
X180966356Y-109747853D01*
X180984097Y-109699533D01*
X181010942Y-109656808D01*
X181012777Y-109653979D01*
X181049394Y-109599179D01*
X181049720Y-109598390D01*
X181059287Y-109579868D01*
X181065789Y-109569522D01*
X181087023Y-109508837D01*
X181089484Y-109502389D01*
X181109737Y-109453497D01*
X181112448Y-109439862D01*
X181117023Y-109423100D01*
X181125368Y-109399255D01*
X181131110Y-109348283D01*
X181132707Y-109338017D01*
X181140500Y-109298842D01*
X181140500Y-109271914D01*
X181141280Y-109258029D01*
X181145565Y-109220001D01*
X181145565Y-109219998D01*
X181141280Y-109181969D01*
X181140500Y-109168085D01*
X181140500Y-109141157D01*
X181132711Y-109102003D01*
X181131110Y-109091714D01*
X181125368Y-109040745D01*
X181117023Y-109016898D01*
X181112449Y-109000139D01*
X181109737Y-108986503D01*
X181089484Y-108937607D01*
X181087028Y-108931175D01*
X181065789Y-108870478D01*
X181059289Y-108860134D01*
X181049719Y-108841606D01*
X181049394Y-108840821D01*
X181012790Y-108786040D01*
X181010905Y-108783131D01*
X180969815Y-108717737D01*
X180924759Y-108672681D01*
X180891274Y-108611358D01*
X180896258Y-108541666D01*
X180924759Y-108497319D01*
X180969816Y-108452262D01*
X181010931Y-108386825D01*
X181012777Y-108383979D01*
X181049394Y-108329179D01*
X181049720Y-108328390D01*
X181059287Y-108309868D01*
X181065789Y-108299522D01*
X181087023Y-108238837D01*
X181089484Y-108232389D01*
X181109737Y-108183497D01*
X181112448Y-108169862D01*
X181117023Y-108153100D01*
X181125368Y-108129255D01*
X181131110Y-108078283D01*
X181132707Y-108068017D01*
X181140500Y-108028842D01*
X181140500Y-108001914D01*
X181141280Y-107988029D01*
X181145565Y-107950001D01*
X181145565Y-107949998D01*
X181141280Y-107911969D01*
X181140500Y-107898085D01*
X181140500Y-107871157D01*
X181138109Y-107859140D01*
X181132709Y-107831992D01*
X181131110Y-107821714D01*
X181125368Y-107770745D01*
X181117023Y-107746898D01*
X181112449Y-107730139D01*
X181109737Y-107716503D01*
X181089484Y-107667607D01*
X181087028Y-107661175D01*
X181065789Y-107600478D01*
X181059289Y-107590134D01*
X181049719Y-107571606D01*
X181049394Y-107570821D01*
X181012790Y-107516040D01*
X181010905Y-107513131D01*
X180987629Y-107476087D01*
X180969816Y-107447738D01*
X180842262Y-107320184D01*
X180842260Y-107320182D01*
X180842257Y-107320180D01*
X180776900Y-107279114D01*
X180773982Y-107277223D01*
X180719179Y-107240605D01*
X180719173Y-107240603D01*
X180718365Y-107240268D01*
X180699865Y-107230709D01*
X180689524Y-107224212D01*
X180689523Y-107224211D01*
X180689522Y-107224211D01*
X180628867Y-107202986D01*
X180622377Y-107200509D01*
X180573496Y-107180262D01*
X180559860Y-107177550D01*
X180543104Y-107172976D01*
X180519260Y-107164633D01*
X180519256Y-107164632D01*
X180519255Y-107164632D01*
X180498575Y-107162301D01*
X180468303Y-107158890D01*
X180458003Y-107157288D01*
X180418844Y-107149500D01*
X180418842Y-107149500D01*
X180391915Y-107149500D01*
X180378031Y-107148720D01*
X180340002Y-107144435D01*
X180339998Y-107144435D01*
X180301969Y-107148720D01*
X180288085Y-107149500D01*
X161846153Y-107149500D01*
X161691510Y-107180260D01*
X161691502Y-107180262D01*
X161545824Y-107240604D01*
X161545814Y-107240609D01*
X161414711Y-107328210D01*
X161414707Y-107328213D01*
X160921231Y-107821691D01*
X160779711Y-107963211D01*
X160747969Y-107994953D01*
X160668209Y-108074712D01*
X160580609Y-108205814D01*
X160580602Y-108205827D01*
X160520264Y-108351498D01*
X160520261Y-108351510D01*
X160489500Y-108506153D01*
X160489500Y-120995500D01*
X160469815Y-121062539D01*
X160417011Y-121108294D01*
X160365500Y-121119500D01*
X159902691Y-121119500D01*
X159835652Y-121099815D01*
X159801116Y-121066624D01*
X159798256Y-121062539D01*
X159788495Y-121048599D01*
X159788493Y-121048597D01*
X159788491Y-121048594D01*
X159621402Y-120881506D01*
X159621396Y-120881501D01*
X159435842Y-120751575D01*
X159392217Y-120696998D01*
X159385023Y-120627500D01*
X159416546Y-120565145D01*
X159435842Y-120548425D01*
X159458026Y-120532891D01*
X159621401Y-120418495D01*
X159788495Y-120251401D01*
X159924035Y-120057830D01*
X160023903Y-119843663D01*
X160085063Y-119615408D01*
X160105659Y-119380000D01*
X160085063Y-119144592D01*
X160023903Y-118916337D01*
X159924035Y-118702171D01*
X159918731Y-118694595D01*
X159788494Y-118508597D01*
X159621402Y-118341506D01*
X159621395Y-118341501D01*
X159427834Y-118205967D01*
X159427830Y-118205965D01*
X159427828Y-118205964D01*
X159213663Y-118106097D01*
X159213659Y-118106096D01*
X159213655Y-118106094D01*
X158985413Y-118044938D01*
X158985403Y-118044936D01*
X158750001Y-118024341D01*
X158749999Y-118024341D01*
X158514596Y-118044936D01*
X158514586Y-118044938D01*
X158286344Y-118106094D01*
X158286335Y-118106098D01*
X158072171Y-118205964D01*
X158072169Y-118205965D01*
X157878597Y-118341505D01*
X157711505Y-118508597D01*
X157581575Y-118694158D01*
X157526998Y-118737783D01*
X157457500Y-118744977D01*
X157395145Y-118713454D01*
X157378425Y-118694158D01*
X157248494Y-118508597D01*
X157081402Y-118341506D01*
X157081395Y-118341501D01*
X156887834Y-118205967D01*
X156887830Y-118205965D01*
X156887828Y-118205964D01*
X156673663Y-118106097D01*
X156673659Y-118106096D01*
X156673655Y-118106094D01*
X156445413Y-118044938D01*
X156445403Y-118044936D01*
X156210001Y-118024341D01*
X156209999Y-118024341D01*
X155974596Y-118044936D01*
X155974586Y-118044938D01*
X155746344Y-118106094D01*
X155746335Y-118106098D01*
X155532171Y-118205964D01*
X155532169Y-118205965D01*
X155338597Y-118341505D01*
X155171505Y-118508597D01*
X155041575Y-118694158D01*
X154986998Y-118737783D01*
X154917500Y-118744977D01*
X154855145Y-118713454D01*
X154838425Y-118694158D01*
X154708494Y-118508597D01*
X154541402Y-118341506D01*
X154541395Y-118341501D01*
X154347834Y-118205967D01*
X154347830Y-118205965D01*
X154347828Y-118205964D01*
X154133663Y-118106097D01*
X154133659Y-118106096D01*
X154133655Y-118106094D01*
X153905413Y-118044938D01*
X153905403Y-118044936D01*
X153670001Y-118024341D01*
X153669999Y-118024341D01*
X153434596Y-118044936D01*
X153434586Y-118044938D01*
X153206344Y-118106094D01*
X153206335Y-118106098D01*
X152992171Y-118205964D01*
X152992169Y-118205965D01*
X152798597Y-118341505D01*
X152631505Y-118508597D01*
X152501575Y-118694158D01*
X152446998Y-118737783D01*
X152377500Y-118744977D01*
X152315145Y-118713454D01*
X152298425Y-118694158D01*
X152168494Y-118508597D01*
X152001402Y-118341506D01*
X152001395Y-118341501D01*
X151807834Y-118205967D01*
X151807830Y-118205965D01*
X151807828Y-118205964D01*
X151593663Y-118106097D01*
X151593659Y-118106096D01*
X151593655Y-118106094D01*
X151365413Y-118044938D01*
X151365403Y-118044936D01*
X151130001Y-118024341D01*
X151129999Y-118024341D01*
X150894596Y-118044936D01*
X150894586Y-118044938D01*
X150666344Y-118106094D01*
X150666335Y-118106098D01*
X150452171Y-118205964D01*
X150452169Y-118205965D01*
X150258597Y-118341505D01*
X150091505Y-118508597D01*
X149961575Y-118694158D01*
X149906998Y-118737783D01*
X149837500Y-118744977D01*
X149775145Y-118713454D01*
X149758425Y-118694158D01*
X149628494Y-118508597D01*
X149461402Y-118341506D01*
X149461395Y-118341501D01*
X149267834Y-118205967D01*
X149267830Y-118205965D01*
X149267828Y-118205964D01*
X149053663Y-118106097D01*
X149053659Y-118106096D01*
X149053655Y-118106094D01*
X148825413Y-118044938D01*
X148825403Y-118044936D01*
X148590001Y-118024341D01*
X148589999Y-118024341D01*
X148354596Y-118044936D01*
X148354586Y-118044938D01*
X148126344Y-118106094D01*
X148126335Y-118106098D01*
X147912171Y-118205964D01*
X147912169Y-118205965D01*
X147718597Y-118341505D01*
X147551508Y-118508594D01*
X147421269Y-118694595D01*
X147366692Y-118738219D01*
X147297193Y-118745412D01*
X147234839Y-118713890D01*
X147218119Y-118694594D01*
X147088113Y-118508926D01*
X147088108Y-118508920D01*
X146921082Y-118341894D01*
X146727578Y-118206399D01*
X146513492Y-118106570D01*
X146513486Y-118106567D01*
X146300000Y-118049364D01*
X146300000Y-118946988D01*
X146242993Y-118914075D01*
X146115826Y-118880000D01*
X145984174Y-118880000D01*
X145857007Y-118914075D01*
X145800000Y-118946988D01*
X145800000Y-118049364D01*
X145799999Y-118049364D01*
X145586513Y-118106567D01*
X145586507Y-118106570D01*
X145372422Y-118206399D01*
X145372420Y-118206400D01*
X145178926Y-118341886D01*
X145178920Y-118341891D01*
X145011891Y-118508920D01*
X145011890Y-118508922D01*
X144881880Y-118694595D01*
X144827303Y-118738219D01*
X144757804Y-118745412D01*
X144695450Y-118713890D01*
X144678730Y-118694594D01*
X144548494Y-118508597D01*
X144381402Y-118341506D01*
X144381395Y-118341501D01*
X144187834Y-118205967D01*
X144187830Y-118205965D01*
X144187828Y-118205964D01*
X143973663Y-118106097D01*
X143973659Y-118106096D01*
X143973655Y-118106094D01*
X143745413Y-118044938D01*
X143745403Y-118044936D01*
X143510001Y-118024341D01*
X143509999Y-118024341D01*
X143274596Y-118044936D01*
X143274586Y-118044938D01*
X143046344Y-118106094D01*
X143046335Y-118106098D01*
X142832171Y-118205964D01*
X142832169Y-118205965D01*
X142638600Y-118341503D01*
X142516673Y-118463430D01*
X142455350Y-118496914D01*
X142385658Y-118491930D01*
X142329725Y-118450058D01*
X142312810Y-118419081D01*
X142263797Y-118287671D01*
X142263793Y-118287664D01*
X142177547Y-118172455D01*
X142177544Y-118172452D01*
X142062335Y-118086206D01*
X142062328Y-118086202D01*
X141927482Y-118035908D01*
X141927483Y-118035908D01*
X141867883Y-118029501D01*
X141867881Y-118029500D01*
X141867873Y-118029500D01*
X141867864Y-118029500D01*
X140072129Y-118029500D01*
X140072123Y-118029501D01*
X140004804Y-118036738D01*
X140004497Y-118033890D01*
X139948211Y-118030856D01*
X139891552Y-117989972D01*
X139865990Y-117924946D01*
X139865500Y-117913932D01*
X139865500Y-109776155D01*
X139865499Y-109776153D01*
X139841778Y-109656902D01*
X139834737Y-109621503D01*
X139825490Y-109599179D01*
X139774397Y-109475827D01*
X139774390Y-109475814D01*
X139686790Y-109344712D01*
X139640918Y-109298840D01*
X139575289Y-109233211D01*
X136425107Y-106083029D01*
X133225292Y-102883213D01*
X133225288Y-102883210D01*
X133094185Y-102795609D01*
X133094172Y-102795602D01*
X132948501Y-102735264D01*
X132948489Y-102735261D01*
X132793845Y-102704500D01*
X132793842Y-102704500D01*
X131668568Y-102704500D01*
X131601529Y-102684815D01*
X131555774Y-102632011D01*
X131545830Y-102562853D01*
X131551526Y-102539548D01*
X131557012Y-102523869D01*
X131559490Y-102517377D01*
X131579737Y-102468497D01*
X131582449Y-102454860D01*
X131587023Y-102438100D01*
X131595368Y-102414255D01*
X131601110Y-102363283D01*
X131602707Y-102353017D01*
X131610500Y-102313842D01*
X131610500Y-102286914D01*
X131611280Y-102273029D01*
X131615565Y-102235001D01*
X131615565Y-102234998D01*
X131611280Y-102196969D01*
X131610500Y-102183085D01*
X131610500Y-99793544D01*
X133619500Y-99793544D01*
X133657947Y-99986828D01*
X133657949Y-99986836D01*
X133733367Y-100168910D01*
X133733372Y-100168920D01*
X133842860Y-100332780D01*
X133842863Y-100332784D01*
X142094735Y-108584655D01*
X142094764Y-108584686D01*
X142237217Y-108727139D01*
X142401080Y-108836628D01*
X142401086Y-108836632D01*
X142498148Y-108876836D01*
X142583164Y-108912051D01*
X142600388Y-108915477D01*
X142644405Y-108924232D01*
X142776456Y-108950500D01*
X142776459Y-108950500D01*
X142776460Y-108950500D01*
X142973540Y-108950500D01*
X147465500Y-108950500D01*
X147532539Y-108970185D01*
X147578294Y-109022989D01*
X147589500Y-109074500D01*
X147589500Y-116303541D01*
X147589500Y-116303543D01*
X147589499Y-116303543D01*
X147627947Y-116496829D01*
X147627950Y-116496839D01*
X147703364Y-116678907D01*
X147703371Y-116678920D01*
X147812860Y-116842781D01*
X147812863Y-116842785D01*
X147952214Y-116982136D01*
X147952218Y-116982139D01*
X148116079Y-117091628D01*
X148116092Y-117091635D01*
X148298160Y-117167049D01*
X148298165Y-117167051D01*
X148298169Y-117167051D01*
X148298170Y-117167052D01*
X148491456Y-117205500D01*
X148491459Y-117205500D01*
X148688543Y-117205500D01*
X148818582Y-117179632D01*
X148881835Y-117167051D01*
X149063914Y-117091632D01*
X149227782Y-116982139D01*
X149367139Y-116842782D01*
X149476632Y-116678914D01*
X149552051Y-116496835D01*
X149590500Y-116303541D01*
X149590500Y-109050782D01*
X149610185Y-108983743D01*
X149626819Y-108963101D01*
X149803871Y-108786050D01*
X150002140Y-108587781D01*
X150111632Y-108423914D01*
X150187052Y-108241835D01*
X150225501Y-108048540D01*
X150225501Y-107851459D01*
X150225501Y-107851456D01*
X150225500Y-107851454D01*
X150198655Y-107716497D01*
X150187052Y-107658164D01*
X150111632Y-107476085D01*
X150111631Y-107476084D01*
X150111628Y-107476078D01*
X150002140Y-107312218D01*
X150002137Y-107312214D01*
X149862785Y-107172862D01*
X149862781Y-107172859D01*
X149698921Y-107063371D01*
X149698912Y-107063366D01*
X149516836Y-106987948D01*
X149516828Y-106987946D01*
X149323544Y-106949499D01*
X149323541Y-106949499D01*
X149126460Y-106949499D01*
X149120346Y-106949499D01*
X149120326Y-106949500D01*
X143340782Y-106949500D01*
X143273743Y-106929815D01*
X143253101Y-106913181D01*
X135257784Y-98917863D01*
X135257780Y-98917860D01*
X135093920Y-98808372D01*
X135093910Y-98808367D01*
X134911836Y-98732949D01*
X134911828Y-98732947D01*
X134718543Y-98694500D01*
X134718540Y-98694500D01*
X134521460Y-98694500D01*
X134521457Y-98694500D01*
X134328171Y-98732947D01*
X134328163Y-98732949D01*
X134146089Y-98808367D01*
X134146079Y-98808372D01*
X133982219Y-98917860D01*
X133982215Y-98917863D01*
X133842863Y-99057215D01*
X133842860Y-99057219D01*
X133733372Y-99221079D01*
X133733367Y-99221089D01*
X133657949Y-99403163D01*
X133657947Y-99403171D01*
X133619500Y-99596455D01*
X133619500Y-99793544D01*
X131610500Y-99793544D01*
X131610500Y-98523544D01*
X140604500Y-98523544D01*
X140642947Y-98716828D01*
X140642949Y-98716836D01*
X140718367Y-98898910D01*
X140718372Y-98898920D01*
X140827860Y-99062780D01*
X140827863Y-99062784D01*
X144777215Y-103012137D01*
X144777219Y-103012140D01*
X144941079Y-103121628D01*
X144941088Y-103121633D01*
X145022787Y-103155474D01*
X145123165Y-103197052D01*
X145284389Y-103229121D01*
X145316457Y-103235499D01*
X145316458Y-103235500D01*
X145316459Y-103235500D01*
X149935543Y-103235500D01*
X150065582Y-103209632D01*
X150128835Y-103197051D01*
X150310914Y-103121632D01*
X150474782Y-103012139D01*
X150614139Y-102872782D01*
X150723632Y-102708914D01*
X150799051Y-102526835D01*
X150821445Y-102414254D01*
X150837500Y-102333543D01*
X150837500Y-102136456D01*
X150799052Y-101943170D01*
X150799051Y-101943169D01*
X150799051Y-101943165D01*
X150777784Y-101891821D01*
X150723635Y-101761092D01*
X150723628Y-101761079D01*
X150614139Y-101597218D01*
X150614136Y-101597214D01*
X150474785Y-101457863D01*
X150474781Y-101457860D01*
X150310920Y-101348371D01*
X150310907Y-101348364D01*
X150218287Y-101310000D01*
X162899785Y-101310000D01*
X162918602Y-101513082D01*
X162974417Y-101709247D01*
X162974422Y-101709260D01*
X163065327Y-101891821D01*
X163188237Y-102054581D01*
X163338958Y-102191980D01*
X163338960Y-102191982D01*
X163408434Y-102234998D01*
X163512363Y-102299348D01*
X163702544Y-102373024D01*
X163903024Y-102410500D01*
X163903026Y-102410500D01*
X164106974Y-102410500D01*
X164106976Y-102410500D01*
X164307456Y-102373024D01*
X164497637Y-102299348D01*
X164671041Y-102191981D01*
X164821764Y-102054579D01*
X164944673Y-101891821D01*
X165035582Y-101709250D01*
X165091397Y-101513083D01*
X165110215Y-101310000D01*
X165091397Y-101106917D01*
X165035582Y-100910750D01*
X164944673Y-100728179D01*
X164821764Y-100565421D01*
X164821762Y-100565418D01*
X164671041Y-100428019D01*
X164671039Y-100428017D01*
X164497642Y-100320655D01*
X164497635Y-100320651D01*
X164402546Y-100283814D01*
X164307456Y-100246976D01*
X164106976Y-100209500D01*
X163903024Y-100209500D01*
X163702544Y-100246976D01*
X163702541Y-100246976D01*
X163702541Y-100246977D01*
X163512364Y-100320651D01*
X163512357Y-100320655D01*
X163338960Y-100428017D01*
X163338958Y-100428019D01*
X163188237Y-100565418D01*
X163065327Y-100728178D01*
X162974422Y-100910739D01*
X162974417Y-100910752D01*
X162918602Y-101106917D01*
X162899785Y-101309999D01*
X162899785Y-101310000D01*
X150218287Y-101310000D01*
X150128839Y-101272950D01*
X150128829Y-101272947D01*
X149935543Y-101234500D01*
X149935541Y-101234500D01*
X145880783Y-101234500D01*
X145813744Y-101214815D01*
X145793102Y-101198181D01*
X144289922Y-99695001D01*
X175089435Y-99695001D01*
X175093720Y-99733029D01*
X175094500Y-99746914D01*
X175094500Y-99773844D01*
X175102288Y-99813003D01*
X175103890Y-99823303D01*
X175109632Y-99874252D01*
X175109633Y-99874260D01*
X175117976Y-99898104D01*
X175122550Y-99914860D01*
X175125262Y-99928496D01*
X175145509Y-99977377D01*
X175147988Y-99983872D01*
X175169212Y-100044524D01*
X175175709Y-100054865D01*
X175185268Y-100073365D01*
X175185603Y-100074173D01*
X175185605Y-100074179D01*
X175222223Y-100128982D01*
X175224114Y-100131900D01*
X175265180Y-100197257D01*
X175265182Y-100197260D01*
X175265184Y-100197262D01*
X175392738Y-100324816D01*
X175458096Y-100365883D01*
X175458131Y-100365905D01*
X175461040Y-100367790D01*
X175515821Y-100404394D01*
X175516606Y-100404719D01*
X175535134Y-100414289D01*
X175545478Y-100420789D01*
X175606175Y-100442028D01*
X175612607Y-100444484D01*
X175641021Y-100456253D01*
X175661497Y-100464735D01*
X175661498Y-100464735D01*
X175661503Y-100464737D01*
X175675139Y-100467449D01*
X175691898Y-100472023D01*
X175715745Y-100480368D01*
X175766714Y-100486110D01*
X175776992Y-100487709D01*
X175804140Y-100493109D01*
X175816157Y-100495500D01*
X175816158Y-100495500D01*
X175843085Y-100495500D01*
X175856969Y-100496280D01*
X175894998Y-100500565D01*
X175895000Y-100500565D01*
X175895002Y-100500565D01*
X175933031Y-100496280D01*
X175946915Y-100495500D01*
X175973841Y-100495500D01*
X175973842Y-100495500D01*
X176013017Y-100487707D01*
X176023283Y-100486110D01*
X176074255Y-100480368D01*
X176098100Y-100472023D01*
X176114862Y-100467448D01*
X176128497Y-100464737D01*
X176177389Y-100444484D01*
X176183837Y-100442023D01*
X176244522Y-100420789D01*
X176254868Y-100414287D01*
X176273390Y-100404720D01*
X176274179Y-100404394D01*
X176328987Y-100367771D01*
X176331825Y-100365931D01*
X176397262Y-100324816D01*
X176524816Y-100197262D01*
X178095259Y-98626819D01*
X178156582Y-98593334D01*
X178182940Y-98590500D01*
X180288085Y-98590500D01*
X180301969Y-98591280D01*
X180339998Y-98595565D01*
X180340000Y-98595565D01*
X180340002Y-98595565D01*
X180378031Y-98591280D01*
X180391915Y-98590500D01*
X180418841Y-98590500D01*
X180418842Y-98590500D01*
X180458017Y-98582707D01*
X180468283Y-98581110D01*
X180519255Y-98575368D01*
X180543100Y-98567023D01*
X180559862Y-98562448D01*
X180573497Y-98559737D01*
X180622389Y-98539484D01*
X180628837Y-98537023D01*
X180689522Y-98515789D01*
X180699868Y-98509287D01*
X180718390Y-98499720D01*
X180719179Y-98499394D01*
X180773987Y-98462771D01*
X180776825Y-98460931D01*
X180842262Y-98419816D01*
X180969816Y-98292262D01*
X181010931Y-98226825D01*
X181012777Y-98223979D01*
X181035471Y-98190016D01*
X181049394Y-98169179D01*
X181049720Y-98168390D01*
X181059287Y-98149868D01*
X181065789Y-98139522D01*
X181087023Y-98078837D01*
X181089484Y-98072389D01*
X181109737Y-98023497D01*
X181112448Y-98009862D01*
X181117023Y-97993100D01*
X181125368Y-97969255D01*
X181131110Y-97918283D01*
X181132707Y-97908017D01*
X181140500Y-97868842D01*
X181140500Y-97841914D01*
X181141280Y-97828029D01*
X181145565Y-97790001D01*
X181145565Y-97789998D01*
X181141280Y-97751969D01*
X181140500Y-97738085D01*
X181140500Y-97711157D01*
X181138109Y-97699140D01*
X181132709Y-97671992D01*
X181131110Y-97661714D01*
X181125368Y-97610745D01*
X181117023Y-97586898D01*
X181112449Y-97570139D01*
X181109737Y-97556503D01*
X181109734Y-97556496D01*
X181101253Y-97536021D01*
X181089484Y-97507607D01*
X181087028Y-97501175D01*
X181065789Y-97440478D01*
X181059289Y-97430134D01*
X181049719Y-97411606D01*
X181049394Y-97410821D01*
X181012790Y-97356040D01*
X181010905Y-97353131D01*
X180969816Y-97287738D01*
X180842262Y-97160184D01*
X180842260Y-97160182D01*
X180842257Y-97160180D01*
X180776900Y-97119114D01*
X180773982Y-97117223D01*
X180719179Y-97080605D01*
X180719173Y-97080603D01*
X180718365Y-97080268D01*
X180699865Y-97070709D01*
X180689524Y-97064212D01*
X180689523Y-97064211D01*
X180689522Y-97064211D01*
X180628867Y-97042986D01*
X180622377Y-97040509D01*
X180573496Y-97020262D01*
X180559860Y-97017550D01*
X180543104Y-97012976D01*
X180519260Y-97004633D01*
X180519256Y-97004632D01*
X180519255Y-97004632D01*
X180498575Y-97002301D01*
X180468303Y-96998890D01*
X180458003Y-96997288D01*
X180418844Y-96989500D01*
X180418842Y-96989500D01*
X180391915Y-96989500D01*
X180378031Y-96988720D01*
X180340002Y-96984435D01*
X180339998Y-96984435D01*
X180301969Y-96988720D01*
X180288085Y-96989500D01*
X177721155Y-96989500D01*
X177566510Y-97020261D01*
X177566498Y-97020264D01*
X177420827Y-97080602D01*
X177420814Y-97080609D01*
X177289711Y-97168210D01*
X177289707Y-97168213D01*
X175392738Y-99065184D01*
X175265186Y-99192735D01*
X175265180Y-99192742D01*
X175224092Y-99258132D01*
X175222204Y-99261047D01*
X175185604Y-99315824D01*
X175185600Y-99315832D01*
X175185266Y-99316639D01*
X175175713Y-99335127D01*
X175169212Y-99345474D01*
X175169210Y-99345477D01*
X175147982Y-99406140D01*
X175145504Y-99412631D01*
X175125264Y-99461496D01*
X175125263Y-99461502D01*
X175122550Y-99475140D01*
X175117975Y-99491898D01*
X175109634Y-99515735D01*
X175109632Y-99515742D01*
X175103890Y-99566696D01*
X175102288Y-99576994D01*
X175094500Y-99616152D01*
X175094500Y-99643085D01*
X175093720Y-99656969D01*
X175089435Y-99694998D01*
X175089435Y-99695001D01*
X144289922Y-99695001D01*
X142784922Y-98190001D01*
X153564500Y-98190001D01*
X153564501Y-98190019D01*
X153575000Y-98292796D01*
X153575001Y-98292799D01*
X153630185Y-98459331D01*
X153630187Y-98459336D01*
X153654892Y-98499389D01*
X153722288Y-98608656D01*
X153846344Y-98732712D01*
X153995666Y-98824814D01*
X154162203Y-98879999D01*
X154264991Y-98890500D01*
X155615008Y-98890499D01*
X155717797Y-98879999D01*
X155884334Y-98824814D01*
X156033656Y-98732712D01*
X156157712Y-98608656D01*
X156249814Y-98459334D01*
X156304999Y-98292797D01*
X156315500Y-98190009D01*
X156315499Y-97389992D01*
X156312031Y-97356047D01*
X156304999Y-97287203D01*
X156304998Y-97287200D01*
X156279167Y-97209247D01*
X156249814Y-97120666D01*
X156157712Y-96971344D01*
X156033656Y-96847288D01*
X156033655Y-96847287D01*
X155973202Y-96810000D01*
X162899785Y-96810000D01*
X162918602Y-97013082D01*
X162974417Y-97209247D01*
X162974422Y-97209260D01*
X163065327Y-97391821D01*
X163188237Y-97554581D01*
X163338958Y-97691980D01*
X163338960Y-97691982D01*
X163369921Y-97711152D01*
X163512363Y-97799348D01*
X163702544Y-97873024D01*
X163903024Y-97910500D01*
X163903026Y-97910500D01*
X164106974Y-97910500D01*
X164106976Y-97910500D01*
X164307456Y-97873024D01*
X164497637Y-97799348D01*
X164671041Y-97691981D01*
X164804703Y-97570132D01*
X164821762Y-97554581D01*
X164821764Y-97554579D01*
X164944673Y-97391821D01*
X165035582Y-97209250D01*
X165091397Y-97013083D01*
X165110215Y-96810000D01*
X165091397Y-96606917D01*
X165035582Y-96410750D01*
X164944673Y-96228179D01*
X164821764Y-96065421D01*
X164821762Y-96065418D01*
X164671041Y-95928019D01*
X164671039Y-95928017D01*
X164497642Y-95820655D01*
X164497635Y-95820651D01*
X164402546Y-95783814D01*
X164307456Y-95746976D01*
X164106976Y-95709500D01*
X163903024Y-95709500D01*
X163702544Y-95746976D01*
X163702541Y-95746976D01*
X163702541Y-95746977D01*
X163512364Y-95820651D01*
X163512357Y-95820655D01*
X163338960Y-95928017D01*
X163338958Y-95928019D01*
X163188237Y-96065418D01*
X163065327Y-96228178D01*
X162974422Y-96410739D01*
X162974417Y-96410752D01*
X162918602Y-96606917D01*
X162899785Y-96809999D01*
X162899785Y-96810000D01*
X155973202Y-96810000D01*
X155969018Y-96807419D01*
X155922294Y-96755472D01*
X155911071Y-96686510D01*
X155938914Y-96622428D01*
X155946434Y-96614199D01*
X156054035Y-96506598D01*
X156155804Y-96366524D01*
X156234408Y-96212255D01*
X156287914Y-96047584D01*
X156289115Y-96040000D01*
X155220330Y-96040000D01*
X155240075Y-96020255D01*
X155289444Y-95934745D01*
X155315000Y-95839370D01*
X155315000Y-95740630D01*
X155289444Y-95645255D01*
X155240075Y-95559745D01*
X155220330Y-95540000D01*
X156289115Y-95540000D01*
X156289115Y-95539999D01*
X156287914Y-95532415D01*
X156234408Y-95367744D01*
X156155804Y-95213475D01*
X156054032Y-95073397D01*
X155931602Y-94950967D01*
X155791524Y-94849195D01*
X155637257Y-94770591D01*
X155472584Y-94717085D01*
X155301571Y-94690000D01*
X155190000Y-94690000D01*
X155190000Y-95509670D01*
X155170255Y-95489925D01*
X155084745Y-95440556D01*
X154989370Y-95415000D01*
X154890630Y-95415000D01*
X154795255Y-95440556D01*
X154709745Y-95489925D01*
X154690000Y-95509670D01*
X154690000Y-94690000D01*
X154578429Y-94690000D01*
X154407415Y-94717085D01*
X154242742Y-94770591D01*
X154088475Y-94849195D01*
X153948397Y-94950967D01*
X153825967Y-95073397D01*
X153724195Y-95213475D01*
X153645591Y-95367744D01*
X153592085Y-95532415D01*
X153590884Y-95539999D01*
X153590885Y-95540000D01*
X154659670Y-95540000D01*
X154639925Y-95559745D01*
X154590556Y-95645255D01*
X154565000Y-95740630D01*
X154565000Y-95839370D01*
X154590556Y-95934745D01*
X154639925Y-96020255D01*
X154659670Y-96040000D01*
X153590885Y-96040000D01*
X153592085Y-96047584D01*
X153645591Y-96212255D01*
X153724195Y-96366524D01*
X153825967Y-96506602D01*
X153933565Y-96614200D01*
X153967050Y-96675523D01*
X153962066Y-96745215D01*
X153920194Y-96801148D01*
X153910983Y-96807418D01*
X153906798Y-96810000D01*
X153846342Y-96847289D01*
X153722289Y-96971342D01*
X153630187Y-97120663D01*
X153630185Y-97120668D01*
X153617091Y-97160184D01*
X153575001Y-97287203D01*
X153575001Y-97287204D01*
X153575000Y-97287204D01*
X153564500Y-97389983D01*
X153564500Y-98190001D01*
X142784922Y-98190001D01*
X142242784Y-97647863D01*
X142242780Y-97647860D01*
X142078920Y-97538372D01*
X142078910Y-97538367D01*
X141896836Y-97462949D01*
X141896828Y-97462947D01*
X141703543Y-97424500D01*
X141703540Y-97424500D01*
X141506460Y-97424500D01*
X141506457Y-97424500D01*
X141313171Y-97462947D01*
X141313163Y-97462949D01*
X141131089Y-97538367D01*
X141131079Y-97538372D01*
X140967219Y-97647860D01*
X140967215Y-97647863D01*
X140827863Y-97787215D01*
X140827860Y-97787219D01*
X140718372Y-97951079D01*
X140718367Y-97951089D01*
X140642949Y-98133163D01*
X140642947Y-98133171D01*
X140604500Y-98326455D01*
X140604500Y-98523544D01*
X131610500Y-98523544D01*
X131610500Y-97841914D01*
X131611280Y-97828029D01*
X131615565Y-97790001D01*
X131615565Y-97789998D01*
X131611280Y-97751969D01*
X131610500Y-97738085D01*
X131610500Y-97711157D01*
X131608109Y-97699140D01*
X131602709Y-97671992D01*
X131601110Y-97661714D01*
X131595368Y-97610745D01*
X131587023Y-97586898D01*
X131582449Y-97570139D01*
X131579737Y-97556503D01*
X131579734Y-97556496D01*
X131571253Y-97536021D01*
X131559484Y-97507607D01*
X131557028Y-97501175D01*
X131535789Y-97440478D01*
X131529289Y-97430134D01*
X131519719Y-97411606D01*
X131519394Y-97410821D01*
X131482790Y-97356040D01*
X131480905Y-97353131D01*
X131439816Y-97287738D01*
X131312262Y-97160184D01*
X131312260Y-97160182D01*
X131312257Y-97160180D01*
X131246900Y-97119114D01*
X131243982Y-97117223D01*
X131189179Y-97080605D01*
X131189173Y-97080603D01*
X131188365Y-97080268D01*
X131169865Y-97070709D01*
X131159524Y-97064212D01*
X131159523Y-97064211D01*
X131159522Y-97064211D01*
X131098867Y-97042986D01*
X131092377Y-97040509D01*
X131043496Y-97020262D01*
X131029860Y-97017550D01*
X131013104Y-97012976D01*
X130989260Y-97004633D01*
X130989256Y-97004632D01*
X130989255Y-97004632D01*
X130968575Y-97002301D01*
X130938303Y-96998890D01*
X130928003Y-96997288D01*
X130888844Y-96989500D01*
X130888842Y-96989500D01*
X130861915Y-96989500D01*
X130848031Y-96988720D01*
X130810002Y-96984435D01*
X130809998Y-96984435D01*
X130771969Y-96988720D01*
X130758085Y-96989500D01*
X130731152Y-96989500D01*
X130691994Y-96997288D01*
X130681696Y-96998890D01*
X130630742Y-97004632D01*
X130630735Y-97004634D01*
X130606898Y-97012975D01*
X130590140Y-97017550D01*
X130576502Y-97020263D01*
X130576496Y-97020264D01*
X130527631Y-97040504D01*
X130521140Y-97042982D01*
X130460477Y-97064210D01*
X130460474Y-97064212D01*
X130450127Y-97070713D01*
X130431639Y-97080266D01*
X130430832Y-97080600D01*
X130430824Y-97080604D01*
X130376047Y-97117204D01*
X130373132Y-97119092D01*
X130307742Y-97160180D01*
X130307735Y-97160186D01*
X130180186Y-97287735D01*
X130180180Y-97287742D01*
X130139092Y-97353132D01*
X130137204Y-97356047D01*
X130100604Y-97410824D01*
X130100600Y-97410832D01*
X130100266Y-97411639D01*
X130090713Y-97430127D01*
X130084212Y-97440474D01*
X130084210Y-97440477D01*
X130062982Y-97501140D01*
X130060504Y-97507631D01*
X130040264Y-97556496D01*
X130040263Y-97556502D01*
X130037550Y-97570140D01*
X130032975Y-97586898D01*
X130024634Y-97610735D01*
X130024632Y-97610742D01*
X130018890Y-97661696D01*
X130017288Y-97671994D01*
X130009500Y-97711152D01*
X130009500Y-97738085D01*
X130008720Y-97751969D01*
X130004435Y-97789998D01*
X130004435Y-97790001D01*
X130008720Y-97828029D01*
X130009500Y-97841914D01*
X130009500Y-102183085D01*
X130008720Y-102196969D01*
X130004435Y-102234998D01*
X130004435Y-102235001D01*
X130008720Y-102273029D01*
X130009500Y-102286914D01*
X130009500Y-102313844D01*
X130017288Y-102353003D01*
X130018890Y-102363303D01*
X130024632Y-102414252D01*
X130024633Y-102414260D01*
X130032976Y-102438104D01*
X130037550Y-102454860D01*
X130040262Y-102468496D01*
X130060509Y-102517377D01*
X130062988Y-102523873D01*
X130068472Y-102539545D01*
X130072035Y-102609323D01*
X130037306Y-102669951D01*
X129975313Y-102702178D01*
X129951431Y-102704500D01*
X122606915Y-102704500D01*
X122593031Y-102703720D01*
X122555002Y-102699435D01*
X122554998Y-102699435D01*
X122516969Y-102703720D01*
X122503085Y-102704500D01*
X122476152Y-102704500D01*
X122436994Y-102712288D01*
X122426696Y-102713890D01*
X122375742Y-102719632D01*
X122375735Y-102719634D01*
X122351898Y-102727975D01*
X122335140Y-102732550D01*
X122321502Y-102735263D01*
X122321496Y-102735264D01*
X122272631Y-102755504D01*
X122266140Y-102757982D01*
X122205477Y-102779210D01*
X122205474Y-102779212D01*
X122195127Y-102785713D01*
X122176639Y-102795266D01*
X122175832Y-102795600D01*
X122175824Y-102795604D01*
X122121047Y-102832204D01*
X122118132Y-102834092D01*
X122052742Y-102875180D01*
X122052735Y-102875186D01*
X121925186Y-103002735D01*
X121925180Y-103002742D01*
X121884092Y-103068132D01*
X121882204Y-103071047D01*
X121845604Y-103125824D01*
X121845600Y-103125832D01*
X121845266Y-103126639D01*
X121835713Y-103145127D01*
X121829212Y-103155474D01*
X121829210Y-103155477D01*
X121807982Y-103216140D01*
X121805504Y-103222631D01*
X121785264Y-103271496D01*
X121785263Y-103271502D01*
X121782550Y-103285140D01*
X121777975Y-103301898D01*
X121769634Y-103325735D01*
X121769632Y-103325742D01*
X121763890Y-103376696D01*
X121762288Y-103386994D01*
X121754500Y-103426152D01*
X121754500Y-103453085D01*
X121753720Y-103466969D01*
X121749435Y-103504998D01*
X121749435Y-103505001D01*
X121753720Y-103543029D01*
X121754500Y-103556914D01*
X121754500Y-103583844D01*
X121762288Y-103623003D01*
X121763890Y-103633303D01*
X121769632Y-103684252D01*
X121769633Y-103684260D01*
X121777976Y-103708104D01*
X121782550Y-103724860D01*
X121785262Y-103738496D01*
X121805509Y-103787377D01*
X121807988Y-103793872D01*
X121829212Y-103854524D01*
X121835709Y-103864865D01*
X121845268Y-103883365D01*
X121845603Y-103884173D01*
X121845605Y-103884179D01*
X121882223Y-103938982D01*
X121884114Y-103941900D01*
X121925180Y-104007257D01*
X121925183Y-104007261D01*
X121970241Y-104052320D01*
X122003725Y-104113643D01*
X121998740Y-104183335D01*
X121970241Y-104227680D01*
X121925186Y-104272735D01*
X121925180Y-104272742D01*
X121884092Y-104338132D01*
X121882204Y-104341047D01*
X121845604Y-104395824D01*
X121845600Y-104395832D01*
X121845266Y-104396639D01*
X121835713Y-104415127D01*
X121829212Y-104425474D01*
X121829210Y-104425477D01*
X121807982Y-104486140D01*
X121805504Y-104492631D01*
X121785264Y-104541496D01*
X121785263Y-104541502D01*
X121782550Y-104555140D01*
X121777975Y-104571898D01*
X121769634Y-104595735D01*
X121769632Y-104595742D01*
X121763890Y-104646696D01*
X121762288Y-104656994D01*
X121754500Y-104696152D01*
X121754500Y-104723085D01*
X121753720Y-104736969D01*
X121749435Y-104774998D01*
X121749435Y-104775001D01*
X121753720Y-104813029D01*
X121754500Y-104826914D01*
X121754500Y-104853844D01*
X121762288Y-104893003D01*
X121763890Y-104903303D01*
X121769632Y-104954252D01*
X121769633Y-104954260D01*
X121777976Y-104978104D01*
X121782550Y-104994860D01*
X121785262Y-105008496D01*
X121805509Y-105057377D01*
X121807988Y-105063872D01*
X121829212Y-105124524D01*
X121835709Y-105134865D01*
X121845268Y-105153365D01*
X121845603Y-105154173D01*
X121845605Y-105154179D01*
X121882223Y-105208982D01*
X121884114Y-105211900D01*
X121925180Y-105277257D01*
X121925182Y-105277260D01*
X121925184Y-105277262D01*
X122052738Y-105404816D01*
X122118131Y-105445905D01*
X122121040Y-105447790D01*
X122175821Y-105484394D01*
X122176606Y-105484719D01*
X122195134Y-105494289D01*
X122205478Y-105500789D01*
X122266175Y-105522028D01*
X122272607Y-105524484D01*
X122301021Y-105536253D01*
X122321497Y-105544735D01*
X122321498Y-105544735D01*
X122321503Y-105544737D01*
X122335139Y-105547449D01*
X122351898Y-105552023D01*
X122375745Y-105560368D01*
X122426714Y-105566110D01*
X122436992Y-105567709D01*
X122464140Y-105573109D01*
X122476157Y-105575500D01*
X122476158Y-105575500D01*
X122503085Y-105575500D01*
X122516969Y-105576280D01*
X122554998Y-105580565D01*
X122555000Y-105580565D01*
X122555002Y-105580565D01*
X122593031Y-105576280D01*
X122606915Y-105575500D01*
X130586430Y-105575500D01*
X130653469Y-105595185D01*
X130699224Y-105647989D01*
X130709168Y-105717147D01*
X130703470Y-105740459D01*
X130697982Y-105756141D01*
X130695504Y-105762631D01*
X130675264Y-105811496D01*
X130675263Y-105811502D01*
X130672550Y-105825140D01*
X130667975Y-105841898D01*
X130659634Y-105865735D01*
X130659632Y-105865742D01*
X130653890Y-105916696D01*
X130652288Y-105926994D01*
X130644500Y-105966152D01*
X130644500Y-105993085D01*
X130643720Y-106006969D01*
X130639435Y-106044998D01*
X130639435Y-106045001D01*
X130643720Y-106083029D01*
X130644500Y-106096914D01*
X130644500Y-106123844D01*
X130652288Y-106163003D01*
X130653890Y-106173303D01*
X130659632Y-106224252D01*
X130659633Y-106224260D01*
X130667976Y-106248104D01*
X130672550Y-106264860D01*
X130675262Y-106278496D01*
X130695509Y-106327377D01*
X130697988Y-106333872D01*
X130719212Y-106394524D01*
X130725709Y-106404865D01*
X130735268Y-106423365D01*
X130735603Y-106424173D01*
X130735605Y-106424179D01*
X130772223Y-106478982D01*
X130774114Y-106481900D01*
X130815180Y-106547257D01*
X130815182Y-106547260D01*
X130815184Y-106547262D01*
X130942738Y-106674816D01*
X131008131Y-106715905D01*
X131011040Y-106717790D01*
X131065821Y-106754394D01*
X131066606Y-106754719D01*
X131085134Y-106764289D01*
X131095478Y-106770789D01*
X131156175Y-106792028D01*
X131162607Y-106794484D01*
X131191021Y-106806253D01*
X131211497Y-106814735D01*
X131211498Y-106814735D01*
X131211503Y-106814737D01*
X131225139Y-106817449D01*
X131241898Y-106822023D01*
X131265745Y-106830368D01*
X131316714Y-106836110D01*
X131326992Y-106837709D01*
X131354140Y-106843109D01*
X131366157Y-106845500D01*
X131366158Y-106845500D01*
X131393085Y-106845500D01*
X131406969Y-106846280D01*
X131444998Y-106850565D01*
X131445000Y-106850565D01*
X131445002Y-106850565D01*
X131483031Y-106846280D01*
X131496915Y-106845500D01*
X131697060Y-106845500D01*
X131764099Y-106865185D01*
X131784741Y-106881819D01*
X134580741Y-109677819D01*
X134614226Y-109739142D01*
X134609242Y-109808834D01*
X134567370Y-109864767D01*
X134501906Y-109889184D01*
X134493060Y-109889500D01*
X112484500Y-109889500D01*
X112417461Y-109869815D01*
X112371706Y-109817011D01*
X112360500Y-109765500D01*
X112360500Y-90894500D01*
X112380185Y-90827461D01*
X112432989Y-90781706D01*
X112484500Y-90770500D01*
X185965500Y-90770500D01*
X186032539Y-90790185D01*
G37*
%TD.AperFunction*%
%TD*%
M02*
