M48
; DRILL file {KiCad 8.0.1} date 2024-03-24T23:42:46+0200
; FORMAT={-:-/ absolute / inch / decimal}
; #@! TF.CreationDate,2024-03-24T23:42:46+02:00
; #@! TF.GenerationSoftware,Kicad,Pcbnew,8.0.1
; #@! TF.FileFunction,Plated,1,2,PTH
FMAT,2
INCH
; #@! TA.AperFunction,Plated,PTH,ViaDrill
T1C0.0118
; #@! TA.AperFunction,Plated,PTH,ComponentDrill
T2C0.0295
; #@! TA.AperFunction,Plated,PTH,ComponentDrill
T3C0.0354
; #@! TA.AperFunction,Plated,PTH,ComponentDrill
T4C0.0394
%
G90
G05
T1
X4.725Y-4.0
X4.825Y-4.075
X4.825Y-4.125
X5.15Y-3.85
X5.15Y-4.025
X5.175Y-4.175
X5.3Y-3.925
X5.575Y-3.875
X5.85Y-4.575
X5.875Y-4.25
X5.8991Y-4.025
X6.175Y-4.175
X6.25Y-3.775
X6.925Y-3.925
X7.1Y-3.85
X7.1Y-4.25
X7.1Y-4.3
X7.25Y-3.975
X7.25Y-4.05
T2
X6.1Y-3.7713
X6.1Y-3.85
T3
X6.4569Y-3.8114
X6.4569Y-3.9886
T4
X5.55Y-4.7
X5.55Y-4.8
X5.65Y-4.7
X5.65Y-4.8
X5.75Y-4.7
X5.75Y-4.8
X5.85Y-4.7
X5.85Y-4.8
X5.95Y-4.7
X5.95Y-4.8
X6.05Y-4.7
X6.05Y-4.8
X6.15Y-4.7
X6.15Y-4.8
X6.25Y-4.7
X6.25Y-4.8
M30
