%TF.GenerationSoftware,KiCad,Pcbnew,8.0.1*%
%TF.CreationDate,2024-03-24T23:42:45+02:00*%
%TF.ProjectId,ProjectFiles,50726f6a-6563-4744-9669-6c65732e6b69,rev?*%
%TF.SameCoordinates,Original*%
%TF.FileFunction,Soldermask,Top*%
%TF.FilePolarity,Negative*%
%FSLAX46Y46*%
G04 Gerber Fmt 4.6, Leading zero omitted, Abs format (unit mm)*
G04 Created by KiCad (PCBNEW 8.0.1) date 2024-03-24 23:42:45*
%MOMM*%
%LPD*%
G01*
G04 APERTURE LIST*
G04 Aperture macros list*
%AMRoundRect*
0 Rectangle with rounded corners*
0 $1 Rounding radius*
0 $2 $3 $4 $5 $6 $7 $8 $9 X,Y pos of 4 corners*
0 Add a 4 corners polygon primitive as box body*
4,1,4,$2,$3,$4,$5,$6,$7,$8,$9,$2,$3,0*
0 Add four circle primitives for the rounded corners*
1,1,$1+$1,$2,$3*
1,1,$1+$1,$4,$5*
1,1,$1+$1,$6,$7*
1,1,$1+$1,$8,$9*
0 Add four rect primitives between the rounded corners*
20,1,$1+$1,$2,$3,$4,$5,0*
20,1,$1+$1,$4,$5,$6,$7,0*
20,1,$1+$1,$6,$7,$8,$9,0*
20,1,$1+$1,$8,$9,$2,$3,0*%
%AMFreePoly0*
4,1,19,0.500000,-0.750000,0.000000,-0.750000,0.000000,-0.744911,-0.071157,-0.744911,-0.207708,-0.704816,-0.327430,-0.627875,-0.420627,-0.520320,-0.479746,-0.390866,-0.500000,-0.250000,-0.500000,0.250000,-0.479746,0.390866,-0.420627,0.520320,-0.327430,0.627875,-0.207708,0.704816,-0.071157,0.744911,0.000000,0.744911,0.000000,0.750000,0.500000,0.750000,0.500000,-0.750000,0.500000,-0.750000,
$1*%
%AMFreePoly1*
4,1,19,0.000000,0.744911,0.071157,0.744911,0.207708,0.704816,0.327430,0.627875,0.420627,0.520320,0.479746,0.390866,0.500000,0.250000,0.500000,-0.250000,0.479746,-0.390866,0.420627,-0.520320,0.327430,-0.627875,0.207708,-0.704816,0.071157,-0.744911,0.000000,-0.744911,0.000000,-0.750000,-0.500000,-0.750000,-0.500000,0.750000,0.000000,0.750000,0.000000,0.744911,0.000000,0.744911,
$1*%
G04 Aperture macros list end*
%ADD10R,0.970000X1.470000*%
%ADD11R,0.600000X0.620000*%
%ADD12R,1.525000X0.700000*%
%ADD13R,2.513000X3.402000*%
%ADD14R,0.700000X0.300000*%
%ADD15R,1.000000X1.700000*%
%ADD16R,0.950000X0.900000*%
%ADD17R,1.200000X0.600000*%
%ADD18FreePoly0,0.000000*%
%ADD19FreePoly1,0.000000*%
%ADD20R,1.450000X1.000000*%
%ADD21C,2.500000*%
%ADD22R,1.000000X1.450000*%
%ADD23R,0.620000X0.600000*%
%ADD24R,2.000000X0.900000*%
%ADD25C,1.200000*%
%ADD26R,1.700000X1.700000*%
%ADD27O,1.700000X1.700000*%
%ADD28FreePoly0,180.000000*%
%ADD29FreePoly1,180.000000*%
%ADD30RoundRect,0.250000X0.625000X-0.350000X0.625000X0.350000X-0.625000X0.350000X-0.625000X-0.350000X0*%
%ADD31O,1.750000X1.200000*%
G04 APERTURE END LIST*
D10*
%TO.C,C2*%
X152645000Y-104775000D03*
X154305000Y-104775000D03*
%TD*%
D11*
%TO.C,C3*%
X180515000Y-100965000D03*
X181435000Y-100965000D03*
%TD*%
D12*
%TO.C,J2*%
X144413000Y-100965000D03*
X144413000Y-102235000D03*
X144413000Y-103505000D03*
X144413000Y-104775000D03*
X149837000Y-104775000D03*
X149837000Y-103505000D03*
X149837000Y-102235000D03*
X149837000Y-100965000D03*
D13*
X147125000Y-102870000D03*
%TD*%
D14*
%TO.C,IC1*%
X119185000Y-102870000D03*
X119185000Y-103370000D03*
X119185000Y-103870000D03*
X119185000Y-104370000D03*
X121285000Y-104370000D03*
X121285000Y-103870000D03*
X121285000Y-103370000D03*
X121285000Y-102870000D03*
D15*
X120235000Y-103620000D03*
%TD*%
D16*
%TO.C,LED1*%
X139700000Y-94295000D03*
X139700000Y-92795000D03*
%TD*%
D14*
%TO.C,IC2*%
X178875000Y-105410000D03*
X178875000Y-105910000D03*
X178875000Y-106410000D03*
X178875000Y-106910000D03*
X180975000Y-106910000D03*
X180975000Y-106410000D03*
X180975000Y-105910000D03*
X180975000Y-105410000D03*
D15*
X179925000Y-106160000D03*
%TD*%
D16*
%TO.C,LED2*%
X147955000Y-93980000D03*
X147955000Y-92480000D03*
%TD*%
D17*
%TO.C,Q1*%
X175260000Y-98105000D03*
X175260000Y-96205000D03*
X172760000Y-97155000D03*
%TD*%
D18*
%TO.C,JP1*%
X172705000Y-93345000D03*
D19*
X174005000Y-93345000D03*
%TD*%
D20*
%TO.C,R1k3*%
X147955000Y-96205000D03*
X147955000Y-98105000D03*
%TD*%
D21*
%TO.C,TP5*%
X115570000Y-97155000D03*
%TD*%
%TO.C,TP2*%
X156845000Y-102870000D03*
%TD*%
D22*
%TO.C,R1k4*%
X180660000Y-97790000D03*
X182560000Y-97790000D03*
%TD*%
D23*
%TO.C,C5*%
X120015000Y-99520000D03*
X120015000Y-98600000D03*
%TD*%
D21*
%TO.C,TP1*%
X122555000Y-93980000D03*
%TD*%
D22*
%TO.C,R1k1*%
X139435000Y-101600000D03*
X141335000Y-101600000D03*
%TD*%
D20*
%TO.C,R1*%
X129540000Y-99695000D03*
X129540000Y-97795000D03*
%TD*%
D24*
%TO.C,S1*%
X167005000Y-97060000D03*
X167005000Y-99060000D03*
X167005000Y-101060000D03*
X161005000Y-97060000D03*
X161005000Y-99060000D03*
X161005000Y-101060000D03*
D25*
X164005000Y-96810000D03*
X164005000Y-101310000D03*
%TD*%
D20*
%TO.C,R1k2*%
X139700000Y-96520000D03*
X139700000Y-98420000D03*
%TD*%
D23*
%TO.C,C6*%
X123190000Y-99520000D03*
X123190000Y-98600000D03*
%TD*%
D21*
%TO.C,TP6*%
X116840000Y-93345000D03*
%TD*%
%TO.C,TP3*%
X169545000Y-92710000D03*
%TD*%
D26*
%TO.C,J1*%
X140970000Y-119380000D03*
D27*
X140970000Y-121920000D03*
X143510000Y-119380000D03*
X143510000Y-121920000D03*
X146050000Y-119380000D03*
X146050000Y-121920000D03*
X148590000Y-119380000D03*
X148590000Y-121920000D03*
X151130000Y-119380000D03*
X151130000Y-121920000D03*
X153670000Y-119380000D03*
X153670000Y-121920000D03*
X156210000Y-119380000D03*
X156210000Y-121920000D03*
X158750000Y-119380000D03*
X158750000Y-121920000D03*
%TD*%
D11*
%TO.C,C4*%
X183055000Y-103505000D03*
X183975000Y-103505000D03*
%TD*%
D10*
%TO.C,C1*%
X141215000Y-104775000D03*
X139555000Y-104775000D03*
%TD*%
D28*
%TO.C,JP2*%
X172735000Y-102235000D03*
D29*
X171435000Y-102235000D03*
%TD*%
D30*
%TO.C,J3*%
X154940000Y-97790000D03*
D31*
X154940000Y-95790000D03*
%TD*%
D20*
%TO.C,R2*%
X129540000Y-95250000D03*
X129540000Y-93350000D03*
%TD*%
M02*
