%TF.GenerationSoftware,KiCad,Pcbnew,8.0.1*%
%TF.CreationDate,2024-03-24T23:42:45+02:00*%
%TF.ProjectId,ProjectFiles,50726f6a-6563-4744-9669-6c65732e6b69,rev?*%
%TF.SameCoordinates,Original*%
%TF.FileFunction,Copper,L1,Top*%
%TF.FilePolarity,Positive*%
%FSLAX46Y46*%
G04 Gerber Fmt 4.6, Leading zero omitted, Abs format (unit mm)*
G04 Created by KiCad (PCBNEW 8.0.1) date 2024-03-24 23:42:45*
%MOMM*%
%LPD*%
G01*
G04 APERTURE LIST*
G04 Aperture macros list*
%AMRoundRect*
0 Rectangle with rounded corners*
0 $1 Rounding radius*
0 $2 $3 $4 $5 $6 $7 $8 $9 X,Y pos of 4 corners*
0 Add a 4 corners polygon primitive as box body*
4,1,4,$2,$3,$4,$5,$6,$7,$8,$9,$2,$3,0*
0 Add four circle primitives for the rounded corners*
1,1,$1+$1,$2,$3*
1,1,$1+$1,$4,$5*
1,1,$1+$1,$6,$7*
1,1,$1+$1,$8,$9*
0 Add four rect primitives between the rounded corners*
20,1,$1+$1,$2,$3,$4,$5,0*
20,1,$1+$1,$4,$5,$6,$7,0*
20,1,$1+$1,$6,$7,$8,$9,0*
20,1,$1+$1,$8,$9,$2,$3,0*%
%AMFreePoly0*
4,1,19,0.500000,-0.750000,0.000000,-0.750000,0.000000,-0.744911,-0.071157,-0.744911,-0.207708,-0.704816,-0.327430,-0.627875,-0.420627,-0.520320,-0.479746,-0.390866,-0.500000,-0.250000,-0.500000,0.250000,-0.479746,0.390866,-0.420627,0.520320,-0.327430,0.627875,-0.207708,0.704816,-0.071157,0.744911,0.000000,0.744911,0.000000,0.750000,0.500000,0.750000,0.500000,-0.750000,0.500000,-0.750000,
$1*%
%AMFreePoly1*
4,1,19,0.000000,0.744911,0.071157,0.744911,0.207708,0.704816,0.327430,0.627875,0.420627,0.520320,0.479746,0.390866,0.500000,0.250000,0.500000,-0.250000,0.479746,-0.390866,0.420627,-0.520320,0.327430,-0.627875,0.207708,-0.704816,0.071157,-0.744911,0.000000,-0.744911,0.000000,-0.750000,-0.500000,-0.750000,-0.500000,0.750000,0.000000,0.750000,0.000000,0.744911,0.000000,0.744911,
$1*%
G04 Aperture macros list end*
%TA.AperFunction,SMDPad,CuDef*%
%ADD10R,0.970000X1.470000*%
%TD*%
%TA.AperFunction,SMDPad,CuDef*%
%ADD11R,0.600000X0.620000*%
%TD*%
%TA.AperFunction,SMDPad,CuDef*%
%ADD12R,1.525000X0.700000*%
%TD*%
%TA.AperFunction,SMDPad,CuDef*%
%ADD13R,2.513000X3.402000*%
%TD*%
%TA.AperFunction,SMDPad,CuDef*%
%ADD14R,0.700000X0.300000*%
%TD*%
%TA.AperFunction,SMDPad,CuDef*%
%ADD15R,1.000000X1.700000*%
%TD*%
%TA.AperFunction,SMDPad,CuDef*%
%ADD16R,0.950000X0.900000*%
%TD*%
%TA.AperFunction,SMDPad,CuDef*%
%ADD17R,1.200000X0.600000*%
%TD*%
%TA.AperFunction,SMDPad,CuDef*%
%ADD18FreePoly0,0.000000*%
%TD*%
%TA.AperFunction,SMDPad,CuDef*%
%ADD19FreePoly1,0.000000*%
%TD*%
%TA.AperFunction,SMDPad,CuDef*%
%ADD20R,1.450000X1.000000*%
%TD*%
%TA.AperFunction,SMDPad,CuDef*%
%ADD21C,2.500000*%
%TD*%
%TA.AperFunction,SMDPad,CuDef*%
%ADD22R,1.000000X1.450000*%
%TD*%
%TA.AperFunction,SMDPad,CuDef*%
%ADD23R,0.620000X0.600000*%
%TD*%
%TA.AperFunction,SMDPad,CuDef*%
%ADD24R,2.000000X0.900000*%
%TD*%
%TA.AperFunction,ComponentPad*%
%ADD25C,1.200000*%
%TD*%
%TA.AperFunction,ComponentPad*%
%ADD26R,1.700000X1.700000*%
%TD*%
%TA.AperFunction,ComponentPad*%
%ADD27O,1.700000X1.700000*%
%TD*%
%TA.AperFunction,SMDPad,CuDef*%
%ADD28FreePoly0,180.000000*%
%TD*%
%TA.AperFunction,SMDPad,CuDef*%
%ADD29FreePoly1,180.000000*%
%TD*%
%TA.AperFunction,ComponentPad*%
%ADD30RoundRect,0.250000X0.625000X-0.350000X0.625000X0.350000X-0.625000X0.350000X-0.625000X-0.350000X0*%
%TD*%
%TA.AperFunction,ComponentPad*%
%ADD31O,1.750000X1.200000*%
%TD*%
%TA.AperFunction,ViaPad*%
%ADD32C,0.600000*%
%TD*%
%TA.AperFunction,Conductor*%
%ADD33C,1.000000*%
%TD*%
%TA.AperFunction,Conductor*%
%ADD34C,0.600000*%
%TD*%
%TA.AperFunction,Conductor*%
%ADD35C,0.300000*%
%TD*%
%TA.AperFunction,Conductor*%
%ADD36C,0.400000*%
%TD*%
G04 APERTURE END LIST*
D10*
%TO.P,C2,1*%
%TO.N,Net-(J2-BAT)*%
X152645000Y-104775000D03*
%TO.P,C2,2*%
%TO.N,GND*%
X154305000Y-104775000D03*
%TD*%
D11*
%TO.P,C3,1*%
%TO.N,/BATT*%
X180515000Y-100965000D03*
%TO.P,C3,2*%
%TO.N,GND*%
X181435000Y-100965000D03*
%TD*%
D12*
%TO.P,J2,1,TEMP1*%
%TO.N,GND*%
X144413000Y-100965000D03*
%TO.P,J2,2,PROG2*%
%TO.N,Net-(J2-PROG2)*%
X144413000Y-102235000D03*
%TO.P,J2,3,GND_3*%
%TO.N,GND*%
X144413000Y-103505000D03*
%TO.P,J2,4,VCC4*%
%TO.N,5V*%
X144413000Y-104775000D03*
%TO.P,J2,5,BAT*%
%TO.N,Net-(J2-BAT)*%
X149837000Y-104775000D03*
%TO.P,J2,6,~{STDBY}*%
%TO.N,Net-(J2-~{STDBY})*%
X149837000Y-103505000D03*
%TO.P,J2,7,~{CHRG}*%
%TO.N,Net-(J2-~{CHRG})*%
X149837000Y-102235000D03*
%TO.P,J2,8,CE*%
%TO.N,5V*%
X149837000Y-100965000D03*
D13*
%TO.P,J2,9,EP*%
%TO.N,GND*%
X147125000Y-102870000D03*
%TD*%
D14*
%TO.P,IC1,1,VM*%
%TO.N,/BATT*%
X119185000Y-102870000D03*
%TO.P,IC1,2,OUT1*%
%TO.N,/Motor2_A*%
X119185000Y-103370000D03*
%TO.P,IC1,3,OUT2*%
%TO.N,/Motor2_B*%
X119185000Y-103870000D03*
%TO.P,IC1,4,GND*%
%TO.N,GND*%
X119185000Y-104370000D03*
%TO.P,IC1,5,IN2*%
%TO.N,/PWM2*%
X121285000Y-104370000D03*
%TO.P,IC1,6,IN1*%
%TO.N,/PWM1*%
X121285000Y-103870000D03*
%TO.P,IC1,7,NSLEEP*%
%TO.N,/BATT*%
X121285000Y-103370000D03*
%TO.P,IC1,8,VCC*%
X121285000Y-102870000D03*
D15*
%TO.P,IC1,9,EP*%
%TO.N,GND*%
X120235000Y-103620000D03*
%TD*%
D16*
%TO.P,LED1,1*%
%TO.N,Net-(LED1-Pad1)*%
X139700000Y-94295000D03*
%TO.P,LED1,2*%
%TO.N,5V*%
X139700000Y-92795000D03*
%TD*%
D14*
%TO.P,IC2,1,VM*%
%TO.N,/BATT*%
X178875000Y-105410000D03*
%TO.P,IC2,2,OUT1*%
%TO.N,/Motor1_A*%
X178875000Y-105910000D03*
%TO.P,IC2,3,OUT2*%
%TO.N,/Motor1_B*%
X178875000Y-106410000D03*
%TO.P,IC2,4,GND*%
%TO.N,GND*%
X178875000Y-106910000D03*
%TO.P,IC2,5,IN2*%
%TO.N,/PWM4*%
X180975000Y-106910000D03*
%TO.P,IC2,6,IN1*%
%TO.N,/PWM3*%
X180975000Y-106410000D03*
%TO.P,IC2,7,NSLEEP*%
%TO.N,/BATT*%
X180975000Y-105910000D03*
%TO.P,IC2,8,VCC*%
X180975000Y-105410000D03*
D15*
%TO.P,IC2,9,EP*%
%TO.N,GND*%
X179925000Y-106160000D03*
%TD*%
D16*
%TO.P,LED2,1*%
%TO.N,Net-(LED2-Pad1)*%
X147955000Y-93980000D03*
%TO.P,LED2,2*%
%TO.N,5V*%
X147955000Y-92480000D03*
%TD*%
D17*
%TO.P,Q1,1*%
%TO.N,Net-(Q1-Pad1)*%
X175260000Y-98105000D03*
%TO.P,Q1,2*%
%TO.N,/BATT*%
X175260000Y-96205000D03*
%TO.P,Q1,3*%
%TO.N,Net-(JP1-A)*%
X172760000Y-97155000D03*
%TD*%
D18*
%TO.P,JP1,1,A*%
%TO.N,Net-(JP1-A)*%
X172705000Y-93345000D03*
D19*
%TO.P,JP1,2,B*%
%TO.N,/BATT*%
X174005000Y-93345000D03*
%TD*%
D20*
%TO.P,R1k3,1*%
%TO.N,Net-(LED2-Pad1)*%
X147955000Y-96205000D03*
%TO.P,R1k3,2*%
%TO.N,Net-(J2-~{STDBY})*%
X147955000Y-98105000D03*
%TD*%
D21*
%TO.P,TP5,1,1*%
%TO.N,/BATT*%
X115570000Y-97155000D03*
%TD*%
%TO.P,TP2,1,1*%
%TO.N,Net-(J2-BAT)*%
X156845000Y-102870000D03*
%TD*%
D22*
%TO.P,R1k4,1*%
%TO.N,Net-(Q1-Pad1)*%
X180660000Y-97790000D03*
%TO.P,R1k4,2*%
%TO.N,GND*%
X182560000Y-97790000D03*
%TD*%
D23*
%TO.P,C5,1*%
%TO.N,/BATT*%
X120015000Y-99520000D03*
%TO.P,C5,2*%
%TO.N,GND*%
X120015000Y-98600000D03*
%TD*%
D21*
%TO.P,TP1,1,1*%
%TO.N,5V*%
X122555000Y-93980000D03*
%TD*%
D22*
%TO.P,R1k1,1*%
%TO.N,GND*%
X139435000Y-101600000D03*
%TO.P,R1k1,2*%
%TO.N,Net-(J2-PROG2)*%
X141335000Y-101600000D03*
%TD*%
D20*
%TO.P,R1,1*%
%TO.N,/BATT*%
X129540000Y-99695000D03*
%TO.P,R1,2*%
%TO.N,/BATT_ADC*%
X129540000Y-97795000D03*
%TD*%
D24*
%TO.P,S1,1,NO_1*%
%TO.N,Net-(JP1-A)*%
X167005000Y-97060000D03*
%TO.P,S1,2,COM_1*%
%TO.N,Net-(J2-BAT)*%
X167005000Y-99060000D03*
%TO.P,S1,3,NC_1*%
%TO.N,unconnected-(S1-NC_1-Pad3)*%
X167005000Y-101060000D03*
%TO.P,S1,4,NO_2*%
%TO.N,Net-(JP1-A)*%
X161005000Y-97060000D03*
%TO.P,S1,5,COM_2*%
%TO.N,Net-(J2-BAT)*%
X161005000Y-99060000D03*
%TO.P,S1,6,NC_2*%
%TO.N,unconnected-(S1-NC_2-Pad6)*%
X161005000Y-101060000D03*
D25*
%TO.P,S1,MH1*%
%TO.N,N/C*%
X164005000Y-96810000D03*
%TO.P,S1,MH2*%
X164005000Y-101310000D03*
%TD*%
D20*
%TO.P,R1k2,1*%
%TO.N,Net-(LED1-Pad1)*%
X139700000Y-96520000D03*
%TO.P,R1k2,2*%
%TO.N,Net-(J2-~{CHRG})*%
X139700000Y-98420000D03*
%TD*%
D23*
%TO.P,C6,1*%
%TO.N,/BATT*%
X123190000Y-99520000D03*
%TO.P,C6,2*%
%TO.N,GND*%
X123190000Y-98600000D03*
%TD*%
D21*
%TO.P,TP6,1,1*%
%TO.N,GND*%
X116840000Y-93345000D03*
%TD*%
%TO.P,TP3,1,1*%
%TO.N,Net-(JP1-A)*%
X169545000Y-92710000D03*
%TD*%
D26*
%TO.P,J1,1,Pin_1*%
%TO.N,/Motor2_A*%
X140970000Y-119380000D03*
D27*
%TO.P,J1,2,Pin_2*%
%TO.N,/PWM1*%
X140970000Y-121920000D03*
%TO.P,J1,3,Pin_3*%
%TO.N,/Motor2_B*%
X143510000Y-119380000D03*
%TO.P,J1,4,Pin_4*%
%TO.N,/PWM2*%
X143510000Y-121920000D03*
%TO.P,J1,5,Pin_5*%
%TO.N,GND*%
X146050000Y-119380000D03*
%TO.P,J1,6,Pin_6*%
X146050000Y-121920000D03*
%TO.P,J1,7,Pin_7*%
%TO.N,/BATT*%
X148590000Y-119380000D03*
%TO.P,J1,8,Pin_8*%
X148590000Y-121920000D03*
%TO.P,J1,9,Pin_9*%
%TO.N,unconnected-(J1-Pin_9-Pad9)*%
X151130000Y-119380000D03*
%TO.P,J1,10,Pin_10*%
%TO.N,/BATT_ADC*%
X151130000Y-121920000D03*
%TO.P,J1,11,Pin_11*%
%TO.N,5V*%
X153670000Y-119380000D03*
%TO.P,J1,12,Pin_12*%
X153670000Y-121920000D03*
%TO.P,J1,13,Pin_13*%
%TO.N,/Motor1_A*%
X156210000Y-119380000D03*
%TO.P,J1,14,Pin_14*%
%TO.N,/PWM3*%
X156210000Y-121920000D03*
%TO.P,J1,15,Pin_15*%
%TO.N,/Motor1_B*%
X158750000Y-119380000D03*
%TO.P,J1,16,Pin_16*%
%TO.N,/PWM4*%
X158750000Y-121920000D03*
%TD*%
D11*
%TO.P,C4,1*%
%TO.N,/BATT*%
X183055000Y-103505000D03*
%TO.P,C4,2*%
%TO.N,GND*%
X183975000Y-103505000D03*
%TD*%
D10*
%TO.P,C1,1*%
%TO.N,5V*%
X141215000Y-104775000D03*
%TO.P,C1,2*%
%TO.N,GND*%
X139555000Y-104775000D03*
%TD*%
D28*
%TO.P,JP2,1,A*%
%TO.N,Net-(JP1-A)*%
X172735000Y-102235000D03*
D29*
%TO.P,JP2,2,B*%
%TO.N,Net-(J2-BAT)*%
X171435000Y-102235000D03*
%TD*%
D30*
%TO.P,J3,1,Pin_1*%
%TO.N,Net-(J2-BAT)*%
X154940000Y-97790000D03*
D31*
%TO.P,J3,2,Pin_2*%
%TO.N,GND*%
X154940000Y-95790000D03*
%TD*%
D20*
%TO.P,R2,1*%
%TO.N,/BATT_ADC*%
X129540000Y-95250000D03*
%TO.P,R2,2*%
%TO.N,GND*%
X129540000Y-93350000D03*
%TD*%
D32*
%TO.N,/PWM3*%
X180340000Y-109220000D03*
%TO.N,/BATT_ADC*%
X130810000Y-97790000D03*
X130810000Y-102235000D03*
X131445000Y-106045000D03*
%TO.N,GND*%
X158750000Y-95885000D03*
X184150000Y-102870000D03*
X120015000Y-101600000D03*
X184150000Y-100965000D03*
X156845000Y-106045000D03*
%TO.N,/BATT*%
X148590000Y-116205000D03*
X134620000Y-99695000D03*
X149225000Y-107950000D03*
%TO.N,/PWM2*%
X122555000Y-104775000D03*
%TO.N,/PWM4*%
X180340000Y-107950000D03*
%TO.N,/PWM1*%
X122555000Y-103505000D03*
%TO.N,Net-(J2-~{CHRG})*%
X149837000Y-102235000D03*
X141605000Y-98425000D03*
%TO.N,Net-(Q1-Pad1)*%
X180340000Y-97790000D03*
X175895000Y-99695000D03*
%TD*%
D33*
%TO.N,5V*%
X137160000Y-93860000D02*
X137417500Y-93602500D01*
X153670000Y-121920000D02*
X153670000Y-119380000D01*
X153670000Y-119380000D02*
X153670000Y-113030000D01*
X146050000Y-113030000D02*
X146050000Y-106412000D01*
X146050000Y-106412000D02*
X144413000Y-104775000D01*
D34*
X125095000Y-91440000D02*
X122555000Y-93980000D01*
D33*
X147955000Y-92480000D02*
X144145000Y-92480000D01*
X144145000Y-98425000D02*
X144145000Y-92480000D01*
X149837000Y-100965000D02*
X149202000Y-100330000D01*
X141215000Y-106435000D02*
X137550000Y-106435000D01*
X138225000Y-92795000D02*
X139700000Y-92795000D01*
X144145000Y-92480000D02*
X140015000Y-92480000D01*
X144413000Y-104775000D02*
X141215000Y-104775000D01*
D34*
X137417500Y-93602500D02*
X135255000Y-91440000D01*
X135255000Y-91440000D02*
X125095000Y-91440000D01*
D33*
X153670000Y-113030000D02*
X146050000Y-113030000D01*
X137160000Y-106045000D02*
X137160000Y-93860000D01*
X140015000Y-92480000D02*
X139700000Y-92795000D01*
X149202000Y-100330000D02*
X146050000Y-100330000D01*
X141215000Y-104775000D02*
X141215000Y-106435000D01*
X137550000Y-106435000D02*
X137160000Y-106045000D01*
X137417500Y-93602500D02*
X138225000Y-92795000D01*
X146050000Y-100330000D02*
X144145000Y-98425000D01*
D35*
%TO.N,/PWM3*%
X183245000Y-106410000D02*
X183245000Y-108855000D01*
X182880000Y-109220000D02*
X180340000Y-109220000D01*
X180975000Y-106410000D02*
X183245000Y-106410000D01*
X183245000Y-108855000D02*
X182880000Y-109220000D01*
D34*
%TO.N,/BATT_ADC*%
X129540000Y-97795000D02*
X130805000Y-97795000D01*
D36*
X129540000Y-97795000D02*
X129540000Y-95250000D01*
D34*
X131445000Y-102870000D02*
X130810000Y-102235000D01*
X131445000Y-106045000D02*
X131445000Y-102870000D01*
X130805000Y-97795000D02*
X130810000Y-97790000D01*
%TO.N,GND*%
X148634000Y-106680000D02*
X147125000Y-105171000D01*
X146490000Y-103505000D02*
X144413000Y-103505000D01*
D35*
X179925000Y-104555000D02*
X180315000Y-104165000D01*
D34*
X154305000Y-106110000D02*
X153735000Y-106680000D01*
D35*
X183925000Y-104165000D02*
X183975000Y-104115000D01*
D34*
X184150000Y-103330000D02*
X183975000Y-103505000D01*
X153735000Y-106680000D02*
X148634000Y-106680000D01*
D35*
X180315000Y-104165000D02*
X183925000Y-104165000D01*
D34*
X181435000Y-100965000D02*
X184150000Y-100965000D01*
D35*
X120235000Y-104020000D02*
X120015000Y-104240000D01*
D34*
X145220000Y-100965000D02*
X147125000Y-102870000D01*
D35*
X179575000Y-106910000D02*
X179925000Y-106560000D01*
D36*
X120235000Y-103620000D02*
X120235000Y-101820000D01*
D35*
X179925000Y-106560000D02*
X179925000Y-106160000D01*
D34*
X154940000Y-95790000D02*
X158655000Y-95790000D01*
D35*
X120235000Y-104020000D02*
X120235000Y-103620000D01*
D34*
X154305000Y-104775000D02*
X154305000Y-106110000D01*
X184150000Y-102870000D02*
X184150000Y-103330000D01*
D35*
X178875000Y-106910000D02*
X179575000Y-106910000D01*
D34*
X144413000Y-100965000D02*
X145220000Y-100965000D01*
X147125000Y-102870000D02*
X146490000Y-103505000D01*
X147125000Y-105171000D02*
X147125000Y-102870000D01*
D35*
X179925000Y-106160000D02*
X179925000Y-104555000D01*
D36*
X120235000Y-101820000D02*
X120015000Y-101600000D01*
D35*
X119885000Y-104370000D02*
X120235000Y-104020000D01*
X119185000Y-104370000D02*
X119885000Y-104370000D01*
X183975000Y-104115000D02*
X183975000Y-103505000D01*
D34*
X158655000Y-95790000D02*
X158750000Y-95885000D01*
D33*
%TO.N,/BATT*%
X160020000Y-106680000D02*
X158750000Y-107950000D01*
X180357500Y-100807500D02*
X180435000Y-100885000D01*
X177322500Y-100807500D02*
X173990000Y-104140000D01*
X148590000Y-119380000D02*
X148590000Y-116205000D01*
D34*
X123190000Y-99520000D02*
X120015000Y-99520000D01*
X180515000Y-101875000D02*
X182145000Y-103505000D01*
X115570000Y-97155000D02*
X118940000Y-100525000D01*
D33*
X158750000Y-107950000D02*
X149225000Y-107950000D01*
D34*
X185420000Y-105410000D02*
X185420000Y-102235000D01*
D33*
X174005000Y-93345000D02*
X175260000Y-94600000D01*
X177322500Y-100807500D02*
X180357500Y-100807500D01*
X177322500Y-98267500D02*
X177322500Y-100807500D01*
D34*
X180515000Y-100965000D02*
X180515000Y-101875000D01*
D33*
X134620000Y-99695000D02*
X129540000Y-99695000D01*
D36*
X120015000Y-99520000D02*
X120015000Y-99695000D01*
D34*
X120015000Y-99695000D02*
X119185000Y-100525000D01*
X185152500Y-101967500D02*
X180607500Y-101967500D01*
D33*
X180435000Y-100885000D02*
X180435000Y-100965000D01*
X175260000Y-96205000D02*
X177322500Y-98267500D01*
D34*
X178875000Y-103515000D02*
X178875000Y-105260000D01*
X121285000Y-102870000D02*
X121285000Y-100790000D01*
X127815000Y-99695000D02*
X127640000Y-99520000D01*
X127640000Y-99520000D02*
X123190000Y-99520000D01*
D33*
X129540000Y-99695000D02*
X127815000Y-99695000D01*
X173990000Y-104140000D02*
X160020000Y-104140000D01*
D34*
X185420000Y-102235000D02*
X185152500Y-101967500D01*
X119185000Y-100525000D02*
X119185000Y-102720000D01*
D33*
X160020000Y-104140000D02*
X160020000Y-106680000D01*
D34*
X121285000Y-100790000D02*
X120015000Y-99520000D01*
X121285000Y-102870000D02*
X121285000Y-103220000D01*
X180975000Y-105410000D02*
X185420000Y-105410000D01*
X180975000Y-105410000D02*
X180975000Y-105760000D01*
X118940000Y-100525000D02*
X119185000Y-100525000D01*
X182145000Y-103505000D02*
X183055000Y-103505000D01*
D33*
X175260000Y-94600000D02*
X175260000Y-96205000D01*
X148590000Y-121920000D02*
X148590000Y-119380000D01*
D34*
X180515000Y-101875000D02*
X178875000Y-103515000D01*
%TO.N,/Motor2_A*%
X140970000Y-114300000D02*
X135255000Y-108585000D01*
D35*
X119185000Y-103370000D02*
X116340000Y-103370000D01*
D34*
X135255000Y-108585000D02*
X116205000Y-108585000D01*
D35*
X116340000Y-103370000D02*
X116205000Y-103505000D01*
D34*
X116205000Y-108585000D02*
X116205000Y-103505000D01*
X140970000Y-119380000D02*
X140970000Y-114300000D01*
D35*
%TO.N,/PWM2*%
X121285000Y-104370000D02*
X122150000Y-104370000D01*
X122150000Y-104370000D02*
X122555000Y-104775000D01*
%TO.N,/PWM4*%
X182650000Y-106910000D02*
X182745000Y-107005000D01*
X182745000Y-107005000D02*
X182745000Y-107950000D01*
X182745000Y-107950000D02*
X180340000Y-107950000D01*
X180975000Y-106910000D02*
X182650000Y-106910000D01*
%TO.N,/PWM1*%
X121285000Y-103870000D02*
X122190000Y-103870000D01*
X122190000Y-103870000D02*
X122555000Y-103505000D01*
D34*
%TO.N,/Motor2_B*%
X143510000Y-118745000D02*
X143510000Y-119380000D01*
X143510000Y-119380000D02*
X143510000Y-114935000D01*
D35*
X119185000Y-103870000D02*
X117745000Y-103870000D01*
D34*
X143510000Y-114935000D02*
X135890000Y-107315000D01*
D35*
X117745000Y-103870000D02*
X117475000Y-104140000D01*
D34*
X135890000Y-107315000D02*
X118910000Y-107315000D01*
X117475000Y-107315000D02*
X117475000Y-106680000D01*
X117475000Y-106680000D02*
X117475000Y-104140000D01*
X118910000Y-107315000D02*
X117475000Y-107315000D01*
D35*
%TO.N,/Motor1_B*%
X178875000Y-106410000D02*
X176800000Y-106410000D01*
D34*
X163830000Y-107315000D02*
X175895000Y-107315000D01*
X158750000Y-119380000D02*
X158750000Y-112395000D01*
D35*
X176800000Y-106410000D02*
X175895000Y-107315000D01*
D34*
X158750000Y-112395000D02*
X163830000Y-107315000D01*
D35*
%TO.N,/Motor1_A*%
X176030000Y-105910000D02*
X175895000Y-106045000D01*
D34*
X162725000Y-106515000D02*
X175425000Y-106515000D01*
D35*
X178875000Y-105910000D02*
X176030000Y-105910000D01*
D34*
X156210000Y-113030000D02*
X162725000Y-106515000D01*
X175425000Y-106515000D02*
X175895000Y-106045000D01*
X156210000Y-119380000D02*
X156210000Y-113030000D01*
D33*
%TO.N,Net-(J2-BAT)*%
X152645000Y-100085000D02*
X154940000Y-97790000D01*
X167005000Y-99060000D02*
X168260000Y-99060000D01*
D34*
X156845000Y-102870000D02*
X156845000Y-99695000D01*
D33*
X168260000Y-99060000D02*
X171435000Y-102235000D01*
X154940000Y-97790000D02*
X156210000Y-99060000D01*
X149837000Y-104775000D02*
X152645000Y-104775000D01*
X161005000Y-99060000D02*
X167005000Y-99060000D01*
X160370000Y-98425000D02*
X161005000Y-99060000D01*
X156210000Y-99060000D02*
X161005000Y-99060000D01*
D34*
X156845000Y-99695000D02*
X156210000Y-99060000D01*
D33*
X152645000Y-104775000D02*
X152645000Y-100085000D01*
%TO.N,Net-(J2-~{STDBY})*%
X149540000Y-98105000D02*
X147955000Y-98105000D01*
X151299500Y-99864500D02*
X149540000Y-98105000D01*
X151299500Y-103285000D02*
X151299500Y-99864500D01*
X149837000Y-103505000D02*
X151079500Y-103505000D01*
X151079500Y-103505000D02*
X151299500Y-103285000D01*
%TO.N,Net-(J2-PROG2)*%
X141970000Y-102235000D02*
X141335000Y-101600000D01*
X144413000Y-102235000D02*
X141970000Y-102235000D01*
%TO.N,Net-(J2-~{CHRG})*%
X141600000Y-98420000D02*
X141605000Y-98425000D01*
X139700000Y-98420000D02*
X141600000Y-98420000D01*
%TO.N,Net-(LED1-Pad1)*%
X139700000Y-94295000D02*
X139700000Y-96520000D01*
%TO.N,Net-(LED2-Pad1)*%
X147955000Y-93980000D02*
X147955000Y-96205000D01*
D34*
%TO.N,Net-(Q1-Pad1)*%
X175260000Y-99695000D02*
X175260000Y-98105000D01*
X175895000Y-99695000D02*
X175260000Y-99695000D01*
X175436371Y-98105000D02*
X175260000Y-98105000D01*
%TO.N,Net-(JP1-A)*%
X167575000Y-93345000D02*
X166655000Y-94265000D01*
X168910000Y-93345000D02*
X167575000Y-93345000D01*
D33*
X167005000Y-97060000D02*
X172665000Y-97060000D01*
X161005000Y-97060000D02*
X161005000Y-94265000D01*
X167005000Y-97060000D02*
X167005000Y-94615000D01*
X161005000Y-94265000D02*
X166655000Y-94265000D01*
X172735000Y-97180000D02*
X172760000Y-97155000D01*
X172760000Y-97155000D02*
X172760000Y-93400000D01*
D34*
X169545000Y-92710000D02*
X168910000Y-93345000D01*
D33*
X166655000Y-94265000D02*
X167005000Y-94615000D01*
X172665000Y-97060000D02*
X172760000Y-97155000D01*
X172735000Y-102235000D02*
X172735000Y-97180000D01*
X172760000Y-93400000D02*
X172705000Y-93345000D01*
%TD*%
%TA.AperFunction,Conductor*%
%TO.N,GND*%
G36*
X124400099Y-90790185D02*
G01*
X124445854Y-90842989D01*
X124455798Y-90912147D01*
X124426773Y-90975703D01*
X124420741Y-90982181D01*
X123142665Y-92260255D01*
X123081342Y-92293740D01*
X123018435Y-92291065D01*
X122945627Y-92268607D01*
X122945620Y-92268605D01*
X122945615Y-92268604D01*
X122820823Y-92249794D01*
X122686187Y-92229500D01*
X122686182Y-92229500D01*
X122423818Y-92229500D01*
X122423812Y-92229500D01*
X122262247Y-92253853D01*
X122164385Y-92268604D01*
X122164382Y-92268605D01*
X122164376Y-92268606D01*
X121913673Y-92345938D01*
X121677303Y-92459767D01*
X121677302Y-92459768D01*
X121460520Y-92607567D01*
X121268198Y-92786014D01*
X121104614Y-92991143D01*
X120973432Y-93218356D01*
X120877582Y-93462578D01*
X120877576Y-93462597D01*
X120819197Y-93718374D01*
X120819196Y-93718379D01*
X120799592Y-93979995D01*
X120799592Y-93980004D01*
X120819196Y-94241620D01*
X120819197Y-94241625D01*
X120819197Y-94241629D01*
X120819198Y-94241630D01*
X120823104Y-94258743D01*
X120877576Y-94497402D01*
X120877578Y-94497411D01*
X120877580Y-94497416D01*
X120973432Y-94741643D01*
X121104614Y-94968857D01*
X121174034Y-95055907D01*
X121268198Y-95173985D01*
X121444954Y-95337989D01*
X121460521Y-95352433D01*
X121677296Y-95500228D01*
X121677301Y-95500230D01*
X121677302Y-95500231D01*
X121677303Y-95500232D01*
X121757732Y-95538964D01*
X121913673Y-95614061D01*
X121913674Y-95614061D01*
X121913677Y-95614063D01*
X122164385Y-95691396D01*
X122423818Y-95730500D01*
X122686182Y-95730500D01*
X122945615Y-95691396D01*
X123196323Y-95614063D01*
X123432704Y-95500228D01*
X123649479Y-95352433D01*
X123841805Y-95173981D01*
X124005386Y-94968857D01*
X124136568Y-94741643D01*
X124232420Y-94497416D01*
X124290802Y-94241630D01*
X124291656Y-94230231D01*
X124310408Y-93980004D01*
X124310408Y-93979995D01*
X124290803Y-93718379D01*
X124290803Y-93718378D01*
X124290802Y-93718374D01*
X124290802Y-93718370D01*
X124242479Y-93506656D01*
X124246752Y-93436922D01*
X124275687Y-93391389D01*
X125390259Y-92276819D01*
X125451582Y-92243334D01*
X125477940Y-92240500D01*
X128753331Y-92240500D01*
X128820370Y-92260185D01*
X128866125Y-92312989D01*
X128867734Y-92324181D01*
X129540000Y-92996446D01*
X130215338Y-92321108D01*
X130235916Y-92280002D01*
X130296006Y-92244351D01*
X130326669Y-92240500D01*
X134872060Y-92240500D01*
X134939099Y-92260185D01*
X134959741Y-92276819D01*
X136159898Y-93476976D01*
X136193383Y-93538299D01*
X136193836Y-93588839D01*
X136192291Y-93596605D01*
X136191716Y-93599500D01*
X136183662Y-93639989D01*
X136159500Y-93761456D01*
X136159500Y-93761459D01*
X136159500Y-106143541D01*
X136162774Y-106160000D01*
X136164706Y-106169709D01*
X136164706Y-106169713D01*
X136197947Y-106336828D01*
X136197950Y-106336840D01*
X136204697Y-106353127D01*
X136209941Y-106365787D01*
X136217410Y-106435256D01*
X136186135Y-106497735D01*
X136126046Y-106533388D01*
X136071189Y-106534857D01*
X135968846Y-106514500D01*
X135968842Y-106514500D01*
X132303568Y-106514500D01*
X132236529Y-106494815D01*
X132190774Y-106442011D01*
X132180830Y-106372853D01*
X132186526Y-106349548D01*
X132189923Y-106339839D01*
X132192014Y-106333861D01*
X132194490Y-106327377D01*
X132214737Y-106278497D01*
X132217449Y-106264860D01*
X132222023Y-106248100D01*
X132230368Y-106224255D01*
X132236110Y-106173283D01*
X132237707Y-106163017D01*
X132245500Y-106123842D01*
X132245500Y-106096914D01*
X132246280Y-106083029D01*
X132250565Y-106045001D01*
X132250565Y-106044998D01*
X132246280Y-106006969D01*
X132245500Y-105993085D01*
X132245500Y-102791160D01*
X132243123Y-102779207D01*
X132243123Y-102779206D01*
X132236777Y-102747302D01*
X132214738Y-102636503D01*
X132154394Y-102490821D01*
X132154392Y-102490818D01*
X132154390Y-102490814D01*
X132066789Y-102359711D01*
X132066786Y-102359707D01*
X131320289Y-101613211D01*
X131312260Y-101605182D01*
X131312257Y-101605180D01*
X131246900Y-101564114D01*
X131243982Y-101562223D01*
X131189179Y-101525605D01*
X131189173Y-101525603D01*
X131188365Y-101525268D01*
X131169865Y-101515709D01*
X131159524Y-101509212D01*
X131159523Y-101509211D01*
X131159522Y-101509211D01*
X131098867Y-101487986D01*
X131092377Y-101485509D01*
X131043496Y-101465262D01*
X131029860Y-101462550D01*
X131013104Y-101457976D01*
X130989260Y-101449633D01*
X130989256Y-101449632D01*
X130989255Y-101449632D01*
X130968575Y-101447301D01*
X130938303Y-101443890D01*
X130928003Y-101442288D01*
X130888844Y-101434500D01*
X130888842Y-101434500D01*
X130861915Y-101434500D01*
X130848031Y-101433720D01*
X130810002Y-101429435D01*
X130809998Y-101429435D01*
X130771969Y-101433720D01*
X130758085Y-101434500D01*
X130731152Y-101434500D01*
X130691994Y-101442288D01*
X130681696Y-101443890D01*
X130630742Y-101449632D01*
X130630735Y-101449634D01*
X130606898Y-101457975D01*
X130590140Y-101462550D01*
X130576502Y-101465263D01*
X130576496Y-101465264D01*
X130527631Y-101485504D01*
X130521140Y-101487982D01*
X130460477Y-101509210D01*
X130460474Y-101509212D01*
X130450127Y-101515713D01*
X130431639Y-101525266D01*
X130430832Y-101525600D01*
X130430824Y-101525604D01*
X130376047Y-101562204D01*
X130373132Y-101564092D01*
X130307742Y-101605180D01*
X130307735Y-101605186D01*
X130180186Y-101732735D01*
X130180180Y-101732742D01*
X130139092Y-101798132D01*
X130137204Y-101801047D01*
X130100604Y-101855824D01*
X130100600Y-101855832D01*
X130100266Y-101856639D01*
X130090713Y-101875127D01*
X130084212Y-101885474D01*
X130084210Y-101885477D01*
X130062982Y-101946140D01*
X130060504Y-101952631D01*
X130040264Y-102001496D01*
X130040263Y-102001502D01*
X130037550Y-102015140D01*
X130032975Y-102031898D01*
X130024634Y-102055735D01*
X130024632Y-102055742D01*
X130018890Y-102106696D01*
X130017288Y-102116994D01*
X130009500Y-102156152D01*
X130009500Y-102183085D01*
X130008720Y-102196969D01*
X130004435Y-102234998D01*
X130004435Y-102235001D01*
X130008720Y-102273029D01*
X130009500Y-102286914D01*
X130009500Y-102313844D01*
X130017288Y-102353003D01*
X130018890Y-102363303D01*
X130024632Y-102414252D01*
X130024633Y-102414260D01*
X130032976Y-102438104D01*
X130037550Y-102454860D01*
X130040262Y-102468496D01*
X130060509Y-102517377D01*
X130062986Y-102523867D01*
X130078195Y-102567331D01*
X130084212Y-102584524D01*
X130090709Y-102594865D01*
X130100268Y-102613365D01*
X130100603Y-102614173D01*
X130100605Y-102614179D01*
X130137223Y-102668982D01*
X130139114Y-102671900D01*
X130180180Y-102737257D01*
X130180182Y-102737260D01*
X130608181Y-103165259D01*
X130641666Y-103226582D01*
X130644500Y-103252940D01*
X130644500Y-105993085D01*
X130643720Y-106006969D01*
X130639435Y-106044998D01*
X130639435Y-106045001D01*
X130643720Y-106083029D01*
X130644500Y-106096914D01*
X130644500Y-106123844D01*
X130652288Y-106163003D01*
X130653890Y-106173303D01*
X130657301Y-106203575D01*
X130659181Y-106220256D01*
X130659632Y-106224252D01*
X130659633Y-106224260D01*
X130667976Y-106248104D01*
X130672550Y-106264860D01*
X130675262Y-106278496D01*
X130695509Y-106327377D01*
X130697988Y-106333873D01*
X130703472Y-106349545D01*
X130707035Y-106419323D01*
X130672306Y-106479951D01*
X130610313Y-106512178D01*
X130586431Y-106514500D01*
X118399500Y-106514500D01*
X118332461Y-106494815D01*
X118286706Y-106442011D01*
X118275500Y-106390500D01*
X118275500Y-104979492D01*
X118295185Y-104912453D01*
X118347989Y-104866698D01*
X118417147Y-104856754D01*
X118441888Y-104868052D01*
X118472617Y-104870250D01*
X118786049Y-104556819D01*
X118847372Y-104523334D01*
X118873730Y-104520500D01*
X118947269Y-104520500D01*
X119014308Y-104540185D01*
X119060063Y-104592989D01*
X119070007Y-104662147D01*
X119040982Y-104725703D01*
X119034950Y-104732181D01*
X118751018Y-105016111D01*
X118751018Y-105016112D01*
X118787180Y-105019999D01*
X118787182Y-105020000D01*
X119582819Y-105020000D01*
X119582819Y-105019999D01*
X119618981Y-105016112D01*
X119335049Y-104732180D01*
X119301564Y-104670857D01*
X119306548Y-104601165D01*
X119348420Y-104545232D01*
X119413884Y-104520815D01*
X119422730Y-104520499D01*
X119496269Y-104520499D01*
X119563308Y-104540184D01*
X119583950Y-104556818D01*
X119997132Y-104970000D01*
X120686931Y-104970000D01*
X120730263Y-104977817D01*
X120827517Y-105014091D01*
X120887127Y-105020500D01*
X121210929Y-105020499D01*
X121210941Y-105020500D01*
X121220931Y-105020500D01*
X121704829Y-105020500D01*
X121771868Y-105040185D01*
X121817623Y-105092989D01*
X121821871Y-105103546D01*
X121829210Y-105124521D01*
X121890057Y-105221358D01*
X121925184Y-105277262D01*
X122052738Y-105404816D01*
X122205478Y-105500789D01*
X122368615Y-105557873D01*
X122375745Y-105560368D01*
X122375750Y-105560369D01*
X122554996Y-105580565D01*
X122555000Y-105580565D01*
X122555004Y-105580565D01*
X122734249Y-105560369D01*
X122734252Y-105560368D01*
X122734255Y-105560368D01*
X122904522Y-105500789D01*
X123057262Y-105404816D01*
X123184816Y-105277262D01*
X123280789Y-105124522D01*
X123340368Y-104954255D01*
X123340369Y-104954249D01*
X123360565Y-104775003D01*
X123360565Y-104774996D01*
X123340369Y-104595750D01*
X123340368Y-104595745D01*
X123326747Y-104556818D01*
X123280789Y-104425478D01*
X123258642Y-104390232D01*
X123241582Y-104363080D01*
X123184816Y-104272738D01*
X123139759Y-104227681D01*
X123106274Y-104166358D01*
X123111258Y-104096666D01*
X123139759Y-104052319D01*
X123150622Y-104041456D01*
X123184816Y-104007262D01*
X123280789Y-103854522D01*
X123340368Y-103684255D01*
X123340369Y-103684249D01*
X123360565Y-103505003D01*
X123360565Y-103504996D01*
X123340369Y-103325750D01*
X123340368Y-103325745D01*
X123334155Y-103307989D01*
X123280789Y-103155478D01*
X123275542Y-103147128D01*
X123221597Y-103061274D01*
X123184816Y-103002738D01*
X123057262Y-102875184D01*
X123009516Y-102845183D01*
X122904523Y-102779211D01*
X122734254Y-102719631D01*
X122734249Y-102719630D01*
X122555004Y-102699435D01*
X122554996Y-102699435D01*
X122375750Y-102719630D01*
X122375742Y-102719632D01*
X122296667Y-102747302D01*
X122226888Y-102750863D01*
X122166261Y-102716134D01*
X122134034Y-102654141D01*
X122132423Y-102643513D01*
X122129091Y-102612516D01*
X122093318Y-102516604D01*
X122085500Y-102473271D01*
X122085500Y-100711162D01*
X122085500Y-100711158D01*
X122084094Y-100704092D01*
X122054737Y-100556503D01*
X122032375Y-100502517D01*
X122031566Y-100500565D01*
X122028000Y-100491955D01*
X122020530Y-100422486D01*
X122051803Y-100360006D01*
X122111892Y-100324352D01*
X122142560Y-100320500D01*
X122832127Y-100320500D01*
X123111158Y-100320500D01*
X126974217Y-100320500D01*
X127041256Y-100340185D01*
X127061893Y-100356814D01*
X127125868Y-100420789D01*
X127177219Y-100472140D01*
X127341079Y-100581628D01*
X127341092Y-100581635D01*
X127523160Y-100657049D01*
X127523165Y-100657051D01*
X127523169Y-100657051D01*
X127523170Y-100657052D01*
X127716456Y-100695500D01*
X127716459Y-100695500D01*
X134718543Y-100695500D01*
X134848582Y-100669632D01*
X134911835Y-100657051D01*
X135093914Y-100581632D01*
X135257782Y-100472139D01*
X135397139Y-100332782D01*
X135506632Y-100168914D01*
X135582051Y-99986835D01*
X135610175Y-99845448D01*
X135620500Y-99793543D01*
X135620500Y-99596456D01*
X135582052Y-99403170D01*
X135582051Y-99403169D01*
X135582051Y-99403165D01*
X135575377Y-99387052D01*
X135506635Y-99221092D01*
X135506628Y-99221079D01*
X135397139Y-99057218D01*
X135397136Y-99057214D01*
X135257785Y-98917863D01*
X135257781Y-98917860D01*
X135093920Y-98808371D01*
X135093907Y-98808364D01*
X134911839Y-98732950D01*
X134911829Y-98732947D01*
X134718543Y-98694500D01*
X134718541Y-98694500D01*
X131308437Y-98694500D01*
X131241398Y-98674815D01*
X131195643Y-98622011D01*
X131185699Y-98552853D01*
X131214724Y-98489297D01*
X131239545Y-98467399D01*
X131285618Y-98436612D01*
X131288468Y-98434765D01*
X131312262Y-98419816D01*
X131439816Y-98292262D01*
X131480931Y-98226825D01*
X131482777Y-98223979D01*
X131483695Y-98222605D01*
X131519394Y-98169179D01*
X131519720Y-98168390D01*
X131529287Y-98149868D01*
X131535789Y-98139522D01*
X131557023Y-98078837D01*
X131559484Y-98072389D01*
X131579737Y-98023497D01*
X131582448Y-98009862D01*
X131587023Y-97993100D01*
X131595368Y-97969255D01*
X131601110Y-97918283D01*
X131602707Y-97908017D01*
X131610500Y-97868842D01*
X131610500Y-97841914D01*
X131611280Y-97828029D01*
X131615565Y-97790001D01*
X131615565Y-97789998D01*
X131611280Y-97751969D01*
X131610500Y-97738085D01*
X131610500Y-97711157D01*
X131606783Y-97692470D01*
X131602709Y-97671992D01*
X131601110Y-97661714D01*
X131595368Y-97610745D01*
X131587023Y-97586898D01*
X131582449Y-97570139D01*
X131579737Y-97556503D01*
X131578940Y-97554579D01*
X131561856Y-97513334D01*
X131559484Y-97507607D01*
X131557028Y-97501175D01*
X131535789Y-97440478D01*
X131529289Y-97430134D01*
X131519719Y-97411606D01*
X131519394Y-97410821D01*
X131482790Y-97356040D01*
X131480905Y-97353131D01*
X131465027Y-97327861D01*
X131439816Y-97287738D01*
X131312262Y-97160184D01*
X131312260Y-97160182D01*
X131312257Y-97160180D01*
X131246900Y-97119114D01*
X131243982Y-97117223D01*
X131189179Y-97080605D01*
X131189173Y-97080603D01*
X131188365Y-97080268D01*
X131169865Y-97070709D01*
X131159524Y-97064212D01*
X131159523Y-97064211D01*
X131159522Y-97064211D01*
X131098867Y-97042986D01*
X131092377Y-97040509D01*
X131043496Y-97020262D01*
X131029860Y-97017550D01*
X131013104Y-97012976D01*
X130989260Y-97004633D01*
X130989256Y-97004632D01*
X130989255Y-97004632D01*
X130968575Y-97002301D01*
X130938303Y-96998890D01*
X130928003Y-96997288D01*
X130888844Y-96989500D01*
X130888842Y-96989500D01*
X130861915Y-96989500D01*
X130848031Y-96988720D01*
X130810002Y-96984435D01*
X130809998Y-96984435D01*
X130771969Y-96988720D01*
X130758085Y-96989500D01*
X130725066Y-96989500D01*
X130725066Y-96987007D01*
X130667139Y-96975996D01*
X130628854Y-96943693D01*
X130628820Y-96943728D01*
X130628416Y-96943324D01*
X130624411Y-96939945D01*
X130622548Y-96937457D01*
X130622546Y-96937454D01*
X130622163Y-96937167D01*
X130507335Y-96851206D01*
X130507328Y-96851202D01*
X130372483Y-96800908D01*
X130351243Y-96798625D01*
X130286692Y-96771886D01*
X130246845Y-96714493D01*
X130240500Y-96675336D01*
X130240500Y-96369663D01*
X130260185Y-96302624D01*
X130312989Y-96256869D01*
X130351248Y-96246373D01*
X130372483Y-96244091D01*
X130507331Y-96193796D01*
X130622546Y-96107546D01*
X130708796Y-95992331D01*
X130759091Y-95857483D01*
X130765500Y-95797873D01*
X130765499Y-94702128D01*
X130759091Y-94642517D01*
X130712074Y-94516459D01*
X130708797Y-94507671D01*
X130708793Y-94507664D01*
X130622547Y-94392455D01*
X130617416Y-94387324D01*
X130583931Y-94326001D01*
X130588915Y-94256309D01*
X130617416Y-94211962D01*
X130622190Y-94207187D01*
X130708350Y-94092093D01*
X130708354Y-94092086D01*
X130758596Y-93957379D01*
X130758598Y-93957372D01*
X130764999Y-93897844D01*
X130765000Y-93897827D01*
X130765000Y-92802172D01*
X130764999Y-92802155D01*
X130758598Y-92742627D01*
X130758596Y-92742620D01*
X130708354Y-92607913D01*
X130708350Y-92607906D01*
X130677224Y-92566328D01*
X130677223Y-92566327D01*
X129627680Y-93615871D01*
X129566357Y-93649356D01*
X129496665Y-93644372D01*
X129452318Y-93615871D01*
X128402774Y-92566327D01*
X128371646Y-92607911D01*
X128371645Y-92607913D01*
X128321403Y-92742620D01*
X128321401Y-92742627D01*
X128315000Y-92802155D01*
X128315000Y-93897844D01*
X128321401Y-93957372D01*
X128321403Y-93957379D01*
X128371645Y-94092086D01*
X128371649Y-94092093D01*
X128457809Y-94207187D01*
X128462584Y-94211962D01*
X128496069Y-94273285D01*
X128491085Y-94342977D01*
X128462584Y-94387324D01*
X128457452Y-94392455D01*
X128371206Y-94507664D01*
X128371202Y-94507671D01*
X128320908Y-94642517D01*
X128315584Y-94692044D01*
X128314501Y-94702123D01*
X128314500Y-94702135D01*
X128314500Y-95797870D01*
X128314501Y-95797876D01*
X128320908Y-95857483D01*
X128371202Y-95992328D01*
X128371206Y-95992335D01*
X128457452Y-96107544D01*
X128457455Y-96107547D01*
X128572664Y-96193793D01*
X128572671Y-96193797D01*
X128617618Y-96210561D01*
X128707517Y-96244091D01*
X128728756Y-96246374D01*
X128793304Y-96273110D01*
X128833154Y-96330502D01*
X128839500Y-96369663D01*
X128839500Y-96675336D01*
X128819815Y-96742375D01*
X128767011Y-96788130D01*
X128728754Y-96798626D01*
X128707516Y-96800909D01*
X128572671Y-96851202D01*
X128572664Y-96851206D01*
X128457455Y-96937452D01*
X128457452Y-96937455D01*
X128371206Y-97052664D01*
X128371202Y-97052671D01*
X128320908Y-97187517D01*
X128314501Y-97247116D01*
X128314500Y-97247135D01*
X128314500Y-98342870D01*
X128314501Y-98342876D01*
X128320908Y-98402483D01*
X128367413Y-98527167D01*
X128372397Y-98596859D01*
X128338912Y-98658182D01*
X128277589Y-98691666D01*
X128251231Y-98694500D01*
X127716457Y-98694500D01*
X127647113Y-98708294D01*
X127602756Y-98717117D01*
X127578566Y-98719500D01*
X124124000Y-98719500D01*
X124056961Y-98699815D01*
X124011206Y-98647011D01*
X124000000Y-98595500D01*
X124000000Y-98252172D01*
X123999999Y-98252155D01*
X123993598Y-98192624D01*
X123982006Y-98161545D01*
X123460372Y-98683181D01*
X123399049Y-98716666D01*
X123372691Y-98719500D01*
X123007309Y-98719500D01*
X122940270Y-98699815D01*
X122919628Y-98683181D01*
X122397993Y-98161546D01*
X122397992Y-98161546D01*
X122386402Y-98192622D01*
X122386401Y-98192624D01*
X122380000Y-98252155D01*
X122380000Y-98595500D01*
X122360315Y-98662539D01*
X122307511Y-98708294D01*
X122256000Y-98719500D01*
X120949000Y-98719500D01*
X120881961Y-98699815D01*
X120836206Y-98647011D01*
X120825000Y-98595500D01*
X120825000Y-98252172D01*
X120824999Y-98252155D01*
X120818598Y-98192624D01*
X120807006Y-98161545D01*
X120285372Y-98683181D01*
X120224049Y-98716666D01*
X120197691Y-98719500D01*
X119832309Y-98719500D01*
X119765270Y-98699815D01*
X119744628Y-98683181D01*
X119222993Y-98161546D01*
X119222992Y-98161546D01*
X119211402Y-98192622D01*
X119211401Y-98192624D01*
X119205000Y-98252155D01*
X119205000Y-98947844D01*
X119211402Y-99007377D01*
X119211402Y-99007378D01*
X119214600Y-99015952D01*
X119219584Y-99085644D01*
X119214602Y-99102613D01*
X119210908Y-99112516D01*
X119204501Y-99172116D01*
X119204500Y-99172135D01*
X119204500Y-99322058D01*
X119184815Y-99389097D01*
X119168181Y-99409739D01*
X119150180Y-99427740D01*
X119088857Y-99461225D01*
X119019165Y-99456241D01*
X118974818Y-99427740D01*
X117359637Y-97812559D01*
X119581112Y-97812559D01*
X120015000Y-98246446D01*
X120015001Y-98246446D01*
X120448885Y-97812559D01*
X122756112Y-97812559D01*
X123190000Y-98246446D01*
X123190001Y-98246446D01*
X123623885Y-97812559D01*
X123623885Y-97812558D01*
X123607376Y-97806402D01*
X123607375Y-97806401D01*
X123547828Y-97800000D01*
X122832172Y-97800000D01*
X122772625Y-97806401D01*
X122756112Y-97812559D01*
X120448885Y-97812559D01*
X120448885Y-97812558D01*
X120432376Y-97806402D01*
X120432375Y-97806401D01*
X120372828Y-97800000D01*
X119657172Y-97800000D01*
X119597625Y-97806401D01*
X119581112Y-97812559D01*
X117359637Y-97812559D01*
X117290690Y-97743612D01*
X117257205Y-97682289D01*
X117257479Y-97628340D01*
X117305802Y-97416630D01*
X117306179Y-97411600D01*
X117325408Y-97155004D01*
X117325408Y-97154995D01*
X117305803Y-96893379D01*
X117305802Y-96893374D01*
X117305802Y-96893370D01*
X117247420Y-96637584D01*
X117151568Y-96393357D01*
X117020386Y-96166143D01*
X116856805Y-95961019D01*
X116856804Y-95961018D01*
X116856801Y-95961014D01*
X116664479Y-95782567D01*
X116612278Y-95746977D01*
X116447704Y-95634772D01*
X116447700Y-95634770D01*
X116447697Y-95634768D01*
X116447696Y-95634767D01*
X116211325Y-95520938D01*
X116211327Y-95520938D01*
X115960623Y-95443606D01*
X115960619Y-95443605D01*
X115960615Y-95443604D01*
X115835823Y-95424794D01*
X115701187Y-95404500D01*
X115701182Y-95404500D01*
X115438818Y-95404500D01*
X115438812Y-95404500D01*
X115277247Y-95428853D01*
X115179385Y-95443604D01*
X115179382Y-95443605D01*
X115179376Y-95443606D01*
X114928673Y-95520938D01*
X114692303Y-95634767D01*
X114692302Y-95634768D01*
X114475520Y-95782567D01*
X114283198Y-95961014D01*
X114119614Y-96166143D01*
X113988432Y-96393356D01*
X113892582Y-96637578D01*
X113892576Y-96637597D01*
X113834197Y-96893374D01*
X113834196Y-96893379D01*
X113814592Y-97154995D01*
X113814592Y-97155004D01*
X113834196Y-97416620D01*
X113834197Y-97416625D01*
X113892576Y-97672402D01*
X113892578Y-97672411D01*
X113892580Y-97672416D01*
X113988432Y-97916643D01*
X114119614Y-98143857D01*
X114227019Y-98278538D01*
X114283198Y-98348985D01*
X114434420Y-98489297D01*
X114475521Y-98527433D01*
X114692296Y-98675228D01*
X114692301Y-98675230D01*
X114692302Y-98675231D01*
X114692303Y-98675232D01*
X114784230Y-98719501D01*
X114928673Y-98789061D01*
X114928674Y-98789061D01*
X114928677Y-98789063D01*
X115179385Y-98866396D01*
X115438818Y-98905500D01*
X115701182Y-98905500D01*
X115960615Y-98866396D01*
X116033436Y-98843932D01*
X116103296Y-98842982D01*
X116157665Y-98874743D01*
X118348181Y-101065259D01*
X118381666Y-101126582D01*
X118384500Y-101152940D01*
X118384500Y-102473271D01*
X118376682Y-102516604D01*
X118340908Y-102612517D01*
X118339126Y-102620062D01*
X118336853Y-102619525D01*
X118314571Y-102673312D01*
X118257177Y-102713157D01*
X118218024Y-102719500D01*
X116371463Y-102719500D01*
X116347272Y-102717117D01*
X116327364Y-102713157D01*
X116283844Y-102704500D01*
X116283842Y-102704500D01*
X116126158Y-102704500D01*
X116126155Y-102704500D01*
X115971510Y-102735261D01*
X115971498Y-102735264D01*
X115825827Y-102795602D01*
X115825814Y-102795609D01*
X115694711Y-102883210D01*
X115694707Y-102883213D01*
X115583213Y-102994707D01*
X115583210Y-102994711D01*
X115495609Y-103125814D01*
X115495602Y-103125827D01*
X115435264Y-103271498D01*
X115435261Y-103271510D01*
X115404500Y-103426153D01*
X115404500Y-108663846D01*
X115435261Y-108818489D01*
X115435264Y-108818501D01*
X115495602Y-108964172D01*
X115495609Y-108964185D01*
X115583210Y-109095288D01*
X115583213Y-109095292D01*
X115694707Y-109206786D01*
X115694711Y-109206789D01*
X115825814Y-109294390D01*
X115825827Y-109294397D01*
X115971498Y-109354735D01*
X115971503Y-109354737D01*
X116126153Y-109385499D01*
X116126156Y-109385500D01*
X116126158Y-109385500D01*
X116283842Y-109385500D01*
X134872060Y-109385500D01*
X134939099Y-109405185D01*
X134959741Y-109421819D01*
X140133181Y-114595259D01*
X140166666Y-114656582D01*
X140169500Y-114682940D01*
X140169500Y-117907648D01*
X140149815Y-117974687D01*
X140097011Y-118020442D01*
X140058755Y-118030938D01*
X140012516Y-118035909D01*
X139877671Y-118086202D01*
X139877664Y-118086206D01*
X139762455Y-118172452D01*
X139762452Y-118172455D01*
X139676206Y-118287664D01*
X139676202Y-118287671D01*
X139625908Y-118422517D01*
X139619501Y-118482116D01*
X139619500Y-118482135D01*
X139619500Y-120277870D01*
X139619501Y-120277876D01*
X139625908Y-120337483D01*
X139676202Y-120472328D01*
X139676206Y-120472335D01*
X139762452Y-120587544D01*
X139762455Y-120587547D01*
X139877664Y-120673793D01*
X139877671Y-120673797D01*
X140009081Y-120722810D01*
X140065015Y-120764681D01*
X140089432Y-120830145D01*
X140074580Y-120898418D01*
X140053430Y-120926673D01*
X139931503Y-121048600D01*
X139795965Y-121242169D01*
X139795964Y-121242171D01*
X139696098Y-121456335D01*
X139696094Y-121456344D01*
X139634938Y-121684586D01*
X139634936Y-121684596D01*
X139614341Y-121919999D01*
X139614341Y-121920000D01*
X139634936Y-122155403D01*
X139634938Y-122155413D01*
X139696094Y-122383655D01*
X139696096Y-122383659D01*
X139696097Y-122383663D01*
X139775801Y-122554588D01*
X139795965Y-122597830D01*
X139795967Y-122597834D01*
X139904281Y-122752521D01*
X139931505Y-122791401D01*
X140098599Y-122958495D01*
X140195384Y-123026265D01*
X140292165Y-123094032D01*
X140292167Y-123094033D01*
X140292170Y-123094035D01*
X140506337Y-123193903D01*
X140734592Y-123255063D01*
X140922918Y-123271539D01*
X140969999Y-123275659D01*
X140970000Y-123275659D01*
X140970001Y-123275659D01*
X141009234Y-123272226D01*
X141205408Y-123255063D01*
X141433663Y-123193903D01*
X141647830Y-123094035D01*
X141841401Y-122958495D01*
X142008495Y-122791401D01*
X142138425Y-122605842D01*
X142193002Y-122562217D01*
X142262500Y-122555023D01*
X142324855Y-122586546D01*
X142341575Y-122605842D01*
X142471500Y-122791395D01*
X142471505Y-122791401D01*
X142638599Y-122958495D01*
X142735384Y-123026265D01*
X142832165Y-123094032D01*
X142832167Y-123094033D01*
X142832170Y-123094035D01*
X143046337Y-123193903D01*
X143274592Y-123255063D01*
X143462918Y-123271539D01*
X143509999Y-123275659D01*
X143510000Y-123275659D01*
X143510001Y-123275659D01*
X143549234Y-123272226D01*
X143745408Y-123255063D01*
X143973663Y-123193903D01*
X144187830Y-123094035D01*
X144381401Y-122958495D01*
X144548495Y-122791401D01*
X144678730Y-122605405D01*
X144733307Y-122561781D01*
X144802805Y-122554587D01*
X144865160Y-122586110D01*
X144881879Y-122605405D01*
X145011890Y-122791078D01*
X145178917Y-122958105D01*
X145372421Y-123093600D01*
X145586507Y-123193429D01*
X145586516Y-123193433D01*
X145800000Y-123250634D01*
X145800000Y-122353012D01*
X145857007Y-122385925D01*
X145984174Y-122420000D01*
X146115826Y-122420000D01*
X146242993Y-122385925D01*
X146300000Y-122353012D01*
X146300000Y-123250633D01*
X146513483Y-123193433D01*
X146513492Y-123193429D01*
X146727578Y-123093600D01*
X146921082Y-122958105D01*
X147088105Y-122791082D01*
X147218119Y-122605405D01*
X147272696Y-122561781D01*
X147342195Y-122554588D01*
X147404549Y-122586110D01*
X147421269Y-122605405D01*
X147551505Y-122791401D01*
X147718599Y-122958495D01*
X147815384Y-123026265D01*
X147912165Y-123094032D01*
X147912167Y-123094033D01*
X147912170Y-123094035D01*
X148126337Y-123193903D01*
X148354592Y-123255063D01*
X148542918Y-123271539D01*
X148589999Y-123275659D01*
X148590000Y-123275659D01*
X148590001Y-123275659D01*
X148629234Y-123272226D01*
X148825408Y-123255063D01*
X149053663Y-123193903D01*
X149267830Y-123094035D01*
X149461401Y-122958495D01*
X149628495Y-122791401D01*
X149758425Y-122605842D01*
X149813002Y-122562217D01*
X149882500Y-122555023D01*
X149944855Y-122586546D01*
X149961575Y-122605842D01*
X150091500Y-122791395D01*
X150091505Y-122791401D01*
X150258599Y-122958495D01*
X150355384Y-123026265D01*
X150452165Y-123094032D01*
X150452167Y-123094033D01*
X150452170Y-123094035D01*
X150666337Y-123193903D01*
X150894592Y-123255063D01*
X151082918Y-123271539D01*
X151129999Y-123275659D01*
X151130000Y-123275659D01*
X151130001Y-123275659D01*
X151169234Y-123272226D01*
X151365408Y-123255063D01*
X151593663Y-123193903D01*
X151807830Y-123094035D01*
X152001401Y-122958495D01*
X152168495Y-122791401D01*
X152298425Y-122605842D01*
X152353002Y-122562217D01*
X152422500Y-122555023D01*
X152484855Y-122586546D01*
X152501575Y-122605842D01*
X152631500Y-122791395D01*
X152631505Y-122791401D01*
X152798599Y-122958495D01*
X152895384Y-123026265D01*
X152992165Y-123094032D01*
X152992167Y-123094033D01*
X152992170Y-123094035D01*
X153206337Y-123193903D01*
X153434592Y-123255063D01*
X153622918Y-123271539D01*
X153669999Y-123275659D01*
X153670000Y-123275659D01*
X153670001Y-123275659D01*
X153709234Y-123272226D01*
X153905408Y-123255063D01*
X154133663Y-123193903D01*
X154347830Y-123094035D01*
X154541401Y-122958495D01*
X154708495Y-122791401D01*
X154838425Y-122605842D01*
X154893002Y-122562217D01*
X154962500Y-122555023D01*
X155024855Y-122586546D01*
X155041575Y-122605842D01*
X155171500Y-122791395D01*
X155171505Y-122791401D01*
X155338599Y-122958495D01*
X155435384Y-123026265D01*
X155532165Y-123094032D01*
X155532167Y-123094033D01*
X155532170Y-123094035D01*
X155746337Y-123193903D01*
X155974592Y-123255063D01*
X156162918Y-123271539D01*
X156209999Y-123275659D01*
X156210000Y-123275659D01*
X156210001Y-123275659D01*
X156249234Y-123272226D01*
X156445408Y-123255063D01*
X156673663Y-123193903D01*
X156887830Y-123094035D01*
X157081401Y-122958495D01*
X157248495Y-122791401D01*
X157378425Y-122605842D01*
X157433002Y-122562217D01*
X157502500Y-122555023D01*
X157564855Y-122586546D01*
X157581575Y-122605842D01*
X157711500Y-122791395D01*
X157711505Y-122791401D01*
X157878599Y-122958495D01*
X157975384Y-123026265D01*
X158072165Y-123094032D01*
X158072167Y-123094033D01*
X158072170Y-123094035D01*
X158286337Y-123193903D01*
X158514592Y-123255063D01*
X158702918Y-123271539D01*
X158749999Y-123275659D01*
X158750000Y-123275659D01*
X158750001Y-123275659D01*
X158789234Y-123272226D01*
X158985408Y-123255063D01*
X159213663Y-123193903D01*
X159427830Y-123094035D01*
X159621401Y-122958495D01*
X159788495Y-122791401D01*
X159924035Y-122597830D01*
X160023903Y-122383663D01*
X160085063Y-122155408D01*
X160105659Y-121920000D01*
X160085063Y-121684592D01*
X160023903Y-121456337D01*
X159924035Y-121242171D01*
X159918731Y-121234595D01*
X159788494Y-121048597D01*
X159621402Y-120881506D01*
X159621396Y-120881501D01*
X159435842Y-120751575D01*
X159392217Y-120696998D01*
X159385023Y-120627500D01*
X159416546Y-120565145D01*
X159435842Y-120548425D01*
X159458026Y-120532891D01*
X159621401Y-120418495D01*
X159788495Y-120251401D01*
X159924035Y-120057830D01*
X160023903Y-119843663D01*
X160085063Y-119615408D01*
X160105659Y-119380000D01*
X160085063Y-119144592D01*
X160023903Y-118916337D01*
X159924035Y-118702171D01*
X159918731Y-118694595D01*
X159788494Y-118508597D01*
X159621404Y-118341508D01*
X159621402Y-118341506D01*
X159621401Y-118341505D01*
X159603374Y-118328882D01*
X159559751Y-118274306D01*
X159550500Y-118227309D01*
X159550500Y-112777940D01*
X159570185Y-112710901D01*
X159586819Y-112690259D01*
X164125259Y-108151819D01*
X164186582Y-108118334D01*
X164212940Y-108115500D01*
X175973844Y-108115500D01*
X175973845Y-108115499D01*
X176128497Y-108084737D01*
X176274179Y-108024394D01*
X176405289Y-107936789D01*
X176516789Y-107825289D01*
X176604394Y-107694179D01*
X176664737Y-107548497D01*
X176678079Y-107481416D01*
X176710463Y-107419509D01*
X176711904Y-107418040D01*
X177033128Y-107096816D01*
X177094450Y-107063334D01*
X177120808Y-107060500D01*
X177908529Y-107060500D01*
X177975568Y-107080185D01*
X178021323Y-107132989D01*
X178028743Y-107160039D01*
X178029620Y-107159832D01*
X178031402Y-107167376D01*
X178081647Y-107302088D01*
X178081648Y-107302089D01*
X178162617Y-107410250D01*
X178476049Y-107096819D01*
X178537372Y-107063334D01*
X178563730Y-107060500D01*
X178637269Y-107060500D01*
X178704308Y-107080185D01*
X178750063Y-107132989D01*
X178760007Y-107202147D01*
X178730982Y-107265703D01*
X178724950Y-107272181D01*
X178441018Y-107556111D01*
X178441018Y-107556112D01*
X178477180Y-107559999D01*
X178477182Y-107560000D01*
X179272819Y-107560000D01*
X179272819Y-107559999D01*
X179308981Y-107556112D01*
X179025049Y-107272180D01*
X178991564Y-107210857D01*
X178996548Y-107141165D01*
X179038420Y-107085232D01*
X179103884Y-107060815D01*
X179112730Y-107060499D01*
X179186269Y-107060499D01*
X179253308Y-107080184D01*
X179273950Y-107096818D01*
X179607339Y-107430207D01*
X179640824Y-107491530D01*
X179635840Y-107561222D01*
X179624653Y-107583858D01*
X179614212Y-107600474D01*
X179614209Y-107600481D01*
X179554633Y-107770737D01*
X179554630Y-107770750D01*
X179534435Y-107949996D01*
X179534435Y-107950003D01*
X179554630Y-108129249D01*
X179554631Y-108129254D01*
X179614211Y-108299523D01*
X179710184Y-108452262D01*
X179710185Y-108452263D01*
X179755241Y-108497320D01*
X179788725Y-108558643D01*
X179783740Y-108628335D01*
X179755241Y-108672680D01*
X179710184Y-108717737D01*
X179614211Y-108870476D01*
X179554631Y-109040745D01*
X179554630Y-109040750D01*
X179534435Y-109219996D01*
X179534435Y-109220003D01*
X179554630Y-109399249D01*
X179554631Y-109399254D01*
X179614211Y-109569523D01*
X179695899Y-109699528D01*
X179714899Y-109766765D01*
X179694531Y-109833600D01*
X179641263Y-109878814D01*
X179590905Y-109889500D01*
X165020943Y-109889500D01*
X164868216Y-109930423D01*
X164868209Y-109930426D01*
X164731290Y-110009475D01*
X164731282Y-110009481D01*
X164619481Y-110121282D01*
X164619475Y-110121290D01*
X164540426Y-110258209D01*
X164540423Y-110258216D01*
X164499500Y-110410943D01*
X164499500Y-128815500D01*
X164479815Y-128882539D01*
X164427011Y-128928294D01*
X164375500Y-128939500D01*
X135384500Y-128939500D01*
X135317461Y-128919815D01*
X135271706Y-128867011D01*
X135260500Y-128815500D01*
X135260500Y-110410945D01*
X135260500Y-110410943D01*
X135219577Y-110258216D01*
X135219573Y-110258209D01*
X135140524Y-110121290D01*
X135140518Y-110121282D01*
X135028717Y-110009481D01*
X135028709Y-110009475D01*
X134891790Y-109930426D01*
X134891786Y-109930424D01*
X134891784Y-109930423D01*
X134739057Y-109889500D01*
X134739056Y-109889500D01*
X112484500Y-109889500D01*
X112417461Y-109869815D01*
X112371706Y-109817011D01*
X112360500Y-109765500D01*
X112360500Y-94747720D01*
X115790830Y-94747720D01*
X115962546Y-94864793D01*
X115962550Y-94864795D01*
X116198854Y-94978594D01*
X116198858Y-94978595D01*
X116449494Y-95055907D01*
X116449500Y-95055909D01*
X116708848Y-95094999D01*
X116708857Y-95095000D01*
X116971143Y-95095000D01*
X116971151Y-95094999D01*
X117230499Y-95055909D01*
X117230505Y-95055907D01*
X117481143Y-94978595D01*
X117717445Y-94864798D01*
X117717447Y-94864797D01*
X117889168Y-94747720D01*
X116840000Y-93698553D01*
X115790830Y-94747720D01*
X112360500Y-94747720D01*
X112360500Y-93345004D01*
X115085093Y-93345004D01*
X115104692Y-93606545D01*
X115104693Y-93606550D01*
X115163058Y-93862270D01*
X115258883Y-94106426D01*
X115258882Y-94106426D01*
X115390027Y-94333573D01*
X115437874Y-94393571D01*
X116486447Y-93345000D01*
X117193553Y-93345000D01*
X118242125Y-94393572D01*
X118289971Y-94333573D01*
X118421116Y-94106426D01*
X118516941Y-93862270D01*
X118575306Y-93606550D01*
X118575307Y-93606545D01*
X118594907Y-93345004D01*
X118594907Y-93344995D01*
X118575307Y-93083454D01*
X118575306Y-93083449D01*
X118516941Y-92827729D01*
X118421116Y-92583573D01*
X118421117Y-92583573D01*
X118289972Y-92356426D01*
X118242124Y-92296427D01*
X117193553Y-93344999D01*
X117193553Y-93345000D01*
X116486447Y-93345000D01*
X116486447Y-93344999D01*
X115437874Y-92296427D01*
X115390028Y-92356425D01*
X115258883Y-92583573D01*
X115163058Y-92827729D01*
X115104693Y-93083449D01*
X115104692Y-93083454D01*
X115085093Y-93344995D01*
X115085093Y-93345004D01*
X112360500Y-93345004D01*
X112360500Y-91942277D01*
X115790830Y-91942277D01*
X116840000Y-92991447D01*
X116840001Y-92991447D01*
X117889168Y-91942278D01*
X117717454Y-91825206D01*
X117717445Y-91825201D01*
X117481142Y-91711404D01*
X117481144Y-91711404D01*
X117230505Y-91634092D01*
X117230499Y-91634090D01*
X116971151Y-91595000D01*
X116708848Y-91595000D01*
X116449500Y-91634090D01*
X116449494Y-91634092D01*
X116198858Y-91711404D01*
X116198854Y-91711405D01*
X115962547Y-91825205D01*
X115962539Y-91825210D01*
X115790830Y-91942277D01*
X112360500Y-91942277D01*
X112360500Y-90894500D01*
X112380185Y-90827461D01*
X112432989Y-90781706D01*
X112484500Y-90770500D01*
X124333060Y-90770500D01*
X124400099Y-90790185D01*
G37*
%TD.AperFunction*%
%TA.AperFunction,Conductor*%
G36*
X146300000Y-121486988D02*
G01*
X146242993Y-121454075D01*
X146115826Y-121420000D01*
X145984174Y-121420000D01*
X145857007Y-121454075D01*
X145800000Y-121486988D01*
X145800000Y-119813012D01*
X145857007Y-119845925D01*
X145984174Y-119880000D01*
X146115826Y-119880000D01*
X146242993Y-119845925D01*
X146300000Y-119813012D01*
X146300000Y-121486988D01*
G37*
%TD.AperFunction*%
%TA.AperFunction,Conductor*%
G36*
X144014257Y-105795185D02*
G01*
X144034899Y-105811819D01*
X145013181Y-106790101D01*
X145046666Y-106851424D01*
X145049500Y-106877782D01*
X145049500Y-112931459D01*
X145049500Y-113128541D01*
X145049500Y-113128543D01*
X145049499Y-113128543D01*
X145087947Y-113321829D01*
X145087950Y-113321839D01*
X145163364Y-113503907D01*
X145163371Y-113503920D01*
X145272860Y-113667781D01*
X145272863Y-113667785D01*
X145412214Y-113807136D01*
X145412218Y-113807139D01*
X145576079Y-113916628D01*
X145576092Y-113916635D01*
X145758160Y-113992049D01*
X145758165Y-113992051D01*
X145758169Y-113992051D01*
X145758170Y-113992052D01*
X145951456Y-114030500D01*
X145951459Y-114030500D01*
X152545500Y-114030500D01*
X152612539Y-114050185D01*
X152658294Y-114102989D01*
X152669500Y-114154500D01*
X152669500Y-118419241D01*
X152649815Y-118486280D01*
X152633181Y-118506922D01*
X152631505Y-118508597D01*
X152501575Y-118694158D01*
X152446998Y-118737783D01*
X152377500Y-118744977D01*
X152315145Y-118713454D01*
X152298425Y-118694158D01*
X152168494Y-118508597D01*
X152001402Y-118341506D01*
X152001395Y-118341501D01*
X151807834Y-118205967D01*
X151807830Y-118205965D01*
X151807828Y-118205964D01*
X151593663Y-118106097D01*
X151593659Y-118106096D01*
X151593655Y-118106094D01*
X151365413Y-118044938D01*
X151365403Y-118044936D01*
X151130001Y-118024341D01*
X151129999Y-118024341D01*
X150894596Y-118044936D01*
X150894586Y-118044938D01*
X150666344Y-118106094D01*
X150666335Y-118106098D01*
X150452171Y-118205964D01*
X150452169Y-118205965D01*
X150258597Y-118341505D01*
X150091505Y-118508597D01*
X149961575Y-118694158D01*
X149906998Y-118737783D01*
X149837500Y-118744977D01*
X149775145Y-118713454D01*
X149758425Y-118694158D01*
X149628494Y-118508597D01*
X149626819Y-118506922D01*
X149626315Y-118506000D01*
X149625014Y-118504449D01*
X149625325Y-118504187D01*
X149593334Y-118445599D01*
X149590500Y-118419241D01*
X149590500Y-116106456D01*
X149552052Y-115913170D01*
X149552051Y-115913169D01*
X149552051Y-115913165D01*
X149552049Y-115913160D01*
X149476635Y-115731092D01*
X149476628Y-115731079D01*
X149367139Y-115567218D01*
X149367136Y-115567214D01*
X149227785Y-115427863D01*
X149227781Y-115427860D01*
X149063920Y-115318371D01*
X149063907Y-115318364D01*
X148881839Y-115242950D01*
X148881829Y-115242947D01*
X148688543Y-115204500D01*
X148688541Y-115204500D01*
X148491459Y-115204500D01*
X148491457Y-115204500D01*
X148298170Y-115242947D01*
X148298160Y-115242950D01*
X148116092Y-115318364D01*
X148116079Y-115318371D01*
X147952218Y-115427860D01*
X147952214Y-115427863D01*
X147812863Y-115567214D01*
X147812860Y-115567218D01*
X147703371Y-115731079D01*
X147703364Y-115731092D01*
X147627950Y-115913160D01*
X147627947Y-115913170D01*
X147589500Y-116106456D01*
X147589500Y-118419241D01*
X147569815Y-118486280D01*
X147553181Y-118506922D01*
X147551508Y-118508594D01*
X147421269Y-118694595D01*
X147366692Y-118738219D01*
X147297193Y-118745412D01*
X147234839Y-118713890D01*
X147218119Y-118694594D01*
X147088113Y-118508926D01*
X147088108Y-118508920D01*
X146921082Y-118341894D01*
X146727578Y-118206399D01*
X146513492Y-118106570D01*
X146513486Y-118106567D01*
X146300000Y-118049364D01*
X146300000Y-118946988D01*
X146242993Y-118914075D01*
X146115826Y-118880000D01*
X145984174Y-118880000D01*
X145857007Y-118914075D01*
X145800000Y-118946988D01*
X145800000Y-118049364D01*
X145799999Y-118049364D01*
X145586513Y-118106567D01*
X145586507Y-118106570D01*
X145372422Y-118206399D01*
X145372420Y-118206400D01*
X145178926Y-118341886D01*
X145178920Y-118341891D01*
X145011891Y-118508920D01*
X145011890Y-118508922D01*
X144881880Y-118694595D01*
X144827303Y-118738219D01*
X144757804Y-118745412D01*
X144695450Y-118713890D01*
X144678730Y-118694594D01*
X144548494Y-118508597D01*
X144381404Y-118341508D01*
X144381402Y-118341506D01*
X144381401Y-118341505D01*
X144363374Y-118328882D01*
X144319751Y-118274306D01*
X144310500Y-118227309D01*
X144310500Y-114856155D01*
X144310499Y-114856153D01*
X144279738Y-114701510D01*
X144279737Y-114701503D01*
X144261130Y-114656582D01*
X144219397Y-114555827D01*
X144219390Y-114555814D01*
X144131790Y-114424712D01*
X144131789Y-114424711D01*
X144020289Y-114313211D01*
X137353884Y-107646806D01*
X137320399Y-107585483D01*
X137325383Y-107515791D01*
X137367255Y-107459858D01*
X137432719Y-107435441D01*
X137445367Y-107435611D01*
X137445367Y-107435500D01*
X141313543Y-107435500D01*
X141443582Y-107409632D01*
X141506835Y-107397051D01*
X141688914Y-107321632D01*
X141852782Y-107212139D01*
X141992139Y-107072782D01*
X142101632Y-106908914D01*
X142177051Y-106726835D01*
X142200714Y-106607873D01*
X142215500Y-106533543D01*
X142215500Y-105899500D01*
X142235185Y-105832461D01*
X142287989Y-105786706D01*
X142339500Y-105775500D01*
X143947218Y-105775500D01*
X144014257Y-105795185D01*
G37*
%TD.AperFunction*%
%TA.AperFunction,Conductor*%
G36*
X159610468Y-100080185D02*
G01*
X159656223Y-100132989D01*
X159666167Y-100202147D01*
X159642695Y-100258811D01*
X159561206Y-100367664D01*
X159561202Y-100367671D01*
X159510908Y-100502517D01*
X159504501Y-100562116D01*
X159504501Y-100562123D01*
X159504500Y-100562131D01*
X159504500Y-101557870D01*
X159504501Y-101557876D01*
X159510908Y-101617483D01*
X159561202Y-101752328D01*
X159561206Y-101752335D01*
X159647452Y-101867544D01*
X159647455Y-101867547D01*
X159762664Y-101953793D01*
X159762671Y-101953797D01*
X159897517Y-102004091D01*
X159897516Y-102004091D01*
X159904444Y-102004835D01*
X159957127Y-102010500D01*
X162052872Y-102010499D01*
X162112483Y-102004091D01*
X162247331Y-101953796D01*
X162362546Y-101867546D01*
X162448796Y-101752331D01*
X162499091Y-101617483D01*
X162505500Y-101557873D01*
X162505499Y-100562128D01*
X162499091Y-100502517D01*
X162498029Y-100499670D01*
X162448797Y-100367671D01*
X162448793Y-100367664D01*
X162367305Y-100258811D01*
X162342887Y-100193347D01*
X162357738Y-100125074D01*
X162407143Y-100075668D01*
X162466571Y-100060500D01*
X163520551Y-100060500D01*
X163587590Y-100080185D01*
X163633345Y-100132989D01*
X163643289Y-100202147D01*
X163614264Y-100265703D01*
X163565345Y-100300127D01*
X163512364Y-100320651D01*
X163512357Y-100320655D01*
X163338960Y-100428017D01*
X163338958Y-100428019D01*
X163188237Y-100565418D01*
X163065327Y-100728178D01*
X162974422Y-100910739D01*
X162974417Y-100910752D01*
X162918602Y-101106917D01*
X162899785Y-101309999D01*
X162899785Y-101310000D01*
X162918602Y-101513082D01*
X162974417Y-101709247D01*
X162974422Y-101709260D01*
X163065327Y-101891821D01*
X163188237Y-102054581D01*
X163338958Y-102191980D01*
X163338960Y-102191982D01*
X163347890Y-102197511D01*
X163512363Y-102299348D01*
X163702544Y-102373024D01*
X163903024Y-102410500D01*
X163903026Y-102410500D01*
X164106974Y-102410500D01*
X164106976Y-102410500D01*
X164307456Y-102373024D01*
X164497637Y-102299348D01*
X164671041Y-102191981D01*
X164821764Y-102054579D01*
X164944673Y-101891821D01*
X165035582Y-101709250D01*
X165091397Y-101513083D01*
X165110215Y-101310000D01*
X165109447Y-101301717D01*
X165091397Y-101106917D01*
X165087867Y-101094511D01*
X165035582Y-100910750D01*
X165034162Y-100907899D01*
X164990503Y-100820218D01*
X164944673Y-100728179D01*
X164834003Y-100581628D01*
X164821762Y-100565418D01*
X164671041Y-100428019D01*
X164671039Y-100428017D01*
X164497642Y-100320655D01*
X164497635Y-100320651D01*
X164444655Y-100300127D01*
X164389253Y-100257554D01*
X164365663Y-100191787D01*
X164381374Y-100123707D01*
X164431398Y-100074928D01*
X164489449Y-100060500D01*
X165543429Y-100060500D01*
X165610468Y-100080185D01*
X165656223Y-100132989D01*
X165666167Y-100202147D01*
X165642695Y-100258811D01*
X165561206Y-100367664D01*
X165561202Y-100367671D01*
X165510908Y-100502517D01*
X165504501Y-100562116D01*
X165504501Y-100562123D01*
X165504500Y-100562131D01*
X165504500Y-101557870D01*
X165504501Y-101557876D01*
X165510908Y-101617483D01*
X165561202Y-101752328D01*
X165561206Y-101752335D01*
X165647452Y-101867544D01*
X165647455Y-101867547D01*
X165762664Y-101953793D01*
X165762671Y-101953797D01*
X165897517Y-102004091D01*
X165897516Y-102004091D01*
X165904444Y-102004835D01*
X165957127Y-102010500D01*
X168052872Y-102010499D01*
X168112483Y-102004091D01*
X168247331Y-101953796D01*
X168362546Y-101867546D01*
X168448796Y-101752331D01*
X168499091Y-101617483D01*
X168505500Y-101557873D01*
X168505499Y-101019779D01*
X168525183Y-100952742D01*
X168577987Y-100906987D01*
X168647146Y-100897043D01*
X168710702Y-100926068D01*
X168717180Y-100932100D01*
X170415009Y-102629929D01*
X170448494Y-102691252D01*
X170449896Y-102699022D01*
X170490503Y-102837313D01*
X170548354Y-102963988D01*
X170558298Y-103033147D01*
X170529273Y-103096703D01*
X170470495Y-103134477D01*
X170435560Y-103139500D01*
X159921457Y-103139500D01*
X159728170Y-103177947D01*
X159728160Y-103177950D01*
X159546092Y-103253364D01*
X159546079Y-103253371D01*
X159382218Y-103362860D01*
X159382214Y-103362863D01*
X159242863Y-103502214D01*
X159242860Y-103502218D01*
X159133371Y-103666079D01*
X159133364Y-103666092D01*
X159057950Y-103848160D01*
X159057947Y-103848170D01*
X159019500Y-104041456D01*
X159019500Y-106214218D01*
X158999815Y-106281257D01*
X158983181Y-106301899D01*
X158371899Y-106913181D01*
X158310576Y-106946666D01*
X158284218Y-106949500D01*
X149126457Y-106949500D01*
X148933170Y-106987947D01*
X148933160Y-106987950D01*
X148751092Y-107063364D01*
X148751079Y-107063371D01*
X148587218Y-107172860D01*
X148587214Y-107172863D01*
X148447863Y-107312214D01*
X148447860Y-107312218D01*
X148338371Y-107476079D01*
X148338364Y-107476092D01*
X148262950Y-107658160D01*
X148262947Y-107658170D01*
X148224500Y-107851456D01*
X148224500Y-107851459D01*
X148224500Y-108048541D01*
X148224500Y-108048543D01*
X148224499Y-108048543D01*
X148262947Y-108241829D01*
X148262950Y-108241839D01*
X148338364Y-108423907D01*
X148338371Y-108423920D01*
X148447860Y-108587781D01*
X148447863Y-108587785D01*
X148587214Y-108727136D01*
X148587218Y-108727139D01*
X148751079Y-108836628D01*
X148751092Y-108836635D01*
X148933160Y-108912049D01*
X148933165Y-108912051D01*
X148933169Y-108912051D01*
X148933170Y-108912052D01*
X149126456Y-108950500D01*
X158854633Y-108950500D01*
X158854633Y-108952311D01*
X158914904Y-108963730D01*
X158965623Y-109011785D01*
X158982311Y-109079633D01*
X158959668Y-109145732D01*
X158946114Y-109161806D01*
X156202422Y-111905500D01*
X155699711Y-112408211D01*
X155643960Y-112463962D01*
X155588209Y-112519712D01*
X155500609Y-112650814D01*
X155500602Y-112650827D01*
X155440264Y-112796498D01*
X155440261Y-112796510D01*
X155409500Y-112951153D01*
X155409500Y-118227309D01*
X155389815Y-118294348D01*
X155356625Y-118328883D01*
X155338601Y-118341503D01*
X155338595Y-118341508D01*
X155171505Y-118508597D01*
X155041575Y-118694158D01*
X154986998Y-118737783D01*
X154917500Y-118744977D01*
X154855145Y-118713454D01*
X154838425Y-118694158D01*
X154708494Y-118508597D01*
X154706819Y-118506922D01*
X154706315Y-118506000D01*
X154705014Y-118504449D01*
X154705325Y-118504187D01*
X154673334Y-118445599D01*
X154670500Y-118419241D01*
X154670500Y-112931456D01*
X154632052Y-112738170D01*
X154632051Y-112738169D01*
X154632051Y-112738165D01*
X154627252Y-112726578D01*
X154556635Y-112556092D01*
X154556628Y-112556079D01*
X154447139Y-112392218D01*
X154447136Y-112392214D01*
X154307785Y-112252863D01*
X154307781Y-112252860D01*
X154143920Y-112143371D01*
X154143907Y-112143364D01*
X153961839Y-112067950D01*
X153961829Y-112067947D01*
X153768543Y-112029500D01*
X153768541Y-112029500D01*
X147174500Y-112029500D01*
X147107461Y-112009815D01*
X147061706Y-111957011D01*
X147050500Y-111905500D01*
X147050500Y-106516675D01*
X147050501Y-106516654D01*
X147050501Y-106313457D01*
X147050500Y-106313455D01*
X147037497Y-106248087D01*
X147012052Y-106120165D01*
X146936632Y-105938086D01*
X146936631Y-105938085D01*
X146936628Y-105938079D01*
X146827140Y-105774219D01*
X146827137Y-105774215D01*
X146335602Y-105282681D01*
X146302117Y-105221358D01*
X146307101Y-105151667D01*
X146348972Y-105095733D01*
X146414437Y-105071316D01*
X146423283Y-105071000D01*
X148429326Y-105071000D01*
X148438221Y-105070043D01*
X148506981Y-105082444D01*
X148558122Y-105130050D01*
X148574775Y-105180078D01*
X148580408Y-105232483D01*
X148630702Y-105367328D01*
X148630706Y-105367335D01*
X148716952Y-105482544D01*
X148716955Y-105482547D01*
X148832164Y-105568793D01*
X148832171Y-105568797D01*
X148863723Y-105580565D01*
X148967017Y-105619091D01*
X149026627Y-105625500D01*
X149271395Y-105625499D01*
X149338434Y-105645183D01*
X149340263Y-105646382D01*
X149363086Y-105661632D01*
X149363089Y-105661633D01*
X149363090Y-105661634D01*
X149545160Y-105737049D01*
X149545165Y-105737051D01*
X149545169Y-105737051D01*
X149545170Y-105737052D01*
X149738456Y-105775500D01*
X149738459Y-105775500D01*
X151671479Y-105775500D01*
X151738518Y-105795185D01*
X151770746Y-105825190D01*
X151802449Y-105867541D01*
X151802452Y-105867544D01*
X151802454Y-105867546D01*
X151802457Y-105867548D01*
X151917664Y-105953793D01*
X151917671Y-105953797D01*
X152052517Y-106004091D01*
X152052516Y-106004091D01*
X152059444Y-106004835D01*
X152112127Y-106010500D01*
X153177872Y-106010499D01*
X153237483Y-106004091D01*
X153372331Y-105953796D01*
X153401107Y-105932253D01*
X153466566Y-105907837D01*
X153534839Y-105922687D01*
X153549728Y-105932255D01*
X153577908Y-105953351D01*
X153712623Y-106003597D01*
X153712627Y-106003598D01*
X153772155Y-106009999D01*
X153772172Y-106010000D01*
X154837828Y-106010000D01*
X154837844Y-106009999D01*
X154897372Y-106003598D01*
X154897376Y-106003597D01*
X155032090Y-105953351D01*
X155087967Y-105911520D01*
X154039128Y-104862681D01*
X154005643Y-104801358D01*
X154010627Y-104731666D01*
X154039128Y-104687319D01*
X154217318Y-104509128D01*
X154278641Y-104475643D01*
X154348332Y-104480627D01*
X154392680Y-104509128D01*
X155289999Y-105406447D01*
X155290000Y-105406446D01*
X155290000Y-104082046D01*
X155309685Y-104015007D01*
X155362489Y-103969252D01*
X155431647Y-103959308D01*
X155495203Y-103988333D01*
X155510942Y-104004728D01*
X155540232Y-104041456D01*
X155558198Y-104063985D01*
X155720298Y-104214390D01*
X155750521Y-104242433D01*
X155967296Y-104390228D01*
X155967301Y-104390230D01*
X155967302Y-104390231D01*
X155967303Y-104390232D01*
X156040489Y-104425476D01*
X156203673Y-104504061D01*
X156203674Y-104504061D01*
X156203677Y-104504063D01*
X156454385Y-104581396D01*
X156713818Y-104620500D01*
X156976182Y-104620500D01*
X157235615Y-104581396D01*
X157486323Y-104504063D01*
X157722704Y-104390228D01*
X157939479Y-104242433D01*
X158112336Y-104082046D01*
X158131801Y-104063985D01*
X158131801Y-104063983D01*
X158131805Y-104063981D01*
X158295386Y-103858857D01*
X158426568Y-103631643D01*
X158522420Y-103387416D01*
X158580802Y-103131630D01*
X158581237Y-103125827D01*
X158600408Y-102870004D01*
X158600408Y-102869995D01*
X158580803Y-102608379D01*
X158580802Y-102608374D01*
X158580802Y-102608370D01*
X158522420Y-102352584D01*
X158426568Y-102108357D01*
X158295386Y-101881143D01*
X158131805Y-101676019D01*
X158131804Y-101676018D01*
X158131801Y-101676014D01*
X157939479Y-101497567D01*
X157892096Y-101465262D01*
X157722704Y-101349772D01*
X157722701Y-101349771D01*
X157722699Y-101349769D01*
X157715698Y-101346398D01*
X157663838Y-101299575D01*
X157645500Y-101234678D01*
X157645500Y-100184500D01*
X157665185Y-100117461D01*
X157717989Y-100071706D01*
X157769500Y-100060500D01*
X159543429Y-100060500D01*
X159610468Y-100080185D01*
G37*
%TD.AperFunction*%
%TA.AperFunction,Conductor*%
G36*
X143087539Y-93500185D02*
G01*
X143133294Y-93552989D01*
X143144500Y-93604500D01*
X143144500Y-98523542D01*
X143156092Y-98581817D01*
X143156092Y-98581818D01*
X143182947Y-98716828D01*
X143182950Y-98716840D01*
X143196795Y-98750264D01*
X143258364Y-98898907D01*
X143258371Y-98898920D01*
X143367860Y-99062781D01*
X143367863Y-99062785D01*
X143511537Y-99206459D01*
X143511559Y-99206479D01*
X144208399Y-99903319D01*
X144241884Y-99964642D01*
X144236900Y-100034334D01*
X144195028Y-100090267D01*
X144129564Y-100114684D01*
X144120718Y-100115000D01*
X143916552Y-100115000D01*
X144678871Y-100877319D01*
X144712356Y-100938642D01*
X144707372Y-101008334D01*
X144678872Y-101052681D01*
X144533373Y-101198181D01*
X144472050Y-101231666D01*
X144445691Y-101234500D01*
X144380309Y-101234500D01*
X144313270Y-101214815D01*
X144292628Y-101198181D01*
X143327021Y-100232573D01*
X143293309Y-100257812D01*
X143207147Y-100372911D01*
X143207145Y-100372913D01*
X143156903Y-100507620D01*
X143156901Y-100507627D01*
X143150500Y-100567155D01*
X143150500Y-101110500D01*
X143130815Y-101177539D01*
X143078011Y-101223294D01*
X143026500Y-101234500D01*
X142459499Y-101234500D01*
X142392460Y-101214815D01*
X142346705Y-101162011D01*
X142335499Y-101110500D01*
X142335499Y-100827129D01*
X142335498Y-100827123D01*
X142329091Y-100767516D01*
X142278797Y-100632671D01*
X142278793Y-100632664D01*
X142192547Y-100517455D01*
X142192544Y-100517452D01*
X142077335Y-100431206D01*
X142077328Y-100431202D01*
X141942482Y-100380908D01*
X141942483Y-100380908D01*
X141882883Y-100374501D01*
X141882881Y-100374500D01*
X141882873Y-100374500D01*
X141882864Y-100374500D01*
X140787129Y-100374500D01*
X140787123Y-100374501D01*
X140727516Y-100380908D01*
X140592671Y-100431202D01*
X140592664Y-100431206D01*
X140477455Y-100517452D01*
X140472324Y-100522584D01*
X140411001Y-100556069D01*
X140341309Y-100551085D01*
X140296962Y-100522584D01*
X140292187Y-100517809D01*
X140177093Y-100431649D01*
X140177086Y-100431645D01*
X140042379Y-100381403D01*
X140042372Y-100381401D01*
X139982844Y-100375000D01*
X138887155Y-100375000D01*
X138827627Y-100381401D01*
X138827620Y-100381403D01*
X138692913Y-100431645D01*
X138692910Y-100431647D01*
X138651328Y-100462775D01*
X139700872Y-101512319D01*
X139734357Y-101573642D01*
X139729373Y-101643334D01*
X139700872Y-101687681D01*
X138651329Y-102737223D01*
X138692909Y-102768351D01*
X138827623Y-102818597D01*
X138827627Y-102818598D01*
X138887155Y-102824999D01*
X138887172Y-102825000D01*
X139982828Y-102825000D01*
X139982844Y-102824999D01*
X140042372Y-102818598D01*
X140042379Y-102818596D01*
X140177086Y-102768354D01*
X140177093Y-102768350D01*
X140292187Y-102682190D01*
X140296962Y-102677416D01*
X140358285Y-102643931D01*
X140427977Y-102648915D01*
X140472324Y-102677416D01*
X140477455Y-102682547D01*
X140592664Y-102768793D01*
X140592671Y-102768797D01*
X140620582Y-102779207D01*
X140727517Y-102819091D01*
X140787127Y-102825500D01*
X141094215Y-102825499D01*
X141161254Y-102845183D01*
X141181896Y-102861818D01*
X141332215Y-103012137D01*
X141332219Y-103012140D01*
X141496079Y-103121628D01*
X141496088Y-103121633D01*
X141520199Y-103131620D01*
X141678165Y-103197052D01*
X141871455Y-103235500D01*
X141871458Y-103235501D01*
X141871460Y-103235501D01*
X142074655Y-103235501D01*
X142074675Y-103235500D01*
X143026500Y-103235500D01*
X143093539Y-103255185D01*
X143139294Y-103307989D01*
X143150500Y-103359500D01*
X143150500Y-103650500D01*
X143130815Y-103717539D01*
X143078011Y-103763294D01*
X143026500Y-103774500D01*
X142188521Y-103774500D01*
X142121482Y-103754815D01*
X142089254Y-103724810D01*
X142057550Y-103682458D01*
X142057547Y-103682455D01*
X142057546Y-103682454D01*
X142035672Y-103666079D01*
X141942335Y-103596206D01*
X141942328Y-103596202D01*
X141807482Y-103545908D01*
X141807483Y-103545908D01*
X141747883Y-103539501D01*
X141747881Y-103539500D01*
X141747873Y-103539500D01*
X141747864Y-103539500D01*
X140682129Y-103539500D01*
X140682123Y-103539501D01*
X140622516Y-103545908D01*
X140487671Y-103596202D01*
X140487665Y-103596205D01*
X140458892Y-103617745D01*
X140393428Y-103642161D01*
X140325155Y-103627308D01*
X140310274Y-103617745D01*
X140282092Y-103596648D01*
X140282086Y-103596645D01*
X140147379Y-103546403D01*
X140147372Y-103546401D01*
X140087844Y-103540000D01*
X139022155Y-103540000D01*
X138962627Y-103546401D01*
X138962620Y-103546403D01*
X138827913Y-103596645D01*
X138827910Y-103596647D01*
X138772030Y-103638477D01*
X139820872Y-104687319D01*
X139854357Y-104748642D01*
X139849373Y-104818334D01*
X139820872Y-104862681D01*
X139642681Y-105040871D01*
X139581358Y-105074356D01*
X139511666Y-105069372D01*
X139467319Y-105040871D01*
X138570000Y-104143552D01*
X138570000Y-105310500D01*
X138550315Y-105377539D01*
X138497511Y-105423294D01*
X138446000Y-105434500D01*
X138284500Y-105434500D01*
X138217461Y-105414815D01*
X138171706Y-105362011D01*
X138160500Y-105310500D01*
X138160500Y-100953552D01*
X138435000Y-100953552D01*
X138435000Y-102246447D01*
X139081447Y-101600000D01*
X139081447Y-101599999D01*
X138435000Y-100953552D01*
X138160500Y-100953552D01*
X138160500Y-94325782D01*
X138180185Y-94258743D01*
X138196820Y-94238100D01*
X138253189Y-94181731D01*
X138253197Y-94181721D01*
X138512822Y-93922098D01*
X138574142Y-93888616D01*
X138643834Y-93893600D01*
X138699767Y-93935472D01*
X138724184Y-94000936D01*
X138724500Y-94009782D01*
X138724500Y-94058563D01*
X138722117Y-94082754D01*
X138699500Y-94196455D01*
X138699500Y-95538964D01*
X138679815Y-95606003D01*
X138649812Y-95638230D01*
X138617457Y-95662450D01*
X138617451Y-95662457D01*
X138531206Y-95777664D01*
X138531202Y-95777671D01*
X138480908Y-95912517D01*
X138475694Y-95961019D01*
X138474501Y-95972123D01*
X138474500Y-95972135D01*
X138474500Y-97067870D01*
X138474501Y-97067876D01*
X138480908Y-97127483D01*
X138531202Y-97262328D01*
X138531206Y-97262335D01*
X138617452Y-97377544D01*
X138622227Y-97382319D01*
X138655712Y-97443642D01*
X138650728Y-97513334D01*
X138622227Y-97557681D01*
X138617452Y-97562455D01*
X138531206Y-97677664D01*
X138531202Y-97677671D01*
X138480908Y-97812517D01*
X138474501Y-97872116D01*
X138474500Y-97872135D01*
X138474500Y-98967870D01*
X138474501Y-98967876D01*
X138480908Y-99027483D01*
X138531202Y-99162328D01*
X138531206Y-99162335D01*
X138617452Y-99277544D01*
X138617455Y-99277547D01*
X138732664Y-99363793D01*
X138732671Y-99363797D01*
X138758475Y-99373421D01*
X138867517Y-99414091D01*
X138927127Y-99420500D01*
X139591456Y-99420499D01*
X139591470Y-99420500D01*
X139601459Y-99420500D01*
X141469111Y-99420500D01*
X141493303Y-99422883D01*
X141506458Y-99425499D01*
X141506459Y-99425500D01*
X141506460Y-99425500D01*
X141703542Y-99425500D01*
X141703543Y-99425499D01*
X141896836Y-99387051D01*
X142078914Y-99311631D01*
X142242781Y-99202139D01*
X142382139Y-99062781D01*
X142491631Y-98898914D01*
X142567051Y-98716836D01*
X142605500Y-98523540D01*
X142605500Y-98326460D01*
X142605500Y-98326457D01*
X142605499Y-98326455D01*
X142596828Y-98282861D01*
X142567051Y-98133164D01*
X142491631Y-97951086D01*
X142491629Y-97951083D01*
X142491627Y-97951079D01*
X142382139Y-97787219D01*
X142381485Y-97786565D01*
X142381470Y-97786548D01*
X142237785Y-97642863D01*
X142237781Y-97642860D01*
X142073920Y-97533371D01*
X142073907Y-97533364D01*
X141935907Y-97476204D01*
X141891836Y-97457949D01*
X141891828Y-97457947D01*
X141795188Y-97438724D01*
X141698544Y-97419500D01*
X141698541Y-97419500D01*
X140988769Y-97419500D01*
X140921730Y-97399815D01*
X140875975Y-97347011D01*
X140866031Y-97277853D01*
X140872587Y-97252167D01*
X140908828Y-97155000D01*
X140919091Y-97127483D01*
X140925500Y-97067873D01*
X140925499Y-95972128D01*
X140919091Y-95912517D01*
X140910908Y-95890578D01*
X140868797Y-95777671D01*
X140868793Y-95777664D01*
X140782548Y-95662457D01*
X140782546Y-95662454D01*
X140782544Y-95662452D01*
X140782542Y-95662450D01*
X140750188Y-95638230D01*
X140708318Y-95582296D01*
X140700500Y-95538964D01*
X140700500Y-94196456D01*
X140677882Y-94082752D01*
X140675499Y-94058560D01*
X140675499Y-93797129D01*
X140675498Y-93797123D01*
X140674849Y-93791086D01*
X140669091Y-93737517D01*
X140654671Y-93698856D01*
X140635641Y-93647833D01*
X140630657Y-93578142D01*
X140664142Y-93516819D01*
X140725465Y-93483334D01*
X140751823Y-93480500D01*
X143020500Y-93480500D01*
X143087539Y-93500185D01*
G37*
%TD.AperFunction*%
%TA.AperFunction,Conductor*%
G36*
X180558334Y-103066258D02*
G01*
X180602681Y-103094759D01*
X181523211Y-104015289D01*
X181589968Y-104082046D01*
X181634712Y-104126790D01*
X181765814Y-104214390D01*
X181765827Y-104214397D01*
X181906677Y-104272738D01*
X181911503Y-104274737D01*
X182065650Y-104305399D01*
X182066153Y-104305499D01*
X182066156Y-104305500D01*
X182066158Y-104305500D01*
X182617868Y-104305500D01*
X182646380Y-104308822D01*
X182647509Y-104309088D01*
X182647517Y-104309091D01*
X182707127Y-104315500D01*
X183402872Y-104315499D01*
X183462483Y-104309091D01*
X183472381Y-104305398D01*
X183542073Y-104300415D01*
X183559050Y-104305400D01*
X183567624Y-104308598D01*
X183627155Y-104314999D01*
X183627172Y-104315000D01*
X184322828Y-104315000D01*
X184322844Y-104314999D01*
X184382372Y-104308598D01*
X184382376Y-104308597D01*
X184452166Y-104282567D01*
X184521857Y-104277583D01*
X184583181Y-104311067D01*
X184616666Y-104372390D01*
X184619500Y-104398749D01*
X184619500Y-104485500D01*
X184599815Y-104552539D01*
X184547011Y-104598294D01*
X184495500Y-104609500D01*
X180896155Y-104609500D01*
X180741510Y-104640261D01*
X180741498Y-104640264D01*
X180595828Y-104700602D01*
X180595817Y-104700608D01*
X180485557Y-104774281D01*
X180460002Y-104787359D01*
X180420264Y-104802181D01*
X180376929Y-104810000D01*
X179799500Y-104810000D01*
X179732461Y-104790315D01*
X179686706Y-104737511D01*
X179675500Y-104686000D01*
X179675500Y-103897940D01*
X179695185Y-103830901D01*
X179711819Y-103810259D01*
X180427319Y-103094759D01*
X180488642Y-103061274D01*
X180558334Y-103066258D01*
G37*
%TD.AperFunction*%
%TA.AperFunction,Conductor*%
G36*
X184060702Y-103237595D02*
G01*
X184067180Y-103243627D01*
X184240872Y-103417319D01*
X184274357Y-103478642D01*
X184269373Y-103548334D01*
X184240872Y-103592681D01*
X184067181Y-103766372D01*
X184005858Y-103799857D01*
X183936166Y-103794873D01*
X183880233Y-103753001D01*
X183855816Y-103687537D01*
X183855500Y-103678691D01*
X183855500Y-103418563D01*
X183855499Y-103418545D01*
X183855499Y-103331308D01*
X183875184Y-103264269D01*
X183927988Y-103218514D01*
X183997146Y-103208570D01*
X184060702Y-103237595D01*
G37*
%TD.AperFunction*%
%TA.AperFunction,Conductor*%
G36*
X120190703Y-100828227D02*
G01*
X120197181Y-100834259D01*
X120448181Y-101085259D01*
X120481666Y-101146582D01*
X120484500Y-101172940D01*
X120484500Y-102146000D01*
X120464815Y-102213039D01*
X120412011Y-102258794D01*
X120360500Y-102270000D01*
X120109500Y-102270000D01*
X120042461Y-102250315D01*
X119996706Y-102197511D01*
X119985500Y-102146000D01*
X119985500Y-100921940D01*
X120005185Y-100854901D01*
X120057989Y-100809146D01*
X120127147Y-100799202D01*
X120190703Y-100828227D01*
G37*
%TD.AperFunction*%
%TA.AperFunction,Conductor*%
G36*
X186032539Y-90790185D02*
G01*
X186078294Y-90842989D01*
X186089500Y-90894500D01*
X186089500Y-101473059D01*
X186069815Y-101540098D01*
X186017011Y-101585853D01*
X185947853Y-101595797D01*
X185884297Y-101566772D01*
X185877819Y-101560740D01*
X185662792Y-101345713D01*
X185662788Y-101345710D01*
X185531685Y-101258109D01*
X185531672Y-101258102D01*
X185386001Y-101197764D01*
X185385989Y-101197761D01*
X185231345Y-101167000D01*
X185231342Y-101167000D01*
X182359000Y-101167000D01*
X182291961Y-101147315D01*
X182246206Y-101094511D01*
X182235000Y-101043000D01*
X182235000Y-100607172D01*
X182234999Y-100607155D01*
X182228598Y-100547626D01*
X182228597Y-100547623D01*
X182222438Y-100531113D01*
X182222438Y-100531112D01*
X181647181Y-101106371D01*
X181585858Y-101139856D01*
X181516167Y-101134872D01*
X181460233Y-101093001D01*
X181435816Y-101027536D01*
X181435500Y-101018690D01*
X181435500Y-100989675D01*
X181435501Y-100989654D01*
X181435501Y-100786458D01*
X181430219Y-100759909D01*
X181419311Y-100705069D01*
X181425538Y-100635480D01*
X181453247Y-100593198D01*
X181873452Y-100172993D01*
X181842376Y-100161402D01*
X181842372Y-100161401D01*
X181782844Y-100155000D01*
X181171283Y-100155000D01*
X181104244Y-100135315D01*
X181083602Y-100118681D01*
X181072782Y-100107861D01*
X180995282Y-100030361D01*
X180995281Y-100030360D01*
X180995280Y-100030359D01*
X180831420Y-99920871D01*
X180831411Y-99920866D01*
X180758815Y-99890796D01*
X180702665Y-99867538D01*
X180649336Y-99845449D01*
X180649332Y-99845448D01*
X180649328Y-99845446D01*
X180552688Y-99826224D01*
X180456044Y-99807000D01*
X180456041Y-99807000D01*
X178447000Y-99807000D01*
X178379961Y-99787315D01*
X178334206Y-99734511D01*
X178323000Y-99683000D01*
X178323000Y-98168958D01*
X178322999Y-98168957D01*
X178315880Y-98133164D01*
X178284551Y-97975664D01*
X178247294Y-97885717D01*
X178223399Y-97828029D01*
X178209133Y-97793588D01*
X178209128Y-97793579D01*
X178206739Y-97790003D01*
X179534435Y-97790003D01*
X179554630Y-97969249D01*
X179554633Y-97969262D01*
X179614209Y-98139518D01*
X179614210Y-98139520D01*
X179614211Y-98139522D01*
X179632850Y-98169186D01*
X179640494Y-98181351D01*
X179659500Y-98247323D01*
X179659500Y-98562869D01*
X179659501Y-98562876D01*
X179665908Y-98622483D01*
X179716202Y-98757328D01*
X179716206Y-98757335D01*
X179802452Y-98872544D01*
X179802455Y-98872547D01*
X179917664Y-98958793D01*
X179917671Y-98958797D01*
X180052517Y-99009091D01*
X180052516Y-99009091D01*
X180059444Y-99009835D01*
X180112127Y-99015500D01*
X181207872Y-99015499D01*
X181267483Y-99009091D01*
X181402331Y-98958796D01*
X181517546Y-98872546D01*
X181517548Y-98872542D01*
X181522676Y-98867416D01*
X181583999Y-98833931D01*
X181653691Y-98838915D01*
X181698038Y-98867416D01*
X181702812Y-98872190D01*
X181817906Y-98958350D01*
X181817913Y-98958354D01*
X181952620Y-99008596D01*
X181952627Y-99008598D01*
X182012155Y-99014999D01*
X182012172Y-99015000D01*
X183107828Y-99015000D01*
X183107844Y-99014999D01*
X183167372Y-99008598D01*
X183167376Y-99008597D01*
X183302090Y-98958352D01*
X183343669Y-98927223D01*
X182294127Y-97877681D01*
X182260642Y-97816358D01*
X182262527Y-97790000D01*
X182913553Y-97790000D01*
X183559999Y-98436447D01*
X183560000Y-98436446D01*
X183560000Y-97143553D01*
X183559999Y-97143552D01*
X182913553Y-97789999D01*
X182913553Y-97790000D01*
X182262527Y-97790000D01*
X182265626Y-97746666D01*
X182294127Y-97702319D01*
X182560000Y-97436447D01*
X183343670Y-96652775D01*
X183302090Y-96621648D01*
X183167376Y-96571402D01*
X183167372Y-96571401D01*
X183107844Y-96565000D01*
X182012155Y-96565000D01*
X181952627Y-96571401D01*
X181952620Y-96571403D01*
X181817913Y-96621645D01*
X181817906Y-96621649D01*
X181702812Y-96707809D01*
X181698038Y-96712584D01*
X181636715Y-96746069D01*
X181567023Y-96741085D01*
X181522676Y-96712584D01*
X181517544Y-96707452D01*
X181402335Y-96621206D01*
X181402328Y-96621202D01*
X181267482Y-96570908D01*
X181267483Y-96570908D01*
X181207883Y-96564501D01*
X181207881Y-96564500D01*
X181207873Y-96564500D01*
X181207864Y-96564500D01*
X180112129Y-96564500D01*
X180112123Y-96564501D01*
X180052516Y-96570908D01*
X179917671Y-96621202D01*
X179917664Y-96621206D01*
X179802455Y-96707452D01*
X179802452Y-96707455D01*
X179716206Y-96822664D01*
X179716202Y-96822671D01*
X179665908Y-96957517D01*
X179659501Y-97017116D01*
X179659500Y-97017135D01*
X179659500Y-97332677D01*
X179640494Y-97398647D01*
X179627392Y-97419500D01*
X179614209Y-97440481D01*
X179554633Y-97610737D01*
X179554630Y-97610750D01*
X179534435Y-97789996D01*
X179534435Y-97790003D01*
X178206739Y-97790003D01*
X178099640Y-97629719D01*
X178032375Y-97562454D01*
X177960282Y-97490361D01*
X177960281Y-97490360D01*
X176395461Y-95925540D01*
X176361976Y-95864217D01*
X176359852Y-95851111D01*
X176354091Y-95797516D01*
X176303797Y-95662671D01*
X176303795Y-95662668D01*
X176285233Y-95637872D01*
X176260816Y-95572408D01*
X176260500Y-95563561D01*
X176260500Y-94501456D01*
X176232770Y-94362052D01*
X176232770Y-94362051D01*
X176225599Y-94326001D01*
X176222051Y-94308164D01*
X176213610Y-94287787D01*
X176197762Y-94249525D01*
X176197750Y-94249498D01*
X176146635Y-94126093D01*
X176146634Y-94126092D01*
X176146632Y-94126086D01*
X176117464Y-94082433D01*
X176037139Y-93962217D01*
X175894686Y-93819764D01*
X175894655Y-93819735D01*
X175024990Y-92950070D01*
X174991505Y-92888747D01*
X174990102Y-92880972D01*
X174990035Y-92880743D01*
X174949498Y-92742691D01*
X174937508Y-92716436D01*
X174889776Y-92611918D01*
X174889773Y-92611914D01*
X174889770Y-92611906D01*
X174811986Y-92490870D01*
X174811985Y-92490869D01*
X174811984Y-92490867D01*
X174811981Y-92490863D01*
X174717847Y-92382226D01*
X174717830Y-92382207D01*
X174717829Y-92382206D01*
X174609091Y-92287985D01*
X174558968Y-92255773D01*
X174488142Y-92210255D01*
X174488136Y-92210252D01*
X174417028Y-92177778D01*
X174357259Y-92150483D01*
X174239650Y-92115950D01*
X174219308Y-92109977D01*
X174219296Y-92109974D01*
X174076889Y-92089500D01*
X173505000Y-92089500D01*
X173504997Y-92089500D01*
X173433061Y-92094644D01*
X173433056Y-92094645D01*
X173395735Y-92105603D01*
X173343158Y-92109363D01*
X173205001Y-92089500D01*
X173205000Y-92089500D01*
X172633111Y-92089500D01*
X172633110Y-92089500D01*
X172490703Y-92109974D01*
X172490691Y-92109977D01*
X172352741Y-92150483D01*
X172221863Y-92210252D01*
X172221861Y-92210254D01*
X172106523Y-92284376D01*
X172105083Y-92285196D01*
X172100901Y-92287988D01*
X171992169Y-92382207D01*
X171992166Y-92382210D01*
X171898018Y-92490864D01*
X171898015Y-92490867D01*
X171849521Y-92566327D01*
X171822798Y-92607911D01*
X171820231Y-92611905D01*
X171820223Y-92611918D01*
X171763263Y-92736643D01*
X171761015Y-92740939D01*
X171719966Y-92880738D01*
X171719963Y-92880748D01*
X171699503Y-93023059D01*
X171699503Y-93079399D01*
X171699500Y-93079409D01*
X171699500Y-93610573D01*
X171699503Y-93610601D01*
X171699503Y-93666941D01*
X171710519Y-93743560D01*
X171718703Y-93800478D01*
X171718703Y-93800481D01*
X171719964Y-93809255D01*
X171741165Y-93881455D01*
X171747779Y-93903981D01*
X171754477Y-93926789D01*
X171759500Y-93961725D01*
X171759500Y-95935500D01*
X171739815Y-96002539D01*
X171687011Y-96048294D01*
X171635500Y-96059500D01*
X168129500Y-96059500D01*
X168062461Y-96039815D01*
X168016706Y-95987011D01*
X168005500Y-95935500D01*
X168005500Y-94516456D01*
X168005499Y-94516454D01*
X167967053Y-94323173D01*
X167967052Y-94323170D01*
X167967051Y-94323165D01*
X167964475Y-94316948D01*
X167957010Y-94247479D01*
X167988287Y-94185001D01*
X168048377Y-94149351D01*
X168079039Y-94145500D01*
X168504773Y-94145500D01*
X168571812Y-94165185D01*
X168574624Y-94167046D01*
X168617766Y-94196459D01*
X168667296Y-94230228D01*
X168667298Y-94230229D01*
X168667303Y-94230232D01*
X168792843Y-94290688D01*
X168903673Y-94344061D01*
X168903674Y-94344061D01*
X168903677Y-94344063D01*
X169154385Y-94421396D01*
X169413818Y-94460500D01*
X169676182Y-94460500D01*
X169935615Y-94421396D01*
X170186323Y-94344063D01*
X170386882Y-94247479D01*
X170422696Y-94230232D01*
X170422696Y-94230231D01*
X170422704Y-94230228D01*
X170639479Y-94082433D01*
X170831805Y-93903981D01*
X170995386Y-93698857D01*
X171126568Y-93471643D01*
X171222420Y-93227416D01*
X171280802Y-92971630D01*
X171287613Y-92880743D01*
X171300408Y-92710004D01*
X171300408Y-92709995D01*
X171280803Y-92448379D01*
X171280802Y-92448374D01*
X171280802Y-92448370D01*
X171222420Y-92192584D01*
X171126568Y-91948357D01*
X170995386Y-91721143D01*
X170831805Y-91516019D01*
X170831804Y-91516018D01*
X170831801Y-91516014D01*
X170639479Y-91337567D01*
X170422704Y-91189772D01*
X170422700Y-91189770D01*
X170422697Y-91189768D01*
X170422696Y-91189767D01*
X170186325Y-91075938D01*
X170186327Y-91075938D01*
X169982257Y-91012991D01*
X169923998Y-90974421D01*
X169895840Y-90910476D01*
X169906724Y-90841459D01*
X169953193Y-90789282D01*
X170018807Y-90770500D01*
X185965500Y-90770500D01*
X186032539Y-90790185D01*
G37*
%TD.AperFunction*%
%TA.AperFunction,Conductor*%
G36*
X169138232Y-90790185D02*
G01*
X169183987Y-90842989D01*
X169193931Y-90912147D01*
X169164906Y-90975703D01*
X169107743Y-91012991D01*
X168903673Y-91075938D01*
X168667303Y-91189767D01*
X168667302Y-91189768D01*
X168450520Y-91337567D01*
X168258198Y-91516014D01*
X168094614Y-91721143D01*
X167963432Y-91948356D01*
X167867582Y-92192578D01*
X167867576Y-92192597D01*
X167832578Y-92345937D01*
X167809261Y-92448093D01*
X167775154Y-92509071D01*
X167713492Y-92541929D01*
X167688371Y-92544500D01*
X167496154Y-92544500D01*
X167341509Y-92575261D01*
X167341497Y-92575264D01*
X167298832Y-92592936D01*
X167298833Y-92592937D01*
X167195823Y-92635604D01*
X167195814Y-92635609D01*
X167064712Y-92723209D01*
X167064710Y-92723212D01*
X166559741Y-93228181D01*
X166498418Y-93261666D01*
X166472060Y-93264500D01*
X160906457Y-93264500D01*
X160713170Y-93302947D01*
X160713160Y-93302950D01*
X160531092Y-93378364D01*
X160531079Y-93378371D01*
X160367218Y-93487860D01*
X160367214Y-93487863D01*
X160227863Y-93627214D01*
X160227860Y-93627218D01*
X160118371Y-93791079D01*
X160118364Y-93791092D01*
X160042950Y-93973160D01*
X160042947Y-93973170D01*
X160004500Y-94166456D01*
X160004500Y-95993023D01*
X159984815Y-96060062D01*
X159932011Y-96105817D01*
X159904865Y-96113266D01*
X159905068Y-96114124D01*
X159897520Y-96115907D01*
X159762671Y-96166202D01*
X159762664Y-96166206D01*
X159647455Y-96252452D01*
X159647452Y-96252455D01*
X159561206Y-96367664D01*
X159561202Y-96367671D01*
X159510908Y-96502517D01*
X159505284Y-96554833D01*
X159504501Y-96562123D01*
X159504500Y-96562135D01*
X159504500Y-97557870D01*
X159504501Y-97557876D01*
X159510908Y-97617483D01*
X159558718Y-97745668D01*
X159563702Y-97815360D01*
X159545639Y-97857891D01*
X159483368Y-97951087D01*
X159470169Y-97982953D01*
X159426328Y-98037356D01*
X159360034Y-98059421D01*
X159355608Y-98059500D01*
X156675782Y-98059500D01*
X156608743Y-98039815D01*
X156588101Y-98023181D01*
X156351818Y-97786898D01*
X156318333Y-97725575D01*
X156315499Y-97699217D01*
X156315499Y-97389998D01*
X156315498Y-97389981D01*
X156304999Y-97287203D01*
X156304998Y-97287200D01*
X156301901Y-97277853D01*
X156249814Y-97120666D01*
X156157712Y-96971344D01*
X156033656Y-96847288D01*
X156033655Y-96847287D01*
X155973202Y-96810000D01*
X155969018Y-96807419D01*
X155922294Y-96755472D01*
X155911071Y-96686510D01*
X155938914Y-96622428D01*
X155946434Y-96614199D01*
X156054035Y-96506598D01*
X156155804Y-96366524D01*
X156234408Y-96212255D01*
X156287914Y-96047584D01*
X156289115Y-96040000D01*
X155220330Y-96040000D01*
X155240075Y-96020255D01*
X155289444Y-95934745D01*
X155315000Y-95839370D01*
X155315000Y-95740630D01*
X155289444Y-95645255D01*
X155240075Y-95559745D01*
X155220330Y-95540000D01*
X156289115Y-95540000D01*
X156289115Y-95539999D01*
X156287914Y-95532415D01*
X156234408Y-95367744D01*
X156155804Y-95213475D01*
X156054032Y-95073397D01*
X155931602Y-94950967D01*
X155791524Y-94849195D01*
X155637257Y-94770591D01*
X155472584Y-94717085D01*
X155301571Y-94690000D01*
X155190000Y-94690000D01*
X155190000Y-95509670D01*
X155170255Y-95489925D01*
X155084745Y-95440556D01*
X154989370Y-95415000D01*
X154890630Y-95415000D01*
X154795255Y-95440556D01*
X154709745Y-95489925D01*
X154690000Y-95509670D01*
X154690000Y-94690000D01*
X154578429Y-94690000D01*
X154407415Y-94717085D01*
X154242742Y-94770591D01*
X154088475Y-94849195D01*
X153948397Y-94950967D01*
X153825967Y-95073397D01*
X153724195Y-95213475D01*
X153645591Y-95367744D01*
X153592085Y-95532415D01*
X153590884Y-95539999D01*
X153590885Y-95540000D01*
X154659670Y-95540000D01*
X154639925Y-95559745D01*
X154590556Y-95645255D01*
X154565000Y-95740630D01*
X154565000Y-95839370D01*
X154590556Y-95934745D01*
X154639925Y-96020255D01*
X154659670Y-96040000D01*
X153590885Y-96040000D01*
X153592085Y-96047584D01*
X153645591Y-96212255D01*
X153724195Y-96366524D01*
X153825967Y-96506602D01*
X153933565Y-96614200D01*
X153967050Y-96675523D01*
X153962066Y-96745215D01*
X153920194Y-96801148D01*
X153910983Y-96807418D01*
X153906798Y-96810000D01*
X153846342Y-96847289D01*
X153722289Y-96971342D01*
X153630187Y-97120663D01*
X153630185Y-97120668D01*
X153617091Y-97160184D01*
X153575001Y-97287203D01*
X153575001Y-97287204D01*
X153575000Y-97287204D01*
X153564500Y-97389983D01*
X153564500Y-97699217D01*
X153544815Y-97766256D01*
X153528181Y-97786898D01*
X152170180Y-99144898D01*
X152108857Y-99178383D01*
X152039165Y-99173399D01*
X151994820Y-99144899D01*
X150324208Y-97474288D01*
X150324206Y-97474285D01*
X150324206Y-97474286D01*
X150317139Y-97467219D01*
X150317139Y-97467218D01*
X150177782Y-97327861D01*
X150177781Y-97327860D01*
X150177780Y-97327859D01*
X150013920Y-97218371D01*
X150013907Y-97218364D01*
X149875907Y-97161204D01*
X149831836Y-97142949D01*
X149831828Y-97142947D01*
X149719812Y-97120666D01*
X149692721Y-97115277D01*
X149638543Y-97104500D01*
X149638541Y-97104500D01*
X149243769Y-97104500D01*
X149176730Y-97084815D01*
X149130975Y-97032011D01*
X149121031Y-96962853D01*
X149127587Y-96937167D01*
X149161109Y-96847289D01*
X149174091Y-96812483D01*
X149180500Y-96752873D01*
X149180499Y-95657128D01*
X149174091Y-95597517D01*
X149161426Y-95563561D01*
X149123797Y-95462671D01*
X149123793Y-95462664D01*
X149041273Y-95352433D01*
X149037546Y-95347454D01*
X149037544Y-95347452D01*
X149037542Y-95347450D01*
X149005188Y-95323230D01*
X148963318Y-95267296D01*
X148955500Y-95223964D01*
X148955500Y-93881456D01*
X148932882Y-93767752D01*
X148930499Y-93743560D01*
X148930499Y-93482129D01*
X148930498Y-93482123D01*
X148929371Y-93471643D01*
X148924091Y-93422517D01*
X148873796Y-93287669D01*
X148873794Y-93287666D01*
X148870696Y-93279360D01*
X148872426Y-93278714D01*
X148859902Y-93221163D01*
X148871691Y-93181011D01*
X148870696Y-93180640D01*
X148873794Y-93172333D01*
X148873796Y-93172331D01*
X148924091Y-93037483D01*
X148930500Y-92977873D01*
X148930499Y-92716435D01*
X148932882Y-92692243D01*
X148955500Y-92578542D01*
X148955500Y-92381456D01*
X148932882Y-92267752D01*
X148930499Y-92243560D01*
X148930499Y-91982127D01*
X148930498Y-91982123D01*
X148926868Y-91948356D01*
X148924091Y-91922517D01*
X148918812Y-91908364D01*
X148873797Y-91787671D01*
X148873793Y-91787664D01*
X148787547Y-91672455D01*
X148787544Y-91672452D01*
X148672335Y-91586206D01*
X148672328Y-91586202D01*
X148537482Y-91535908D01*
X148537483Y-91535908D01*
X148477883Y-91529501D01*
X148477881Y-91529500D01*
X148477873Y-91529500D01*
X148477865Y-91529500D01*
X148299386Y-91529500D01*
X148251936Y-91520062D01*
X148246835Y-91517949D01*
X148246828Y-91517947D01*
X148053543Y-91479500D01*
X148053541Y-91479500D01*
X144243541Y-91479500D01*
X139916459Y-91479500D01*
X139916455Y-91479500D01*
X139819812Y-91498724D01*
X139723171Y-91517947D01*
X139723163Y-91517949D01*
X139679805Y-91535909D01*
X139679804Y-91535909D01*
X139541092Y-91593364D01*
X139541079Y-91593371D01*
X139422728Y-91672452D01*
X139421163Y-91673498D01*
X139377218Y-91702861D01*
X139321896Y-91758182D01*
X139260576Y-91791666D01*
X139234217Y-91794500D01*
X138126456Y-91794500D01*
X137933171Y-91832947D01*
X137933163Y-91832949D01*
X137889805Y-91850909D01*
X137889804Y-91850909D01*
X137751092Y-91908364D01*
X137751079Y-91908371D01*
X137640698Y-91982127D01*
X137640697Y-91982128D01*
X137587215Y-92017862D01*
X137363759Y-92241318D01*
X137302436Y-92274803D01*
X137232744Y-92269819D01*
X137188397Y-92241318D01*
X135929260Y-90982181D01*
X135895775Y-90920858D01*
X135900759Y-90851166D01*
X135942631Y-90795233D01*
X136008095Y-90770816D01*
X136016941Y-90770500D01*
X169071193Y-90770500D01*
X169138232Y-90790185D01*
G37*
%TD.AperFunction*%
%TD*%
M02*
