%TF.GenerationSoftware,KiCad,Pcbnew,8.0.1*%
%TF.CreationDate,2024-03-24T23:42:45+02:00*%
%TF.ProjectId,ProjectFiles,50726f6a-6563-4744-9669-6c65732e6b69,rev?*%
%TF.SameCoordinates,Original*%
%TF.FileFunction,Legend,Top*%
%TF.FilePolarity,Positive*%
%FSLAX46Y46*%
G04 Gerber Fmt 4.6, Leading zero omitted, Abs format (unit mm)*
G04 Created by KiCad (PCBNEW 8.0.1) date 2024-03-24 23:42:45*
%MOMM*%
%LPD*%
G01*
G04 APERTURE LIST*
G04 Aperture macros list*
%AMRoundRect*
0 Rectangle with rounded corners*
0 $1 Rounding radius*
0 $2 $3 $4 $5 $6 $7 $8 $9 X,Y pos of 4 corners*
0 Add a 4 corners polygon primitive as box body*
4,1,4,$2,$3,$4,$5,$6,$7,$8,$9,$2,$3,0*
0 Add four circle primitives for the rounded corners*
1,1,$1+$1,$2,$3*
1,1,$1+$1,$4,$5*
1,1,$1+$1,$6,$7*
1,1,$1+$1,$8,$9*
0 Add four rect primitives between the rounded corners*
20,1,$1+$1,$2,$3,$4,$5,0*
20,1,$1+$1,$4,$5,$6,$7,0*
20,1,$1+$1,$6,$7,$8,$9,0*
20,1,$1+$1,$8,$9,$2,$3,0*%
%AMFreePoly0*
4,1,19,0.500000,-0.750000,0.000000,-0.750000,0.000000,-0.744911,-0.071157,-0.744911,-0.207708,-0.704816,-0.327430,-0.627875,-0.420627,-0.520320,-0.479746,-0.390866,-0.500000,-0.250000,-0.500000,0.250000,-0.479746,0.390866,-0.420627,0.520320,-0.327430,0.627875,-0.207708,0.704816,-0.071157,0.744911,0.000000,0.744911,0.000000,0.750000,0.500000,0.750000,0.500000,-0.750000,0.500000,-0.750000,
$1*%
%AMFreePoly1*
4,1,19,0.000000,0.744911,0.071157,0.744911,0.207708,0.704816,0.327430,0.627875,0.420627,0.520320,0.479746,0.390866,0.500000,0.250000,0.500000,-0.250000,0.479746,-0.390866,0.420627,-0.520320,0.327430,-0.627875,0.207708,-0.704816,0.071157,-0.744911,0.000000,-0.744911,0.000000,-0.750000,-0.500000,-0.750000,-0.500000,0.750000,0.000000,0.750000,0.000000,0.744911,0.000000,0.744911,
$1*%
G04 Aperture macros list end*
%ADD10C,0.300000*%
%ADD11C,0.254000*%
%ADD12C,0.150000*%
%ADD13C,0.250000*%
%ADD14C,0.200000*%
%ADD15C,0.120000*%
%ADD16C,0.100000*%
%ADD17C,1.200000*%
%ADD18R,0.970000X1.470000*%
%ADD19R,0.600000X0.620000*%
%ADD20R,1.525000X0.700000*%
%ADD21R,2.513000X3.402000*%
%ADD22R,0.700000X0.300000*%
%ADD23R,1.000000X1.700000*%
%ADD24R,0.950000X0.900000*%
%ADD25R,1.200000X0.600000*%
%ADD26FreePoly0,0.000000*%
%ADD27FreePoly1,0.000000*%
%ADD28R,1.450000X1.000000*%
%ADD29C,2.500000*%
%ADD30R,1.000000X1.450000*%
%ADD31R,0.620000X0.600000*%
%ADD32R,2.000000X0.900000*%
%ADD33R,1.700000X1.700000*%
%ADD34O,1.700000X1.700000*%
%ADD35FreePoly0,180.000000*%
%ADD36FreePoly1,180.000000*%
%ADD37RoundRect,0.250000X0.625000X-0.350000X0.625000X0.350000X-0.625000X0.350000X-0.625000X-0.350000X0*%
%ADD38O,1.750000X1.200000*%
G04 APERTURE END LIST*
D10*
X137301653Y-127927971D02*
X137230225Y-127999400D01*
X137230225Y-127999400D02*
X137015939Y-128070828D01*
X137015939Y-128070828D02*
X136873082Y-128070828D01*
X136873082Y-128070828D02*
X136658796Y-127999400D01*
X136658796Y-127999400D02*
X136515939Y-127856542D01*
X136515939Y-127856542D02*
X136444510Y-127713685D01*
X136444510Y-127713685D02*
X136373082Y-127427971D01*
X136373082Y-127427971D02*
X136373082Y-127213685D01*
X136373082Y-127213685D02*
X136444510Y-126927971D01*
X136444510Y-126927971D02*
X136515939Y-126785114D01*
X136515939Y-126785114D02*
X136658796Y-126642257D01*
X136658796Y-126642257D02*
X136873082Y-126570828D01*
X136873082Y-126570828D02*
X137015939Y-126570828D01*
X137015939Y-126570828D02*
X137230225Y-126642257D01*
X137230225Y-126642257D02*
X137301653Y-126713685D01*
X138801653Y-128070828D02*
X138301653Y-127356542D01*
X137944510Y-128070828D02*
X137944510Y-126570828D01*
X137944510Y-126570828D02*
X138515939Y-126570828D01*
X138515939Y-126570828D02*
X138658796Y-126642257D01*
X138658796Y-126642257D02*
X138730225Y-126713685D01*
X138730225Y-126713685D02*
X138801653Y-126856542D01*
X138801653Y-126856542D02*
X138801653Y-127070828D01*
X138801653Y-127070828D02*
X138730225Y-127213685D01*
X138730225Y-127213685D02*
X138658796Y-127285114D01*
X138658796Y-127285114D02*
X138515939Y-127356542D01*
X138515939Y-127356542D02*
X137944510Y-127356542D01*
X139230225Y-126570828D02*
X140087368Y-126570828D01*
X139658796Y-128070828D02*
X139658796Y-126570828D01*
X141301653Y-128070828D02*
X140587367Y-128070828D01*
X140587367Y-128070828D02*
X140587367Y-126570828D01*
X141801653Y-126570828D02*
X141801653Y-127785114D01*
X141801653Y-127785114D02*
X141873082Y-127927971D01*
X141873082Y-127927971D02*
X141944511Y-127999400D01*
X141944511Y-127999400D02*
X142087368Y-128070828D01*
X142087368Y-128070828D02*
X142373082Y-128070828D01*
X142373082Y-128070828D02*
X142515939Y-127999400D01*
X142515939Y-127999400D02*
X142587368Y-127927971D01*
X142587368Y-127927971D02*
X142658796Y-127785114D01*
X142658796Y-127785114D02*
X142658796Y-126570828D01*
X143373082Y-128070828D02*
X143373082Y-126570828D01*
X144230225Y-128070828D02*
X143587368Y-127213685D01*
X144230225Y-126570828D02*
X143373082Y-127427971D01*
X145158797Y-126570828D02*
X145301654Y-126570828D01*
X145301654Y-126570828D02*
X145444511Y-126642257D01*
X145444511Y-126642257D02*
X145515940Y-126713685D01*
X145515940Y-126713685D02*
X145587368Y-126856542D01*
X145587368Y-126856542D02*
X145658797Y-127142257D01*
X145658797Y-127142257D02*
X145658797Y-127499400D01*
X145658797Y-127499400D02*
X145587368Y-127785114D01*
X145587368Y-127785114D02*
X145515940Y-127927971D01*
X145515940Y-127927971D02*
X145444511Y-127999400D01*
X145444511Y-127999400D02*
X145301654Y-128070828D01*
X145301654Y-128070828D02*
X145158797Y-128070828D01*
X145158797Y-128070828D02*
X145015940Y-127999400D01*
X145015940Y-127999400D02*
X144944511Y-127927971D01*
X144944511Y-127927971D02*
X144873082Y-127785114D01*
X144873082Y-127785114D02*
X144801654Y-127499400D01*
X144801654Y-127499400D02*
X144801654Y-127142257D01*
X144801654Y-127142257D02*
X144873082Y-126856542D01*
X144873082Y-126856542D02*
X144944511Y-126713685D01*
X144944511Y-126713685D02*
X145015940Y-126642257D01*
X145015940Y-126642257D02*
X145158797Y-126570828D01*
X146587368Y-126570828D02*
X146730225Y-126570828D01*
X146730225Y-126570828D02*
X146873082Y-126642257D01*
X146873082Y-126642257D02*
X146944511Y-126713685D01*
X146944511Y-126713685D02*
X147015939Y-126856542D01*
X147015939Y-126856542D02*
X147087368Y-127142257D01*
X147087368Y-127142257D02*
X147087368Y-127499400D01*
X147087368Y-127499400D02*
X147015939Y-127785114D01*
X147015939Y-127785114D02*
X146944511Y-127927971D01*
X146944511Y-127927971D02*
X146873082Y-127999400D01*
X146873082Y-127999400D02*
X146730225Y-128070828D01*
X146730225Y-128070828D02*
X146587368Y-128070828D01*
X146587368Y-128070828D02*
X146444511Y-127999400D01*
X146444511Y-127999400D02*
X146373082Y-127927971D01*
X146373082Y-127927971D02*
X146301653Y-127785114D01*
X146301653Y-127785114D02*
X146230225Y-127499400D01*
X146230225Y-127499400D02*
X146230225Y-127142257D01*
X146230225Y-127142257D02*
X146301653Y-126856542D01*
X146301653Y-126856542D02*
X146373082Y-126713685D01*
X146373082Y-126713685D02*
X146444511Y-126642257D01*
X146444511Y-126642257D02*
X146587368Y-126570828D01*
X148515939Y-128070828D02*
X147658796Y-128070828D01*
X148087367Y-128070828D02*
X148087367Y-126570828D01*
X148087367Y-126570828D02*
X147944510Y-126785114D01*
X147944510Y-126785114D02*
X147801653Y-126927971D01*
X147801653Y-126927971D02*
X147658796Y-126999400D01*
X150301652Y-127499400D02*
X151444510Y-127499400D01*
X153301652Y-128070828D02*
X153301652Y-126570828D01*
X153301652Y-126570828D02*
X153873081Y-126570828D01*
X153873081Y-126570828D02*
X154015938Y-126642257D01*
X154015938Y-126642257D02*
X154087367Y-126713685D01*
X154087367Y-126713685D02*
X154158795Y-126856542D01*
X154158795Y-126856542D02*
X154158795Y-127070828D01*
X154158795Y-127070828D02*
X154087367Y-127213685D01*
X154087367Y-127213685D02*
X154015938Y-127285114D01*
X154015938Y-127285114D02*
X153873081Y-127356542D01*
X153873081Y-127356542D02*
X153301652Y-127356542D01*
X154658795Y-126570828D02*
X155015938Y-128070828D01*
X155015938Y-128070828D02*
X155301652Y-126999400D01*
X155301652Y-126999400D02*
X155587367Y-128070828D01*
X155587367Y-128070828D02*
X155944510Y-126570828D01*
X157373081Y-128070828D02*
X156873081Y-127356542D01*
X156515938Y-128070828D02*
X156515938Y-126570828D01*
X156515938Y-126570828D02*
X157087367Y-126570828D01*
X157087367Y-126570828D02*
X157230224Y-126642257D01*
X157230224Y-126642257D02*
X157301653Y-126713685D01*
X157301653Y-126713685D02*
X157373081Y-126856542D01*
X157373081Y-126856542D02*
X157373081Y-127070828D01*
X157373081Y-127070828D02*
X157301653Y-127213685D01*
X157301653Y-127213685D02*
X157230224Y-127285114D01*
X157230224Y-127285114D02*
X157087367Y-127356542D01*
X157087367Y-127356542D02*
X156515938Y-127356542D01*
X159658795Y-127285114D02*
X159873081Y-127356542D01*
X159873081Y-127356542D02*
X159944510Y-127427971D01*
X159944510Y-127427971D02*
X160015938Y-127570828D01*
X160015938Y-127570828D02*
X160015938Y-127785114D01*
X160015938Y-127785114D02*
X159944510Y-127927971D01*
X159944510Y-127927971D02*
X159873081Y-127999400D01*
X159873081Y-127999400D02*
X159730224Y-128070828D01*
X159730224Y-128070828D02*
X159158795Y-128070828D01*
X159158795Y-128070828D02*
X159158795Y-126570828D01*
X159158795Y-126570828D02*
X159658795Y-126570828D01*
X159658795Y-126570828D02*
X159801653Y-126642257D01*
X159801653Y-126642257D02*
X159873081Y-126713685D01*
X159873081Y-126713685D02*
X159944510Y-126856542D01*
X159944510Y-126856542D02*
X159944510Y-126999400D01*
X159944510Y-126999400D02*
X159873081Y-127142257D01*
X159873081Y-127142257D02*
X159801653Y-127213685D01*
X159801653Y-127213685D02*
X159658795Y-127285114D01*
X159658795Y-127285114D02*
X159158795Y-127285114D01*
X161515938Y-128070828D02*
X161015938Y-127356542D01*
X160658795Y-128070828D02*
X160658795Y-126570828D01*
X160658795Y-126570828D02*
X161230224Y-126570828D01*
X161230224Y-126570828D02*
X161373081Y-126642257D01*
X161373081Y-126642257D02*
X161444510Y-126713685D01*
X161444510Y-126713685D02*
X161515938Y-126856542D01*
X161515938Y-126856542D02*
X161515938Y-127070828D01*
X161515938Y-127070828D02*
X161444510Y-127213685D01*
X161444510Y-127213685D02*
X161373081Y-127285114D01*
X161373081Y-127285114D02*
X161230224Y-127356542D01*
X161230224Y-127356542D02*
X160658795Y-127356542D01*
X162158795Y-128070828D02*
X162158795Y-126570828D01*
X162158795Y-126570828D02*
X162515938Y-126570828D01*
X162515938Y-126570828D02*
X162730224Y-126642257D01*
X162730224Y-126642257D02*
X162873081Y-126785114D01*
X162873081Y-126785114D02*
X162944510Y-126927971D01*
X162944510Y-126927971D02*
X163015938Y-127213685D01*
X163015938Y-127213685D02*
X163015938Y-127427971D01*
X163015938Y-127427971D02*
X162944510Y-127713685D01*
X162944510Y-127713685D02*
X162873081Y-127856542D01*
X162873081Y-127856542D02*
X162730224Y-127999400D01*
X162730224Y-127999400D02*
X162515938Y-128070828D01*
X162515938Y-128070828D02*
X162158795Y-128070828D01*
D11*
X156633333Y-103958365D02*
X156572857Y-104018842D01*
X156572857Y-104018842D02*
X156391428Y-104079318D01*
X156391428Y-104079318D02*
X156270476Y-104079318D01*
X156270476Y-104079318D02*
X156089047Y-104018842D01*
X156089047Y-104018842D02*
X155968095Y-103897889D01*
X155968095Y-103897889D02*
X155907618Y-103776937D01*
X155907618Y-103776937D02*
X155847142Y-103535032D01*
X155847142Y-103535032D02*
X155847142Y-103353603D01*
X155847142Y-103353603D02*
X155907618Y-103111699D01*
X155907618Y-103111699D02*
X155968095Y-102990746D01*
X155968095Y-102990746D02*
X156089047Y-102869794D01*
X156089047Y-102869794D02*
X156270476Y-102809318D01*
X156270476Y-102809318D02*
X156391428Y-102809318D01*
X156391428Y-102809318D02*
X156572857Y-102869794D01*
X156572857Y-102869794D02*
X156633333Y-102930270D01*
X157117142Y-102930270D02*
X157177618Y-102869794D01*
X157177618Y-102869794D02*
X157298571Y-102809318D01*
X157298571Y-102809318D02*
X157600952Y-102809318D01*
X157600952Y-102809318D02*
X157721904Y-102869794D01*
X157721904Y-102869794D02*
X157782380Y-102930270D01*
X157782380Y-102930270D02*
X157842857Y-103051222D01*
X157842857Y-103051222D02*
X157842857Y-103172175D01*
X157842857Y-103172175D02*
X157782380Y-103353603D01*
X157782380Y-103353603D02*
X157056666Y-104079318D01*
X157056666Y-104079318D02*
X157842857Y-104079318D01*
X183938333Y-100148365D02*
X183877857Y-100208842D01*
X183877857Y-100208842D02*
X183696428Y-100269318D01*
X183696428Y-100269318D02*
X183575476Y-100269318D01*
X183575476Y-100269318D02*
X183394047Y-100208842D01*
X183394047Y-100208842D02*
X183273095Y-100087889D01*
X183273095Y-100087889D02*
X183212618Y-99966937D01*
X183212618Y-99966937D02*
X183152142Y-99725032D01*
X183152142Y-99725032D02*
X183152142Y-99543603D01*
X183152142Y-99543603D02*
X183212618Y-99301699D01*
X183212618Y-99301699D02*
X183273095Y-99180746D01*
X183273095Y-99180746D02*
X183394047Y-99059794D01*
X183394047Y-99059794D02*
X183575476Y-98999318D01*
X183575476Y-98999318D02*
X183696428Y-98999318D01*
X183696428Y-98999318D02*
X183877857Y-99059794D01*
X183877857Y-99059794D02*
X183938333Y-99120270D01*
X184361666Y-98999318D02*
X185147857Y-98999318D01*
X185147857Y-98999318D02*
X184724523Y-99483127D01*
X184724523Y-99483127D02*
X184905952Y-99483127D01*
X184905952Y-99483127D02*
X185026904Y-99543603D01*
X185026904Y-99543603D02*
X185087380Y-99604080D01*
X185087380Y-99604080D02*
X185147857Y-99725032D01*
X185147857Y-99725032D02*
X185147857Y-100027413D01*
X185147857Y-100027413D02*
X185087380Y-100148365D01*
X185087380Y-100148365D02*
X185026904Y-100208842D01*
X185026904Y-100208842D02*
X184905952Y-100269318D01*
X184905952Y-100269318D02*
X184543095Y-100269318D01*
X184543095Y-100269318D02*
X184422142Y-100208842D01*
X184422142Y-100208842D02*
X184361666Y-100148365D01*
X150706667Y-109159318D02*
X150706667Y-110066461D01*
X150706667Y-110066461D02*
X150646190Y-110247889D01*
X150646190Y-110247889D02*
X150525238Y-110368842D01*
X150525238Y-110368842D02*
X150343809Y-110429318D01*
X150343809Y-110429318D02*
X150222857Y-110429318D01*
X151250952Y-109280270D02*
X151311428Y-109219794D01*
X151311428Y-109219794D02*
X151432381Y-109159318D01*
X151432381Y-109159318D02*
X151734762Y-109159318D01*
X151734762Y-109159318D02*
X151855714Y-109219794D01*
X151855714Y-109219794D02*
X151916190Y-109280270D01*
X151916190Y-109280270D02*
X151976667Y-109401222D01*
X151976667Y-109401222D02*
X151976667Y-109522175D01*
X151976667Y-109522175D02*
X151916190Y-109703603D01*
X151916190Y-109703603D02*
X151190476Y-110429318D01*
X151190476Y-110429318D02*
X151976667Y-110429318D01*
X114965237Y-102174318D02*
X114965237Y-100904318D01*
X116295714Y-102053365D02*
X116235238Y-102113842D01*
X116235238Y-102113842D02*
X116053809Y-102174318D01*
X116053809Y-102174318D02*
X115932857Y-102174318D01*
X115932857Y-102174318D02*
X115751428Y-102113842D01*
X115751428Y-102113842D02*
X115630476Y-101992889D01*
X115630476Y-101992889D02*
X115569999Y-101871937D01*
X115569999Y-101871937D02*
X115509523Y-101630032D01*
X115509523Y-101630032D02*
X115509523Y-101448603D01*
X115509523Y-101448603D02*
X115569999Y-101206699D01*
X115569999Y-101206699D02*
X115630476Y-101085746D01*
X115630476Y-101085746D02*
X115751428Y-100964794D01*
X115751428Y-100964794D02*
X115932857Y-100904318D01*
X115932857Y-100904318D02*
X116053809Y-100904318D01*
X116053809Y-100904318D02*
X116235238Y-100964794D01*
X116235238Y-100964794D02*
X116295714Y-101025270D01*
X117505238Y-102174318D02*
X116779523Y-102174318D01*
X117142380Y-102174318D02*
X117142380Y-100904318D01*
X117142380Y-100904318D02*
X117021428Y-101085746D01*
X117021428Y-101085746D02*
X116900476Y-101206699D01*
X116900476Y-101206699D02*
X116779523Y-101267175D01*
X131928809Y-94554318D02*
X131324047Y-94554318D01*
X131324047Y-94554318D02*
X131324047Y-93284318D01*
X132352142Y-93889080D02*
X132775476Y-93889080D01*
X132956904Y-94554318D02*
X132352142Y-94554318D01*
X132352142Y-94554318D02*
X132352142Y-93284318D01*
X132352142Y-93284318D02*
X132956904Y-93284318D01*
X133501190Y-94554318D02*
X133501190Y-93284318D01*
X133501190Y-93284318D02*
X133803571Y-93284318D01*
X133803571Y-93284318D02*
X133985000Y-93344794D01*
X133985000Y-93344794D02*
X134105952Y-93465746D01*
X134105952Y-93465746D02*
X134166429Y-93586699D01*
X134166429Y-93586699D02*
X134226905Y-93828603D01*
X134226905Y-93828603D02*
X134226905Y-94010032D01*
X134226905Y-94010032D02*
X134166429Y-94251937D01*
X134166429Y-94251937D02*
X134105952Y-94372889D01*
X134105952Y-94372889D02*
X133985000Y-94493842D01*
X133985000Y-94493842D02*
X133803571Y-94554318D01*
X133803571Y-94554318D02*
X133501190Y-94554318D01*
X135436429Y-94554318D02*
X134710714Y-94554318D01*
X135073571Y-94554318D02*
X135073571Y-93284318D01*
X135073571Y-93284318D02*
X134952619Y-93465746D01*
X134952619Y-93465746D02*
X134831667Y-93586699D01*
X134831667Y-93586699D02*
X134710714Y-93647175D01*
X175290237Y-105349318D02*
X175290237Y-104079318D01*
X176620714Y-105228365D02*
X176560238Y-105288842D01*
X176560238Y-105288842D02*
X176378809Y-105349318D01*
X176378809Y-105349318D02*
X176257857Y-105349318D01*
X176257857Y-105349318D02*
X176076428Y-105288842D01*
X176076428Y-105288842D02*
X175955476Y-105167889D01*
X175955476Y-105167889D02*
X175894999Y-105046937D01*
X175894999Y-105046937D02*
X175834523Y-104805032D01*
X175834523Y-104805032D02*
X175834523Y-104623603D01*
X175834523Y-104623603D02*
X175894999Y-104381699D01*
X175894999Y-104381699D02*
X175955476Y-104260746D01*
X175955476Y-104260746D02*
X176076428Y-104139794D01*
X176076428Y-104139794D02*
X176257857Y-104079318D01*
X176257857Y-104079318D02*
X176378809Y-104079318D01*
X176378809Y-104079318D02*
X176560238Y-104139794D01*
X176560238Y-104139794D02*
X176620714Y-104200270D01*
X177104523Y-104200270D02*
X177164999Y-104139794D01*
X177164999Y-104139794D02*
X177285952Y-104079318D01*
X177285952Y-104079318D02*
X177588333Y-104079318D01*
X177588333Y-104079318D02*
X177709285Y-104139794D01*
X177709285Y-104139794D02*
X177769761Y-104200270D01*
X177769761Y-104200270D02*
X177830238Y-104321222D01*
X177830238Y-104321222D02*
X177830238Y-104442175D01*
X177830238Y-104442175D02*
X177769761Y-104623603D01*
X177769761Y-104623603D02*
X177044047Y-105349318D01*
X177044047Y-105349318D02*
X177830238Y-105349318D01*
X149899048Y-92649318D02*
X149375238Y-92649318D01*
X149375238Y-92649318D02*
X149375238Y-91379318D01*
X150265714Y-91984080D02*
X150632381Y-91984080D01*
X150789524Y-92649318D02*
X150265714Y-92649318D01*
X150265714Y-92649318D02*
X150265714Y-91379318D01*
X150265714Y-91379318D02*
X150789524Y-91379318D01*
X151260952Y-92649318D02*
X151260952Y-91379318D01*
X151260952Y-91379318D02*
X151522857Y-91379318D01*
X151522857Y-91379318D02*
X151680000Y-91439794D01*
X151680000Y-91439794D02*
X151784762Y-91560746D01*
X151784762Y-91560746D02*
X151837143Y-91681699D01*
X151837143Y-91681699D02*
X151889524Y-91923603D01*
X151889524Y-91923603D02*
X151889524Y-92105032D01*
X151889524Y-92105032D02*
X151837143Y-92346937D01*
X151837143Y-92346937D02*
X151784762Y-92467889D01*
X151784762Y-92467889D02*
X151680000Y-92588842D01*
X151680000Y-92588842D02*
X151522857Y-92649318D01*
X151522857Y-92649318D02*
X151260952Y-92649318D01*
X152308571Y-91500270D02*
X152360952Y-91439794D01*
X152360952Y-91439794D02*
X152465714Y-91379318D01*
X152465714Y-91379318D02*
X152727619Y-91379318D01*
X152727619Y-91379318D02*
X152832381Y-91439794D01*
X152832381Y-91439794D02*
X152884762Y-91500270D01*
X152884762Y-91500270D02*
X152937143Y-91621222D01*
X152937143Y-91621222D02*
X152937143Y-91742175D01*
X152937143Y-91742175D02*
X152884762Y-91923603D01*
X152884762Y-91923603D02*
X152256190Y-92649318D01*
X152256190Y-92649318D02*
X152937143Y-92649318D01*
X177679047Y-95945270D02*
X177558095Y-95884794D01*
X177558095Y-95884794D02*
X177437142Y-95763842D01*
X177437142Y-95763842D02*
X177255714Y-95582413D01*
X177255714Y-95582413D02*
X177134761Y-95521937D01*
X177134761Y-95521937D02*
X177013809Y-95521937D01*
X177074285Y-95824318D02*
X176953333Y-95763842D01*
X176953333Y-95763842D02*
X176832380Y-95642889D01*
X176832380Y-95642889D02*
X176771904Y-95400984D01*
X176771904Y-95400984D02*
X176771904Y-94977651D01*
X176771904Y-94977651D02*
X176832380Y-94735746D01*
X176832380Y-94735746D02*
X176953333Y-94614794D01*
X176953333Y-94614794D02*
X177074285Y-94554318D01*
X177074285Y-94554318D02*
X177316190Y-94554318D01*
X177316190Y-94554318D02*
X177437142Y-94614794D01*
X177437142Y-94614794D02*
X177558095Y-94735746D01*
X177558095Y-94735746D02*
X177618571Y-94977651D01*
X177618571Y-94977651D02*
X177618571Y-95400984D01*
X177618571Y-95400984D02*
X177558095Y-95642889D01*
X177558095Y-95642889D02*
X177437142Y-95763842D01*
X177437142Y-95763842D02*
X177316190Y-95824318D01*
X177316190Y-95824318D02*
X177074285Y-95824318D01*
X178828095Y-95824318D02*
X178102380Y-95824318D01*
X178465237Y-95824318D02*
X178465237Y-94554318D01*
X178465237Y-94554318D02*
X178344285Y-94735746D01*
X178344285Y-94735746D02*
X178223333Y-94856699D01*
X178223333Y-94856699D02*
X178102380Y-94917175D01*
D12*
X176966666Y-92164819D02*
X176966666Y-92879104D01*
X176966666Y-92879104D02*
X176919047Y-93021961D01*
X176919047Y-93021961D02*
X176823809Y-93117200D01*
X176823809Y-93117200D02*
X176680952Y-93164819D01*
X176680952Y-93164819D02*
X176585714Y-93164819D01*
X177442857Y-93164819D02*
X177442857Y-92164819D01*
X177442857Y-92164819D02*
X177823809Y-92164819D01*
X177823809Y-92164819D02*
X177919047Y-92212438D01*
X177919047Y-92212438D02*
X177966666Y-92260057D01*
X177966666Y-92260057D02*
X178014285Y-92355295D01*
X178014285Y-92355295D02*
X178014285Y-92498152D01*
X178014285Y-92498152D02*
X177966666Y-92593390D01*
X177966666Y-92593390D02*
X177919047Y-92641009D01*
X177919047Y-92641009D02*
X177823809Y-92688628D01*
X177823809Y-92688628D02*
X177442857Y-92688628D01*
X178966666Y-93164819D02*
X178395238Y-93164819D01*
X178680952Y-93164819D02*
X178680952Y-92164819D01*
X178680952Y-92164819D02*
X178585714Y-92307676D01*
X178585714Y-92307676D02*
X178490476Y-92402914D01*
X178490476Y-92402914D02*
X178395238Y-92450533D01*
X149866428Y-95194726D02*
X149666428Y-94589964D01*
X149523571Y-95194726D02*
X149523571Y-93924726D01*
X149523571Y-93924726D02*
X149752142Y-93924726D01*
X149752142Y-93924726D02*
X149809285Y-93985202D01*
X149809285Y-93985202D02*
X149837856Y-94045678D01*
X149837856Y-94045678D02*
X149866428Y-94166630D01*
X149866428Y-94166630D02*
X149866428Y-94348059D01*
X149866428Y-94348059D02*
X149837856Y-94469011D01*
X149837856Y-94469011D02*
X149809285Y-94529488D01*
X149809285Y-94529488D02*
X149752142Y-94589964D01*
X149752142Y-94589964D02*
X149523571Y-94589964D01*
X150437856Y-95194726D02*
X150094999Y-95194726D01*
X150266428Y-95194726D02*
X150266428Y-93924726D01*
X150266428Y-93924726D02*
X150209285Y-94106154D01*
X150209285Y-94106154D02*
X150152142Y-94227107D01*
X150152142Y-94227107D02*
X150094999Y-94287583D01*
X150695000Y-95194726D02*
X150695000Y-93924726D01*
X150752143Y-94710916D02*
X150923571Y-95194726D01*
X150923571Y-94348059D02*
X150695000Y-94831869D01*
X151123571Y-93924726D02*
X151494999Y-93924726D01*
X151494999Y-93924726D02*
X151294999Y-94408535D01*
X151294999Y-94408535D02*
X151380714Y-94408535D01*
X151380714Y-94408535D02*
X151437857Y-94469011D01*
X151437857Y-94469011D02*
X151466428Y-94529488D01*
X151466428Y-94529488D02*
X151494999Y-94650440D01*
X151494999Y-94650440D02*
X151494999Y-94952821D01*
X151494999Y-94952821D02*
X151466428Y-95073773D01*
X151466428Y-95073773D02*
X151437857Y-95134250D01*
X151437857Y-95134250D02*
X151380714Y-95194726D01*
X151380714Y-95194726D02*
X151209285Y-95194726D01*
X151209285Y-95194726D02*
X151152142Y-95134250D01*
X151152142Y-95134250D02*
X151123571Y-95073773D01*
X113038095Y-99149819D02*
X113609523Y-99149819D01*
X113323809Y-100149819D02*
X113323809Y-99149819D01*
X113942857Y-100149819D02*
X113942857Y-99149819D01*
X113942857Y-99149819D02*
X114323809Y-99149819D01*
X114323809Y-99149819D02*
X114419047Y-99197438D01*
X114419047Y-99197438D02*
X114466666Y-99245057D01*
X114466666Y-99245057D02*
X114514285Y-99340295D01*
X114514285Y-99340295D02*
X114514285Y-99483152D01*
X114514285Y-99483152D02*
X114466666Y-99578390D01*
X114466666Y-99578390D02*
X114419047Y-99626009D01*
X114419047Y-99626009D02*
X114323809Y-99673628D01*
X114323809Y-99673628D02*
X113942857Y-99673628D01*
X115419047Y-99149819D02*
X114942857Y-99149819D01*
X114942857Y-99149819D02*
X114895238Y-99626009D01*
X114895238Y-99626009D02*
X114942857Y-99578390D01*
X114942857Y-99578390D02*
X115038095Y-99530771D01*
X115038095Y-99530771D02*
X115276190Y-99530771D01*
X115276190Y-99530771D02*
X115371428Y-99578390D01*
X115371428Y-99578390D02*
X115419047Y-99626009D01*
X115419047Y-99626009D02*
X115466666Y-99721247D01*
X115466666Y-99721247D02*
X115466666Y-99959342D01*
X115466666Y-99959342D02*
X115419047Y-100054580D01*
X115419047Y-100054580D02*
X115371428Y-100102200D01*
X115371428Y-100102200D02*
X115276190Y-100149819D01*
X115276190Y-100149819D02*
X115038095Y-100149819D01*
X115038095Y-100149819D02*
X114942857Y-100102200D01*
X114942857Y-100102200D02*
X114895238Y-100054580D01*
X155583095Y-100176819D02*
X156154523Y-100176819D01*
X155868809Y-101176819D02*
X155868809Y-100176819D01*
X156487857Y-101176819D02*
X156487857Y-100176819D01*
X156487857Y-100176819D02*
X156868809Y-100176819D01*
X156868809Y-100176819D02*
X156964047Y-100224438D01*
X156964047Y-100224438D02*
X157011666Y-100272057D01*
X157011666Y-100272057D02*
X157059285Y-100367295D01*
X157059285Y-100367295D02*
X157059285Y-100510152D01*
X157059285Y-100510152D02*
X157011666Y-100605390D01*
X157011666Y-100605390D02*
X156964047Y-100653009D01*
X156964047Y-100653009D02*
X156868809Y-100700628D01*
X156868809Y-100700628D02*
X156487857Y-100700628D01*
X157440238Y-100272057D02*
X157487857Y-100224438D01*
X157487857Y-100224438D02*
X157583095Y-100176819D01*
X157583095Y-100176819D02*
X157821190Y-100176819D01*
X157821190Y-100176819D02*
X157916428Y-100224438D01*
X157916428Y-100224438D02*
X157964047Y-100272057D01*
X157964047Y-100272057D02*
X158011666Y-100367295D01*
X158011666Y-100367295D02*
X158011666Y-100462533D01*
X158011666Y-100462533D02*
X157964047Y-100605390D01*
X157964047Y-100605390D02*
X157392619Y-101176819D01*
X157392619Y-101176819D02*
X158011666Y-101176819D01*
D11*
X180914524Y-95824318D02*
X180491190Y-95219556D01*
X180188809Y-95824318D02*
X180188809Y-94554318D01*
X180188809Y-94554318D02*
X180672619Y-94554318D01*
X180672619Y-94554318D02*
X180793571Y-94614794D01*
X180793571Y-94614794D02*
X180854048Y-94675270D01*
X180854048Y-94675270D02*
X180914524Y-94796222D01*
X180914524Y-94796222D02*
X180914524Y-94977651D01*
X180914524Y-94977651D02*
X180854048Y-95098603D01*
X180854048Y-95098603D02*
X180793571Y-95159080D01*
X180793571Y-95159080D02*
X180672619Y-95219556D01*
X180672619Y-95219556D02*
X180188809Y-95219556D01*
X182124048Y-95824318D02*
X181398333Y-95824318D01*
X181761190Y-95824318D02*
X181761190Y-94554318D01*
X181761190Y-94554318D02*
X181640238Y-94735746D01*
X181640238Y-94735746D02*
X181519286Y-94856699D01*
X181519286Y-94856699D02*
X181398333Y-94917175D01*
X182668333Y-95824318D02*
X182668333Y-94554318D01*
X182789286Y-95340508D02*
X183152143Y-95824318D01*
X183152143Y-94977651D02*
X182668333Y-95461461D01*
X184240714Y-94977651D02*
X184240714Y-95824318D01*
X183938333Y-94493842D02*
X183635952Y-95400984D01*
X183635952Y-95400984D02*
X184422143Y-95400984D01*
X119803333Y-96973365D02*
X119742857Y-97033842D01*
X119742857Y-97033842D02*
X119561428Y-97094318D01*
X119561428Y-97094318D02*
X119440476Y-97094318D01*
X119440476Y-97094318D02*
X119259047Y-97033842D01*
X119259047Y-97033842D02*
X119138095Y-96912889D01*
X119138095Y-96912889D02*
X119077618Y-96791937D01*
X119077618Y-96791937D02*
X119017142Y-96550032D01*
X119017142Y-96550032D02*
X119017142Y-96368603D01*
X119017142Y-96368603D02*
X119077618Y-96126699D01*
X119077618Y-96126699D02*
X119138095Y-96005746D01*
X119138095Y-96005746D02*
X119259047Y-95884794D01*
X119259047Y-95884794D02*
X119440476Y-95824318D01*
X119440476Y-95824318D02*
X119561428Y-95824318D01*
X119561428Y-95824318D02*
X119742857Y-95884794D01*
X119742857Y-95884794D02*
X119803333Y-95945270D01*
X120952380Y-95824318D02*
X120347618Y-95824318D01*
X120347618Y-95824318D02*
X120287142Y-96429080D01*
X120287142Y-96429080D02*
X120347618Y-96368603D01*
X120347618Y-96368603D02*
X120468571Y-96308127D01*
X120468571Y-96308127D02*
X120770952Y-96308127D01*
X120770952Y-96308127D02*
X120891904Y-96368603D01*
X120891904Y-96368603D02*
X120952380Y-96429080D01*
X120952380Y-96429080D02*
X121012857Y-96550032D01*
X121012857Y-96550032D02*
X121012857Y-96852413D01*
X121012857Y-96852413D02*
X120952380Y-96973365D01*
X120952380Y-96973365D02*
X120891904Y-97033842D01*
X120891904Y-97033842D02*
X120770952Y-97094318D01*
X120770952Y-97094318D02*
X120468571Y-97094318D01*
X120468571Y-97094318D02*
X120347618Y-97033842D01*
X120347618Y-97033842D02*
X120287142Y-96973365D01*
D12*
X118753095Y-91531819D02*
X119324523Y-91531819D01*
X119038809Y-92531819D02*
X119038809Y-91531819D01*
X119657857Y-92531819D02*
X119657857Y-91531819D01*
X119657857Y-91531819D02*
X120038809Y-91531819D01*
X120038809Y-91531819D02*
X120134047Y-91579438D01*
X120134047Y-91579438D02*
X120181666Y-91627057D01*
X120181666Y-91627057D02*
X120229285Y-91722295D01*
X120229285Y-91722295D02*
X120229285Y-91865152D01*
X120229285Y-91865152D02*
X120181666Y-91960390D01*
X120181666Y-91960390D02*
X120134047Y-92008009D01*
X120134047Y-92008009D02*
X120038809Y-92055628D01*
X120038809Y-92055628D02*
X119657857Y-92055628D01*
X121181666Y-92531819D02*
X120610238Y-92531819D01*
X120895952Y-92531819D02*
X120895952Y-91531819D01*
X120895952Y-91531819D02*
X120800714Y-91674676D01*
X120800714Y-91674676D02*
X120705476Y-91769914D01*
X120705476Y-91769914D02*
X120610238Y-91817533D01*
D13*
X132937380Y-102174526D02*
X132604047Y-101569764D01*
X132365952Y-102174526D02*
X132365952Y-100904526D01*
X132365952Y-100904526D02*
X132746904Y-100904526D01*
X132746904Y-100904526D02*
X132842142Y-100965002D01*
X132842142Y-100965002D02*
X132889761Y-101025478D01*
X132889761Y-101025478D02*
X132937380Y-101146430D01*
X132937380Y-101146430D02*
X132937380Y-101327859D01*
X132937380Y-101327859D02*
X132889761Y-101448811D01*
X132889761Y-101448811D02*
X132842142Y-101509288D01*
X132842142Y-101509288D02*
X132746904Y-101569764D01*
X132746904Y-101569764D02*
X132365952Y-101569764D01*
X133889761Y-102174526D02*
X133318333Y-102174526D01*
X133604047Y-102174526D02*
X133604047Y-100904526D01*
X133604047Y-100904526D02*
X133508809Y-101085954D01*
X133508809Y-101085954D02*
X133413571Y-101206907D01*
X133413571Y-101206907D02*
X133318333Y-101267383D01*
X134318333Y-102174526D02*
X134318333Y-100904526D01*
X134413571Y-101690716D02*
X134699285Y-102174526D01*
X134699285Y-101327859D02*
X134318333Y-101811669D01*
X135651666Y-102174526D02*
X135080238Y-102174526D01*
X135365952Y-102174526D02*
X135365952Y-100904526D01*
X135365952Y-100904526D02*
X135270714Y-101085954D01*
X135270714Y-101085954D02*
X135175476Y-101206907D01*
X135175476Y-101206907D02*
X135080238Y-101267383D01*
D11*
X126788333Y-98364318D02*
X126364999Y-97759556D01*
X126062618Y-98364318D02*
X126062618Y-97094318D01*
X126062618Y-97094318D02*
X126546428Y-97094318D01*
X126546428Y-97094318D02*
X126667380Y-97154794D01*
X126667380Y-97154794D02*
X126727857Y-97215270D01*
X126727857Y-97215270D02*
X126788333Y-97336222D01*
X126788333Y-97336222D02*
X126788333Y-97517651D01*
X126788333Y-97517651D02*
X126727857Y-97638603D01*
X126727857Y-97638603D02*
X126667380Y-97699080D01*
X126667380Y-97699080D02*
X126546428Y-97759556D01*
X126546428Y-97759556D02*
X126062618Y-97759556D01*
X127997857Y-98364318D02*
X127272142Y-98364318D01*
X127634999Y-98364318D02*
X127634999Y-97094318D01*
X127634999Y-97094318D02*
X127514047Y-97275746D01*
X127514047Y-97275746D02*
X127393095Y-97396699D01*
X127393095Y-97396699D02*
X127272142Y-97457175D01*
X160322380Y-92588842D02*
X160503809Y-92649318D01*
X160503809Y-92649318D02*
X160806190Y-92649318D01*
X160806190Y-92649318D02*
X160927142Y-92588842D01*
X160927142Y-92588842D02*
X160987618Y-92528365D01*
X160987618Y-92528365D02*
X161048095Y-92407413D01*
X161048095Y-92407413D02*
X161048095Y-92286461D01*
X161048095Y-92286461D02*
X160987618Y-92165508D01*
X160987618Y-92165508D02*
X160927142Y-92105032D01*
X160927142Y-92105032D02*
X160806190Y-92044556D01*
X160806190Y-92044556D02*
X160564285Y-91984080D01*
X160564285Y-91984080D02*
X160443333Y-91923603D01*
X160443333Y-91923603D02*
X160382856Y-91863127D01*
X160382856Y-91863127D02*
X160322380Y-91742175D01*
X160322380Y-91742175D02*
X160322380Y-91621222D01*
X160322380Y-91621222D02*
X160382856Y-91500270D01*
X160382856Y-91500270D02*
X160443333Y-91439794D01*
X160443333Y-91439794D02*
X160564285Y-91379318D01*
X160564285Y-91379318D02*
X160866666Y-91379318D01*
X160866666Y-91379318D02*
X161048095Y-91439794D01*
X162257619Y-92649318D02*
X161531904Y-92649318D01*
X161894761Y-92649318D02*
X161894761Y-91379318D01*
X161894761Y-91379318D02*
X161773809Y-91560746D01*
X161773809Y-91560746D02*
X161652857Y-91681699D01*
X161652857Y-91681699D02*
X161531904Y-91742175D01*
X132832619Y-98044318D02*
X132465952Y-97439556D01*
X132204047Y-98044318D02*
X132204047Y-96774318D01*
X132204047Y-96774318D02*
X132623095Y-96774318D01*
X132623095Y-96774318D02*
X132727857Y-96834794D01*
X132727857Y-96834794D02*
X132780238Y-96895270D01*
X132780238Y-96895270D02*
X132832619Y-97016222D01*
X132832619Y-97016222D02*
X132832619Y-97197651D01*
X132832619Y-97197651D02*
X132780238Y-97318603D01*
X132780238Y-97318603D02*
X132727857Y-97379080D01*
X132727857Y-97379080D02*
X132623095Y-97439556D01*
X132623095Y-97439556D02*
X132204047Y-97439556D01*
X133880238Y-98044318D02*
X133251666Y-98044318D01*
X133565952Y-98044318D02*
X133565952Y-96774318D01*
X133565952Y-96774318D02*
X133461190Y-96955746D01*
X133461190Y-96955746D02*
X133356428Y-97076699D01*
X133356428Y-97076699D02*
X133251666Y-97137175D01*
X134351666Y-98044318D02*
X134351666Y-96774318D01*
X134456428Y-97560508D02*
X134770714Y-98044318D01*
X134770714Y-97197651D02*
X134351666Y-97681461D01*
X135189761Y-96895270D02*
X135242142Y-96834794D01*
X135242142Y-96834794D02*
X135346904Y-96774318D01*
X135346904Y-96774318D02*
X135608809Y-96774318D01*
X135608809Y-96774318D02*
X135713571Y-96834794D01*
X135713571Y-96834794D02*
X135765952Y-96895270D01*
X135765952Y-96895270D02*
X135818333Y-97016222D01*
X135818333Y-97016222D02*
X135818333Y-97137175D01*
X135818333Y-97137175D02*
X135765952Y-97318603D01*
X135765952Y-97318603D02*
X135137380Y-98044318D01*
X135137380Y-98044318D02*
X135818333Y-98044318D01*
X122978333Y-97608365D02*
X122917857Y-97668842D01*
X122917857Y-97668842D02*
X122736428Y-97729318D01*
X122736428Y-97729318D02*
X122615476Y-97729318D01*
X122615476Y-97729318D02*
X122434047Y-97668842D01*
X122434047Y-97668842D02*
X122313095Y-97547889D01*
X122313095Y-97547889D02*
X122252618Y-97426937D01*
X122252618Y-97426937D02*
X122192142Y-97185032D01*
X122192142Y-97185032D02*
X122192142Y-97003603D01*
X122192142Y-97003603D02*
X122252618Y-96761699D01*
X122252618Y-96761699D02*
X122313095Y-96640746D01*
X122313095Y-96640746D02*
X122434047Y-96519794D01*
X122434047Y-96519794D02*
X122615476Y-96459318D01*
X122615476Y-96459318D02*
X122736428Y-96459318D01*
X122736428Y-96459318D02*
X122917857Y-96519794D01*
X122917857Y-96519794D02*
X122978333Y-96580270D01*
X124066904Y-96459318D02*
X123824999Y-96459318D01*
X123824999Y-96459318D02*
X123704047Y-96519794D01*
X123704047Y-96519794D02*
X123643571Y-96580270D01*
X123643571Y-96580270D02*
X123522618Y-96761699D01*
X123522618Y-96761699D02*
X123462142Y-97003603D01*
X123462142Y-97003603D02*
X123462142Y-97487413D01*
X123462142Y-97487413D02*
X123522618Y-97608365D01*
X123522618Y-97608365D02*
X123583095Y-97668842D01*
X123583095Y-97668842D02*
X123704047Y-97729318D01*
X123704047Y-97729318D02*
X123945952Y-97729318D01*
X123945952Y-97729318D02*
X124066904Y-97668842D01*
X124066904Y-97668842D02*
X124127380Y-97608365D01*
X124127380Y-97608365D02*
X124187857Y-97487413D01*
X124187857Y-97487413D02*
X124187857Y-97185032D01*
X124187857Y-97185032D02*
X124127380Y-97064080D01*
X124127380Y-97064080D02*
X124066904Y-97003603D01*
X124066904Y-97003603D02*
X123945952Y-96943127D01*
X123945952Y-96943127D02*
X123704047Y-96943127D01*
X123704047Y-96943127D02*
X123583095Y-97003603D01*
X123583095Y-97003603D02*
X123522618Y-97064080D01*
X123522618Y-97064080D02*
X123462142Y-97185032D01*
D12*
X112403095Y-91529819D02*
X112974523Y-91529819D01*
X112688809Y-92529819D02*
X112688809Y-91529819D01*
X113307857Y-92529819D02*
X113307857Y-91529819D01*
X113307857Y-91529819D02*
X113688809Y-91529819D01*
X113688809Y-91529819D02*
X113784047Y-91577438D01*
X113784047Y-91577438D02*
X113831666Y-91625057D01*
X113831666Y-91625057D02*
X113879285Y-91720295D01*
X113879285Y-91720295D02*
X113879285Y-91863152D01*
X113879285Y-91863152D02*
X113831666Y-91958390D01*
X113831666Y-91958390D02*
X113784047Y-92006009D01*
X113784047Y-92006009D02*
X113688809Y-92053628D01*
X113688809Y-92053628D02*
X113307857Y-92053628D01*
X114736428Y-91529819D02*
X114545952Y-91529819D01*
X114545952Y-91529819D02*
X114450714Y-91577438D01*
X114450714Y-91577438D02*
X114403095Y-91625057D01*
X114403095Y-91625057D02*
X114307857Y-91767914D01*
X114307857Y-91767914D02*
X114260238Y-91958390D01*
X114260238Y-91958390D02*
X114260238Y-92339342D01*
X114260238Y-92339342D02*
X114307857Y-92434580D01*
X114307857Y-92434580D02*
X114355476Y-92482200D01*
X114355476Y-92482200D02*
X114450714Y-92529819D01*
X114450714Y-92529819D02*
X114641190Y-92529819D01*
X114641190Y-92529819D02*
X114736428Y-92482200D01*
X114736428Y-92482200D02*
X114784047Y-92434580D01*
X114784047Y-92434580D02*
X114831666Y-92339342D01*
X114831666Y-92339342D02*
X114831666Y-92101247D01*
X114831666Y-92101247D02*
X114784047Y-92006009D01*
X114784047Y-92006009D02*
X114736428Y-91958390D01*
X114736428Y-91958390D02*
X114641190Y-91910771D01*
X114641190Y-91910771D02*
X114450714Y-91910771D01*
X114450714Y-91910771D02*
X114355476Y-91958390D01*
X114355476Y-91958390D02*
X114307857Y-92006009D01*
X114307857Y-92006009D02*
X114260238Y-92101247D01*
X164473095Y-91529819D02*
X165044523Y-91529819D01*
X164758809Y-92529819D02*
X164758809Y-91529819D01*
X165377857Y-92529819D02*
X165377857Y-91529819D01*
X165377857Y-91529819D02*
X165758809Y-91529819D01*
X165758809Y-91529819D02*
X165854047Y-91577438D01*
X165854047Y-91577438D02*
X165901666Y-91625057D01*
X165901666Y-91625057D02*
X165949285Y-91720295D01*
X165949285Y-91720295D02*
X165949285Y-91863152D01*
X165949285Y-91863152D02*
X165901666Y-91958390D01*
X165901666Y-91958390D02*
X165854047Y-92006009D01*
X165854047Y-92006009D02*
X165758809Y-92053628D01*
X165758809Y-92053628D02*
X165377857Y-92053628D01*
X166282619Y-91529819D02*
X166901666Y-91529819D01*
X166901666Y-91529819D02*
X166568333Y-91910771D01*
X166568333Y-91910771D02*
X166711190Y-91910771D01*
X166711190Y-91910771D02*
X166806428Y-91958390D01*
X166806428Y-91958390D02*
X166854047Y-92006009D01*
X166854047Y-92006009D02*
X166901666Y-92101247D01*
X166901666Y-92101247D02*
X166901666Y-92339342D01*
X166901666Y-92339342D02*
X166854047Y-92434580D01*
X166854047Y-92434580D02*
X166806428Y-92482200D01*
X166806428Y-92482200D02*
X166711190Y-92529819D01*
X166711190Y-92529819D02*
X166425476Y-92529819D01*
X166425476Y-92529819D02*
X166330238Y-92482200D01*
X166330238Y-92482200D02*
X166282619Y-92434580D01*
X137461666Y-122644819D02*
X137461666Y-123359104D01*
X137461666Y-123359104D02*
X137414047Y-123501961D01*
X137414047Y-123501961D02*
X137318809Y-123597200D01*
X137318809Y-123597200D02*
X137175952Y-123644819D01*
X137175952Y-123644819D02*
X137080714Y-123644819D01*
X138461666Y-123644819D02*
X137890238Y-123644819D01*
X138175952Y-123644819D02*
X138175952Y-122644819D01*
X138175952Y-122644819D02*
X138080714Y-122787676D01*
X138080714Y-122787676D02*
X137985476Y-122882914D01*
X137985476Y-122882914D02*
X137890238Y-122930533D01*
D11*
X184573333Y-107133365D02*
X184512857Y-107193842D01*
X184512857Y-107193842D02*
X184331428Y-107254318D01*
X184331428Y-107254318D02*
X184210476Y-107254318D01*
X184210476Y-107254318D02*
X184029047Y-107193842D01*
X184029047Y-107193842D02*
X183908095Y-107072889D01*
X183908095Y-107072889D02*
X183847618Y-106951937D01*
X183847618Y-106951937D02*
X183787142Y-106710032D01*
X183787142Y-106710032D02*
X183787142Y-106528603D01*
X183787142Y-106528603D02*
X183847618Y-106286699D01*
X183847618Y-106286699D02*
X183908095Y-106165746D01*
X183908095Y-106165746D02*
X184029047Y-106044794D01*
X184029047Y-106044794D02*
X184210476Y-105984318D01*
X184210476Y-105984318D02*
X184331428Y-105984318D01*
X184331428Y-105984318D02*
X184512857Y-106044794D01*
X184512857Y-106044794D02*
X184573333Y-106105270D01*
X185661904Y-106407651D02*
X185661904Y-107254318D01*
X185359523Y-105923842D02*
X185057142Y-106830984D01*
X185057142Y-106830984D02*
X185843333Y-106830984D01*
X140123333Y-109038365D02*
X140062857Y-109098842D01*
X140062857Y-109098842D02*
X139881428Y-109159318D01*
X139881428Y-109159318D02*
X139760476Y-109159318D01*
X139760476Y-109159318D02*
X139579047Y-109098842D01*
X139579047Y-109098842D02*
X139458095Y-108977889D01*
X139458095Y-108977889D02*
X139397618Y-108856937D01*
X139397618Y-108856937D02*
X139337142Y-108615032D01*
X139337142Y-108615032D02*
X139337142Y-108433603D01*
X139337142Y-108433603D02*
X139397618Y-108191699D01*
X139397618Y-108191699D02*
X139458095Y-108070746D01*
X139458095Y-108070746D02*
X139579047Y-107949794D01*
X139579047Y-107949794D02*
X139760476Y-107889318D01*
X139760476Y-107889318D02*
X139881428Y-107889318D01*
X139881428Y-107889318D02*
X140062857Y-107949794D01*
X140062857Y-107949794D02*
X140123333Y-108010270D01*
X141332857Y-109159318D02*
X140607142Y-109159318D01*
X140969999Y-109159318D02*
X140969999Y-107889318D01*
X140969999Y-107889318D02*
X140849047Y-108070746D01*
X140849047Y-108070746D02*
X140728095Y-108191699D01*
X140728095Y-108191699D02*
X140607142Y-108252175D01*
D12*
X171251666Y-104864819D02*
X171251666Y-105579104D01*
X171251666Y-105579104D02*
X171204047Y-105721961D01*
X171204047Y-105721961D02*
X171108809Y-105817200D01*
X171108809Y-105817200D02*
X170965952Y-105864819D01*
X170965952Y-105864819D02*
X170870714Y-105864819D01*
X171727857Y-105864819D02*
X171727857Y-104864819D01*
X171727857Y-104864819D02*
X172108809Y-104864819D01*
X172108809Y-104864819D02*
X172204047Y-104912438D01*
X172204047Y-104912438D02*
X172251666Y-104960057D01*
X172251666Y-104960057D02*
X172299285Y-105055295D01*
X172299285Y-105055295D02*
X172299285Y-105198152D01*
X172299285Y-105198152D02*
X172251666Y-105293390D01*
X172251666Y-105293390D02*
X172204047Y-105341009D01*
X172204047Y-105341009D02*
X172108809Y-105388628D01*
X172108809Y-105388628D02*
X171727857Y-105388628D01*
X172680238Y-104960057D02*
X172727857Y-104912438D01*
X172727857Y-104912438D02*
X172823095Y-104864819D01*
X172823095Y-104864819D02*
X173061190Y-104864819D01*
X173061190Y-104864819D02*
X173156428Y-104912438D01*
X173156428Y-104912438D02*
X173204047Y-104960057D01*
X173204047Y-104960057D02*
X173251666Y-105055295D01*
X173251666Y-105055295D02*
X173251666Y-105150533D01*
X173251666Y-105150533D02*
X173204047Y-105293390D01*
X173204047Y-105293390D02*
X172632619Y-105864819D01*
X172632619Y-105864819D02*
X173251666Y-105864819D01*
X151494819Y-97123333D02*
X152209104Y-97123333D01*
X152209104Y-97123333D02*
X152351961Y-97170952D01*
X152351961Y-97170952D02*
X152447200Y-97266190D01*
X152447200Y-97266190D02*
X152494819Y-97409047D01*
X152494819Y-97409047D02*
X152494819Y-97504285D01*
X151494819Y-96742380D02*
X151494819Y-96123333D01*
X151494819Y-96123333D02*
X151875771Y-96456666D01*
X151875771Y-96456666D02*
X151875771Y-96313809D01*
X151875771Y-96313809D02*
X151923390Y-96218571D01*
X151923390Y-96218571D02*
X151971009Y-96170952D01*
X151971009Y-96170952D02*
X152066247Y-96123333D01*
X152066247Y-96123333D02*
X152304342Y-96123333D01*
X152304342Y-96123333D02*
X152399580Y-96170952D01*
X152399580Y-96170952D02*
X152447200Y-96218571D01*
X152447200Y-96218571D02*
X152494819Y-96313809D01*
X152494819Y-96313809D02*
X152494819Y-96599523D01*
X152494819Y-96599523D02*
X152447200Y-96694761D01*
X152447200Y-96694761D02*
X152399580Y-96742380D01*
D11*
X126153333Y-94554318D02*
X125729999Y-93949556D01*
X125427618Y-94554318D02*
X125427618Y-93284318D01*
X125427618Y-93284318D02*
X125911428Y-93284318D01*
X125911428Y-93284318D02*
X126032380Y-93344794D01*
X126032380Y-93344794D02*
X126092857Y-93405270D01*
X126092857Y-93405270D02*
X126153333Y-93526222D01*
X126153333Y-93526222D02*
X126153333Y-93707651D01*
X126153333Y-93707651D02*
X126092857Y-93828603D01*
X126092857Y-93828603D02*
X126032380Y-93889080D01*
X126032380Y-93889080D02*
X125911428Y-93949556D01*
X125911428Y-93949556D02*
X125427618Y-93949556D01*
X126637142Y-93405270D02*
X126697618Y-93344794D01*
X126697618Y-93344794D02*
X126818571Y-93284318D01*
X126818571Y-93284318D02*
X127120952Y-93284318D01*
X127120952Y-93284318D02*
X127241904Y-93344794D01*
X127241904Y-93344794D02*
X127302380Y-93405270D01*
X127302380Y-93405270D02*
X127362857Y-93526222D01*
X127362857Y-93526222D02*
X127362857Y-93647175D01*
X127362857Y-93647175D02*
X127302380Y-93828603D01*
X127302380Y-93828603D02*
X126576666Y-94554318D01*
X126576666Y-94554318D02*
X127362857Y-94554318D01*
D14*
%TO.C,J2*%
X143650000Y-100265000D02*
X145175000Y-100265000D01*
D11*
%TO.C,IC1*%
X118960000Y-102220000D02*
G75*
G02*
X118710000Y-102220000I-125000J0D01*
G01*
X118710000Y-102220000D02*
G75*
G02*
X118960000Y-102220000I125000J0D01*
G01*
D14*
%TO.C,LED1*%
X138875000Y-92795000D02*
X138875000Y-95095000D01*
X138875000Y-95095000D02*
X140525000Y-95095000D01*
X140525000Y-95095000D02*
X140525000Y-92795000D01*
D11*
%TO.C,IC2*%
X178650000Y-104760000D02*
G75*
G02*
X178400000Y-104760000I-125000J0D01*
G01*
X178400000Y-104760000D02*
G75*
G02*
X178650000Y-104760000I125000J0D01*
G01*
D14*
%TO.C,LED2*%
X147130000Y-92480000D02*
X147130000Y-94780000D01*
X147130000Y-94780000D02*
X148780000Y-94780000D01*
X148780000Y-94780000D02*
X148780000Y-92480000D01*
%TO.C,Q1*%
X173710000Y-95680000D02*
X174310000Y-95680000D01*
X173710000Y-98630000D02*
X173710000Y-95680000D01*
X174310000Y-95680000D02*
X174310000Y-98630000D01*
X174310000Y-98630000D02*
X173710000Y-98630000D01*
X175860000Y-98655000D02*
X174660000Y-98655000D01*
D15*
%TO.C,JP1*%
X171955000Y-93645000D02*
X171955000Y-93045000D01*
X172655000Y-92345000D02*
X174055000Y-92345000D01*
X174055000Y-94345000D02*
X172655000Y-94345000D01*
X174755000Y-93045000D02*
X174755000Y-93645000D01*
X171955000Y-93045000D02*
G75*
G02*
X172655000Y-92345000I699999J1D01*
G01*
X172655000Y-94345000D02*
G75*
G02*
X171955000Y-93645000I-1J699999D01*
G01*
X174055000Y-92345000D02*
G75*
G02*
X174755000Y-93045000I0J-700000D01*
G01*
X174755000Y-93645000D02*
G75*
G02*
X174055000Y-94345000I-700000J0D01*
G01*
D14*
%TO.C,R1k3*%
X148493000Y-97155000D02*
X147417000Y-97155000D01*
D15*
%TO.C,TP5*%
X117020000Y-97155000D02*
G75*
G02*
X114120000Y-97155000I-1450000J0D01*
G01*
X114120000Y-97155000D02*
G75*
G02*
X117020000Y-97155000I1450000J0D01*
G01*
%TO.C,TP2*%
X158295000Y-102870000D02*
G75*
G02*
X155395000Y-102870000I-1450000J0D01*
G01*
X155395000Y-102870000D02*
G75*
G02*
X158295000Y-102870000I1450000J0D01*
G01*
D14*
%TO.C,R1k4*%
X181610000Y-97252000D02*
X181610000Y-98328000D01*
D15*
%TO.C,TP1*%
X124005000Y-93980000D02*
G75*
G02*
X121105000Y-93980000I-1450000J0D01*
G01*
X121105000Y-93980000D02*
G75*
G02*
X124005000Y-93980000I1450000J0D01*
G01*
D14*
%TO.C,R1k1*%
X140385000Y-101062000D02*
X140385000Y-102138000D01*
%TO.C,R1*%
X129002000Y-98745000D02*
X130078000Y-98745000D01*
%TO.C,S1*%
X162005000Y-95510000D02*
X162005000Y-96260000D01*
X162005000Y-101860000D02*
X162005000Y-102610000D01*
X162005000Y-102610000D02*
X166005000Y-102610000D01*
X166005000Y-95510000D02*
X162005000Y-95510000D01*
X166005000Y-96260000D02*
X166005000Y-95510000D01*
X166005000Y-102610000D02*
X166005000Y-101860000D01*
D16*
X168505000Y-97060000D02*
X168505000Y-97060000D01*
X168605000Y-97060000D02*
X168605000Y-97060000D01*
X168505000Y-97060000D02*
G75*
G02*
X168605000Y-97060000I50000J0D01*
G01*
X168605000Y-97060000D02*
G75*
G02*
X168505000Y-97060000I-50000J0D01*
G01*
D14*
%TO.C,R1k2*%
X140238000Y-97470000D02*
X139162000Y-97470000D01*
D15*
%TO.C,TP6*%
X118290000Y-93345000D02*
G75*
G02*
X115390000Y-93345000I-1450000J0D01*
G01*
X115390000Y-93345000D02*
G75*
G02*
X118290000Y-93345000I1450000J0D01*
G01*
%TO.C,TP3*%
X170995000Y-92710000D02*
G75*
G02*
X168095000Y-92710000I-1450000J0D01*
G01*
X168095000Y-92710000D02*
G75*
G02*
X170995000Y-92710000I1450000J0D01*
G01*
%TO.C,J1*%
X139640000Y-118050000D02*
X139640000Y-119380000D01*
X139640000Y-120650000D02*
X139640000Y-123250000D01*
X139640000Y-123250000D02*
X160080000Y-123250000D01*
X140970000Y-118050000D02*
X139640000Y-118050000D01*
X142240000Y-118050000D02*
X142240000Y-120650000D01*
X142240000Y-118050000D02*
X160080000Y-118050000D01*
X142240000Y-120650000D02*
X139640000Y-120650000D01*
X160080000Y-118050000D02*
X160080000Y-123250000D01*
%TO.C,JP2*%
X170685000Y-102535000D02*
X170685000Y-101935000D01*
X171385000Y-101235000D02*
X172785000Y-101235000D01*
X172785000Y-103235000D02*
X171385000Y-103235000D01*
X173485000Y-101935000D02*
X173485000Y-102535000D01*
X170685000Y-101935000D02*
G75*
G02*
X171385000Y-101235000I700000J0D01*
G01*
X171385000Y-103235000D02*
G75*
G02*
X170685000Y-102535000I0J700000D01*
G01*
X172785000Y-101235000D02*
G75*
G02*
X173485000Y-101935000I1J-699999D01*
G01*
X173485000Y-102535000D02*
G75*
G02*
X172785000Y-103235000I-699999J-1D01*
G01*
%TO.C,J3*%
X152830000Y-98900000D02*
X152830000Y-100150000D01*
X152830000Y-100150000D02*
X154080000Y-100150000D01*
X152930000Y-98090000D02*
X152930000Y-98390000D01*
X152930000Y-98390000D02*
X153130000Y-98390000D01*
X153030000Y-98090000D02*
X153030000Y-98390000D01*
X153130000Y-93730000D02*
X153130000Y-99850000D01*
X153130000Y-97290000D02*
X153740000Y-97290000D01*
X153130000Y-98090000D02*
X152930000Y-98090000D01*
X153130000Y-99850000D02*
X157850000Y-99850000D01*
X153740000Y-94340000D02*
X153740000Y-96290000D01*
X153740000Y-96290000D02*
X153130000Y-96290000D01*
X153740000Y-97290000D02*
X153740000Y-99240000D01*
X153740000Y-99240000D02*
X157240000Y-99240000D01*
X154440000Y-93730000D02*
X154440000Y-94340000D01*
X154440000Y-99850000D02*
X154440000Y-99240000D01*
X155740000Y-93730000D02*
X155740000Y-94340000D01*
X155740000Y-99850000D02*
X155740000Y-99240000D01*
X156740000Y-96690000D02*
X157240000Y-96690000D01*
X156740000Y-96890000D02*
X156740000Y-96690000D01*
X157240000Y-94340000D02*
X153740000Y-94340000D01*
X157240000Y-96790000D02*
X156740000Y-96790000D01*
X157240000Y-96890000D02*
X156740000Y-96890000D01*
X157240000Y-99240000D02*
X157240000Y-94340000D01*
X157850000Y-93730000D02*
X153130000Y-93730000D01*
X157850000Y-99850000D02*
X157850000Y-93730000D01*
D14*
%TO.C,R2*%
X129002000Y-94300000D02*
X130078000Y-94300000D01*
%TD*%
D17*
%TO.C,S1*%
X164005000Y-96810000D03*
X164005000Y-101310000D03*
%TD*%
%LPC*%
D18*
%TO.C,C2*%
X152645000Y-104775000D03*
X154305000Y-104775000D03*
%TD*%
D19*
%TO.C,C3*%
X180515000Y-100965000D03*
X181435000Y-100965000D03*
%TD*%
D20*
%TO.C,J2*%
X144413000Y-100965000D03*
X144413000Y-102235000D03*
X144413000Y-103505000D03*
X144413000Y-104775000D03*
X149837000Y-104775000D03*
X149837000Y-103505000D03*
X149837000Y-102235000D03*
X149837000Y-100965000D03*
D21*
X147125000Y-102870000D03*
%TD*%
D22*
%TO.C,IC1*%
X119185000Y-102870000D03*
X119185000Y-103370000D03*
X119185000Y-103870000D03*
X119185000Y-104370000D03*
X121285000Y-104370000D03*
X121285000Y-103870000D03*
X121285000Y-103370000D03*
X121285000Y-102870000D03*
D23*
X120235000Y-103620000D03*
%TD*%
D24*
%TO.C,LED1*%
X139700000Y-94295000D03*
X139700000Y-92795000D03*
%TD*%
D22*
%TO.C,IC2*%
X178875000Y-105410000D03*
X178875000Y-105910000D03*
X178875000Y-106410000D03*
X178875000Y-106910000D03*
X180975000Y-106910000D03*
X180975000Y-106410000D03*
X180975000Y-105910000D03*
X180975000Y-105410000D03*
D23*
X179925000Y-106160000D03*
%TD*%
D24*
%TO.C,LED2*%
X147955000Y-93980000D03*
X147955000Y-92480000D03*
%TD*%
D25*
%TO.C,Q1*%
X175260000Y-98105000D03*
X175260000Y-96205000D03*
X172760000Y-97155000D03*
%TD*%
D26*
%TO.C,JP1*%
X172705000Y-93345000D03*
D27*
X174005000Y-93345000D03*
%TD*%
D28*
%TO.C,R1k3*%
X147955000Y-96205000D03*
X147955000Y-98105000D03*
%TD*%
D29*
%TO.C,TP5*%
X115570000Y-97155000D03*
%TD*%
%TO.C,TP2*%
X156845000Y-102870000D03*
%TD*%
D30*
%TO.C,R1k4*%
X180660000Y-97790000D03*
X182560000Y-97790000D03*
%TD*%
D31*
%TO.C,C5*%
X120015000Y-99520000D03*
X120015000Y-98600000D03*
%TD*%
D29*
%TO.C,TP1*%
X122555000Y-93980000D03*
%TD*%
D30*
%TO.C,R1k1*%
X139435000Y-101600000D03*
X141335000Y-101600000D03*
%TD*%
D28*
%TO.C,R1*%
X129540000Y-99695000D03*
X129540000Y-97795000D03*
%TD*%
D32*
%TO.C,S1*%
X167005000Y-97060000D03*
X167005000Y-99060000D03*
X167005000Y-101060000D03*
X161005000Y-97060000D03*
X161005000Y-99060000D03*
X161005000Y-101060000D03*
D17*
X164005000Y-96810000D03*
X164005000Y-101310000D03*
%TD*%
D28*
%TO.C,R1k2*%
X139700000Y-96520000D03*
X139700000Y-98420000D03*
%TD*%
D31*
%TO.C,C6*%
X123190000Y-99520000D03*
X123190000Y-98600000D03*
%TD*%
D29*
%TO.C,TP6*%
X116840000Y-93345000D03*
%TD*%
%TO.C,TP3*%
X169545000Y-92710000D03*
%TD*%
D33*
%TO.C,J1*%
X140970000Y-119380000D03*
D34*
X140970000Y-121920000D03*
X143510000Y-119380000D03*
X143510000Y-121920000D03*
X146050000Y-119380000D03*
X146050000Y-121920000D03*
X148590000Y-119380000D03*
X148590000Y-121920000D03*
X151130000Y-119380000D03*
X151130000Y-121920000D03*
X153670000Y-119380000D03*
X153670000Y-121920000D03*
X156210000Y-119380000D03*
X156210000Y-121920000D03*
X158750000Y-119380000D03*
X158750000Y-121920000D03*
%TD*%
D19*
%TO.C,C4*%
X183055000Y-103505000D03*
X183975000Y-103505000D03*
%TD*%
D18*
%TO.C,C1*%
X141215000Y-104775000D03*
X139555000Y-104775000D03*
%TD*%
D35*
%TO.C,JP2*%
X172735000Y-102235000D03*
D36*
X171435000Y-102235000D03*
%TD*%
D37*
%TO.C,J3*%
X154940000Y-97790000D03*
D38*
X154940000Y-95790000D03*
%TD*%
D28*
%TO.C,R2*%
X129540000Y-95250000D03*
X129540000Y-93350000D03*
%TD*%
%LPD*%
M02*
